<svg id="Layer_5" enable-background="new 0 0 64 64" height="512" viewBox="0 0 64 64" width="512" xmlns="http://www.w3.org/2000/svg"><g><g><g><path d="m35 25h-6v-5h6z" fill="#f0bc5e"/></g></g><g><path d="m18 24.584v-10.584h2.597c1.083 0 2.156-.101 3.21-.29l-.838-1.257c-1.855-2.782-4.977-4.453-8.321-4.453h-10.648c-1.105 0-2 .895-2 2 0 1.491.826 2.777 2.036 3.464l-.036-.002v.538c0 1.778.778 3.37 2.006 4.469l-.006-.001v1.532c0 1.776.776 3.366 2.002 4.465l-.002.005v1.53c0 3.314 2.686 6 6 6h.972c1.458 0 2.893-.319 4.205-.927l.002-.009c-.764-2.039-1.179-4.228-1.179-6.48z" fill="#f0bc5e"/></g><g><path d="m62 10c0-1.105-.895-2-2-2h-10.648c-3.344 0-6.466 1.671-8.321 4.453l-.838 1.257c1.054.188 2.127.29 3.21.29h2.597v10.584c0 2.253-.415 4.441-1.18 6.48l.002.009c1.313.608 2.747.927 4.206.927h.972c3.314 0 6-2.686 6-6v-1.53l-.002-.005c1.226-1.099 2.002-2.689 2.002-4.465v-1.532l-.006.001c1.228-1.099 2.006-2.691 2.006-4.469v-.538l-.036.003c1.21-.688 2.036-1.974 2.036-3.465z" fill="#f0bc5e"/></g><path d="m63 10c0-1.654-1.346-3-3-3h-10.648c-3.687 0-7.108 1.831-9.153 4.898l-.46.69c-2.585-.565-5.033-1.704-7.115-3.369l-.624-.5-.625.5c-2.081 1.665-4.53 2.804-7.115 3.369l-.46-.69c-2.044-3.067-5.466-4.898-9.152-4.898h-10.648c-1.654 0-3 1.346-3 3 0 1.627.793 3.061 2 3.974v.026c0 1.902.765 3.627 2 4.89v1.11c0 1.902.765 3.627 2 4.89v1.11c0 3.86 3.14 7 7 7h.972c.55 0 1.1-.057 1.647-.141l-6.041 22.587 8.2-2.343 5.784 4.627 4.203-15.301c1.035.375 2.136.571 3.235.571s2.2-.196 3.235-.571l4.203 15.301 5.784-4.627 8.2 2.343-6.04-22.587c.546.084 1.096.141 1.646.141h.972c3.86 0 7-3.14 7-7v-1.11c1.235-1.263 2-2.988 2-4.89v-1.11c1.235-1.263 2-2.988 2-4.89v-.026c1.207-.913 2-2.347 2-3.974zm-18 14.583c0 6.661-3.701 12.649-9.658 15.627-.734.367-1.53.597-2.342.703v-7.913h5c1.654 0 3-1.346 3-3v-8c0-1.654-1.346-3-3-3h-5v-7.066c3.091 1.982 6.714 3.066 10.403 3.066h1.597zm-26 0v-9.583h1.597c3.689 0 7.313-1.084 10.403-3.066v7.066h-5c-1.654 0-3 1.346-3 3v8c0 1.654 1.346 3 3 3h5v7.914c-.812-.106-1.608-.336-2.342-.703-5.957-2.979-9.658-8.967-9.658-15.628zm7 6.417c-.551 0-1-.449-1-1v-8c0-.551.449-1 1-1h12c.551 0 1 .449 1 1v8c0 .551-.449 1-1 1zm-12 0c-2.643 0-4.792-2.069-4.966-4.669.902.425 1.905.669 2.966.669h3v-2h-3c-2.643 0-4.792-2.069-4.966-4.669.902.425 1.905.669 2.966.669h3v-2h-3c-2.446 0-4.479-1.768-4.908-4.092.295.055.597.092.908.092h5v-2h-5c-1.654 0-3-1.346-3-3 0-.551.449-1 1-1h10.648c2.986 0 5.754 1.471 7.433 3.934-.493.043-.988.066-1.484.066h-3.597v11.583c0 2.049.325 4.036.919 5.916-.946.327-1.949.501-2.947.501zm9.438 23.27-3.301-2.64 2.827-10.366-1.93-.525-2.852 10.456-4.762 1.361 5.32-19.893c1.68 3.702 4.512 6.824 8.192 8.888zm22.378-3.077-2.852-10.456-1.93.525 2.827 10.366-3.301 2.64-3.495-12.721c3.679-2.063 6.512-5.186 8.192-8.888l5.32 19.894zm12.184-38.193h-5v2h5c.311 0 .613-.037.908-.092-.429 2.324-2.462 4.092-4.908 4.092h-3v2h3c1.061 0 2.064-.244 2.966-.669-.174 2.6-2.323 4.669-4.966 4.669h-3v2h3c1.061 0 2.064-.244 2.966-.669-.174 2.6-2.323 4.669-4.966 4.669h-.972c-.998 0-2.001-.174-2.947-.501.594-1.879.919-3.867.919-5.916v-11.583h-3.597c-.496 0-.992-.023-1.484-.066 1.679-2.463 4.448-3.934 7.433-3.934h10.648c.551 0 1 .449 1 1 0 1.654-1.346 3-3 3z"/></g></svg>