<svg xmlns="http://www.w3.org/2000/svg" height="512pt" version="1.1" viewBox="-61 0 512 512.00036" width="512pt">
<g id="surface1">
<path d="M 276.3125 314.941406 C 267.898438 314.941406 261.078125 321.761719 261.078125 330.175781 L 128.371094 330.171875 C 128.371094 321.757812 121.550781 314.9375 113.136719 314.9375 C 104.722656 314.9375 97.902344 321.757812 97.902344 330.171875 L 97.902344 496.765625 C 97.902344 502.046875 100.636719 506.949219 105.128906 509.726562 C 107.574219 511.238281 110.351562 512 113.136719 512 C 115.464844 512 117.800781 511.46875 119.949219 510.390625 L 194.726562 473.007812 L 269.496094 510.390625 C 274.21875 512.75 279.824219 512.5 284.320312 509.726562 C 288.808594 506.949219 291.546875 502.046875 291.546875 496.765625 L 291.546875 330.175781 C 291.546875 321.761719 284.722656 314.941406 276.3125 314.941406 Z M 276.3125 314.941406 " style=" stroke:none;fill-rule:nonzero;fill:rgb(100%,38.039216%,58.039216%);fill-opacity:1;" />
<path d="M 276.3125 314.941406 C 267.898438 314.941406 261.078125 321.761719 261.078125 330.175781 L 194.726562 330.171875 L 194.726562 473.007812 L 269.496094 510.390625 C 274.21875 512.75 279.824219 512.5 284.320312 509.726562 C 288.808594 506.949219 291.546875 502.046875 300.859375 497.121094 L 300.859375 330.53125 C 291.546875 321.761719 284.722656 314.941406 276.3125 314.941406 Z M 276.3125 314.941406 " style=" stroke:none;fill-rule:nonzero;fill:rgb(100%,22.352941%,69.411765%);fill-opacity:1;" />
<path d="M 387.742188 178.929688 L 363.042969 131.25 L 354.996094 78.15625 C 354.253906 73.265625 351.183594 69.035156 346.761719 66.820312 L 298.75 42.761719 L 261.03125 4.53125 C 257.554688 1.011719 252.589844 -0.601562 247.707031 0.203125 L 194.726562 8.957031 L 141.746094 0.203125 C 136.863281 -0.597656 131.894531 1.011719 128.417969 4.535156 L 90.699219 42.757812 L 42.6875 66.820312 C 38.265625 69.035156 35.191406 73.261719 34.453125 78.15625 L 26.40625 131.25 L 1.707031 178.929688 C -0.570312 183.324219 -0.570312 188.550781 1.707031 192.941406 L 26.40625 240.628906 L 34.453125 293.71875 C 35.191406 298.613281 38.265625 302.839844 42.6875 305.058594 L 90.699219 329.117188 L 128.417969 367.34375 C 131.894531 370.867188 136.863281 372.484375 141.746094 371.675781 L 194.726562 362.917969 L 247.703125 371.675781 C 248.535156 371.8125 249.367188 371.878906 250.191406 371.878906 C 254.230469 371.878906 258.144531 370.269531 261.03125 367.34375 L 298.753906 329.117188 L 346.761719 305.058594 C 351.183594 302.839844 354.257812 298.613281 354.996094 293.71875 L 363.042969 240.628906 L 387.742188 192.941406 C 390.015625 188.550781 390.015625 183.324219 387.742188 178.929688 Z M 387.742188 178.929688 " style=" stroke:none;fill-rule:nonzero;fill:rgb(100%,81.960784%,16.862745%);fill-opacity:1;" />
<path d="M 387.742188 178.929688 L 363.042969 131.25 L 354.996094 78.15625 C 354.253906 73.265625 351.183594 69.035156 346.761719 66.820312 L 298.75 42.761719 L 261.03125 4.53125 C 257.554688 1.011719 252.589844 -0.601562 247.707031 0.203125 L 194.726562 8.957031 L 194.726562 362.917969 L 247.703125 371.675781 C 248.535156 371.8125 249.367188 371.878906 250.191406 371.878906 C 254.230469 371.878906 258.144531 370.269531 261.03125 367.34375 L 298.753906 329.121094 L 346.761719 305.058594 C 351.183594 302.839844 354.257812 298.613281 354.996094 293.722656 L 363.042969 240.628906 L 387.742188 192.945312 C 390.015625 188.550781 390.015625 183.324219 387.742188 178.929688 Z M 387.742188 178.929688 " style=" stroke:none;fill-rule:nonzero;fill:rgb(100%,55.686275%,11.372549%);fill-opacity:1;" />
<path d="M 194.726562 80.960938 C 136.839844 80.960938 89.746094 128.050781 89.746094 185.9375 C 89.746094 243.824219 136.839844 290.917969 194.726562 290.917969 C 252.609375 290.917969 299.703125 243.824219 299.703125 185.9375 C 299.703125 128.050781 252.609375 80.960938 194.726562 80.960938 Z M 194.726562 80.960938 " style=" stroke:none;fill-rule:nonzero;fill:rgb(100%,95.686275%,84.705882%);fill-opacity:1;" />
<path d="M 299.703125 185.9375 C 299.703125 128.050781 252.609375 80.960938 194.726562 80.960938 L 194.726562 290.917969 C 252.609375 290.917969 299.703125 243.824219 299.703125 185.9375 Z M 299.703125 185.9375 " style=" stroke:none;fill-rule:nonzero;fill:rgb(100%,84.705882%,39.215686%);fill-opacity:1;" />
</g>
</svg>