<svg id="icon" height="512" viewBox="0 0 128 128" width="512" xmlns="http://www.w3.org/2000/svg"><rect fill="#84879c" height="32.122" rx="4.264" width="19.515" x="96.919" y="92.339"/><path d="m112.169 125.462h-10.986a5.27 5.27 0 0 1 -5.264-5.264v-23.598a5.27 5.27 0 0 1 5.264-5.264h10.987a5.27 5.27 0 0 1 5.264 5.264v23.6a5.27 5.27 0 0 1 -5.265 5.262zm-10.986-32.123a3.268 3.268 0 0 0 -3.265 3.261v23.6a3.268 3.268 0 0 0 3.264 3.264h10.987a3.268 3.268 0 0 0 3.264-3.264v-23.6a3.268 3.268 0 0 0 -3.264-3.264z" fill="#2f3a5a"/><rect fill="#84879c" height="32.122" rx="4.264" width="19.515" x="11.566" y="92.339"/><path d="m26.817 125.462h-10.986a5.27 5.27 0 0 1 -5.264-5.264v-23.598a5.27 5.27 0 0 1 5.264-5.264h10.986a5.27 5.27 0 0 1 5.264 5.264v23.6a5.27 5.27 0 0 1 -5.264 5.262zm-10.986-32.123a3.268 3.268 0 0 0 -3.265 3.261v23.6a3.268 3.268 0 0 0 3.264 3.264h10.987a3.268 3.268 0 0 0 3.264-3.264v-23.6a3.268 3.268 0 0 0 -3.264-3.264z" fill="#2f3a5a"/><rect fill="#fac77c" height="103.768" rx="9.137" width="93" x="17.5" y="3.538"/><path d="m101.363 108.307h-74.726a10.148 10.148 0 0 1 -10.137-10.138v-85.494a10.148 10.148 0 0 1 10.137-10.137h74.727a10.148 10.148 0 0 1 10.136 10.137v85.494a10.148 10.148 0 0 1 -10.137 10.138zm-74.726-103.769a8.146 8.146 0 0 0 -8.137 8.137v85.494a8.146 8.146 0 0 0 8.137 8.137h74.727a8.146 8.146 0 0 0 8.137-8.137v-85.494a8.146 8.146 0 0 0 -8.137-8.137z" fill="#2f3a5a"/><path d="m110.5 19.9v-7.225a9.137 9.137 0 0 0 -9.137-9.137h-74.726a9.137 9.137 0 0 0 -9.137 9.137v7.225z" fill="#84879c"/><path d="m111.5 20.9h-95v-8.225a10.148 10.148 0 0 1 10.137-10.137h74.726a10.148 10.148 0 0 1 10.137 10.137zm-93-2h91v-6.225a8.146 8.146 0 0 0 -8.137-8.137h-74.726a8.146 8.146 0 0 0 -8.137 8.137z" fill="#2f3a5a"/><path d="m59.1 32.245v23.539c0 .674-.4 1.216-.9 1.216h-31.624c-.486 0-.884-.542-.884-1.216v-23.539c0-.663.4-1.2.884-1.2h31.624c.5-.005.9.537.9 1.2z" fill="#6bb3d9"/><path d="m102.31 32.245v23.539c0 .674-.4 1.216-.884 1.216h-31.64c-.486 0-.884-.542-.884-1.216v-23.539c0-.663.4-1.2.884-1.2h31.64c.486-.005.884.537.884 1.2z" fill="#6bb3d9"/><path d="m26.304 68.136h80.372v41.341h-80.372z" fill="#fac77c"/><path d="m106.676 110.477h-80.376a1 1 0 0 1 -1-1v-41.341a1 1 0 0 1 1-1h80.373a1 1 0 0 1 1 1v41.341a1 1 0 0 1 -.997 1zm-79.373-2h78.373v-39.341h-78.376z" fill="#2f3a5a"/><path d="m27.23 68.136h-11.812a6.838 6.838 0 0 0 -6.838 6.839v34.5h25.488v-34.5a6.838 6.838 0 0 0 -6.838-6.839z" fill="#fac77c"/><path d="m34.068 110.477h-25.488a1 1 0 0 1 -1-1v-34.5a7.847 7.847 0 0 1 7.838-7.838h11.811a7.847 7.847 0 0 1 7.838 7.838v34.5a1 1 0 0 1 -.999 1zm-24.488-2h23.488v-33.5a5.845 5.845 0 0 0 -5.838-5.838h-11.812a5.845 5.845 0 0 0 -5.838 5.836z" fill="#2f3a5a"/><path d="m112.582 68.136h-11.812a6.838 6.838 0 0 0 -6.838 6.838v34.5h25.488v-34.5a6.838 6.838 0 0 0 -6.838-6.838z" fill="#fac77c"/><path d="m119.42 110.477h-25.488a1 1 0 0 1 -1-1v-34.5a7.847 7.847 0 0 1 7.838-7.838h11.812a7.847 7.847 0 0 1 7.838 7.838v34.5a1 1 0 0 1 -1 1zm-24.488-2h23.488v-33.5a5.845 5.845 0 0 0 -5.838-5.838h-11.811a5.845 5.845 0 0 0 -5.838 5.838z" fill="#2f3a5a"/><circle cx="106.676" cy="81.272" fill="#dbe2eb" r="6.37"/><path d="m106.676 88.643a7.37 7.37 0 1 1 7.37-7.371 7.379 7.379 0 0 1 -7.37 7.371zm0-12.741a5.37 5.37 0 1 0 5.37 5.37 5.377 5.377 0 0 0 -5.37-5.372z" fill="#2f3a5a"/><circle cx="21.324" cy="81.272" fill="#dbe2eb" r="6.37"/><path d="m21.324 88.643a7.37 7.37 0 1 1 7.371-7.371 7.379 7.379 0 0 1 -7.371 7.371zm0-12.741a5.37 5.37 0 1 0 5.371 5.37 5.376 5.376 0 0 0 -5.371-5.372z" fill="#2f3a5a"/><path d="m5.596 98.49h116.807v10.906h-116.807z" fill="#707583"/><path d="m122.4 110.4h-116.8a1 1 0 0 1 -1-1v-10.91a1 1 0 0 1 1-1h116.8a1 1 0 0 1 1 1v10.91a1 1 0 0 1 -1 1zm-115.8-2h114.8v-8.91h-114.8z" fill="#2f3a5a"/><path d="m116.533 24.543h10.467v24.575h-10.467z" fill="#dbe2eb"/><path d="m127 50.118h-10.467a1 1 0 0 1 -1-1v-24.575a1 1 0 0 1 1-1h10.467a1 1 0 0 1 1 1v24.575a1 1 0 0 1 -1 1zm-9.467-2h8.467v-22.575h-8.467z" fill="#2f3a5a"/><path d="m121.767 25.543a1 1 0 0 1 -1-1v-6.186a3 3 0 0 0 -3-3h-7.167a1 1 0 0 1 0-2h7.168a5 5 0 0 1 5 5v6.186a1 1 0 0 1 -1.001 1z" fill="#2f3a5a"/><path d="m1 24.543h10.467v24.575h-10.467z" fill="#dbe2eb" transform="matrix(-1 0 0 -1 12.467 73.661)"/><g fill="#2f3a5a"><path d="m11.467 50.118h-10.467a1 1 0 0 1 -1-1v-24.575a1 1 0 0 1 1-1h10.467a1 1 0 0 1 1 1v24.575a1 1 0 0 1 -1 1zm-9.467-2h8.467v-22.575h-8.467z"/><path d="m6.233 25.543a1 1 0 0 1 -1-1v-6.186a5 5 0 0 1 5-5h7.167a1 1 0 0 1 0 2h-7.168a3 3 0 0 0 -3 3v6.186a1 1 0 0 1 -.999 1z"/><path d="m77.123 78.975h-26.246a1 1 0 0 1 0-2h26.246a1 1 0 0 1 0 2z"/><path d="m77.123 84.929h-26.246a1 1 0 1 1 0-2h26.246a1 1 0 0 1 0 2z"/><path d="m77.123 90.884h-26.246a1 1 0 1 1 0-2h26.246a1 1 0 0 1 0 2z"/></g><circle cx="95.893" cy="12.202" fill="#dbe2eb" r="3.703"/><path d="m95.893 16.905a4.7 4.7 0 1 1 4.7-4.7 4.708 4.708 0 0 1 -4.7 4.7zm0-7.405a2.7 2.7 0 1 0 2.7 2.7 2.706 2.706 0 0 0 -2.7-2.7z" fill="#2f3a5a"/><circle cx="32.108" cy="12.202" fill="#dbe2eb" r="3.703"/><path d="m32.107 16.905a4.7 4.7 0 1 1 4.7-4.7 4.708 4.708 0 0 1 -4.7 4.7zm0-7.405a2.7 2.7 0 1 0 2.7 2.7 2.706 2.706 0 0 0 -2.7-2.7z" fill="#2f3a5a"/><path d="m45.638 9.028h36.725v5.384h-36.725z" fill="#dbe2eb"/><path d="m82.362 15.412h-36.724a1 1 0 0 1 -1-1v-5.385a1 1 0 0 1 1-1h36.724a1 1 0 0 1 1 1v5.385a1 1 0 0 1 -1 1zm-35.725-2h34.725v-3.385h-34.724z" fill="#2f3a5a"/><g fill="#dbe2eb" opacity=".5"><path d="m90.905 31.04-15.781 25.96h-4.586l15.781-25.96z"/><path d="m96.365 31.04-15.782 25.96h-2.276l15.77-25.96z"/></g><g fill="#dbe2eb" opacity=".5"><path d="m48.866 31.04-15.781 25.96h-4.586l15.781-25.96z"/><path d="m54.325 31.04-15.781 25.96h-2.287l15.77-25.96z"/></g><path d="m101.422 58h-31.631a2.047 2.047 0 0 1 -1.891-2.212v-23.538a2.047 2.047 0 0 1 1.887-2.212h31.632a2.047 2.047 0 0 1 1.887 2.212v23.538a2.047 2.047 0 0 1 -1.884 2.212zm-31.481-2h31.33a.556.556 0 0 0 .038-.212v-23.538a.556.556 0 0 0 -.038-.212h-31.33a.556.556 0 0 0 -.038.212v23.538a.556.556 0 0 0 .038.212z" fill="#2f3a5a"/><path d="m58.209 58h-31.631a2.047 2.047 0 0 1 -1.887-2.212v-23.538a2.047 2.047 0 0 1 1.887-2.212h31.631a2.047 2.047 0 0 1 1.891 2.212v23.538a2.047 2.047 0 0 1 -1.891 2.212zm-31.48-2h31.33a.556.556 0 0 0 .038-.212v-23.538a.556.556 0 0 0 -.038-.212h-31.33a.556.556 0 0 0 -.038.212v23.538a.556.556 0 0 0 .038.212z" fill="#2f3a5a"/></svg>