<svg id="icon" height="512" viewBox="0 0 128 128" width="512" xmlns="http://www.w3.org/2000/svg"><rect fill="#dbe2eb" height="126" rx="10.18" width="96.923" x="15.538" y="1"/><path d="m102.282 127.5h-76.564a10.692 10.692 0 0 1 -10.68-10.68v-105.64a10.692 10.692 0 0 1 10.68-10.68h76.563a10.692 10.692 0 0 1 10.68 10.68v105.64a10.692 10.692 0 0 1 -10.679 10.68zm-76.564-126a9.691 9.691 0 0 0 -9.68 9.68v105.64a9.691 9.691 0 0 0 9.68 9.68h76.563a9.691 9.691 0 0 0 9.68-9.68v-105.64a9.691 9.691 0 0 0 -9.68-9.68z" fill="#dbe2eb"/><g opacity=".5"><path d="m112.46 11.18v105.64a10.183 10.183 0 0 1 -10.18 10.18h-76.56a10.183 10.183 0 0 1 -8.49-4.56 10.131 10.131 0 0 0 2.93.43h76.57a10.176 10.176 0 0 0 10.18-10.18v-105.64a10.111 10.111 0 0 0 -1.69-5.62 10.183 10.183 0 0 1 7.24 9.75z" fill="#bac2d3"/></g><path d="m102.282 128h-76.564a11.193 11.193 0 0 1 -11.18-11.18v-105.64a11.193 11.193 0 0 1 11.18-11.18h76.563a11.193 11.193 0 0 1 11.18 11.18v105.64a11.193 11.193 0 0 1 -11.179 11.18zm-76.564-126a9.19 9.19 0 0 0 -9.18 9.18v105.64a9.19 9.19 0 0 0 9.18 9.18h76.563a9.19 9.19 0 0 0 9.18-9.18v-105.64a9.19 9.19 0 0 0 -9.179-9.18z" fill="#2f3a5a"/><path d="m27.152 14.089h73.375v30.45h-73.375z" fill="#5fc4f8"/><path d="m27.927 55.049h13.569v13.569h-13.569z" fill="#84879c"/><path d="m27.457 67.909v-12.324a1.188 1.188 0 0 1 1.193-1.193h12.324a1.185 1.185 0 0 1 1.181 1.193v1.036h-11.277a1.2 1.2 0 0 0 -1.193 1.193v11.275h-1.035a1.185 1.185 0 0 1 -1.193-1.18z" fill="#b0b3c1"/><path d="m42.154 55.573v12.327a1.188 1.188 0 0 1 -1.193 1.193h-12.324a1.185 1.185 0 0 1 -1.18-1.193v-1.039h11.276a1.2 1.2 0 0 0 1.193-1.193v-11.276h1.036a1.185 1.185 0 0 1 1.192 1.181z" fill="#707583"/><path d="m41.22 70.395h-12.834a2.24 2.24 0 0 1 -2.238-2.238v-12.834a2.24 2.24 0 0 1 2.238-2.238h12.834a2.24 2.24 0 0 1 2.238 2.238v12.834a2.24 2.24 0 0 1 -2.238 2.238zm-12.834-15.31a.238.238 0 0 0 -.238.238v12.834a.238.238 0 0 0 .238.238h12.834a.238.238 0 0 0 .238-.238v-12.834a.238.238 0 0 0 -.238-.238z" fill="#2f3a5a"/><path d="m56.963 55.049h13.569v13.569h-13.569z" fill="#84879c"/><path d="m56.493 67.909v-12.324a1.188 1.188 0 0 1 1.193-1.193h12.323a1.185 1.185 0 0 1 1.181 1.193v1.036h-11.276a1.2 1.2 0 0 0 -1.193 1.193v11.275h-1.036a1.185 1.185 0 0 1 -1.192-1.18z" fill="#b0b3c1"/><path d="m71.19 55.573v12.327a1.188 1.188 0 0 1 -1.19 1.189h-12.327a1.185 1.185 0 0 1 -1.18-1.189v-1.039h11.276a1.2 1.2 0 0 0 1.193-1.193v-11.276h1.038a1.185 1.185 0 0 1 1.19 1.181z" fill="#707583"/><path d="m70.256 70.395h-12.834a2.24 2.24 0 0 1 -2.238-2.238v-12.834a2.24 2.24 0 0 1 2.238-2.238h12.834a2.24 2.24 0 0 1 2.238 2.238v12.834a2.24 2.24 0 0 1 -2.238 2.238zm-12.834-15.31a.238.238 0 0 0 -.238.238v12.834a.238.238 0 0 0 .238.238h12.834a.238.238 0 0 0 .238-.238v-12.834a.238.238 0 0 0 -.238-.238z" fill="#2f3a5a"/><path d="m27.927 78.149h13.569v13.569h-13.569z" fill="#84879c"/><path d="m27.457 91.008v-12.324a1.188 1.188 0 0 1 1.193-1.193h12.324a1.185 1.185 0 0 1 1.181 1.193v1.036h-11.277a1.2 1.2 0 0 0 -1.193 1.193v11.276h-1.035a1.185 1.185 0 0 1 -1.193-1.181z" fill="#b0b3c1"/><path d="m42.154 78.672v12.328a1.188 1.188 0 0 1 -1.193 1.193h-12.324a1.185 1.185 0 0 1 -1.18-1.193v-1.04h11.276a1.2 1.2 0 0 0 1.193-1.193v-11.276h1.036a1.185 1.185 0 0 1 1.192 1.181z" fill="#707583"/><path d="m41.22 93.494h-12.834a2.24 2.24 0 0 1 -2.238-2.238v-12.834a2.24 2.24 0 0 1 2.238-2.238h12.834a2.24 2.24 0 0 1 2.238 2.238v12.834a2.241 2.241 0 0 1 -2.238 2.238zm-12.834-15.31a.238.238 0 0 0 -.238.238v12.834a.238.238 0 0 0 .238.238h12.834a.239.239 0 0 0 .238-.238v-12.834a.238.238 0 0 0 -.238-.238z" fill="#2f3a5a"/><path d="m56.963 78.149h13.569v13.569h-13.569z" fill="#84879c"/><path d="m56.493 91.008v-12.324a1.188 1.188 0 0 1 1.193-1.193h12.323a1.185 1.185 0 0 1 1.181 1.193v1.036h-11.276a1.2 1.2 0 0 0 -1.193 1.193v11.276h-1.036a1.185 1.185 0 0 1 -1.192-1.181z" fill="#b0b3c1"/><path d="m71.19 78.672v12.328a1.188 1.188 0 0 1 -1.19 1.189h-12.327a1.185 1.185 0 0 1 -1.18-1.189v-1.04h11.276a1.2 1.2 0 0 0 1.193-1.193v-11.276h1.038a1.185 1.185 0 0 1 1.19 1.181z" fill="#707583"/><path d="m70.256 93.494h-12.834a2.241 2.241 0 0 1 -2.238-2.238v-12.834a2.24 2.24 0 0 1 2.238-2.238h12.834a2.24 2.24 0 0 1 2.238 2.238v12.834a2.24 2.24 0 0 1 -2.238 2.238zm-12.834-15.31a.238.238 0 0 0 -.238.238v12.834a.239.239 0 0 0 .238.238h12.834a.238.238 0 0 0 .238-.238v-12.834a.238.238 0 0 0 -.238-.238z" fill="#2f3a5a"/><path d="m27.927 101.248h13.569v13.569h-13.569z" fill="#84879c"/><path d="m27.457 114.107v-12.324a1.188 1.188 0 0 1 1.193-1.193h12.324a1.185 1.185 0 0 1 1.181 1.193v1.036h-11.277a1.2 1.2 0 0 0 -1.193 1.193v11.276h-1.035a1.185 1.185 0 0 1 -1.193-1.181z" fill="#b0b3c1"/><path d="m42.154 101.771v12.329a1.188 1.188 0 0 1 -1.193 1.193h-12.324a1.185 1.185 0 0 1 -1.181-1.193v-1.036h11.277a1.2 1.2 0 0 0 1.193-1.193v-11.28h1.036a1.185 1.185 0 0 1 1.192 1.18z" fill="#707583"/><path d="m41.22 116.593h-12.834a2.24 2.24 0 0 1 -2.238-2.238v-12.834a2.24 2.24 0 0 1 2.238-2.238h12.834a2.241 2.241 0 0 1 2.238 2.238v12.834a2.24 2.24 0 0 1 -2.238 2.238zm-12.834-15.31a.238.238 0 0 0 -.238.238v12.834a.238.238 0 0 0 .238.238h12.834a.238.238 0 0 0 .238-.238v-12.834a.239.239 0 0 0 -.238-.238z" fill="#2f3a5a"/><path d="m56.963 101.248h13.569v13.569h-13.569z" fill="#84879c"/><path d="m56.493 114.107v-12.324a1.188 1.188 0 0 1 1.193-1.193h12.323a1.185 1.185 0 0 1 1.181 1.193v1.036h-11.276a1.2 1.2 0 0 0 -1.193 1.193v11.276h-1.036a1.185 1.185 0 0 1 -1.192-1.181z" fill="#b0b3c1"/><path d="m71.19 101.771v12.329a1.188 1.188 0 0 1 -1.19 1.188h-12.327a1.185 1.185 0 0 1 -1.181-1.193v-1.036h11.277a1.2 1.2 0 0 0 1.193-1.193v-11.275h1.038a1.185 1.185 0 0 1 1.19 1.18z" fill="#707583"/><path d="m70.256 116.593h-12.834a2.24 2.24 0 0 1 -2.238-2.238v-12.834a2.241 2.241 0 0 1 2.238-2.238h12.834a2.24 2.24 0 0 1 2.238 2.238v12.834a2.24 2.24 0 0 1 -2.238 2.238zm-12.834-15.31a.239.239 0 0 0 -.238.238v12.834a.238.238 0 0 0 .238.238h12.834a.238.238 0 0 0 .238-.238v-12.834a.238.238 0 0 0 -.238-.238z" fill="#2f3a5a"/><path d="m85.999 55.049h13.569v13.569h-13.569z" fill="#84879c"/><path d="m85.529 67.909v-12.324a1.188 1.188 0 0 1 1.193-1.193h12.323a1.185 1.185 0 0 1 1.181 1.193v1.036h-11.276a1.2 1.2 0 0 0 -1.193 1.193v11.275h-1.036a1.185 1.185 0 0 1 -1.192-1.18z" fill="#b0b3c1"/><path d="m100.226 55.573v12.327a1.188 1.188 0 0 1 -1.193 1.193h-12.324a1.185 1.185 0 0 1 -1.18-1.193v-1.039h11.271a1.2 1.2 0 0 0 1.2-1.193v-11.276h1.036a1.185 1.185 0 0 1 1.19 1.181z" fill="#707583"/><path d="m99.292 70.395h-12.834a2.24 2.24 0 0 1 -2.238-2.238v-12.834a2.24 2.24 0 0 1 2.238-2.238h12.834a2.24 2.24 0 0 1 2.238 2.238v12.834a2.24 2.24 0 0 1 -2.238 2.238zm-12.834-15.31a.238.238 0 0 0 -.238.238v12.834a.238.238 0 0 0 .238.238h12.834a.238.238 0 0 0 .238-.238v-12.834a.238.238 0 0 0 -.238-.238z" fill="#2f3a5a"/><path d="m85.999 78.149h13.569v13.569h-13.569z" fill="#84879c"/><path d="m85.529 91.008v-12.324a1.188 1.188 0 0 1 1.193-1.193h12.323a1.185 1.185 0 0 1 1.181 1.193v1.036h-11.276a1.2 1.2 0 0 0 -1.193 1.193v11.276h-1.036a1.185 1.185 0 0 1 -1.192-1.181z" fill="#b0b3c1"/><path d="m100.226 78.672v12.328a1.188 1.188 0 0 1 -1.193 1.193h-12.324a1.185 1.185 0 0 1 -1.18-1.193v-1.04h11.271a1.2 1.2 0 0 0 1.2-1.193v-11.276h1.036a1.185 1.185 0 0 1 1.19 1.181z" fill="#707583"/><path d="m99.292 93.494h-12.834a2.24 2.24 0 0 1 -2.238-2.238v-12.834a2.24 2.24 0 0 1 2.238-2.238h12.834a2.24 2.24 0 0 1 2.238 2.238v12.834a2.24 2.24 0 0 1 -2.238 2.238zm-12.834-15.31a.238.238 0 0 0 -.238.238v12.834a.238.238 0 0 0 .238.238h12.834a.238.238 0 0 0 .238-.238v-12.834a.238.238 0 0 0 -.238-.238z" fill="#2f3a5a"/><path d="m85.999 101.248h13.569v13.569h-13.569z" fill="#84879c"/><path d="m85.529 114.107v-12.324a1.188 1.188 0 0 1 1.193-1.193h12.323a1.185 1.185 0 0 1 1.181 1.193v1.036h-11.276a1.2 1.2 0 0 0 -1.193 1.193v11.276h-1.036a1.185 1.185 0 0 1 -1.192-1.181z" fill="#b0b3c1"/><path d="m100.226 101.771v12.329a1.188 1.188 0 0 1 -1.193 1.193h-12.324a1.185 1.185 0 0 1 -1.181-1.193v-1.036h11.272a1.2 1.2 0 0 0 1.2-1.197v-11.276h1.036a1.185 1.185 0 0 1 1.19 1.18z" fill="#707583"/><path d="m99.292 116.593h-12.834a2.24 2.24 0 0 1 -2.238-2.238v-12.834a2.24 2.24 0 0 1 2.238-2.238h12.834a2.24 2.24 0 0 1 2.238 2.238v12.834a2.24 2.24 0 0 1 -2.238 2.238zm-12.834-15.31a.238.238 0 0 0 -.238.238v12.834a.238.238 0 0 0 .238.238h12.834a.238.238 0 0 0 .238-.238v-12.834a.238.238 0 0 0 -.238-.238z" fill="#2f3a5a"/><g fill="#e1e6e9" opacity=".7"><path d="m72.367 14.089-26.637 30.451h-3.493l26.983-30.451z"/><path d="m83.652 14.089-26.65 30.451h-7.856l26.97-30.451z"/></g><path d="m100.529 45.545h-73.381a1 1 0 0 1 -1-1v-30.452a1 1 0 0 1 1-1h73.381a1 1 0 0 1 1 1v30.452a1 1 0 0 1 -1 1zm-72.381-2h71.381v-28.452h-71.381z" fill="#2f3a5a"/></svg>