<svg id="icon" height="512" viewBox="0 0 128 128" width="512" xmlns="http://www.w3.org/2000/svg"><path d="m89.2 48.36-10.34 18.29-13.51 23.91-2.52 4.46-18.07 31.98-4.19-16.92-15.87 5.21 17.09-30.63 10.05-18.01 13.51-24.22 3.02-5.41z" fill="#e95a6a"/><path d="m106 115.29-15.88-5.21-4.18 16.92-18.44-32.63-2.15-3.81-13.51-23.91-10.34-18.29 20.83-11.34 3.02 5.41 13.51 24.22 10.07 18.04z" fill="#e95a6a"/><path d="m83.04 46.35-4.33 7.66-3.47 6.14-10.07 17.81-3.47 6.14-9.86-17.45-3.67-6.48 3.45-6.18v-.01l8.93-15.99 1.66-2.98 5.59 3.04 2.88 1.57z" fill="#d9e2e9"/><path d="m78.71 54.01 3.62 6.5-3.47 6.14-10.04 17.77-3.65-6.46-9.88-17.49-3.67-6.49-4.81-8.51-1.7-3.01 20.83-11.33 3.66 6.56 1.08 1.93z" fill="#d9e2e9"/><path d="m44.758 128a.983.983 0 0 1 -.136-.009 1 1 0 0 1 -.835-.75l-3.925-15.873-14.849 4.876a1 1 0 0 1 -1.185-1.437l43.672-78.274a1 1 0 0 1 1.351-.391l20.83 11.339a1 1 0 0 1 .393 1.371l-44.446 78.64a1 1 0 0 1 -.87.508zm-4.184-18.919a1 1 0 0 1 .971.76l3.58 14.478 42.708-75.567-19.069-10.38-41.942 75.172 13.439-4.414a1 1 0 0 1 .313-.049z" fill="#2f3a5a"/><path d="m85.94 128a1 1 0 0 1 -.87-.508l-44.445-78.64a1 1 0 0 1 .393-1.371l20.83-11.339a1 1 0 0 1 1.351.391l43.672 78.273a1 1 0 0 1 -1.185 1.438l-14.849-4.876-3.925 15.872a1 1 0 0 1 -.835.75.983.983 0 0 1 -.137.01zm-43.074-79.248 42.708 75.566 3.58-14.478a1 1 0 0 1 1.283-.71l13.439 4.414-41.942-75.172z" fill="#2f3a5a"/><path d="m108.183 45.183a8.689 8.689 0 0 0 -4.9-7.814 8.683 8.683 0 0 0 -5.983-14.44 8.683 8.683 0 0 0 -11.047-11.051 8.683 8.683 0 0 0 -14.439-5.978 8.683 8.683 0 0 0 -15.628 0 8.683 8.683 0 0 0 -14.439 5.981 8.683 8.683 0 0 0 -11.047 11.048 8.683 8.683 0 0 0 -5.981 14.439 8.683 8.683 0 0 0 0 15.629 8.683 8.683 0 0 0 5.981 14.439 8.683 8.683 0 0 0 11.047 11.051 8.683 8.683 0 0 0 14.439 5.981 8.683 8.683 0 0 0 15.629 0 8.683 8.683 0 0 0 14.439-5.981 8.683 8.683 0 0 0 11.046-11.051 8.683 8.683 0 0 0 5.985-14.436 8.689 8.689 0 0 0 4.898-7.817z" fill="#e95a6a"/><path d="m102.451 43.709a7.723 7.723 0 0 0 -4.351-6.945 7.717 7.717 0 0 0 -5.316-12.833 7.717 7.717 0 0 0 -9.822-9.822 7.717 7.717 0 0 0 -12.835-5.316 7.717 7.717 0 0 0 -13.89 0 7.717 7.717 0 0 0 -12.837 5.316 7.717 7.717 0 0 0 -9.822 9.822 7.717 7.717 0 0 0 -5.316 12.833 7.717 7.717 0 0 0 0 13.891 7.717 7.717 0 0 0 5.316 12.833 7.717 7.717 0 0 0 9.822 9.822 7.717 7.717 0 0 0 12.833 5.316 7.717 7.717 0 0 0 13.891 0 7.717 7.717 0 0 0 12.836-5.316 7.717 7.717 0 0 0 9.822-9.822 7.717 7.717 0 0 0 5.318-12.833 7.723 7.723 0 0 0 4.351-6.946z" fill="#f26176"/><path d="m64 90.365a9.617 9.617 0 0 1 -8.113-4.4 9.683 9.683 0 0 1 -14.987-6.206 9.683 9.683 0 0 1 -11.476-11.473 9.683 9.683 0 0 1 -6.21-14.986 9.683 9.683 0 0 1 0-16.226 9.683 9.683 0 0 1 6.209-14.991 9.683 9.683 0 0 1 11.477-11.477 9.683 9.683 0 0 1 14.988-6.206 9.682 9.682 0 0 1 16.225 0 9.683 9.683 0 0 1 14.987 6.206 9.683 9.683 0 0 1 11.476 11.473 9.683 9.683 0 0 1 6.209 14.991 9.683 9.683 0 0 1 0 16.226 9.683 9.683 0 0 1 -6.209 14.991 9.683 9.683 0 0 1 -11.476 11.472 9.683 9.683 0 0 1 -14.991 6.209 9.617 9.617 0 0 1 -8.109 4.397zm-7.814-6.9a1.018 1.018 0 0 1 .2.019 1 1 0 0 1 .7.543 7.683 7.683 0 0 0 13.831 0 1 1 0 0 1 1.562-.311 7.683 7.683 0 0 0 12.778-5.293 1 1 0 0 1 1.324-.885 7.683 7.683 0 0 0 9.779-9.779 1 1 0 0 1 .885-1.324 7.683 7.683 0 0 0 5.293-12.778 1 1 0 0 1 .311-1.562 7.683 7.683 0 0 0 0-13.831 1 1 0 0 1 -.311-1.562 7.683 7.683 0 0 0 -5.293-12.778 1 1 0 0 1 -.885-1.324 7.683 7.683 0 0 0 -9.779-9.779 1 1 0 0 1 -1.324-.885 7.684 7.684 0 0 0 -12.78-5.29 1 1 0 0 1 -1.562-.311 7.682 7.682 0 0 0 -13.83 0 1 1 0 0 1 -1.562.311 7.684 7.684 0 0 0 -12.779 5.293 1 1 0 0 1 -1.324.885 7.683 7.683 0 0 0 -9.779 9.776 1 1 0 0 1 -.885 1.324 7.683 7.683 0 0 0 -5.293 12.778 1 1 0 0 1 -.311 1.562 7.683 7.683 0 0 0 0 13.831 1 1 0 0 1 .311 1.562 7.683 7.683 0 0 0 5.293 12.778 1 1 0 0 1 .885 1.324 7.683 7.683 0 0 0 9.779 9.779 1 1 0 0 1 1.324.885 7.683 7.683 0 0 0 12.778 5.293 1 1 0 0 1 .664-.248z" fill="#2f3a5a"/><path d="m93.1 45.183a5.722 5.722 0 0 0 -3.225-5.146 5.718 5.718 0 0 0 -3.939-9.509 5.718 5.718 0 0 0 -7.278-7.278 5.718 5.718 0 0 0 -9.509-3.939 5.718 5.718 0 0 0 -10.292 0 5.718 5.718 0 0 0 -9.509 3.939 5.718 5.718 0 0 0 -7.278 7.278 5.718 5.718 0 0 0 -3.939 9.509 5.718 5.718 0 0 0 0 10.292 5.718 5.718 0 0 0 3.939 9.509 5.718 5.718 0 0 0 7.278 7.278 5.718 5.718 0 0 0 9.509 3.939 5.718 5.718 0 0 0 10.292 0 5.718 5.718 0 0 0 9.509-3.939 5.718 5.718 0 0 0 7.278-7.278 5.718 5.718 0 0 0 3.939-9.509 5.722 5.722 0 0 0 3.225-5.146z" fill="#c1cdd3"/><path d="m89.2 44.406a5.079 5.079 0 0 0 -2.863-4.568 5.076 5.076 0 0 0 -3.5-8.44 5.076 5.076 0 0 0 -6.46-6.46 5.076 5.076 0 0 0 -8.44-3.5 5.076 5.076 0 0 0 -9.136 0 5.076 5.076 0 0 0 -8.44 3.5 5.076 5.076 0 0 0 -6.46 6.46 5.076 5.076 0 0 0 -3.5 8.44 5.076 5.076 0 0 0 0 9.136 5.076 5.076 0 0 0 3.5 8.44 5.076 5.076 0 0 0 6.46 6.46 5.076 5.076 0 0 0 8.44 3.5 5.076 5.076 0 0 0 9.136 0 5.076 5.076 0 0 0 8.44-3.5 5.076 5.076 0 0 0 6.46-6.46 5.076 5.076 0 0 0 3.5-8.44 5.079 5.079 0 0 0 2.863-4.568z" fill="#d9e2e9"/><g fill="#2f3a5a"><path d="m64 75.279a6.668 6.668 0 0 1 -5.436-2.769 6.72 6.72 0 0 1 -10.044-4.16 6.72 6.72 0 0 1 -7.687-7.687 6.72 6.72 0 0 1 -4.161-10.044 6.719 6.719 0 0 1 0-10.871 6.72 6.72 0 0 1 4.161-10.048 6.72 6.72 0 0 1 7.688-7.687 6.72 6.72 0 0 1 10.044-4.16 6.719 6.719 0 0 1 10.871 0 6.719 6.719 0 0 1 10.044 4.16 6.72 6.72 0 0 1 7.687 7.687 6.72 6.72 0 0 1 4.16 10.044 6.719 6.719 0 0 1 0 10.871 6.721 6.721 0 0 1 -4.161 10.044 6.72 6.72 0 0 1 -7.687 7.687 6.72 6.72 0 0 1 -10.043 4.164 6.668 6.668 0 0 1 -5.436 2.769zm-5.146-5.226a1.018 1.018 0 0 1 .2.019 1 1 0 0 1 .7.543 4.718 4.718 0 0 0 8.494 0 1 1 0 0 1 1.562-.311 4.718 4.718 0 0 0 7.848-3.25 1 1 0 0 1 1.324-.885 4.719 4.719 0 0 0 6.007-6.007 1 1 0 0 1 .885-1.324 4.718 4.718 0 0 0 3.25-7.848 1 1 0 0 1 .311-1.562 4.718 4.718 0 0 0 0-8.494 1 1 0 0 1 -.311-1.562 4.718 4.718 0 0 0 -3.25-7.848 1 1 0 0 1 -.885-1.324 4.719 4.719 0 0 0 -6.009-6 1 1 0 0 1 -1.324-.885 4.718 4.718 0 0 0 -7.848-3.25 1 1 0 0 1 -1.562-.311 4.718 4.718 0 0 0 -8.494 0 1 1 0 0 1 -1.562.311 4.718 4.718 0 0 0 -7.848 3.25 1 1 0 0 1 -1.324.885 4.719 4.719 0 0 0 -6.005 6 1 1 0 0 1 -.885 1.324 4.718 4.718 0 0 0 -3.25 7.848 1 1 0 0 1 -.311 1.562 4.718 4.718 0 0 0 0 8.494 1 1 0 0 1 .311 1.562 4.718 4.718 0 0 0 3.25 7.848 1 1 0 0 1 .885 1.324 4.719 4.719 0 0 0 6.007 6.008 1 1 0 0 1 1.324.885 4.718 4.718 0 0 0 7.848 3.25 1 1 0 0 1 .662-.251z"/><path d="m64.372 54.842a1 1 0 0 1 -1-1v-18.142a6.073 6.073 0 0 1 -4.427 1.9 1 1 0 0 1 0-2c3.158 0 4.43-3.48 4.483-3.628a1 1 0 0 1 1.943.332v21.538a1 1 0 0 1 -.999 1z"/><path d="m69.055 54.842h-9.755a1 1 0 0 1 0-2h9.755a1 1 0 0 1 0 2z"/></g></svg>