<svg id="icon" height="512" viewBox="0 0 128 128" width="512" xmlns="http://www.w3.org/2000/svg"><path d="m27.795 114.666-10.063-4.944 39.19-81.246 11.237 5.521z" fill="#8ccfb5"/><path d="m68.16 34-40.37 80.67-10.06-4.95.1-.21 4.94 2.43 40.26-80.46z" fill="#83bfac"/><path d="m27.794 115.666a.992.992 0 0 1 -.44-.1l-10.063-4.944a1 1 0 0 1 -.46-1.332l39.19-81.246a1 1 0 0 1 1.342-.463l11.237 5.519a1 1 0 0 1 .454 1.345l-40.365 80.668a1 1 0 0 1 -.895.553zm-8.73-6.4 8.281 4.069 39.468-78.885-9.429-4.632z" fill="#2f3a5a"/><path d="m16.912 111.358h4.524a0 0 0 0 1 0 0v13.98a2.262 2.262 0 0 1 -2.262 2.262 2.262 2.262 0 0 1 -2.262-2.262v-13.98a0 0 0 0 1 0 0z" fill="#d9e2e9" transform="matrix(.898 .441 -.441 .898 54.653 3.789)"/><path d="m16.587 128a3.263 3.263 0 0 1 -2.925-4.7l6.165-12.547a1 1 0 0 1 1.338-.457l4.06 1.995a1 1 0 0 1 .457 1.338l-6.165 12.548a3.271 3.271 0 0 1 -2.93 1.823zm4.594-15.47-5.724 11.65a1.262 1.262 0 0 0 2.265 1.113l5.724-11.65z" fill="#2f3a5a"/><path d="m100.205 114.666 10.063-4.944-39.19-81.246-11.237 5.521z" fill="#8ccfb5"/><path d="m110.27 109.72-10.06 4.95-40.37-80.67 4.68-2.3 40.31 80.56 5.39-2.65z" fill="#83bfac"/><path d="m100.206 115.666a1 1 0 0 1 -.9-.553l-40.359-80.669a1 1 0 0 1 .453-1.344l11.237-5.521a1 1 0 0 1 1.342.463l39.19 81.246a1 1 0 0 1 -.46 1.332l-10.063 4.944a.992.992 0 0 1 -.44.102zm-39.019-81.216 39.469 78.88 8.281-4.069-38.322-79.443z" fill="#2f3a5a"/><path d="m108.826 111.358a2.262 2.262 0 0 1 2.262 2.262v13.98a0 0 0 0 1 0 0h-4.524a0 0 0 0 1 0 0v-13.98a2.262 2.262 0 0 1 2.262-2.262z" fill="#d9e2e9" transform="matrix(-.898 .441 -.441 -.898 259.187 178.724)"/><path d="m111.413 128a3.271 3.271 0 0 1 -2.93-1.825l-6.165-12.548a1 1 0 0 1 .457-1.338l4.06-1.995a1 1 0 0 1 1.338.457l6.165 12.547a3.265 3.265 0 0 1 -2.925 4.7zm-6.859-14.357 5.724 11.65a1.262 1.262 0 0 0 2.265-1.113l-5.724-11.65z" fill="#2f3a5a"/><path d="m76.111 25.683h-24.222a4.24 4.24 0 0 0 -4.24 4.241v10.828a16.352 16.352 0 0 0 16.351 16.348 16.352 16.352 0 0 0 16.352-16.348v-10.829a4.241 4.241 0 0 0 -4.241-4.24z" fill="#d9e2e9"/><path d="m80.35 29.92v10.83a16.362 16.362 0 0 1 -23.44 14.74 15.8 15.8 0 0 0 2.19.15 16.354 16.354 0 0 0 16.36-16.35v-10.83a4.279 4.279 0 0 0 -1.04-2.78h1.69a4.242 4.242 0 0 1 4.24 4.24z" fill="#c8cbd2"/><path d="m64 58.1a17.371 17.371 0 0 1 -17.352-17.348v-10.829a5.246 5.246 0 0 1 5.24-5.241h24.223a5.246 5.246 0 0 1 5.24 5.241v10.829a17.371 17.371 0 0 1 -17.351 17.348zm-12.111-31.417a3.244 3.244 0 0 0 -3.24 3.241v10.828a15.352 15.352 0 1 0 30.7 0v-10.829a3.244 3.244 0 0 0 -3.24-3.241z" fill="#2f3a5a"/><circle cx="64" cy="39.338" fill="#9297ab" r="4.159"/><path d="m64 44.5a5.158 5.158 0 1 1 5.159-5.158 5.164 5.164 0 0 1 -5.159 5.158zm0-8.317a3.158 3.158 0 1 0 3.159 3.159 3.162 3.162 0 0 0 -3.159-3.163z" fill="#2f3a5a"/><path d="m64 1a4.9 4.9 0 0 1 4.9 4.9v19.783a0 0 0 0 1 0 0h-9.8a0 0 0 0 1 0 0v-19.783a4.9 4.9 0 0 1 4.9-4.9z" fill="#e1e6e9"/><path d="m68.9 5.9v19.78h-3.66v-19.78a4.878 4.878 0 0 0 -3.07-4.55 5.091 5.091 0 0 1 1.83-.35 4.9 4.9 0 0 1 4.9 4.9z" fill="#c8cbd2"/><path d="m68.9 26.683h-9.8a1 1 0 0 1 -1-1v-19.783a5.9 5.9 0 1 1 11.8 0v19.783a1 1 0 0 1 -1 1zm-8.792-2h7.792v-18.783a3.9 3.9 0 1 0 -7.792 0z" fill="#2f3a5a"/></svg>