<svg id="icon" height="512" viewBox="0 0 128 128" width="512" xmlns="http://www.w3.org/2000/svg"><g fill="#2f3a5a"><path d="m17.207 31.361h98.41v2h-98.41z"/><path d="m17.207 58.174h98.41v2h-98.41z"/><path d="m17.207 84.987h98.41v2h-98.41z"/></g><path d="m114.164 12.8a4.787 4.787 0 0 1 4.787 4.787v94.267a0 0 0 0 1 0 0h-9.574a0 0 0 0 1 0 0v-94.27a4.787 4.787 0 0 1 4.787-4.787z" fill="#f0c191"/><g opacity=".5"><path d="m118.957 17.588v94.267h-3.8v-94.267a4.863 4.863 0 0 0 -2.884-4.412 4.817 4.817 0 0 1 1.886-.382 4.8 4.8 0 0 1 4.794 4.794z" fill="#d8b18c"/></g><path d="m118.951 112.851h-9.575a1 1 0 0 1 -1-1v-94.267a5.788 5.788 0 0 1 11.575 0v94.267a1 1 0 0 1 -1 1zm-8.575-2h7.575v-93.267a3.788 3.788 0 0 0 -7.575 0z" fill="#2f3a5a"/><path d="m13.831 12.8a4.787 4.787 0 0 1 4.787 4.787v94.267a0 0 0 0 1 0 0h-9.575a0 0 0 0 1 0 0v-94.27a4.787 4.787 0 0 1 4.788-4.784z" fill="#f0c191"/><g opacity=".5"><path d="m18.624 17.588v94.267h-3.8v-94.267a4.863 4.863 0 0 0 -2.884-4.412 4.817 4.817 0 0 1 1.886-.382 4.8 4.8 0 0 1 4.794 4.794z" fill="#d8b18c"/></g><path d="m18.618 112.851h-9.575a1 1 0 0 1 -1-1v-94.267a5.788 5.788 0 0 1 11.575 0v94.267a1 1 0 0 1 -1 1zm-8.575-2h7.575v-93.267a3.788 3.788 0 0 0 -7.575 0z" fill="#2f3a5a"/><path d="m1 106.846h126v8.36h-126z" fill="#f0c191"/><path d="m127 116.206h-126a1 1 0 0 1 -1-1v-8.36a1 1 0 0 1 1-1h126a1 1 0 0 1 1 1v8.36a1 1 0 0 1 -1 1zm-125-2h124v-6.36h-124z" fill="#2f3a5a"/><rect fill="#dbe2eb" height="22.792" rx="5.74" width="11.48" x="27.76" y="20.965"/><path d="m39.24 26.708v11.313a5.742 5.742 0 0 1 -11.055 2.169 5.416 5.416 0 0 0 2.058.394 5.667 5.667 0 0 0 4.057-1.684 5.729 5.729 0 0 0 1.676-4.055v-11.317a5.761 5.761 0 0 0 -.419-2.169 5.715 5.715 0 0 1 3.683 5.349z" fill="#bac2d3"/><path d="m33.5 44.757a6.748 6.748 0 0 1 -6.74-6.74v-11.312a6.747 6.747 0 0 1 6.739-6.74 6.747 6.747 0 0 1 6.739 6.74v11.312a6.747 6.747 0 0 1 -6.738 6.74zm0-22.792a4.745 4.745 0 0 0 -4.74 4.74v11.312a4.74 4.74 0 1 0 9.479 0v-11.312a4.745 4.745 0 0 0 -4.739-4.74z" fill="#2f3a5a"/><rect fill="#f26176" height="22.792" rx="5.74" width="11.48" x="44.52" y="20.965"/><g opacity=".5"><path d="m56 26.708v11.313a5.742 5.742 0 0 1 -11.055 2.169 5.416 5.416 0 0 0 2.055.395 5.667 5.667 0 0 0 4.058-1.685 5.729 5.729 0 0 0 1.676-4.055v-11.317a5.761 5.761 0 0 0 -.419-2.169 5.715 5.715 0 0 1 3.685 5.349z" fill="#e95a6a"/></g><path d="m50.26 44.757a6.748 6.748 0 0 1 -6.74-6.74v-11.312a6.74 6.74 0 1 1 13.479 0v11.312a6.747 6.747 0 0 1 -6.739 6.74zm0-22.792a4.745 4.745 0 0 0 -4.74 4.74v11.312a4.74 4.74 0 1 0 9.479 0v-11.312a4.745 4.745 0 0 0 -4.739-4.74z" fill="#2f3a5a"/><rect fill="#8ccfb5" height="22.792" rx="5.74" width="11.48" x="61.28" y="20.965"/><path d="m72.76 26.708v11.313a5.742 5.742 0 0 1 -11.054 2.169 5.416 5.416 0 0 0 2.058.394 5.667 5.667 0 0 0 4.054-1.684 5.729 5.729 0 0 0 1.676-4.055v-11.317a5.761 5.761 0 0 0 -.419-2.169 5.715 5.715 0 0 1 3.685 5.349z" fill="#83bfac"/><path d="m67.02 44.757a6.747 6.747 0 0 1 -6.739-6.74v-11.312a6.74 6.74 0 1 1 13.479 0v11.312a6.748 6.748 0 0 1 -6.74 6.74zm0-22.792a4.745 4.745 0 0 0 -4.739 4.74v11.312a4.74 4.74 0 1 0 9.479 0v-11.312a4.745 4.745 0 0 0 -4.74-4.74z" fill="#2f3a5a"/><rect fill="#9bc6f1" height="22.792" rx="5.74" width="11.48" x="74.874" y="47.778"/><path d="m86.354 53.521v11.313a5.742 5.742 0 0 1 -11.054 2.166 5.416 5.416 0 0 0 2.058.394 5.667 5.667 0 0 0 4.055-1.688 5.729 5.729 0 0 0 1.676-4.055v-11.31a5.761 5.761 0 0 0 -.419-2.169 5.715 5.715 0 0 1 3.684 5.349z" fill="#8cc0f3"/><path d="m80.614 71.57a6.747 6.747 0 0 1 -6.74-6.74v-11.312a6.74 6.74 0 1 1 13.479 0v11.312a6.747 6.747 0 0 1 -6.739 6.74zm0-22.792a4.745 4.745 0 0 0 -4.74 4.74v11.312a4.74 4.74 0 1 0 9.479 0v-11.312a4.745 4.745 0 0 0 -4.739-4.74z" fill="#2f3a5a"/><rect fill="#fac77c" height="22.792" rx="5.74" width="11.48" x="91.634" y="47.778"/><path d="m103.115 53.521v11.313a5.742 5.742 0 0 1 -11.055 2.166 5.416 5.416 0 0 0 2.058.394 5.667 5.667 0 0 0 4.055-1.688 5.729 5.729 0 0 0 1.676-4.055v-11.31a5.761 5.761 0 0 0 -.419-2.169 5.715 5.715 0 0 1 3.685 5.349z" fill="#faba59"/><path d="m97.374 71.57a6.747 6.747 0 0 1 -6.739-6.74v-11.312a6.74 6.74 0 1 1 13.479 0v11.312a6.747 6.747 0 0 1 -6.74 6.74zm0-22.792a4.745 4.745 0 0 0 -4.739 4.74v11.312a4.74 4.74 0 1 0 9.479 0v-11.312a4.745 4.745 0 0 0 -4.74-4.74z" fill="#2f3a5a"/><rect fill="#fac77c" height="22.792" rx="5.74" width="11.48" x="26.452" y="74.591"/><path d="m37.932 80.334v11.313a5.742 5.742 0 0 1 -11.055 2.169 5.416 5.416 0 0 0 2.058.394 5.667 5.667 0 0 0 4.055-1.688 5.729 5.729 0 0 0 1.676-4.055v-11.313a5.761 5.761 0 0 0 -.419-2.169 5.715 5.715 0 0 1 3.685 5.349z" fill="#faba59"/><path d="m32.191 98.383a6.747 6.747 0 0 1 -6.739-6.74v-11.312a6.74 6.74 0 1 1 13.479 0v11.312a6.747 6.747 0 0 1 -6.74 6.74zm0-22.792a4.745 4.745 0 0 0 -4.739 4.74v11.312a4.74 4.74 0 1 0 9.479 0v-11.312a4.745 4.745 0 0 0 -4.74-4.74z" fill="#2f3a5a"/><rect fill="#9bc6f1" height="22.792" rx="5.74" width="11.48" x="43.212" y="74.591"/><path d="m54.692 80.334v11.313a5.742 5.742 0 0 1 -11.055 2.169 5.416 5.416 0 0 0 2.058.394 5.667 5.667 0 0 0 4.055-1.688 5.729 5.729 0 0 0 1.676-4.055v-11.313a5.761 5.761 0 0 0 -.419-2.169 5.715 5.715 0 0 1 3.685 5.349z" fill="#8cc0f3"/><path d="m48.952 98.383a6.747 6.747 0 0 1 -6.74-6.74v-11.312a6.74 6.74 0 1 1 13.479 0v11.312a6.747 6.747 0 0 1 -6.739 6.74zm0-22.792a4.745 4.745 0 0 0 -4.74 4.74v11.312a4.74 4.74 0 1 0 9.479 0v-11.312a4.745 4.745 0 0 0 -4.739-4.74z" fill="#2f3a5a"/></svg>