<svg id="icon" height="512" viewBox="0 0 128 128" width="512" xmlns="http://www.w3.org/2000/svg"><rect fill="#d9e2e9" height="113.462" rx="9.908" transform="matrix(.707 .707 -.707 .707 63.135 -24.422)" width="67.988" x="27.054" y="7.269"/><path d="m118.2 54.927-66.223 66.221a9.923 9.923 0 0 1 -14.017 0l-7.618-7.618a9.923 9.923 0 0 0 14.017 0l66.221-66.221a9.928 9.928 0 0 0 .028-13.989l7.59 7.59a9.923 9.923 0 0 1 .002 14.017z" fill="#c1cdd3"/><path d="m44.971 125.043a10.874 10.874 0 0 1 -7.713-3.19l-34.058-34.062a10.907 10.907 0 0 1 0-15.426l66.212-66.218a10.921 10.921 0 0 1 15.427 0l34.061 34.062a10.921 10.921 0 0 1 0 15.426l-66.216 66.218a10.874 10.874 0 0 1 -7.713 3.19zm32.154-120.086a8.88 8.88 0 0 0 -6.3 2.6l-66.216 66.221a8.908 8.908 0 0 0 0 12.6l34.063 34.062a8.919 8.919 0 0 0 12.6 0l66.218-66.217a8.92 8.92 0 0 0 0-12.6l-34.065-34.062a8.884 8.884 0 0 0 -6.3-2.604z" fill="#2f3a5a"/><path d="m85.9 87.221 32.292-32.292a9.908 9.908 0 0 0 0-14.012l-34.061-34.063a9.908 9.908 0 0 0 -14.012 0l-32.292 32.292z" fill="#f26176"/><path d="m110.58 47.309-32.295 32.291 7.615 7.621 32.3-32.294a9.923 9.923 0 0 0 0-14.017l-7.59-7.59a9.928 9.928 0 0 1 -.03 13.989z" fill="#e95a6a"/><g fill="#2f3a5a"><path d="m85.9 88.635-49.487-49.489 33-33a10.921 10.921 0 0 1 15.427 0l34.06 34.063a10.921 10.921 0 0 1 0 15.426zm-46.659-49.489 46.659 46.661 31.585-31.585a8.92 8.92 0 0 0 0-12.6l-34.06-34.061a8.92 8.92 0 0 0 -12.6 0z"/><path d="m127 124.967h-123.352a1 1 0 0 1 0-2h123.352a1 1 0 0 1 0 2z"/><path d="m77.205 105.6a1 1 0 0 1 -.692-1.721l6.487-6.23a1 1 0 1 1 1.385 1.442l-6.488 6.23a.994.994 0 0 1 -.692.279z"/><path d="m79.533 110.692a1 1 0 0 1 -.118-1.993l9.159-1.1a1 1 0 1 1 .238 1.985l-9.159 1.1a1 1 0 0 1 -.12.008z"/><path d="m88.245 120.39a1 1 0 0 1 -.393-.081l-7.956-3.4a1 1 0 1 1 .785-1.839l7.956 3.4a1 1 0 0 1 -.393 1.92z"/></g></svg>