<svg id="icon" height="512" viewBox="0 0 128 128" width="512" xmlns="http://www.w3.org/2000/svg"><path d="m30.587 89.87h66.008v12.082h-66.008z" fill="#f0c191"/><g opacity=".5"><path d="m30.59 97.23h66.01v4.72h-66.01z" fill="#d8b18c"/></g><path d="m96.595 102.952h-66.008a1 1 0 0 1 -1-1v-12.081a1 1 0 0 1 1-1h66.008a1 1 0 0 1 1 1v12.082a1 1 0 0 1 -1 .999zm-65.008-2h64.008v-10.081h-64.008z" fill="#2f3a5a"/><path d="m115.083 127-38.912-100.539-10.717 4.148 37.305 96.391z" fill="#f0c191"/><path d="m115.083 128h-12.323a1 1 0 0 1 -.933-.639l-37.306-96.391a1 1 0 0 1 .571-1.293l10.718-4.148a1 1 0 0 1 1.29.571l38.911 100.539a1 1 0 0 1 -.933 1.361zm-11.638-2h10.179l-38.024-98.246-8.853 3.426z" fill="#2f3a5a"/><g opacity=".5"><path d="m115.085 126.999h-5.126l-38.252-98.814 4.464-1.721z" fill="#d8b18c"/></g><path d="m115.083 128h-12.323a1 1 0 0 1 -.933-.639l-37.306-96.391a1 1 0 0 1 .571-1.293l10.718-4.148a1 1 0 0 1 1.29.571l38.911 100.539a1 1 0 0 1 -.933 1.361zm-11.638-2h10.179l-38.024-98.246-8.853 3.426z" fill="#2f3a5a"/><path d="m12.917 127 38.912-100.539 10.717 4.148-37.305 96.391z" fill="#f0c191"/><path d="m25.24 128h-12.323a1 1 0 0 1 -.933-1.361l38.916-100.539a1 1 0 0 1 1.294-.572l10.718 4.148a1 1 0 0 1 .571 1.293l-37.31 96.392a1 1 0 0 1 -.933.639zm-10.864-2h10.179l36.7-94.819-8.855-3.427z" fill="#2f3a5a"/><g opacity=".5"><path d="m12.915 126.999h5.126l38.252-98.814-4.464-1.721z" fill="#d8b18c"/></g><path d="m25.24 128h-12.323a1 1 0 0 1 -.933-1.361l38.916-100.539a1 1 0 0 1 1.294-.572l10.718 4.148a1 1 0 0 1 .571 1.293l-37.31 96.392a1 1 0 0 1 -.933.639zm-10.864-2h10.179l36.7-94.819-8.855-3.427z" fill="#2f3a5a"/><rect fill="#f0c191" height="77.355" rx="5.739" width="113.601" x="7.199" y="1"/><path d="m115.062 78.855h-102.124a6.246 6.246 0 0 1 -6.238-6.239v-65.877a6.246 6.246 0 0 1 6.238-6.239h102.124a6.246 6.246 0 0 1 6.238 6.239v65.877a6.246 6.246 0 0 1 -6.238 6.239zm-102.124-77.355a5.245 5.245 0 0 0 -5.238 5.239v65.877a5.245 5.245 0 0 0 5.239 5.239h102.123a5.245 5.245 0 0 0 5.239-5.239v-65.877a5.245 5.245 0 0 0 -5.239-5.239z" fill="#e1b378"/><path d="m115.08 8.4v62.55a2.6 2.6 0 0 1 -2.6 2.6h-96.96a2.6 2.6 0 0 1 -2.6-2.6v-62.55a2.6 2.6 0 0 1 2.6-2.6h96.96a2.6 2.6 0 0 1 2.6 2.6z" fill="#9297ab"/><path d="m112.48 74.05h-96.96a3.1 3.1 0 0 1 -3.1-3.1v-62.55a3.1 3.1 0 0 1 3.1-3.1h96.96a3.1 3.1 0 0 1 3.1 3.1v62.55a3.1 3.1 0 0 1 -3.1 3.1zm-96.96-67.75a2.1 2.1 0 0 0 -2.1 2.1v62.55a2.1 2.1 0 0 0 2.1 2.1h96.96a2.1 2.1 0 0 0 2.1-2.1v-62.55a2.1 2.1 0 0 0 -2.1-2.1z" fill="#e1b378"/><path d="m115.062 79.355h-102.124a6.747 6.747 0 0 1 -6.738-6.739v-65.877a6.747 6.747 0 0 1 6.738-6.739h102.124a6.747 6.747 0 0 1 6.738 6.739v65.877a6.747 6.747 0 0 1 -6.738 6.739zm-102.124-77.355a4.745 4.745 0 0 0 -4.738 4.739v65.877a4.744 4.744 0 0 0 4.739 4.739h102.123a4.744 4.744 0 0 0 4.739-4.739v-65.877a4.745 4.745 0 0 0 -4.739-4.739z" fill="#2f3a5a"/><path d="m115.08 9v61.349a2.57 2.57 0 0 1 -2.6 2.55h-96.96a2.57 2.57 0 0 1 -2.6-2.55v-61.349a2.577 2.577 0 0 1 2.6-2.55h96.96a2.577 2.577 0 0 1 2.6 2.55z" fill="#707583"/><path d="m115.08 9v61.35a2.572 2.572 0 0 1 -2.6 2.55h-96.96a2.572 2.572 0 0 1 -2.6-2.55v-61.35a2.578 2.578 0 0 1 2.6-2.55h96.96a2.578 2.578 0 0 1 2.6 2.55z" fill="#707583"/><path d="m110.33 6.45v59.63a2.572 2.572 0 0 1 -2.6 2.55h-94.81v-59.63a2.578 2.578 0 0 1 2.6-2.55z" fill="#84879c"/><path d="m112.48 73.9h-96.96a3.58 3.58 0 0 1 -3.6-3.55v-61.35a3.58 3.58 0 0 1 3.6-3.55h96.96a3.58 3.58 0 0 1 3.6 3.55v61.349a3.58 3.58 0 0 1 -3.6 3.551zm-96.96-66.449a1.577 1.577 0 0 0 -1.6 1.549v61.349a1.577 1.577 0 0 0 1.6 1.55h96.96a1.577 1.577 0 0 0 1.6-1.55v-61.349a1.577 1.577 0 0 0 -1.6-1.55z" fill="#2f3a5a"/><g fill="#d9e2e9"><path d="m101.927 27.139h-75.854a1 1 0 0 1 0-2h75.854a1 1 0 0 1 0 2z"/><path d="m101.927 39.675h-75.854a1 1 0 0 1 0-2h75.854a1 1 0 0 1 0 2z"/><path d="m101.927 52.211h-75.854a1 1 0 0 1 0-2h75.854a1 1 0 1 1 0 2z"/></g></svg>