<svg id="icon" height="512" viewBox="0 0 128 128" width="512" xmlns="http://www.w3.org/2000/svg"><path d="m23.318 80.483h42.273v7.255h-42.273z" fill="#e1e6e9"/><path d="m65.591 88.738h-42.273a1 1 0 0 1 -1-1v-7.255a1 1 0 0 1 1-1h42.273a1 1 0 0 1 1 1v7.254a1 1 0 0 1 -1 1.001zm-41.272-2h40.272v-5.255h-40.273z" fill="#2f3a5a"/><path d="m81.328 32.461-13.528 12.039s24.2 9.081 25.1 32.53-33.757 37.4-33.757 37.4h43.306s29.56-50.984-21.121-81.969z" fill="#b0b3c1"/><path d="m102.444 114.428h-7.078s27.92-48.148-17.025-79.306l2.984-2.66c50.681 30.984 21.119 81.966 21.119 81.966z" fill="#9297ab"/><path d="m102.444 115.426h-43.305a1 1 0 0 1 -.374-1.928c.341-.137 33.985-13.96 33.131-36.431-.854-22.523-24.211-31.54-24.447-31.628a1 1 0 0 1 -.313-1.684l13.527-12.041a1 1 0 0 1 1.187-.106c26.605 16.266 31.021 38.082 30.04 53.518a74.256 74.256 0 0 1 -8.58 29.8 1 1 0 0 1 -.866.5zm-38.7-2h38.109a74.187 74.187 0 0 0 8.045-28.5c1.336-21.4-8.24-38.633-28.461-51.226l-11.8 10.505c5.363 2.495 23.483 12.388 24.257 32.786.726 19.092-20.768 31.809-30.151 36.435z" fill="#2f3a5a"/><path d="m81.328 32.461-13.528 12.039s24.2 9.081 25.1 32.53-33.757 37.4-33.757 37.4h43.306s29.56-50.984-21.121-81.969z" fill="none"/><path d="m86.612 11.367h12.554v9.437h-12.554z" fill="#c8cbd2" transform="matrix(.707 .707 -.707 .707 38.581 -60.971)"/><path d="m100.667 17.184-6.673 6.673-3.574-3.562 6.673-6.674z" fill="#9297ab"/><path d="m58.591 11.401h23.191v54.776h-23.191z" fill="#f0f5f9" transform="matrix(.707 .707 -.707 .707 47.985 -38.268)"/><path d="m48.572 41.125h54.769v6.87h-54.769z" fill="#d9e2e9" transform="matrix(.707 -.707 .707 .707 -9.264 66.748)"/><path d="m92.895 22.758v.012l-11.543-11.543z" fill="#d9e2e9"/><path d="m59.02 67.354a1 1 0 0 1 -.707-.293l-16.4-16.4a1 1 0 0 1 0-1.414l38.733-38.731a1.029 1.029 0 0 1 1.414 0l16.4 16.4a1 1 0 0 1 0 1.414l-38.733 38.732a1 1 0 0 1 -.707.292zm-14.984-17.4 14.984 14.986 37.318-37.318-14.984-14.985z" fill="#2f3a5a"/><path d="m93.991 24.861a1 1 0 0 1 -.707-.293l-8.877-8.877a1 1 0 0 1 0-1.414l6.673-6.677a1.029 1.029 0 0 1 1.414 0l8.877 8.877a1 1 0 0 1 0 1.414l-6.671 6.677a1 1 0 0 1 -.709.293zm-7.463-9.877 7.463 7.463 5.259-5.259-7.463-7.463z" fill="#2f3a5a"/><path d="m89.437 6.552h18.711v7.26h-18.711z" fill="#d1ccec" transform="matrix(.707 .707 -.707 .707 36.136 -66.875)"/><path d="m107.977 14.234-5.135 5.136-13.232-13.232h.012l9.657 9.658 5.124-5.135z" fill="#9297ab"/><path d="m41.206 56.773h12.554v9.437h-12.554z" fill="#b0b3c1" transform="matrix(-.707 -.707 .707 -.707 37.578 138.549)"/><path d="m45.47 61.739h9.438v4.907h-9.438z" fill="#9297ab" transform="matrix(.707 -.707 .707 .707 -30.691 54.29)"/><path d="m48.585 70.267a1 1 0 0 1 -.707-.293l-8.878-8.874a1 1 0 0 1 0-1.414l6.674-6.673a1 1 0 0 1 1.414 0l8.877 8.877a1 1 0 0 1 0 1.414l-6.674 6.673a1 1 0 0 1 -.706.29zm-7.463-9.877 7.463 7.463 5.26-5.259-7.463-7.463z" fill="#2f3a5a"/><path d="m86.612 11.367h12.554v9.437h-12.554z" fill="none" transform="matrix(.707 .707 -.707 .707 38.581 -60.971)"/><path d="m102.842 20.365a1 1 0 0 1 -.707-.293l-13.235-13.231a1 1 0 0 1 0-1.414l5.137-5.134a1 1 0 0 1 1.414 0l13.231 13.231a1 1 0 0 1 0 1.414l-5.134 5.134a1 1 0 0 1 -.706.293zm-11.818-14.231 11.817 11.817 3.72-3.72-11.817-11.817z" fill="#2f3a5a"/><path d="m41.206 56.773h12.554v9.437h-12.554z" fill="none" transform="matrix(-.707 -.707 .707 -.707 37.578 138.549)"/><circle cx="81.705" cy="44.974" fill="#b0b3c1" r="13.447"/><path d="m81.705 59.42a14.447 14.447 0 1 1 14.446-14.446 14.463 14.463 0 0 1 -14.446 14.446zm0-26.893a12.447 12.447 0 1 0 12.446 12.447 12.46 12.46 0 0 0 -12.446-12.447z" fill="#2f3a5a"/><circle cx="81.705" cy="44.974" fill="#e1e6e9" r="6.185"/><path d="m81.705 52.158a7.185 7.185 0 1 1 7.185-7.185 7.193 7.193 0 0 1 -7.185 7.185zm0-12.369a5.185 5.185 0 1 0 5.185 5.185 5.191 5.191 0 0 0 -5.185-5.185z" fill="#2f3a5a"/><path d="m11.364 114.428h105.271v12.572h-105.271z" fill="#c1cdd3"/><path d="m11.364 114.428h99.211v7.946h-99.211z" fill="#f0f5f9"/><g fill="#2f3a5a"><path d="m116.63 128h-105.26a1 1 0 0 1 -1-1v-12.574a1 1 0 0 1 1-1h105.26a1 1 0 0 1 1 1v12.574a1 1 0 0 1 -1 1zm-104.26-2h103.26v-10.574h-103.26z"/><path d="m116.63 128a1 1 0 0 1 -1-1v-12.574a1 1 0 0 1 2 0v12.574a1 1 0 0 1 -1 1z"/><path d="m92.074 85.111h-26.483a1 1 0 0 1 0-2h26.483a1 1 0 0 1 0 2z"/></g><path d="m33.2 97.557h18.861v16.869h-18.861z" fill="#e1e6e9"/><path d="m52.061 115.426h-18.861a1 1 0 0 1 -1-1v-16.869a1 1 0 0 1 1-1h18.86a1 1 0 0 1 1 1v16.869a1 1 0 0 1 -.999 1zm-17.86-2h16.86v-14.869h-16.861z" fill="#2f3a5a"/></svg>