<svg id="icon" height="512" viewBox="0 0 128 128" width="512" xmlns="http://www.w3.org/2000/svg"><path d="m48.267 58.957h31.056a25.406 25.406 0 0 1 25.406 25.406v9.371a0 0 0 0 1 0 0h-81.868a0 0 0 0 1 0 0v-9.372a25.406 25.406 0 0 1 25.406-25.405z" fill="#f26176"/><path d="m104.725 84.353v9.375h-14.034v-7.328a25.41 25.41 0 0 0 -25.402-25.4h-27.011a25.106 25.106 0 0 1 9.98-2.049h31.065a25.41 25.41 0 0 1 25.402 25.402z" fill="#e95a6a"/><path d="m104.729 94.733h-81.868a1 1 0 0 1 -1-1v-9.371a26.435 26.435 0 0 1 26.406-26.405h31.056a26.436 26.436 0 0 1 26.406 26.406v9.371a1 1 0 0 1 -1 .999zm-80.868-2h79.868v-8.371a24.433 24.433 0 0 0 -24.406-24.405h-31.056a24.433 24.433 0 0 0 -24.406 24.405z" fill="#2f3a5a"/><path d="m75.074 49.671h-20.991v13c0 5.8 4.7 3.4 10.495 3.4s10.5 2.4 10.5-3.4z" fill="#e8c79c"/><path d="m57.724 67.558a4.73 4.73 0 0 1 -3.312-1 4.961 4.961 0 0 1 -1.328-3.891v-13a1 1 0 0 1 1-1h20.99a1 1 0 0 1 1 1v13a4.962 4.962 0 0 1 -1.328 3.892c-1.44 1.293-3.667 1.057-6.245.781a36.366 36.366 0 0 0 -3.924-.272 36.246 36.246 0 0 0 -3.925.273 28.649 28.649 0 0 1 -2.928.217zm-2.641-16.888v12a3.249 3.249 0 0 0 .665 2.4c.776.7 2.591.5 4.692.278a38.4 38.4 0 0 1 4.138-.284 38.376 38.376 0 0 1 4.136.284c2.1.225 3.919.418 4.7-.28a3.248 3.248 0 0 0 .665-2.4v-12z" fill="#2f3a5a"/><path d="m85.422 24.657c-1.946-.268-3.968 2.556-4.517 6.308s.585 7.01 2.531 7.278 3.968-2.556 4.517-6.308-.584-7.01-2.531-7.278z" fill="#e8c79c"/><path d="m83.7 39.261a2.938 2.938 0 0 1 -.4-.028 3.288 3.288 0 0 1 -2.172-1.371c-1.158-1.541-1.623-4.239-1.212-7.042.648-4.432 3.067-7.508 5.642-7.154a3.288 3.288 0 0 1 2.172 1.371c1.158 1.541 1.623 4.239 1.212 7.042-.613 4.2-2.823 7.182-5.242 7.182zm1.46-13.622c-1.19 0-2.8 2.256-3.268 5.47-.33 2.26 0 4.439.833 5.552a1.335 1.335 0 0 0 .845.591c1.218.167 2.9-2.136 3.391-5.461.33-2.26 0-4.439-.833-5.552a1.335 1.335 0 0 0 -.845-.591.859.859 0 0 0 -.12-.009z" fill="#2f3a5a"/><path d="m42.243 24.648c1.9-.261 3.868 2.491 4.4 6.147s-.57 6.832-2.467 7.093-3.868-2.491-4.4-6.147.571-6.832 2.467-7.093z" fill="#e8c79c"/><path d="m43.919 38.906c-2.368 0-4.532-2.915-5.132-7.021-.4-2.738.055-5.376 1.187-6.883a3.227 3.227 0 0 1 2.133-1.346c2.517-.345 4.895 2.66 5.527 6.994.4 2.738-.055 5.375-1.187 6.882a3.227 3.227 0 0 1 -2.133 1.346 2.916 2.916 0 0 1 -.395.028zm-1.54-13.268a1.278 1.278 0 0 0 -.807.566c-.811 1.079-1.128 3.2-.807 5.392.472 3.228 2.108 5.46 3.276 5.3a1.276 1.276 0 0 0 .807-.566c.811-1.079 1.128-3.2.807-5.392-.472-3.227-2.115-5.458-3.276-5.3z" fill="#2f3a5a"/><path d="m79.55 11-15.572-1.053-15.573 1.053-3.374 21.207s.13 20.659 18.947 22.662c18.817-2 18.947-22.662 18.947-22.662z" fill="#e8c79c"/><path d="m63.978 55.869a.963.963 0 0 1 -.106-.006c-19.48-2.074-19.839-23.435-19.84-23.65a1.021 1.021 0 0 1 .012-.164l3.374-21.206a1 1 0 0 1 .92-.84l15.572-1.054a1.034 1.034 0 0 1 .135 0l15.573 1.051a1 1 0 0 1 .92.84l3.374 21.21a1.021 1.021 0 0 1 .012.164c0 .215-.361 21.576-19.841 23.65a.963.963 0 0 1 -.105.005zm-17.946-23.59c.029 1.553.748 19.679 17.945 21.584 17.231-1.908 17.923-20.03 17.946-21.583l-3.235-20.335-14.71-1-14.71 1z" fill="#2f3a5a"/><path d="m81.508 8.45c-4.339-7.181-17.708-7.45-17.708-7.45s-13.365.274-17.71 7.45c-6.1 10.08-.975 25.157-.975 25.157-.193-3.042 2.424-8.934 2.878-10.094a8.122 8.122 0 0 1 3.054-3.149c.882-.526 11.409 3.677 19.762-7.911.043-.06.1-.12.145-.181l1.344.094c4.036.282 5.562 3.161 6.445 7.109.823 3.682 4.44 8.652 4.081 14.3 0 .006 4.304-16.022-1.316-25.325z" fill="#84879c"/><path d="m82.825 34.781a1.025 1.025 0 0 1 -.163-.013 1 1 0 0 1 -.836-1.05c.221-3.47-1.191-6.735-2.437-9.616a26.344 26.344 0 0 1 -1.622-4.402c-.971-4.345-2.524-6.12-5.539-6.33l-.8-.056c-7.13 9.653-15.825 8.533-19.117 8.109-.333-.043-.7-.091-.9-.1a7.139 7.139 0 0 0 -2.483 2.561c-.053.136-.136.335-.239.587-.675 1.636-2.728 6.615-2.572 9.078a1 1 0 0 1 -1.945.386c-.215-.634-5.207-15.638 1.066-26 4.575-7.562 17.972-7.923 18.54-7.935.609.012 14.015.368 18.585 7.933 5.774 9.558 1.606 25.436 1.426 26.107a1 1 0 0 1 -.964.741zm-19.047-32.781c-.087 0-12.826.351-16.833 6.968-3.812 6.3-3.013 14.767-2.005 19.87.528-1.726 1.233-3.529 1.9-5.135.1-.237.175-.425.226-.554a9.089 9.089 0 0 1 3.473-3.643c.459-.273.982-.207 2.028-.072 3.281.425 10.964 1.414 17.436-7.565.048-.066.1-.131.155-.2a1.07 1.07 0 0 1 .871-.4l1.344.094c5.03.351 6.571 4.4 7.351 7.889a25.116 25.116 0 0 0 1.505 4.049c.6 1.376 1.226 2.834 1.719 4.378.707-5.375.973-13.313-2.292-18.718-4.004-6.615-16.749-6.961-16.878-6.961z" fill="#2f3a5a"/><path d="m75.076 53.378-10.497 12.69 10.001 6.65 7.101-13.65z" fill="#f26176"/><path d="m74.58 73.718a1 1 0 0 1 -.554-.167l-10-6.65a1 1 0 0 1 -.217-1.47l10.5-12.689a1 1 0 0 1 1.423-.121l6.6 5.69a1 1 0 0 1 .234 1.219l-7.1 13.65a1 1 0 0 1 -.638.507.988.988 0 0 1 -.248.031zm-8.523-7.868 8.149 5.419 6.222-11.96-5.228-4.509z" fill="#2f3a5a"/><path d="m53.555 54.177 11.024 11.891-8.55 7.952-8.551-14.952z" fill="#f26176"/><g fill="#2f3a5a"><path d="m56.029 75.02a1.044 1.044 0 0 1 -.15-.011 1 1 0 0 1 -.718-.492l-8.551-14.952a1 1 0 0 1 .241-1.275l6.077-4.89a1 1 0 0 1 1.36.1l11.025 11.888a1 1 0 0 1 -.053 1.412l-8.55 7.952a1 1 0 0 1 -.681.268zm-7.259-15.707 7.5 13.116 6.9-6.413-9.714-10.475z"/><path d="m64.579 94.728a1 1 0 0 1 -1-1v-27.66a1 1 0 0 1 2 0v27.66a1 1 0 0 1 -1 1z"/><path d="m74.732 29.1a1 1 0 0 1 -.617-.214 3.439 3.439 0 0 0 -4.39-.025 1 1 0 1 1 -1.3-1.522 5.439 5.439 0 0 1 6.922-.025 1 1 0 0 1 -.618 1.786z"/><path d="m52.858 29.1a1 1 0 0 1 -.618-1.787 5.441 5.441 0 0 1 6.922.025 1 1 0 0 1 -1.292 1.526 3.426 3.426 0 0 0 -4.394.021 1 1 0 0 1 -.618.215z"/></g><ellipse cx="71.999" cy="31.962" fill="#84879c" rx=".948" ry="1.176"/><ellipse cx="71.999" cy="31.962" fill="#2f3a5a" rx="1.948" ry="2.176"/><ellipse cx="55.846" cy="31.962" fill="#84879c" rx=".948" ry="1.176"/><ellipse cx="55.846" cy="31.962" fill="#2f3a5a" rx="1.948" ry="2.176"/><path d="m58.739 45.586a1 1 0 0 1 -.584-1.812 10.13 10.13 0 0 1 11.505-.31 1 1 0 0 1 -1.16 1.626 7.981 7.981 0 0 0 -9.175.308 1 1 0 0 1 -.586.188z" fill="#2f3a5a"/><path d="m97.549 121.13-29.115 5.87v-50.757l29.115-5.869z" fill="#9bc6f1"/><path d="m68.434 128a1 1 0 0 1 -1-1v-50.756a1 1 0 0 1 .8-.98l29.114-5.87a1 1 0 0 1 1.2.98v50.756a1 1 0 0 1 -.8.98l-29.114 5.87a1.006 1.006 0 0 1 -.2.02zm1-50.938v48.716l27.114-5.466v-48.712z" fill="#2f3a5a"/><path d="m29.12 121.13 29.114 5.87v-50.757l-29.114-5.869z" fill="#9bc6f1"/><path d="m58.234 128a1.006 1.006 0 0 1 -.2-.02l-29.114-5.87a1 1 0 0 1 -.8-.98v-50.756a1 1 0 0 1 1.2-.98l29.114 5.87a1 1 0 0 1 .8.98v50.756a1 1 0 0 1 -1 1zm-28.114-7.688 27.114 5.466v-48.716l-27.114-5.462z" fill="#2f3a5a"/><path d="m58.234 76.243h10.2v50.757h-10.2z" fill="#9bc6f1"/><path d="m68.434 128h-10.2a1 1 0 0 1 -1-1v-50.756a1 1 0 0 1 1-1h10.2a1 1 0 0 1 1 1v50.756a1 1 0 0 1 -1 1zm-9.2-2h8.2v-48.756h-8.2z" fill="#2f3a5a"/><path d="m103.972 91.247h-8.642a2.011 2.011 0 0 0 0 4.021h8.642a2.011 2.011 0 0 0 0-4.021z" fill="#e8c79c"/><path d="m103.972 96.269h-8.642a3.011 3.011 0 0 1 0-6.021h8.643a3.011 3.011 0 0 1 0 6.021zm-8.642-4.022a1.011 1.011 0 0 0 0 2.021h8.643a1.011 1.011 0 0 0 0-2.021z" fill="#2f3a5a"/><path d="m103.972 95.417h-8.642a2.011 2.011 0 0 0 0 4.021h8.642a2.011 2.011 0 0 0 0-4.021z" fill="#e8c79c"/><path d="m103.972 100.438h-8.642a3.01 3.01 0 1 1 0-6.021h8.643a3.01 3.01 0 0 1 0 6.021zm-8.642-4.021a1.01 1.01 0 1 0 0 2.021h8.643a1.01 1.01 0 0 0 0-2.021z" fill="#2f3a5a"/><path d="m103.972 99.586h-8.642a2.011 2.011 0 0 0 0 4.021h8.642a2.011 2.011 0 0 0 0-4.021z" fill="#e8c79c"/><path d="m103.972 104.607h-8.642a3.01 3.01 0 1 1 0-6.021h8.643a3.01 3.01 0 0 1 0 6.021zm-8.643-4.021a1.01 1.01 0 1 0 0 2.021h8.643a1.01 1.01 0 0 0 0-2.021z" fill="#2f3a5a"/><path d="m103.972 103.756h-6.572a2.011 2.011 0 0 0 0 4.021h6.567a2.011 2.011 0 0 0 0-4.021z" fill="#e8c79c"/><path d="m103.972 108.777h-6.572a3.01 3.01 0 0 1 0-6.021h6.567a3.01 3.01 0 0 1 0 6.021zm-6.572-4.021a1.01 1.01 0 0 0 0 2.021h6.567a1.01 1.01 0 0 0 0-2.021z" fill="#2f3a5a"/><path d="m24.028 91.247h8.642a2.011 2.011 0 0 1 0 4.021h-8.642a2.011 2.011 0 1 1 0-4.021z" fill="#e8c79c"/><path d="m32.67 96.269h-8.642a3.011 3.011 0 0 1 0-6.021h8.642a3.011 3.011 0 0 1 0 6.021zm-8.643-4.021a1.011 1.011 0 0 0 0 2.021h8.643a1.011 1.011 0 0 0 0-2.021z" fill="#2f3a5a"/><path d="m24.028 95.417h8.642a2.011 2.011 0 0 1 0 4.021h-8.642a2.011 2.011 0 1 1 0-4.021z" fill="#e8c79c"/><path d="m32.67 100.438h-8.642a3.01 3.01 0 0 1 0-6.021h8.642a3.01 3.01 0 1 1 0 6.021zm-8.643-4.021a1.01 1.01 0 0 0 0 2.021h8.643a1.01 1.01 0 1 0 0-2.021z" fill="#2f3a5a"/><path d="m24.028 99.586h8.642a2.011 2.011 0 0 1 0 4.021h-8.642a2.011 2.011 0 1 1 0-4.021z" fill="#e8c79c"/><path d="m32.67 104.607h-8.642a3.01 3.01 0 0 1 0-6.021h8.642a3.01 3.01 0 1 1 0 6.021zm-8.643-4.021a1.01 1.01 0 0 0 0 2.021h8.643a1.01 1.01 0 1 0 0-2.021z" fill="#2f3a5a"/><path d="m24.028 103.756h6.572a2.011 2.011 0 0 1 0 4.021h-6.572a2.011 2.011 0 1 1 0-4.021z" fill="#e8c79c"/><path d="m30.6 108.777h-6.572a3.01 3.01 0 0 1 0-6.021h6.572a3.01 3.01 0 0 1 0 6.021zm-6.567-4.021a1.01 1.01 0 0 0 0 2.021h6.567a1.01 1.01 0 0 0 0-2.021z" fill="#2f3a5a"/></svg>