<svg id="icon" height="512" viewBox="0 0 128 128" width="512" xmlns="http://www.w3.org/2000/svg"><path d="m23.231 50.02h81.545v42.346h-81.545z" fill="#84879c"/><path d="m104.779 50.02v42.349h-81.545v-5.488h76.342v-36.861z" fill="#707583"/><path d="m104.775 93.366h-81.544a1 1 0 0 1 -1-1v-42.345a1 1 0 0 1 1-1h81.544a1 1 0 0 1 1 1v42.345a1 1 0 0 1 -1 1zm-80.544-2h79.544v-40.345h-79.544z" fill="#2f3a5a"/><path d="m64.003 28.327-62.997 21.693 62.997 21.694 62.997-21.694z" fill="#84879c"/><path d="m126.999 50.02-62.992 21.694-63.007-21.694 7.677-2.644 54.107 18.637 55.33-19.05z" fill="#707583"/><path d="m64 72.714a.994.994 0 0 1 -.326-.055l-63-21.693a1 1 0 0 1 0-1.891l63-21.693a.993.993 0 0 1 .651 0l63 21.693a1 1 0 0 1 0 1.891l-63 21.693a.994.994 0 0 1 -.325.055zm-59.922-22.693 59.922 20.635 59.925-20.636-59.925-20.635z" fill="#2f3a5a"/><path d="m92.666 76.689a1 1 0 0 1 -1-1v-13.211l-26.695-12.578a1 1 0 1 1 .853-1.81l27.268 12.849a1 1 0 0 1 .574.9v13.85a1 1 0 0 1 -1 1z" fill="#2f3a5a"/><path d="m87.071 99.673h11.189l-1.987-13.982a15.331 15.331 0 0 1 .977-7.439 4.878 4.878 0 1 0 -9.462-1.661 4.8 4.8 0 0 0 .423 1.977 12.924 12.924 0 0 1 .848 7.121z" fill="#dbe2eb"/><path d="m98.26 99.672h-11.19l.09-.66h7.92l-1.98-13.98a15.289 15.289 0 0 1 .97-7.44 4.825 4.825 0 0 0 .22-2.55 4.9 4.9 0 0 0 -2.27-3.28 4.873 4.873 0 0 1 5.23 6.49 15.294 15.294 0 0 0 -.98 7.44z" fill="#bac2d3"/><path d="m98.26 100.673h-11.189a1 1 0 0 1 -.99-1.141l1.987-13.983a11.934 11.934 0 0 0 -.77-6.57 5.774 5.774 0 0 1 -.511-2.387 5.858 5.858 0 0 1 2.17-4.562 5.874 5.874 0 0 1 9.23 6.567 14.359 14.359 0 0 0 -.925 6.953l1.988 13.982a1 1 0 0 1 -.99 1.141zm-10.036-2h8.884l-1.825-12.841a16.326 16.326 0 0 1 1.028-7.923 3.877 3.877 0 1 0 -7.523-1.316 3.794 3.794 0 0 0 .335 1.566 13.92 13.92 0 0 1 .926 7.672z" fill="#2f3a5a"/><path d="m96.207 83.709h-7.018a1 1 0 0 1 0-2h7.018a1 1 0 0 1 0 2z" fill="#2f3a5a"/><ellipse cx="64.721" cy="48.672" fill="#707583" rx="4.001" ry="2.366"/><path d="m64.721 52.038c-2.8 0-5-1.479-5-3.366s2.2-3.366 5-3.366 5 1.479 5 3.366-2.195 3.366-5 3.366zm0-4.732c-1.8 0-3 .822-3 1.366s1.2 1.366 3 1.366 3-.822 3-1.366-1.196-1.366-3-1.366z" fill="#2f3a5a"/></svg>