<svg id="icon" height="512" viewBox="0 0 128 128" width="512" xmlns="http://www.w3.org/2000/svg"><path d="m38.405 56.488h9.902v63.944h-9.902z" fill="#dbe2eb" transform="matrix(-.808 .589 -.589 -.808 130.521 134.366)"/><path d="m58.2 118.206a.967.967 0 0 1 -.154-.012 1 1 0 0 1 -.653-.4l-37.693-51.654a1 1 0 0 1 .218-1.4l8-5.837a.985.985 0 0 1 .744-.18 1 1 0 0 1 .653.4l37.693 51.657a1 1 0 0 1 -.218 1.4l-8 5.836a1 1 0 0 1 -.59.19zm-36.29-52.437 36.51 50.04 6.383-4.657-36.51-50.041z" fill="#2f3a5a"/><path d="m38.405 11.377h9.902v63.944h-9.902z" fill="#dbe2eb" transform="matrix(.807 .591 -.591 .807 33.98 -17.24)"/><path d="m28.465 73.071a1 1 0 0 1 -.591-.193l-7.99-5.85a1 1 0 0 1 -.216-1.4l37.773-51.592a1 1 0 0 1 1.4-.216l7.99 5.85a1 1 0 0 1 .216 1.4l-37.776 51.592a1 1 0 0 1 -.807.409zm-6.592-7.071 6.376 4.668 36.591-49.976-6.376-4.668z" fill="#2f3a5a"/><circle cx="92.469" cy="36.316" fill="#dbe2eb" r="12.859" transform="matrix(.987 -.163 .163 .987 -4.691 15.597)"/><path d="m92.461 50.177a13.869 13.869 0 1 1 2.272-.188 13.881 13.881 0 0 1 -2.272.188zm.014-25.721a11.923 11.923 0 0 0 -1.944.16 11.855 11.855 0 1 0 1.944-.16z" fill="#2f3a5a"/><path d="m66.26 3.239a11.976 11.976 0 0 0 -13.942 19.477l17.124 12.258 13.942-19.474z" fill="#6bb3d9"/><path d="m72.79 30.3-3.346 4.674-17.13-12.252a11.982 11.982 0 0 1 -2.768-16.715 11.747 11.747 0 0 1 2.381-2.478 11.988 11.988 0 0 0 3.952 14.666z" fill="#4fa4d1"/><path d="m69.442 35.974a1 1 0 0 1 -.582-.187l-17.125-12.258a12.977 12.977 0 0 1 5.433-23.354 12.9 12.9 0 0 1 9.673 2.25l17.125 12.259a1 1 0 0 1 .231 1.4l-13.942 19.472a1 1 0 0 1 -.649.4.977.977 0 0 1 -.164.018zm-10.13-33.974a11.106 11.106 0 0 0 -1.817.15 10.976 10.976 0 0 0 -4.595 19.75l16.311 11.679 12.778-17.851-16.311-11.676a10.9 10.9 0 0 0 -6.366-2.052z" fill="#2f3a5a"/><path d="m108.9 13.662a28.387 28.387 0 0 0 -32.97 46.054z" fill="#6bb3d9"/><path d="m108.9 13.667-32.969 46.047a28.4 28.4 0 0 1 -9.167-29.89 28.3 28.3 0 0 0 10.236 19.853l27.388-38.26a26.718 26.718 0 0 1 4.512 2.25z" fill="#4fa4d1"/><path d="m75.93 60.716a1 1 0 0 1 -.636-.229 29.387 29.387 0 0 1 34.128-47.677 1 1 0 0 1 .288 1.433l-32.967 46.057a1 1 0 0 1 -.684.41 1.046 1.046 0 0 1 -.129.006zm18.143-50.253a27.371 27.371 0 0 0 -18.32 47.783l31.7-44.279a27.169 27.169 0 0 0 -13.38-3.504z" fill="#2f3a5a"/><circle cx="29.232" cy="67.251" fill="#84879c" r="10.135"/><path d="m29.232 78.386a11.135 11.135 0 1 1 11.135-11.135 11.147 11.147 0 0 1 -11.135 11.135zm0-20.27a9.135 9.135 0 1 0 9.135 9.135 9.145 9.145 0 0 0 -9.135-9.135z" fill="#2f3a5a"/><circle cx="29.232" cy="67.251" fill="#dbe2eb" r="4.055"/><path d="m29.232 72.306a5.055 5.055 0 1 1 5.055-5.055 5.06 5.06 0 0 1 -5.055 5.055zm0-8.109a3.055 3.055 0 1 0 3.055 3.055 3.058 3.058 0 0 0 -3.055-3.052z" fill="#2f3a5a"/><path d="m85.249 112.226h-45.533a3.369 3.369 0 0 0 -3.369 3.369v6.48h52.271v-6.475a3.369 3.369 0 0 0 -3.369-3.374z" fill="#dbe2eb"/><path d="m88.619 123.075h-52.272a1 1 0 0 1 -1-1v-6.475a4.374 4.374 0 0 1 4.369-4.369h45.533a4.374 4.374 0 0 1 4.37 4.369v6.48a1 1 0 0 1 -1 .995zm-51.272-2h50.272v-5.475a2.372 2.372 0 0 0 -2.37-2.369h-45.533a2.372 2.372 0 0 0 -2.369 2.369z" fill="#2f3a5a"/><path d="m29.913 122.075h65.138v4.925h-65.138z" fill="#dbe2eb"/><path d="m95.052 128h-65.138a1 1 0 0 1 -1-1v-4.925a1 1 0 0 1 1-1h65.138a1 1 0 0 1 1 1v4.925a1 1 0 0 1 -1 1zm-64.138-2h63.138v-2.925h-63.138z" fill="#2f3a5a"/></svg>