<svg id="icon" height="512" viewBox="0 0 128 128" width="512" xmlns="http://www.w3.org/2000/svg"><path d="m1 16.573v98.906h53.555a6.4 6.4 0 0 0 6.4 6.4h6.082a6.4 6.4 0 0 0 6.4-6.4h53.563v-98.906z" fill="#9297ab"/><path d="m67.041 122.883h-6.082a7.415 7.415 0 0 1 -7.336-6.4h-52.623a1 1 0 0 1 -1-1v-98.91a1 1 0 0 1 1-1h126a1 1 0 0 1 1 1v98.906a1 1 0 0 1 -1 1h-52.623a7.415 7.415 0 0 1 -7.336 6.404zm-65.041-8.404h52.555a1 1 0 0 1 1 1 5.41 5.41 0 0 0 5.4 5.4h6.082a5.41 5.41 0 0 0 5.4-5.4 1 1 0 0 1 1-1h52.563v-96.906h-124z" fill="#2f3a5a"/><path d="m117.985 109.373a73.324 73.324 0 0 0 -53.985 0v-98.107a73.324 73.324 0 0 1 53.985 0z" fill="#d9e2e9"/><path d="m64 109.373a73.324 73.324 0 0 1 53.985 0v-98.107a73.324 73.324 0 0 0 -53.985 0z" fill="#d9e2e9"/><path d="m64 109.373a73.324 73.324 0 0 1 53.985 0v-98.107a73.324 73.324 0 0 0 -53.985 0z" fill="#d9e2e9"/><path d="m117.987 11.26v98.108a73.449 73.449 0 0 0 -53.987 0v-11.306a73.249 73.249 0 0 1 48.373 1.958v-90.72c1.897.583 3.763 1.226 5.614 1.96z" fill="#c1cdd3"/><path d="m117.985 110.373a.994.994 0 0 1 -.368-.07 72.076 72.076 0 0 0 -53.249 0 1 1 0 0 1 -1.368-.93v-98.106a1 1 0 0 1 .632-.93 74.055 74.055 0 0 1 54.721 0 1 1 0 0 1 .632.93v98.106a1 1 0 0 1 -1 1zm-26.992-7.173a74.205 74.205 0 0 1 25.992 4.713v-95.963a72.054 72.054 0 0 0 -51.985 0v95.967a74.206 74.206 0 0 1 25.993-4.717z" fill="#2f3a5a"/><path d="m64 109.373a73.324 73.324 0 0 0 -53.985 0v-98.107a73.324 73.324 0 0 1 53.985 0z" fill="#d9e2e9"/><path d="m10.015 109.373a73.324 73.324 0 0 1 53.985 0v-98.107a73.324 73.324 0 0 0 -53.985 0z" fill="#d9e2e9"/><path d="m64 96.257v13.111a73.449 73.449 0 0 0 -53.987 0v-98.108c1.9-.75 3.809-1.423 5.752-1.989v88.975a73.141 73.141 0 0 1 48.235-1.989z" fill="#c1cdd3"/><g fill="#2f3a5a"><path d="m64 110.373a.994.994 0 0 1 -.368-.07 72.081 72.081 0 0 0 -53.249 0 1 1 0 0 1 -1.368-.93v-98.106a1 1 0 0 1 .632-.93 74.055 74.055 0 0 1 54.721 0 1 1 0 0 1 .632.93v98.106a1 1 0 0 1 -1 1zm-26.993-7.173a74.206 74.206 0 0 1 25.993 4.717v-95.967a72.056 72.056 0 0 0 -51.985 0v95.967a74.205 74.205 0 0 1 25.992-4.717z"/><path d="m71.932 26.9a1 1 0 0 1 -.239-1.971c10.812-2.671 23.408-2.675 37.439-.012a1 1 0 1 1 -.373 1.965c-13.744-2.609-26.053-2.613-36.586-.012a1 1 0 0 1 -.241.03z"/><path d="m71.932 43.125a1 1 0 0 1 -.239-1.971c10.812-2.672 23.408-2.675 37.439-.012a1 1 0 1 1 -.373 1.965c-13.744-2.607-26.053-2.613-36.587-.007a1 1 0 0 1 -.24.025z"/><path d="m71.932 59.354a1 1 0 0 1 -.239-1.971c10.812-2.671 23.408-2.675 37.439-.012a1 1 0 1 1 -.373 1.965c-13.744-2.609-26.053-2.613-36.586-.012a1 1 0 0 1 -.241.03z"/><path d="m71.932 75.582a1 1 0 0 1 -.239-1.971c10.807-2.672 23.407-2.675 37.439-.011a1 1 0 1 1 -.373 1.965c-13.744-2.609-26.053-2.613-36.586-.012a1 1 0 0 1 -.241.029z"/><path d="m71.932 91.81a1 1 0 0 1 -.239-1.971c10.812-2.671 23.408-2.675 37.439-.012a1 1 0 1 1 -.373 1.965c-13.744-2.609-26.053-2.613-36.586-.012a1 1 0 0 1 -.241.03z"/><path d="m18.5 26.9a1 1 0 0 1 -.239-1.971c10.812-2.672 23.409-2.675 37.439-.012a1 1 0 1 1 -.373 1.965c-13.745-2.608-26.055-2.613-36.587-.012a1 1 0 0 1 -.24.03z"/><path d="m18.5 43.125a1 1 0 0 1 -.239-1.971c10.812-2.672 23.409-2.675 37.439-.012a1 1 0 0 1 -.373 1.965c-13.744-2.607-26.054-2.612-36.586-.007a1 1 0 0 1 -.241.025z"/><path d="m18.5 59.354a1 1 0 0 1 -.239-1.971c10.812-2.671 23.409-2.675 37.439-.012a1 1 0 0 1 -.373 1.965c-13.745-2.608-26.055-2.613-36.587-.012a1 1 0 0 1 -.24.03z"/><path d="m18.5 75.582a1 1 0 0 1 -.239-1.971c10.812-2.672 23.409-2.675 37.439-.011a1 1 0 1 1 -.373 1.965c-13.745-2.608-26.055-2.613-36.587-.012a1 1 0 0 1 -.24.029z"/><path d="m18.5 91.81a1 1 0 0 1 -.239-1.971c10.812-2.671 23.409-2.675 37.439-.012a1 1 0 0 1 -.373 1.965c-13.745-2.608-26.055-2.612-36.587-.012a1 1 0 0 1 -.24.03z"/></g></svg>