<svg id="icon" height="512" viewBox="0 0 128 128" width="512" xmlns="http://www.w3.org/2000/svg"><path d="m4.646 60.641h118.708v59.717h-118.708z" fill="#dbe2eb"/><path d="m123.35 60.637v59.72h-118.7v-3.49h113.38v-56.23z" fill="#c1cdd3"/><path d="m123.354 121.357h-118.708a1 1 0 0 1 -1-1v-59.716a1 1 0 0 1 1-1h118.708a1 1 0 0 1 1 1v59.716a1 1 0 0 1 -1 1zm-117.707-2h116.707v-57.716h-116.708z" fill="#2f3a5a"/><path d="m1 60.641h126v6.835h-126z" fill="#f26176"/><path d="m127 68.476h-126a1 1 0 0 1 -1-1v-6.835a1 1 0 0 1 1-1h126a1 1 0 0 1 1 1v6.835a1 1 0 0 1 -1 1zm-125-2h124v-4.835h-124z" fill="#2f3a5a"/><path d="m89.144 120.357h-50.288v-77.783l25.144-17.142 25.144 17.142z" fill="#dbe2eb"/><path d="m89.14 42.577v77.78h-50.28v-4.28h46.46v-76.11z" fill="#c1cdd3"/><path d="m89.144 121.357h-50.288a1 1 0 0 1 -1-1v-77.783a1 1 0 0 1 .437-.826l25.144-17.143a1 1 0 0 1 1.127 0l25.143 17.143a1 1 0 0 1 .437.826v77.783a1 1 0 0 1 -1 1zm-49.287-2h48.287v-76.257l-24.144-16.458-24.144 16.458z" fill="#2f3a5a"/><path d="m100.416 50.165-36.404-30.441h-.024l-36.687 30.834 4.411 5.222 32.288-27.119 32.005 26.726z" fill="#f26176"/><path d="m100.42 50.17-4.42 5.22-32-26.73-32.29 27.12-4.41-5.22 1.82-1.53 2.59 3.08 32.29-27.12 32 26.72 2.6-3.07z" fill="#d85567"/><path d="m31.713 56.78a1 1 0 0 1 -.765-.354l-4.411-5.226a1 1 0 0 1 .12-1.411l36.688-30.831a1.059 1.059 0 0 1 1.309 0l36.4 30.442a1 1 0 0 1 .122 1.413l-4.411 5.221a1 1 0 0 1 -1.4.122l-31.365-26.191-31.645 26.58a1 1 0 0 1 -.642.235zm-3-6.1 3.12 3.693 31.523-26.473a1 1 0 0 1 1.284 0l31.243 26.082 3.117-3.694-35-29.269z" fill="#2f3a5a"/><path d="m100.668 77.7h11.811v11.811h-11.811z" fill="#6bb3d9"/><path d="m112.479 90.511h-11.811a1 1 0 0 1 -1-1v-11.811a1 1 0 0 1 1-1h11.811a1 1 0 0 1 1 1v11.811a1 1 0 0 1 -1 1zm-10.811-2h9.811v-9.811h-9.811z" fill="#2f3a5a"/><path d="m100.668 99.445h11.811v11.811h-11.811z" fill="#6bb3d9"/><path d="m112.479 112.256h-11.811a1 1 0 0 1 -1-1v-11.811a1 1 0 0 1 1-1h11.811a1 1 0 0 1 1 1v11.811a1 1 0 0 1 -1 1zm-10.811-2h9.811v-9.811h-9.811z" fill="#2f3a5a"/><path d="m16.087 77.7h11.811v11.811h-11.811z" fill="#6bb3d9"/><path d="m27.9 90.511h-11.812a1 1 0 0 1 -1-1v-11.811a1 1 0 0 1 1-1h11.812a1 1 0 0 1 1 1v11.811a1 1 0 0 1 -1 1zm-10.811-2h9.811v-9.811h-9.812z" fill="#2f3a5a"/><path d="m16.087 99.445h11.811v11.811h-11.811z" fill="#6bb3d9"/><path d="m27.9 112.256h-11.812a1 1 0 0 1 -1-1v-11.811a1 1 0 0 1 1-1h11.812a1 1 0 0 1 1 1v11.811a1 1 0 0 1 -1 1zm-10.811-2h9.811v-9.811h-9.812z" fill="#2f3a5a"/><path d="m55.38 98.252h17.239v22.106h-17.239z" fill="#d0aa79"/><path d="m72.62 121.357h-17.24a1 1 0 0 1 -1-1v-22.106a1 1 0 0 1 1-1h17.24a1 1 0 0 1 1 1v22.105a1 1 0 0 1 -1 1.001zm-16.24-2h15.24v-20.106h-15.24z" fill="#2f3a5a"/><path d="m48.302 77.7h10.372v10.372h-10.372z" fill="#6bb3d9"/><path d="m58.674 89.072h-10.374a1 1 0 0 1 -1-1v-10.372a1 1 0 0 1 1-1h10.374a1 1 0 0 1 1 1v10.372a1 1 0 0 1 -1 1zm-9.371-2h8.371v-8.372h-8.374z" fill="#2f3a5a"/><path d="m69.326 77.7h10.372v10.372h-10.372z" fill="#6bb3d9"/><path d="m79.7 89.072h-10.374a1 1 0 0 1 -1-1v-10.372a1 1 0 0 1 1-1h10.374a1 1 0 0 1 1 1v10.372a1 1 0 0 1 -1 1zm-9.371-2h8.371v-8.372h-8.374z" fill="#2f3a5a"/><path d="m48.302 57.149h10.372v10.372h-10.372z" fill="#6bb3d9"/><path d="m58.674 68.521h-10.374a1 1 0 0 1 -1-1v-10.372a1 1 0 0 1 1-1h10.374a1 1 0 0 1 1 1v10.372a1 1 0 0 1 -1 1zm-9.371-2h8.371v-8.372h-8.374z" fill="#2f3a5a"/><path d="m69.326 57.149h10.372v10.372h-10.372z" fill="#6bb3d9"/><path d="m79.7 68.521h-10.374a1 1 0 0 1 -1-1v-10.372a1 1 0 0 1 1-1h10.374a1 1 0 0 1 1 1v10.372a1 1 0 0 1 -1 1zm-9.371-2h8.371v-8.372h-8.374z" fill="#2f3a5a"/><circle cx="64" cy="44.831" fill="#bac2d3" r="5.818"/><path d="m64 51.648a6.817 6.817 0 1 1 6.817-6.817 6.825 6.825 0 0 1 -6.817 6.817zm0-11.635a4.817 4.817 0 1 0 4.817 4.817 4.823 4.823 0 0 0 -4.817-4.817z" fill="#2f3a5a"/><path d="m1 120.357h126v4.299h-126z" fill="#dbe2eb"/><path d="m127 125.656h-126a1 1 0 0 1 -1-1v-4.3a1 1 0 0 1 1-1h126a1 1 0 0 1 1 1v4.3a1 1 0 0 1 -1 1zm-125-2h124v-2.3h-124z" fill="#2f3a5a"/><path d="m64.012 20.724a1 1 0 0 1 -1-1v-15.397a1 1 0 0 1 2 0v15.4a1 1 0 0 1 -1 .997z" fill="#2f3a5a"/><path d="m64.012 4.327v10.015c4.842 3.405 9.685-3.405 14.527 0v-10.015c-4.839-3.405-9.685 3.405-14.527 0z" fill="#fac77c"/><path d="m64.012 4.327v10.015c4.842 3.405 9.685-3.405 14.527 0v-10.015c-4.839-3.405-9.685 3.405-14.527 0z" fill="#fac77c"/><path d="m78.54 4.33v10.01c-4.84-3.4-9.69 3.41-14.53 0v-1.99c4.21.94 8.42-3.82 12.63-.86v-8.02a5.178 5.178 0 0 1 1.9.86z" fill="#faba59"/><path d="m67.069 16.325a6.127 6.127 0 0 1 -3.633-1.165 1 1 0 0 1 -.425-.818v-10.015a1 1 0 0 1 1.575-.818c2 1.405 4.017.7 6.356-.125 2.5-.878 5.328-1.873 8.171.125a1 1 0 0 1 .425.818v10.015a1 1 0 0 1 -1.575.818c-2-1.4-4.019-.7-6.356.125a13.9 13.9 0 0 1 -4.538 1.04zm-2.058-2.534c1.862 1.039 3.76.371 5.933-.393 2.035-.715 4.292-1.51 6.595-.7v-7.821c-1.862-1.039-3.759-.371-5.932.393-2.037.716-4.293 1.507-6.6.7z" fill="#2f3a5a"/></svg>