<svg id="icon" height="512" viewBox="0 0 128 128" width="512" xmlns="http://www.w3.org/2000/svg"><path d="m19.663 2.142h88.674l9.937 26.325h-108.548z" fill="#e95a6a"/><path d="m118.273 29.467h-108.546a1 1 0 0 1 -.936-1.353l9.937-26.325a1 1 0 0 1 .936-.647h88.674a1 1 0 0 1 .936.647l9.937 26.326a1 1 0 0 1 -.936 1.353zm-107.1-2h105.654l-9.181-24.325h-87.292z" fill="#2f3a5a"/><path d="m81.613 78.094-19.01-14.043 45.734-61.909 9.937 26.325z" fill="#f26176"/><path d="m81.613 79.094a1 1 0 0 1 -.594-.2l-19.009-14.039a1 1 0 0 1 -.211-1.4l45.733-61.908a1.012 1.012 0 0 1 .942-.4 1 1 0 0 1 .8.638l9.937 26.326a1 1 0 0 1 -.131.947l-36.662 49.63a1 1 0 0 1 -.656.395 1.013 1.013 0 0 1 -.149.011zm-17.613-15.253 17.4 12.859 35.742-48.384-9.1-24.1z" fill="#2f3a5a"/><path d="m46.387 78.094 19.01-14.043-45.734-61.909-9.937 26.325z" fill="#f26176"/><path d="m46.387 79.094a.95.95 0 0 1 -.148-.011 1 1 0 0 1 -.656-.395l-36.661-49.626a1 1 0 0 1 -.131-.947l9.937-26.326a1 1 0 0 1 1.74-.241l45.732 61.909a1 1 0 0 1 -.211 1.4l-19.009 14.043a1 1 0 0 1 -.593.194zm-35.533-50.783 35.746 48.389 17.4-12.859-44.05-59.628z" fill="#2f3a5a"/><circle cx="64" cy="89.876" fill="#ffc943" r="35.982"/><path d="m64 126.858a36.982 36.982 0 1 1 36.982-36.982 37.024 37.024 0 0 1 -36.982 36.982zm0-71.965a34.982 34.982 0 1 0 34.982 34.983 35.022 35.022 0 0 0 -34.982-34.982z" fill="#2f3a5a"/><g fill="#f7b521"><path d="m50.018 108.988c-1.25 1.1-1.185 3.074.266 4.794a26.227 26.227 0 0 1 -4.01-3.014c1.457-1.8.585-4.75-1.267-7.363-1.508.676-2.076 2.525-1.372 4.523a27.234 27.234 0 0 1 -2.659-3.959c1.9-1.294 2.059-4.271 1.076-7.271-1.637.2-2.714 1.793-2.663 3.885a29.232 29.232 0 0 1 -1.336-4.5c2.2-.662 3.21-3.473 3.1-6.64-1.63-.294-3.1.918-3.644 2.936a30.683 30.683 0 0 1 -.033-4.7c2.3.03 4.05-2.366 4.838-5.448-1.51-.781-3.3-.007-4.376 1.846a28.405 28.405 0 0 1 1.333-4.637c2.2.727 4.557-1.062 6.26-3.805-1.213-1.2-3.176-.983-4.752.478a26.978 26.978 0 0 1 2.7-4.052c1.9 1.331 4.7.3 7.322-1.823-.764-1.49-2.734-1.875-4.721-.988a26.7 26.7 0 0 1 3.8-2.942 17.18 17.18 0 0 0 9.025-4.3c-3.425-1.147-8.092.708-9.727 3.561a27.689 27.689 0 0 0 -3.839 3c1.135-2.032 1.477-3.929.308-5.193-4 2.733-4.729 6.6-2.972 8.084a27.954 27.954 0 0 0 -2.719 4.065c.379-2.194.044-4.026-1.423-4.87-2.752 3.676-2.3 7.527-.21 8.442a29.377 29.377 0 0 0 -1.341 4.637c-.282-2.185-1.153-3.812-2.789-4.182-1.511 4.292.005 7.843 2.276 8.083a31.724 31.724 0 0 0 .044 4.931c-.878-2.07-2.183-3.414-3.885-3.283-.248 4.553 2.195 7.517 4.441 7.061a29.693 29.693 0 0 0 1.4 4.7c-1.429-1.716-3.041-2.611-4.632-1.983 1.032 4.441 4.247 6.572 6.269 5.476a27.6 27.6 0 0 0 2.835 4.141c-1.938-1.255-3.763-1.654-5.119-.57 2.337 3.988 6.215 5.081 7.81 3.395a27.919 27.919 0 0 0 4.232 3.174c-2.394-.641-4.313-.49-5.282.961 3.651 3.142 8.023 3.04 9 .952a30.913 30.913 0 0 0 5.218 1.72l.226-.975a30.559 30.559 0 0 1 -5.072-1.645c.79-2.167-1.233-4.736-3.936-6.702z"/><path d="m89.521 101.045a29.693 29.693 0 0 0 1.4-4.7c2.246.456 4.689-2.507 4.441-7.061-1.7-.132-3.007 1.213-3.885 3.283a31.724 31.724 0 0 0 .044-4.931c2.271-.24 3.787-3.79 2.276-8.083-1.637.37-2.507 2-2.789 4.182a29.377 29.377 0 0 0 -1.341-4.635c2.09-.915 2.542-4.766-.21-8.442-1.467.843-1.8 2.675-1.423 4.87a27.954 27.954 0 0 0 -2.719-4.065c1.757-1.486 1.027-5.351-2.972-8.084-1.169 1.263-.826 3.161.308 5.193a27.689 27.689 0 0 0 -3.839-3c-1.634-2.853-6.3-4.708-9.727-3.561a17.18 17.18 0 0 0 9.025 4.3 26.7 26.7 0 0 1 3.8 2.942c-1.987-.886-3.957-.5-4.721.988 2.622 2.127 5.42 3.153 7.322 1.823a26.978 26.978 0 0 1 2.7 4.052c-1.576-1.461-3.539-1.676-4.752-.478 1.7 2.743 4.056 4.532 6.26 3.805a28.405 28.405 0 0 1 1.333 4.637c-1.075-1.852-2.866-2.627-4.376-1.846.788 3.083 2.536 5.478 4.838 5.448a30.683 30.683 0 0 1 -.033 4.7c-.542-2.017-2.014-3.23-3.644-2.936-.107 3.167.9 5.978 3.1 6.64a29.232 29.232 0 0 1 -1.336 4.5c.051-2.092-1.025-3.685-2.663-3.885-.982 3-.825 5.978 1.076 7.271a27.234 27.234 0 0 1 -2.659 3.959c.7-2 .136-3.847-1.372-4.523-1.853 2.613-2.724 5.558-1.267 7.363a26.227 26.227 0 0 1 -4.01 3.014c1.451-1.72 1.516-3.69.266-4.794-2.7 1.967-4.726 4.535-3.936 6.7a30.559 30.559 0 0 1 -5.072 1.645l.226.975a30.913 30.913 0 0 0 5.209-1.718c.979 2.089 5.351 2.191 9-.952-.969-1.451-2.888-1.6-5.282-.961a27.919 27.919 0 0 0 4.232-3.174c1.594 1.686 5.472.593 7.81-3.395-1.356-1.084-3.181-.685-5.119.57a27.6 27.6 0 0 0 2.835-4.141c2.022 1.1 5.237-1.036 6.269-5.476-1.582-.63-3.195.265-4.623 1.981z"/><path d="m67.344 100.035v-27.8l-4.944-.26c-.559 5.377-4.619 6.366-5.08 6.46l.912 4.868a10.637 10.637 0 0 0 4.155-1.872v18.6h-4.6v4.952h14.225v-4.952z"/></g></svg>