<svg id="icon" height="512" viewBox="0 0 128 128" width="512" xmlns="http://www.w3.org/2000/svg"><circle cx="64" cy="64" fill="#6bb3d9" r="63"/><path d="m127 64a63 63 0 0 1 -97.95 52.42 63.012 63.012 0 0 0 66.31-107.07 62.972 62.972 0 0 1 31.64 54.65z" fill="#4fa4d1"/><path d="m64 128a64 64 0 1 1 64-64 64.072 64.072 0 0 1 -64 64zm0-126a62 62 0 1 0 62 62 62.07 62.07 0 0 0 -62-62z" fill="#2f3a5a"/><circle cx="64" cy="64" fill="#dbe2eb" r="52.569"/><path d="m116.57 64a52.565 52.565 0 0 1 -96.41 29 52.563 52.563 0 0 0 84.32-62.53 52.321 52.321 0 0 1 12.09 33.53z" fill="#bac2d3"/><path d="m64 117.569a53.569 53.569 0 1 1 53.568-53.569 53.629 53.629 0 0 1 -53.568 53.569zm0-105.138a51.569 51.569 0 1 0 51.568 51.569 51.627 51.627 0 0 0 -51.568-51.569z" fill="#2f3a5a"/><path d="m61.844 18.19h4.311v7.285h-4.311z" fill="#84879c"/><path d="m66.155 26.475h-4.31a1 1 0 0 1 -1-1v-7.285a1 1 0 0 1 1-1h4.311a1 1 0 0 1 1 1v7.285a1 1 0 0 1 -1.001 1zm-3.311-2h2.311v-5.285h-2.31z" fill="#2f3a5a"/><path d="m61.844 102.525h4.311v7.285h-4.311z" fill="#84879c"/><path d="m66.155 110.81h-4.31a1 1 0 0 1 -1-1v-7.285a1 1 0 0 1 1-1h4.311a1 1 0 0 1 1 1v7.285a1 1 0 0 1 -1.001 1zm-3.311-2h2.311v-5.285h-2.31z" fill="#2f3a5a"/><path d="m104.012 60.358h4.311v7.285h-4.311z" fill="#84879c" transform="matrix(0 1 -1 0 170.167 -42.167)"/><path d="m109.81 67.156h-7.284a1 1 0 0 1 -1-1v-4.312a1 1 0 0 1 1-1h7.284a1 1 0 0 1 1 1v4.312a1 1 0 0 1 -1 1zm-6.284-2h5.284v-2.312h-5.284z" fill="#2f3a5a"/><path d="m19.677 60.358h4.311v7.285h-4.311z" fill="#84879c" transform="matrix(0 1 -1 0 85.833 42.167)"/><path d="m25.475 67.156h-7.285a1 1 0 0 1 -1-1v-4.312a1 1 0 0 1 1-1h7.284a1 1 0 0 1 1 1v4.312a1 1 0 0 1 -.999 1zm-6.284-2h5.284v-2.312h-5.285z" fill="#2f3a5a"/><path d="m96.343 31.587-4.954 4.954" fill="#84879c"/><path d="m91.389 37.542a1 1 0 0 1 -.707-1.707l4.954-4.954a1 1 0 1 1 1.414 1.414l-4.95 4.954a1 1 0 0 1 -.711.293z" fill="#2f3a5a"/><path d="m36.611 91.319-4.954 4.954" fill="#84879c"/><path d="m31.657 97.273a1 1 0 0 1 -.707-1.707l4.95-4.954a1 1 0 0 1 1.414 1.414l-4.95 4.954a1 1 0 0 1 -.707.293z" fill="#2f3a5a"/><path d="m96.343 96.273-4.954-4.954" fill="#84879c"/><path d="m96.343 97.273a1 1 0 0 1 -.707-.293l-4.954-4.954a1 1 0 0 1 1.418-1.414l4.954 4.954a1 1 0 0 1 -.707 1.707z" fill="#2f3a5a"/><path d="m36.611 36.541-4.954-4.954" fill="#84879c"/><path d="m36.611 37.542a1 1 0 0 1 -.707-.293l-4.954-4.955a1 1 0 1 1 1.414-1.414l4.954 4.954a1 1 0 0 1 -.707 1.707z" fill="#2f3a5a"/><path d="m105.205 44.073-6.312 3.042" fill="#84879c"/><path d="m98.895 48.115a1 1 0 0 1 -.436-1.9l6.312-3.042a1 1 0 0 1 .869 1.8l-6.312 3.042a1 1 0 0 1 -.433.1z" fill="#2f3a5a"/><path d="m29.107 80.746-6.312 3.042" fill="#84879c"/><path d="m22.8 84.788a1 1 0 0 1 -.436-1.9l6.312-3.042a1 1 0 0 1 .869 1.8l-6.312 3.042a1 1 0 0 1 -.433.1z" fill="#2f3a5a"/><path d="m83.857 105.135-3.041-6.311" fill="#84879c"/><path d="m83.858 106.135a1 1 0 0 1 -.9-.566l-3.042-6.312a1 1 0 1 1 1.8-.868l3.042 6.312a1 1 0 0 1 -.9 1.434z" fill="#2f3a5a"/><path d="m47.184 29.037-3.041-6.311" fill="#84879c"/><path d="m47.186 30.037a1 1 0 0 1 -.9-.566l-3.044-6.311a1 1 0 1 1 1.8-.868l3.043 6.308a1 1 0 0 1 -.9 1.434z" fill="#2f3a5a"/><path d="m81.99 21.877-2.755 6.441" fill="#84879c"/><path d="m79.234 29.319a1 1 0 0 1 -.919-1.394l2.756-6.441a1 1 0 1 1 1.838.787l-2.756 6.441a1 1 0 0 1 -.919.607z" fill="#2f3a5a"/><path d="m48.765 99.542-2.755 6.442" fill="#84879c"/><path d="m46.01 106.984a1 1 0 0 1 -.919-1.394l2.756-6.441a1 1 0 1 1 1.838.787l-2.756 6.441a1 1 0 0 1 -.919.607z" fill="#2f3a5a"/><path d="m106.054 81.921-6.442-2.756" fill="#84879c"/><path d="m106.054 82.921a1 1 0 0 1 -.394-.081l-6.441-2.756a1 1 0 0 1 .787-1.839l6.441 2.755a1 1 0 0 1 -.394 1.92z" fill="#2f3a5a"/><path d="m28.388 48.696-6.442-2.756" fill="#84879c"/><path d="m28.388 49.7a1 1 0 0 1 -.394-.081l-6.441-2.756a1 1 0 0 1 .787-1.839l6.441 2.756a1 1 0 0 1 -.394 1.92z" fill="#2f3a5a"/><path d="m65.471 31.587h-3.157l-.627 40.436h4.626z" fill="#84879c"/><path d="m66.313 73.023h-4.625a1 1 0 0 1 -1-1.016l.627-40.437a1 1 0 0 1 1-.984h3.156a1 1 0 0 1 1 .979l.842 40.435a1 1 0 0 1 -1 1.021zm-3.609-2h2.588l-.8-38.437h-1.192z" fill="#2f3a5a"/><path d="m55.691 66.313v-4.625l35.698.626v3.157z" fill="#84879c"/><path d="m55.691 67.313a1 1 0 0 1 -1-1v-4.625a1 1 0 0 1 .3-.713.91.91 0 0 1 .719-.287l35.7.626a1 1 0 0 1 .982 1v3.157a1 1 0 0 1 -.977 1l-35.7.841zm1-4.607v2.583l33.7-.794v-1.195z" fill="#2f3a5a"/><path d="m64 64-23.259 23.259" fill="#84879c"/><path d="m40.74 88.259a1 1 0 0 1 -.707-1.707l23.26-23.259a1 1 0 0 1 1.414 1.414l-23.26 23.259a1 1 0 0 1 -.707.293z" fill="#fe7966"/><circle cx="64" cy="64" fill="#dbe2eb" r="4.53"/><path d="m64 69.53a5.53 5.53 0 1 1 5.53-5.53 5.536 5.536 0 0 1 -5.53 5.53zm0-9.061a3.53 3.53 0 1 0 3.53 3.531 3.534 3.534 0 0 0 -3.53-3.53z" fill="#2f3a5a"/></svg>