<svg id="icon" height="512" viewBox="0 0 128 128" width="512" xmlns="http://www.w3.org/2000/svg"><path d="m33.134 1a3.416 3.416 0 0 0 -3.416 3.416v119.384h6.832v-119.384a3.416 3.416 0 0 0 -3.416-3.416z" fill="#e1b378"/><path d="m37.55 124.8h-8.832v-120.384a4.416 4.416 0 0 1 8.832 0zm-6.832-2h4.832v-118.384a2.416 2.416 0 1 0 -4.832 0z" fill="#2f3a5a"/><path d="m22.128 119.136h83.758v7.864h-83.758z" fill="#e1b378"/><path d="m105.886 128h-83.758a1 1 0 0 1 -1-1v-7.864a1 1 0 0 1 1-1h83.758a1 1 0 0 1 1 1v7.864a1 1 0 0 1 -1 1zm-82.758-2h81.758v-5.864h-81.758z" fill="#2f3a5a"/><path d="m22.114 27.877h34.745v4.207h-34.745z" fill="#9297ab"/><path d="m56.859 33.084h-34.745a1 1 0 0 1 -1-1v-4.207a1 1 0 0 1 1-1h34.745a1 1 0 0 1 1 1v4.208a1 1 0 0 1 -1 .999zm-33.745-2h32.745v-2.207h-32.745z" fill="#2f3a5a"/><path d="m72.7 38.8v-24.875h-13.463v24.875a21.617 21.617 0 1 0 13.459 0z" fill="#f0f5f9"/><path d="m87.588 59.338a21.626 21.626 0 0 1 -21.621 21.621 22.767 22.767 0 0 1 -2.911-.195h-.012a21.64 21.64 0 0 1 -18.7-21.426 20.916 20.916 0 0 1 .378-3.934h42.488c.11.572.195 1.145.256 1.73a5.994 5.994 0 0 1 .061.658 1.631 1.631 0 0 1 .012.244c.036.425.049.864.049 1.302z" fill="#81dafc"/><path d="m87.588 59.338a21.626 21.626 0 0 1 -21.621 21.621 22.959 22.959 0 0 1 -2.923-.195 21.616 21.616 0 0 0 3.8-41.963v-24.872h5.847v24.871a21.625 21.625 0 0 1 14.897 20.538z" fill="#d9e2e9"/><path d="m87.588 59.338a21.626 21.626 0 0 1 -21.621 21.621 22.767 22.767 0 0 1 -2.911-.195 21.639 21.639 0 0 0 18.685-21.426 21.985 21.985 0 0 0 -.353-3.934h5.822c.11.572.195 1.145.256 1.73a5.994 5.994 0 0 1 .061.658 1.631 1.631 0 0 1 .012.244c.036.425.049.864.049 1.302z" fill="#3dbce9"/><path d="m65.966 81.957a22.613 22.613 0 0 1 -7.729-43.865v-24.167a1 1 0 0 1 1-1h13.463a1 1 0 0 1 1 1v24.166a22.613 22.613 0 0 1 -7.729 43.865zm-5.729-67.032v23.875a1 1 0 0 1 -.688.95 20.618 20.618 0 1 0 12.835 0 1 1 0 0 1 -.688-.95v-23.875z" fill="#2f3a5a"/><path d="m74.512 13.925h-16.544a1.935 1.935 0 0 0 0 3.87h16.544a1.935 1.935 0 0 0 0-3.87z" fill="#f0f5f9"/><path d="m74.513 18.794h-16.545a2.935 2.935 0 0 1 0-5.869h16.545a2.935 2.935 0 1 1 0 5.869zm-16.545-3.869a.935.935 0 0 0 0 1.869h16.545a.935.935 0 1 0 0-1.869z" fill="#2f3a5a"/><path d="m56.859 25.327h18.956v9.307h-18.956z" fill="#9297ab"/><path d="m75.815 35.634h-18.956a1 1 0 0 1 -1-1v-9.307a1 1 0 0 1 1-1h18.956a1 1 0 0 1 1 1v9.307a1 1 0 0 1 -1 1zm-17.956-2h16.956v-7.307h-16.956z" fill="#2f3a5a"/><path d="m26.735 25.327h12.796v9.307h-12.796z" fill="#9297ab"/><path d="m39.532 35.634h-12.8a1 1 0 0 1 -1-1v-9.307a1 1 0 0 1 1-1h12.8a1 1 0 0 1 1 1v9.307a1 1 0 0 1 -1 1zm-11.8-2h10.8v-7.307h-10.8z" fill="#2f3a5a"/><path d="m69.492 103.114v-5.65h-7.05v5.65a10.342 10.342 0 0 0 -4.712 16.023h16.47a10.342 10.342 0 0 0 -4.712-16.023z" fill="#9297ab"/><path d="m74.2 120.136h-16.471a1 1 0 0 1 -.795-.393 11.264 11.264 0 0 1 -2.337-6.888 11.4 11.4 0 0 1 6.845-10.419v-4.972a1 1 0 0 1 1-1h7.049a1 1 0 0 1 1 1v4.972a11.4 11.4 0 0 1 6.845 10.419 11.259 11.259 0 0 1 -2.336 6.889 1 1 0 0 1 -.8.392zm-15.964-2h15.457a9.254 9.254 0 0 0 1.643-5.281 9.391 9.391 0 0 0 -6.185-8.8 1 1 0 0 1 -.66-.94v-4.65h-5.049v4.65a1 1 0 0 1 -.66.94 9.391 9.391 0 0 0 -6.185 8.8 9.262 9.262 0 0 0 1.642 5.281z" fill="#2f3a5a"/><path d="m65.967 98.464a1 1 0 0 1 -1-1v-4.164a1 1 0 0 1 2 0v4.165a1 1 0 0 1 -1 .999z" fill="#2f3a5a"/><path d="m69.306 91.48a3.339 3.339 0 0 1 -6.679 0c0-1.844 3.2-6.619 3.339-6.627 0 0 3.34 4.783 3.34 6.627z" fill="#ef5361"/><path d="m65.966 95.819a4.344 4.344 0 0 1 -4.339-4.339c0-1.444 2.981-7.548 4.279-7.625a.984.984 0 0 1 .88.426c.587.842 3.52 5.145 3.52 7.2a4.345 4.345 0 0 1 -4.34 4.338zm-.03-9.211c-.93 1.462-2.309 3.937-2.309 4.872a2.339 2.339 0 1 0 4.679 0c0-.854-1.212-3.063-2.37-4.872z" fill="#2f3a5a"/></svg>