<svg id="icon" height="512" viewBox="0 0 128 128" width="512" xmlns="http://www.w3.org/2000/svg"><path d="m40.108 88.259h-31.308a1 1 0 1 1 0-2h31.308a1 1 0 0 1 0 2z" fill="#2f3a5a"/><path d="m22.718 7.669a3.5 3.5 0 0 0 -3.5 3.5v104.984h7v-104.982a3.5 3.5 0 0 0 -3.5-3.502z" fill="#e1b378"/><path d="m27.22 117.153h-9v-105.983a4.5 4.5 0 0 1 9 0zm-7-2h5v-103.983a2.5 2.5 0 0 0 -5 0z" fill="#2f3a5a"/><path d="m118.256 66.131h-15.133v38.278a7.566 7.566 0 0 0 15.132 0" fill="#f0f5f9"/><path d="m103.123 78.447v25.962a7.566 7.566 0 0 0 15.132 0v-25.962z" fill="#ef5361"/><path d="m110.689 112.975a8.576 8.576 0 0 1 -8.566-8.566v-38.278a1 1 0 0 1 1-1h15.132a1 1 0 0 1 1 1v38.278a8.576 8.576 0 0 1 -8.566 8.566zm-6.566-45.844v37.278a6.566 6.566 0 0 0 13.132 0v-37.278z" fill="#2f3a5a"/><path d="m81.574 39.342h-36.965a1.132 1.132 0 0 0 -.909 1.814 10.58 10.58 0 0 1 2.055 5.5v33.275a5.029 5.029 0 0 0 5.029 5.029h24.616a5.029 5.029 0 0 0 5.029-5.029v-33.273a10.58 10.58 0 0 1 2.055-5.5 1.132 1.132 0 0 0 -.91-1.816z" fill="#d9e2e9"/><path d="m80.429 56.78v23.15a5.027 5.027 0 0 1 -5.029 5.029h-24.615a5.027 5.027 0 0 1 -5.029-5.029v-23.15z" fill="#5fc4f8"/><path d="m81.575 39.34h-5.245a1.133 1.133 0 0 1 .907 1.818 10.537 10.537 0 0 0 -2.052 5.5v10.196l5.245.926v-11.121a10.537 10.537 0 0 1 2.052-5.5 1.133 1.133 0 0 0 -.907-1.819z" fill="#c1cdd3"/><path d="m80.429 56.78v23.15a5.027 5.027 0 0 1 -5.029 5.029h-5.245a5.03 5.03 0 0 0 5.029-5.029v-23.15z" fill="#3dbce9"/><path d="m75.4 85.96h-24.617a6.035 6.035 0 0 1 -6.028-6.029v-33.218a9.624 9.624 0 0 0 -1.843-4.941 2.093 2.093 0 0 1 -.229-2.223 2.13 2.13 0 0 1 1.927-1.207h36.964a2.13 2.13 0 0 1 1.926 1.207 2.092 2.092 0 0 1 -.23 2.223 9.628 9.628 0 0 0 -1.843 4.941v33.218a6.035 6.035 0 0 1 -6.027 6.029zm-30.791-45.618a.137.137 0 0 0 -.129.083.1.1 0 0 0 .008.115 11.607 11.607 0 0 1 2.262 6.011.983.983 0 0 1 .006.107v33.273a4.033 4.033 0 0 0 4.028 4.029h24.616a4.033 4.033 0 0 0 4.028-4.029v-33.273a.983.983 0 0 1 .006-.107 11.611 11.611 0 0 1 2.261-6.011.094.094 0 0 0 .008-.115.137.137 0 0 0 -.129-.083z" fill="#2f3a5a"/><path d="m1 111.975h126v8.356h-126z" fill="#e1b378"/><path d="m127 121.331h-126a1 1 0 0 1 -1-1v-8.356a1 1 0 0 1 1-1h126a1 1 0 0 1 1 1v8.356a1 1 0 0 1 -1 1zm-125-2h124v-6.356h-124z" fill="#2f3a5a"/><path d="m16.31 77.567h13.08v18.956h-13.08z" fill="#9297ab"/><path d="m29.39 97.523h-13.08a1 1 0 0 1 -1-1v-18.956a1 1 0 0 1 1-1h13.08a1 1 0 0 1 1 1v18.956a1 1 0 0 1 -1 1zm-12.08-2h11.08v-16.956h-11.08z" fill="#2f3a5a"/><path d="m40.108 84.96h50.753v4.599h-50.753z" fill="#c1cdd3"/><g fill="#2f3a5a"><path d="m90.861 90.559h-50.753a1 1 0 0 1 -1-1v-4.6a1 1 0 0 1 1-1h50.753a1 1 0 0 1 1 1v4.6a1 1 0 0 1 -1 1zm-49.753-2h48.753v-2.6h-48.753z"/><path d="m110.689 102.515a1 1 0 0 1 -1-1v-77.715a5.039 5.039 0 0 0 -5.033-5.034h-37a5.04 5.04 0 0 0 -5.038 5.034v46.631a1 1 0 0 1 -2 0v-46.631a7.042 7.042 0 0 1 7.034-7.034h37a7.042 7.042 0 0 1 7.033 7.034v77.716a1 1 0 0 1 -.996.999z"/></g></svg>