<svg id="icon" height="512" viewBox="0 0 128 128" width="512" xmlns="http://www.w3.org/2000/svg"><path d="m64 127a50.609 50.609 0 0 1 -50.551-50.551v-50.485h19.89v50.485a30.662 30.662 0 0 0 61.323 0v-50.485h19.89v50.485a50.608 50.608 0 0 1 -50.552 50.551z" fill="#d9e2e9"/><path d="m64 128a51.61 51.61 0 0 1 -51.551-51.551v-50.485a1 1 0 0 1 1-1h19.89a1 1 0 0 1 1 1v50.485a29.662 29.662 0 1 0 59.323 0v-50.485a1 1 0 0 1 1-1h19.89a1 1 0 0 1 1 1v50.485a51.609 51.609 0 0 1 -51.552 51.551zm-49.551-101.036v49.485a49.551 49.551 0 1 0 99.1 0v-49.485h-17.887v49.485a31.662 31.662 0 1 1 -63.323 0v-49.485z" fill="#2f3a5a"/><path d="m94.662 25.964h19.89v19.902h-19.89z" fill="#ef5361"/><path d="m114.551 46.866h-19.889a1 1 0 0 1 -1-1v-19.9a1 1 0 0 1 1-1h19.89a1 1 0 0 1 1 1v19.9a1 1 0 0 1 -1.001 1zm-18.89-2h17.89v-17.9h-17.889z" fill="#2f3a5a"/><path d="m13.449 25.964h19.89v19.902h-19.89z" fill="#3dbce9"/><path d="m33.338 46.866h-19.889a1 1 0 0 1 -1-1v-19.9a1 1 0 0 1 1-1h19.89a1 1 0 0 1 1 1v19.9a1 1 0 0 1 -1.001 1zm-18.89-2h17.89v-17.9h-17.889z" fill="#2f3a5a"/><path d="m66.988 1-16.636 24.7h12.237l-7.733 27.131 25.707-36.839-10.536.726 11.906-15.718z" fill="#fac77c"/><path d="m54.855 53.832a1 1 0 0 1 -.961-1.274l7.371-25.858h-10.913a1 1 0 0 1 -.83-1.559l16.637-24.7a1 1 0 0 1 .829-.441h14.945a1 1 0 0 1 .8 1.6l-10.582 13.969 8.342-.575a1 1 0 0 1 .889 1.57l-25.706 36.836a1 1 0 0 1 -.821.432zm-2.624-29.132h10.358a1 1 0 0 1 .962 1.274l-6.1 21.384 21.095-30.225-8.451.583a1 1 0 0 1 -.866-1.6l10.692-14.116h-12.4z" fill="#2f3a5a"/></svg>