<svg id="icon" height="512" viewBox="0 0 128 128" width="512" xmlns="http://www.w3.org/2000/svg"><path d="m29.909 86.139h22.442v9.844h-22.442z" fill="#9297ab"/><path d="m52.351 96.982h-22.442a1 1 0 0 1 -1-1v-9.843a1 1 0 0 1 1-1h22.442a1 1 0 0 1 1 1v9.844a1 1 0 0 1 -1 .999zm-21.442-2h20.442v-7.843h-20.442z" fill="#2f3a5a"/><path d="m1 25.376v54.983 5.78h80.26v-5.78-54.983z" fill="#84879c"/><path d="m81.26 87.139h-80.26a1 1 0 0 1 -1-1v-60.763a1 1 0 0 1 1-1h80.26a1 1 0 0 1 1 1v60.763a1 1 0 0 1 -1 1zm-79.26-2h78.26v-58.763h-78.26z" fill="#2f3a5a"/><path d="m58.6 95.982h-34.944a5.334 5.334 0 0 0 -5.334 5.334v1.307h45.616v-1.307a5.334 5.334 0 0 0 -5.338-5.334z" fill="#9297ab"/><path d="m63.938 103.624h-45.616a1 1 0 0 1 -1-1v-1.308a6.341 6.341 0 0 1 6.334-6.333h34.944a6.341 6.341 0 0 1 6.334 6.333v1.308a1 1 0 0 1 -.996 1zm-44.616-2h43.616v-.308a4.339 4.339 0 0 0 -4.338-4.334h-34.944a4.339 4.339 0 0 0 -4.334 4.333z" fill="#2f3a5a"/><path d="m6.15 30.52h69.96v44.69h-69.96z" fill="#81dafc"/><path d="m87.98 25.376h39.02v76.312h-39.02z" fill="#9297ab"/><path d="m127 102.688h-39.02a1 1 0 0 1 -1-1v-76.312a1 1 0 0 1 1-1h39.02a1 1 0 0 1 1 1v76.312a1 1 0 0 1 -1 1zm-38.02-2h37.02v-74.312h-37.02z" fill="#2f3a5a"/><path d="m92.848 31.03h29.284v8.78h-29.284z" fill="#9297ab"/><path d="m122.132 40.81h-29.284a1 1 0 0 1 -1-1v-8.78a1 1 0 0 1 1-1h29.284a1 1 0 0 1 1 1v8.78a1 1 0 0 1 -1 1zm-28.284-2h27.284v-6.78h-27.284z" fill="#2f3a5a"/><path d="m92.848 44.946h29.284v8.78h-29.284z" fill="#9297ab"/><path d="m122.132 54.726h-29.284a1 1 0 0 1 -1-1v-8.78a1 1 0 0 1 1-1h29.284a1 1 0 0 1 1 1v8.78a1 1 0 0 1 -1 1zm-28.284-2h27.284v-6.78h-27.284z" fill="#2f3a5a"/><path d="m92.848 60.244h29.284v35.307h-29.284z" fill="#9297ab"/><path d="m122.132 96.55h-29.284a1 1 0 0 1 -1-1v-35.306a1 1 0 0 1 1-1h29.284a1 1 0 0 1 1 1v35.306a1 1 0 0 1 -1 1zm-28.284-2h27.284v-33.306h-27.284z" fill="#2f3a5a"/><g fill="#707583"><circle cx="107.35" cy="68.691" r="2.952"/><circle cx="107.35" cy="76.85" r="1.639"/><circle cx="41.13" cy="80.648" r="2.159"/></g><g opacity=".5"><path d="m42.788 30.52-17.9 44.69h-3.89l17.9-44.69z" fill="#f0f5f9"/></g><g opacity=".5"><path d="m53.52 30.52-17.9 44.69h-6.19l17.9-44.69z" fill="#f0f5f9"/></g><path d="m76.113 76.211h-69.965a1 1 0 0 1 -1-1v-44.687a1 1 0 0 1 1-1h69.965a1 1 0 0 1 1 1v44.687a1 1 0 0 1 -1 1zm-68.965-2h67.965v-42.687h-67.965z" fill="#2f3a5a"/></svg>