<svg id="icon" height="512" viewBox="0 0 128 128" width="512" xmlns="http://www.w3.org/2000/svg"><path d="m56.1 33.872h17.616a14.41 14.41 0 0 1 14.41 14.41v5.318a0 0 0 0 1 0 0h-46.435a0 0 0 0 1 0 0v-5.318a14.41 14.41 0 0 1 14.409-14.41z" fill="#dbe2eb"/><path d="m88.123 48.277v5.317h-7.96v-4.155a14.412 14.412 0 0 0 -14.407-14.408h-15.321a14.24 14.24 0 0 1 5.665-1.162h17.615a14.412 14.412 0 0 1 14.408 14.408z" fill="#bac2d3"/><path d="m88.125 54.6h-46.434a1 1 0 0 1 -1-1v-5.318a15.427 15.427 0 0 1 15.409-15.409h17.616a15.427 15.427 0 0 1 15.41 15.41v5.317a1 1 0 0 1 -1.001 1zm-45.435-2h44.435v-4.318a13.425 13.425 0 0 0 -13.41-13.41h-17.615a13.425 13.425 0 0 0 -13.41 13.41z" fill="#2f3a5a"/><path d="m71.306 28.605h-11.906v7.373c0 3.287 2.665 1.927 5.952 1.927s5.954 1.359 5.953-1.929z" fill="#e8c79c"/><path d="m61.451 39.185a3.05 3.05 0 0 1 -2.153-.677 3.211 3.211 0 0 1 -.9-2.529v-7.374a1 1 0 0 1 1-1h11.908a1 1 0 0 1 1 1v7.372a3.21 3.21 0 0 1 -.9 2.529c-.959.863-2.311.719-3.877.551a21.259 21.259 0 0 0 -4.36 0 16.771 16.771 0 0 1 -1.718.128zm-1.051-9.58v6.373a1.589 1.589 0 0 0 .234 1.042c.295.266 1.374.15 2.326.049a17.6 17.6 0 0 1 4.785 0c.952.1 2.031.218 2.328-.05a1.591 1.591 0 0 0 .233-1.042v-6.372z" fill="#2f3a5a"/><path d="m77.175 14.418c-1.1-.152-2.251 1.45-2.562 3.578s.332 3.976 1.436 4.128 2.251-1.45 2.562-3.578-.332-3.976-1.436-4.128z" fill="#e8c79c"/><path d="m76.2 23.134a2.048 2.048 0 0 1 -.283-.02 2.287 2.287 0 0 1 -1.519-.946 5.97 5.97 0 0 1 -.77-4.317c.4-2.755 1.987-4.657 3.688-4.424a2.287 2.287 0 0 1 1.519.946 5.97 5.97 0 0 1 .77 4.317c-.385 2.602-1.82 4.444-3.405 4.444zm.828-7.726c-.28 0-1.15.885-1.42 2.732a4.142 4.142 0 0 0 .391 2.827.41.41 0 0 0 .192.166c.288.049 1.161-.849 1.437-2.731a4.142 4.142 0 0 0 -.391-2.827.413.413 0 0 0 -.192-.166h-.016z" fill="#2f3a5a"/><path d="m52.684 14.413c1.076-.148 2.194 1.413 2.5 3.487s-.323 3.875-1.4 4.023-2.194-1.413-2.5-3.487.324-3.875 1.4-4.023z" fill="#e8c79c"/><path d="m53.639 22.932c-1.562 0-2.971-1.8-3.344-4.352a5.843 5.843 0 0 1 .755-4.226 2.253 2.253 0 0 1 1.5-.933c1.677-.226 3.228 1.633 3.623 4.333a5.842 5.842 0 0 1 -.756 4.227 2.252 2.252 0 0 1 -1.5.932 2.068 2.068 0 0 1 -.278.019zm-.819-7.532a.392.392 0 0 0 -.17.152 4.009 4.009 0 0 0 -.375 2.735c.262 1.791 1.133 2.658 1.371 2.641.025 0 .091-.047.17-.152a4.01 4.01 0 0 0 .375-2.736c-.261-1.787-1.151-2.661-1.371-2.64z" fill="#2f3a5a"/><path d="m73.844 6.673-8.833-.6-8.833.6-1.913 12.027s.074 11.717 10.746 12.854c10.674-1.136 10.747-12.854 10.747-12.854z" fill="#e8c79c"/><path d="m65.012 32.554a.963.963 0 0 1 -.106-.006c-11.429-1.217-11.639-13.716-11.64-13.842a1.021 1.021 0 0 1 .012-.164l1.913-12.027a1 1 0 0 1 .92-.84l8.833-.6a1.034 1.034 0 0 1 .135 0l8.833.6a1 1 0 0 1 .92.84l1.914 12.028a1.021 1.021 0 0 1 .012.164c0 .126-.211 12.625-11.641 13.842a.963.963 0 0 1 -.105.005zm-9.745-13.783c.027 1.05.53 10.723 9.745 11.778 9.214-1.055 9.718-10.728 9.745-11.778l-1.775-11.155-7.971-.54-7.97.54z" fill="#2f3a5a"/><path d="m74.955 5.226c-2.461-4.073-10.045-4.226-10.045-4.226s-7.58.155-10.044 4.226c-3.462 5.717-.553 14.269-.553 14.269-.11-1.725 1.375-5.067 1.632-5.725a4.607 4.607 0 0 1 1.732-1.786c.5-.3 6.471 2.085 11.209-4.487.024-.034.054-.068.082-.1l.762.053c2.289.16 3.155 1.793 3.656 4.032.467 2.088 2.518 4.907 2.314 8.113 0-.002 2.442-9.095-.745-14.369z" fill="#84879c"/><path d="m75.7 20.593a1.025 1.025 0 0 1 -.163-.013 1 1 0 0 1 -.836-1.05 11.713 11.713 0 0 0 -1.347-5.254 15.255 15.255 0 0 1 -.945-2.577c-.509-2.268-1.25-3.149-2.747-3.254l-.218-.015a11.069 11.069 0 0 1 -11.106 4.58c-.132-.017-.246-.034-.339-.043a3.521 3.521 0 0 0 -1.122 1.167l-.138.338c-.374.905-1.51 3.66-1.428 4.958a1 1 0 0 1 -1.945.386c-.125-.367-3.017-9.062.645-15.109 2.718-4.489 10.547-4.7 10.879-4.707.373.007 8.207.216 10.921 4.708 3.369 5.578.96 14.756.856 15.144a1 1 0 0 1 -.967.741zm-10.811-18.593c-.028 0-7.02.2-9.167 3.744-1.722 2.842-1.722 6.511-1.361 9.296.173-.457.354-.905.528-1.33l.125-.305a5.587 5.587 0 0 1 2.151-2.28 2.079 2.079 0 0 1 1.427-.1c1.785.23 5.962.768 9.483-4.115.013-.018.086-.111.1-.128a1.035 1.035 0 0 1 .862-.387l.763.053c3.139.219 4.086 2.687 4.562 4.812a14 14 0 0 0 .829 2.22c.109.253.223.515.336.785.2-2.771.025-6.118-1.429-8.524-2.143-3.547-9.139-3.741-9.209-3.741z" fill="#2f3a5a"/><path d="m71.306 30.709-5.953 7.197 5.672 3.772 4.028-7.742z" fill="#dbe2eb"/><path d="m71.025 42.678a1 1 0 0 1 -.554-.167l-5.671-3.773a1 1 0 0 1 -.217-1.47l5.954-7.2a1 1 0 0 1 1.423-.121l3.746 3.228a1 1 0 0 1 .234 1.225l-4.027 7.742a1 1 0 0 1 -.638.507.988.988 0 0 1 -.25.029zm-4.194-4.99 3.821 2.541 3.148-6.052-2.374-2.045z" fill="#2f3a5a"/><path d="m59.1 31.161 6.253 6.745-4.85 4.51-4.85-8.48z" fill="#dbe2eb"/><g fill="#2f3a5a"><path d="m60.5 43.416a1.044 1.044 0 0 1 -.15-.011 1 1 0 0 1 -.718-.492l-4.85-8.48a1 1 0 0 1 .241-1.275l3.447-2.774a1 1 0 0 1 1.36.1l6.253 6.744a1 1 0 0 1 -.052 1.412l-4.85 4.51a1 1 0 0 1 -.681.266zm-3.555-9.236 3.8 6.645 3.2-2.972-4.945-5.328z"/><path d="m65.353 54.594a1 1 0 0 1 -1-1v-15.688a1 1 0 0 1 2 0v15.688a1 1 0 0 1 -1 1z"/><path d="m71.111 17.373a1 1 0 0 1 -.617-.213 1.516 1.516 0 0 0 -1.951-.018 1.007 1.007 0 0 1 -1.4-.135.994.994 0 0 1 .116-1.4 3.521 3.521 0 0 1 4.474-.025 1 1 0 0 1 -.618 1.787z"/><path d="m58.705 17.373a1 1 0 0 1 -.618-1.787 3.519 3.519 0 0 1 4.474.025 1 1 0 0 1 -1.289 1.529 1.515 1.515 0 0 0 -1.95.019 1 1 0 0 1 -.617.214z"/><path d="m62.041 26.722a1 1 0 0 1 -.584-1.812 6.117 6.117 0 0 1 7.03-.175 1 1 0 0 1 -1.163 1.627 4.115 4.115 0 0 0 -4.7.173 1 1 0 0 1 -.583.187z"/><path d="m69.508 20.175a1 1 0 0 1 -1-1v-.323a1 1 0 0 1 2 0v.323a1 1 0 0 1 -1 1z"/><path d="m60.463 20.175a1 1 0 0 1 -1-1v-.323a1 1 0 0 1 2 0v.323a1 1 0 0 1 -1 1z"/></g><path d="m90.812 127h-53.624l-6.424-69.74h66.472z" fill="#f0c191"/><path d="m90.813 128h-53.625a1 1 0 0 1 -1-.908l-6.424-69.74a1 1 0 0 1 1-1.092h66.472a1 1 0 0 1 1 1.092l-6.424 69.74a1 1 0 0 1 -.999.908zm-52.713-2h51.8l6.24-67.74h-64.28z" fill="#2f3a5a"/><path d="m45.37 116.766-4.538-49.272h46.337l-4.539 49.272z" fill="#d8b18c"/><path d="m82.63 117.766h-37.26a1 1 0 0 1 -1-.908l-4.534-49.272a1 1 0 0 1 1-1.092h46.333a1 1 0 0 1 1 1.092l-4.539 49.272a1 1 0 0 1 -1 .908zm-36.348-2h35.436l4.355-47.272h-44.145z" fill="#2f3a5a"/><path d="m24.262 49.099h79.477v8.161h-79.477z" fill="#f0c191"/><path d="m103.738 58.26h-79.476a1 1 0 0 1 -1-1v-8.16a1 1 0 0 1 1-1h79.477a1 1 0 0 1 1 1v8.16a1 1 0 0 1 -1.001 1zm-78.477-2h77.477v-6.16h-77.476z" fill="#2f3a5a"/><path d="m37.025 50.1a1 1 0 0 1 -1-.918c-.041-.5-.941-12.378 4.667-18.762a11.347 11.347 0 0 1 8.294-3.9 1.01 1.01 0 0 1 1.047.951 1 1 0 0 1 -.951 1.047 9.415 9.415 0 0 0 -6.882 3.221c-5.053 5.753-4.185 17.165-4.176 17.279a1 1 0 0 1 -.915 1.078c-.029.004-.057.004-.084.004z" fill="#2f3a5a"/><path d="m48.753 25.25c-1.8.231-2.87 1.415-2.713 2.641s1.482 2.029 3.282 1.8 3.133-1.412 2.975-2.638-1.743-2.034-3.544-1.803z" fill="#84879c"/><path d="m48.712 30.729a4.324 4.324 0 0 1 -2.139-.522 2.915 2.915 0 0 1 -1.525-2.189 3.042 3.042 0 0 1 .9-2.523 4.563 4.563 0 0 1 2.674-1.236 5.165 5.165 0 0 1 2.969.455 2.951 2.951 0 0 1 1.7 2.211c.23 1.8-1.457 3.451-3.84 3.756a5.8 5.8 0 0 1 -.739.048zm.65-4.518a3.831 3.831 0 0 0 -.482.031 2.574 2.574 0 0 0 -1.506.659 1.052 1.052 0 0 0 -.342.863.941.941 0 0 0 .525.7 2.7 2.7 0 0 0 1.643.236c1.3-.167 2.185-.939 2.111-1.519-.046-.356-.447-.6-.618-.683a2.97 2.97 0 0 0 -1.33-.287z" fill="#2f3a5a"/></svg>