<?xml version="1.0"?>
<svg xmlns="http://www.w3.org/2000/svg" id="icon" viewBox="0 0 128 128" width="512" height="512"><rect x="56.65" y="102.313" width="8.001" height="17.838" fill="#fac77c"/><path d="M64.651,121.151h-8a1,1,0,0,1-1-1V102.313a1,1,0,0,1,1-1h8a1,1,0,0,1,1,1v17.838A1,1,0,0,1,64.651,121.151Zm-7-2h6V103.313h-6Z" fill="#2f3a5a"/><path d="M35.719,101.472a1,1,0,0,1-.916-1.4L78.384.6a1,1,0,0,1,1.832.8L77.9,6.7,36.636,100.873A1,1,0,0,1,35.719,101.472Z" fill="#2f3a5a"/><path d="M85.7,20.543a41.3,41.3,0,0,0-69.5,29.441c-.012.25-.012.5-.012.751A41.311,41.311,0,0,0,86,80.654a.012.012,0,0,1,.012-.012,41.315,41.315,0,0,0-.31-60.1Z" fill="#dbe2eb"/><path d="M98.82,50.735A41.18,41.18,0,0,1,86.013,80.642a.013.013,0,0,0-.014.014,41.325,41.325,0,0,1-60.291-3.534,41.335,41.335,0,0,0,55.058-1.733.013.013,0,0,1,.014-.014,41.329,41.329,0,0,0,3.3-56.272c.56.464,1.1.948,1.631,1.44A41.173,41.173,0,0,1,98.82,50.735Z" fill="#c1cdd3"/><path d="M57.5,93.054A42.36,42.36,0,0,1,15.2,50.735c0-.266,0-.532.013-.8a42.309,42.309,0,0,1,84.611.8A41.93,41.93,0,0,1,87,81.079v0l-.311.3-.113.107-.167.157A42.158,42.158,0,0,1,57.5,93.054Zm0-82.636A40.488,40.488,0,0,0,17.208,50c-.012.264-.012.5-.012.733A40.311,40.311,0,0,0,85,80.222v-.568l.6-.007a40.314,40.314,0,0,0-.585-58.373h0A40.156,40.156,0,0,0,57.5,10.417Z" fill="#2f3a5a"/><path d="M57.5,9.417A41.3,41.3,0,0,0,16.208,49.984a8.133,8.133,0,0,0,3.124.942c2.015.167,4.269-.394,5.926.775,1.24.871,1.824,2.54,3.22,3.136,1.646.716,3.721-.429,5.306.441,1.276.7,1.61,2.409,1.491,3.863s-.537,2.933-.191,4.352c.572,2.349,3,3.78,3.971,6,1.109,2.54.071,5.426-.668,8.1a15.109,15.109,0,0,0-.4,1.962A1.745,1.745,0,0,0,41.12,80.8a10.537,10.537,0,0,1,.916-1.091,36.436,36.436,0,0,1,4.949-3.887A43.869,43.869,0,0,0,57.669,64.651a8.919,8.919,0,0,0,1.514-3.681c-.072-2.325-1.675-4.321-5.345-4.435C50.1,56.42,46.105,58.241,43.98,52.3c-.6-1.687-2.659-2.516-4.364-3.065a5.461,5.461,0,0,0-4.449.623,1.67,1.67,0,0,1-2.092-.315,3.806,3.806,0,0,0-1.83-1.023c-1.312-.31-2.719-.155-3.983-.62s-2.325-1.991-1.622-3.136c.906-1.491,3.148-.6,4.877-.56,2.29.048,4.174-1.717,5.569-3.518s2.707-3.852,4.77-4.806c1.669-.763,3.7-.751,5.151-1.86a3.974,3.974,0,0,0-3.637-6.94c-.739.25-1.538.7-2.242.393-1.24-.56-.87-2.838-2.146-3.279-.99-.346-1.848.787-2.17,1.789s-.68,2.218-1.693,2.468c-1.085.25-2.051-.93-2.063-2.039a7.494,7.494,0,0,1,1.026-3.124,25.238,25.238,0,0,1,2.541-4.535c1.145-1.646,3.279-2.862,5.127-2.1,1.682.68,2.372,1.745,3.922,2.687.93.584,2.123.751,2.909,1.514,1.061,1.014,1.049,2.671,1.264,4.126s1.145,3.124,2.611,3.029c2.123-.155,2.135-3.47,3.768-4.853,1.848-1.586,4.782.012,7.119-.715,3.029-.942,4.376-5.056,6.3-7.274.918-1.061,2.266-2.027,3.22-3.184A41.2,41.2,0,0,0,57.5,9.417Z" fill="#a9ddc7"/><path d="M39.741,82.518a2.807,2.807,0,0,1-1.046-.2,2.7,2.7,0,0,1-1.7-2.9,16.02,16.02,0,0,1,.428-2.092l.24-.85c.652-2.28,1.326-4.637.476-6.583a9.933,9.933,0,0,0-1.717-2.4,9.128,9.128,0,0,1-2.309-3.761,9.127,9.127,0,0,1,.024-3.5c.055-.392.109-.784.142-1.174.09-1.1-.119-2.433-.977-2.906a3.9,3.9,0,0,0-2.162-.148,6.013,6.013,0,0,1-3.061-.251,5.869,5.869,0,0,1-2.236-1.995,6.02,6.02,0,0,0-1.159-1.24,5.877,5.877,0,0,0-3.5-.573,18.253,18.253,0,0,1-1.938-.024,9.122,9.122,0,0,1-3.51-1.055,1,1,0,0,1-.531-.9,42.329,42.329,0,0,1,57-38.923,1,1,0,0,1,.424,1.574A18,18,0,0,1,70.8,14.443,16.9,16.9,0,0,0,69.4,15.819a19.091,19.091,0,0,0-1.664,2.445c-1.258,2.053-2.684,4.38-5.091,5.129a8.842,8.842,0,0,1-3.564.131c-1.32-.132-2.46-.247-3.2.388a5.692,5.692,0,0,0-1.2,1.994c-.583,1.32-1.307,2.963-3.151,3.1-2.088.119-3.364-1.912-3.672-3.871-.042-.28-.074-.557-.106-.835a4.5,4.5,0,0,0-.86-2.722,4.237,4.237,0,0,0-1.366-.733,8.357,8.357,0,0,1-1.385-.658,14.005,14.005,0,0,1-1.7-1.26,7.457,7.457,0,0,0-2.061-1.347c-1.372-.567-3.049.475-3.932,1.742A24.36,24.36,0,0,0,33.99,23.7c-.078.173-.163.351-.248.529a5.146,5.146,0,0,0-.687,2.158,1.339,1.339,0,0,0,.468.968.408.408,0,0,0,.369.118c.417-.1.7-.977.928-1.679l.041-.124a3.984,3.984,0,0,1,1.785-2.308,2.1,2.1,0,0,1,1.666-.115,3.057,3.057,0,0,1,1.72,2.269c.142.445.3.95.508,1.042.177.081.646-.1,1.023-.249.164-.063.327-.126.487-.18a4.974,4.974,0,0,1,4.566,8.681,8.744,8.744,0,0,1-3.371,1.363,11.251,11.251,0,0,0-1.973.612,10.917,10.917,0,0,0-3.729,3.636c-.223.295-.444.588-.669.875C34.8,43.97,32.727,45.233,30.5,45.2a13.333,13.333,0,0,1-1.559-.158c-1.318-.185-2.14-.261-2.443.238a.587.587,0,0,0-.028.546,2.067,2.067,0,0,0,1.151,1.136,7.713,7.713,0,0,0,1.99.33,12.416,12.416,0,0,1,1.867.251A4.81,4.81,0,0,1,33.8,48.851a.673.673,0,0,0,.839.156,6.471,6.471,0,0,1,5.276-.729c1.946.626,4.266,1.608,5.007,3.682,1.443,4.034,3.6,3.879,6.579,3.664a23.086,23.086,0,0,1,2.369-.088c4.536.141,6.236,2.884,6.313,5.4.04,1.647-1.61,4.157-1.68,4.264A44.615,44.615,0,0,1,47.574,76.632c-.386.282-.779.561-1.172.839A24.782,24.782,0,0,0,42.757,80.4a9.557,9.557,0,0,0-.83.988A2.692,2.692,0,0,1,39.741,82.518ZM32.217,53.935a4.151,4.151,0,0,1,2.049.467c1.439.794,2.188,2.6,2.005,4.822-.035.427-.094.856-.154,1.286a7.525,7.525,0,0,0-.062,2.748,7.538,7.538,0,0,0,1.875,2.922,11.588,11.588,0,0,1,2.041,2.913c1.137,2.6.328,5.436-.386,7.933l-.235.83a14.019,14.019,0,0,0-.375,1.827.745.745,0,0,0,1.335.531,11.583,11.583,0,0,1,1-1.2,26.654,26.654,0,0,1,3.932-3.18c.384-.272.769-.544,1.147-.821A42.614,42.614,0,0,0,56.835,64.1a8.371,8.371,0,0,0,1.348-3.1c-.065-2.112-1.661-3.376-4.376-3.46a20.983,20.983,0,0,0-2.163.084c-2.964.216-6.653.48-8.606-4.985-.447-1.25-2.228-1.966-3.729-2.449a4.434,4.434,0,0,0-3.614.52,2.654,2.654,0,0,1-3.345-.474,2.8,2.8,0,0,0-1.336-.74,10.715,10.715,0,0,0-1.57-.2,9.323,9.323,0,0,1-2.528-.451,4.06,4.06,0,0,1-2.343-2.365,2.6,2.6,0,0,1,.215-2.233c1.007-1.655,2.984-1.377,4.428-1.175a11.655,11.655,0,0,0,1.322.138c1.546.031,3.1-.992,4.758-3.13.221-.282.436-.567.652-.853a12.549,12.549,0,0,1,4.489-4.248,12.952,12.952,0,0,1,2.33-.736A7.159,7.159,0,0,0,45.4,33.222a2.974,2.974,0,0,0-2.723-5.193c-.122.042-.258.094-.395.147a3.275,3.275,0,0,1-2.559.21,3.255,3.255,0,0,1-1.6-2.26c-.125-.392-.3-.928-.472-.989-.029-.012-.051-.018-.118.016a2.092,2.092,0,0,0-.773,1.133l-.041.125c-.36,1.112-.854,2.635-2.366,3.008a2.419,2.419,0,0,1-2.071-.491,3.307,3.307,0,0,1-1.231-2.508,6.776,6.776,0,0,1,.881-3.049c.079-.167.158-.332.233-.5A26.072,26.072,0,0,1,34.8,18.179c1.36-1.955,3.971-3.427,6.33-2.452a9.308,9.308,0,0,1,2.58,1.658,12.018,12.018,0,0,0,1.479,1.1,6.727,6.727,0,0,0,1.075.5,5.852,5.852,0,0,1,2.011,1.15,6.042,6.042,0,0,1,1.46,3.931c.03.259.06.516.1.767.169,1.08.794,2.222,1.557,2.177.573-.042.9-.643,1.458-1.91a7.181,7.181,0,0,1,1.729-2.708c1.384-1.188,3.145-1.011,4.7-.856a7.3,7.3,0,0,0,2.771-.051c1.689-.525,2.854-2.426,3.979-4.264a20.457,20.457,0,0,1,1.857-2.709,18.614,18.614,0,0,1,1.577-1.549c.2-.181.4-.364.6-.55A40.333,40.333,0,0,0,17.224,49.365a6.981,6.981,0,0,0,2.193.565,16.436,16.436,0,0,0,1.723.017,7.478,7.478,0,0,1,4.694.937,7.7,7.7,0,0,1,1.584,1.644,4.21,4.21,0,0,0,1.452,1.39,4.455,4.455,0,0,0,2.078.1C31.355,53.976,31.782,53.935,32.217,53.935Z" fill="#2f3a5a"/><path d="M86.013,80.642a41.315,41.315,0,0,0-.31-60.1c-1.957,2.066-3.4,3.776-7.128,4.193a2.195,2.195,0,0,0-1.952,1.689c-.506,2.6,5.019,2.773,4.655,5.291a2.007,2.007,0,0,1-1.848,1.5,3.3,3.3,0,0,1-.606-.007,2.376,2.376,0,0,0-2.595,2.017,4.515,4.515,0,0,0,0,1.293,3.009,3.009,0,0,0,.175.64,1.764,1.764,0,0,1-1.218,2.419,10.677,10.677,0,0,0-6.753,3.995,6.465,6.465,0,0,0-.42,7.7c1.6,2.606,4.293,4.543,6.964,3.053.93-.525,2.206-1.24,2.91-.429.5.548.274,1.5.775,2.063.656.716,1.872.179,2.814.441a2.251,2.251,0,0,1,1.24,2.79,6.3,6.3,0,0,1-2.015,2.671A4.634,4.634,0,0,1,84.5,67.179a17.007,17.007,0,0,0-.668,2.6c-.131,2.766,3.53,4.555,3.482,7.322a8.292,8.292,0,0,1-1.169,3.208A2.784,2.784,0,0,0,86.013,80.642Z" fill="#a9ddc7"/><path d="M86.142,80.308A8.3,8.3,0,0,0,87.316,77.1c.027-1.508-1.051-2.723-2.006-3.964A41.33,41.33,0,0,0,84.191,22.1c.5-.484.989-1.01,1.515-1.563a41.318,41.318,0,0,1,.307,60.1A2.419,2.419,0,0,1,86.142,80.308Z" fill="#8ccfb5"/><path d="M86.013,81.642a1,1,0,0,1-.958-1.286,3.755,3.755,0,0,1,.169-.44c.123-.269.245-.51.367-.752a5.109,5.109,0,0,0,.722-2.075c.018-1.021-.736-1.983-1.534-3-.952-1.213-2.031-2.589-1.947-4.357a6.545,6.545,0,0,1,.417-1.832,7.883,7.883,0,0,0,.27-.919,3.638,3.638,0,0,0-2.939-4.128,1,1,0,0,1-.548-1.73,5.451,5.451,0,0,0,1.731-2.217c.18-.63-.1-1.415-.556-1.545a3.287,3.287,0,0,0-.858-.026,2.829,2.829,0,0,1-2.418-.7A2.9,2.9,0,0,1,77.3,55.1a1.889,1.889,0,0,0-.143-.533c-.307-.148-1.34.434-1.68.626-2.814,1.568-6.075.236-8.307-3.4a7.42,7.42,0,0,1,.466-8.812A11.7,11.7,0,0,1,74.977,38.6a.693.693,0,0,0,.478-.359.857.857,0,0,0,.026-.717,4,4,0,0,1-.233-.853,5.463,5.463,0,0,1-.008-1.576,3.384,3.384,0,0,1,3.686-2.883,2.35,2.35,0,0,0,.423.005c.457-.045.9-.347.944-.659.072-.5-.67-.938-1.811-1.55-1.365-.732-3.235-1.735-2.838-3.779a3.208,3.208,0,0,1,2.822-2.492c3.182-.357,4.462-1.714,6.235-3.592l.278-.3a1,1,0,0,1,1.409-.043A42.446,42.446,0,0,1,99.82,50.735,41.937,41.937,0,0,1,86.7,81.366,1,1,0,0,1,86.013,81.642ZM82.557,61.425a5.734,5.734,0,0,1,1.961,1.739,5.423,5.423,0,0,1,.96,4.22,9.52,9.52,0,0,1-.333,1.153,4.917,4.917,0,0,0-.314,1.282c-.049,1.032.714,2.005,1.522,3.036A7.379,7.379,0,0,1,88.3,76.764a40.33,40.33,0,0,0-2.565-54.8,10.4,10.4,0,0,1-7.052,3.769,1.2,1.2,0,0,0-1.082.886c-.1.514.455.9,1.82,1.635,1.318.707,3.122,1.675,2.843,3.608a3.006,3.006,0,0,1-2.74,2.355,4.372,4.372,0,0,1-.8-.007,1.365,1.365,0,0,0-1.5,1.151,3.494,3.494,0,0,0,0,1.008,1.986,1.986,0,0,0,.118.428,2.856,2.856,0,0,1-.12,2.39,2.711,2.711,0,0,1-1.811,1.373,9.711,9.711,0,0,0-6.166,3.612,5.482,5.482,0,0,0-.373,6.581c1.233,2.007,3.445,3.919,5.625,2.7,1.014-.573,2.909-1.643,4.152-.211a2.84,2.84,0,0,1,.617,1.505,1.767,1.767,0,0,0,.149.547,2.168,2.168,0,0,0,.841.044,4.6,4.6,0,0,1,1.5.1,3.223,3.223,0,0,1,1.933,4.029A5.259,5.259,0,0,1,82.557,61.425Z" fill="#2f3a5a"/><path d="M79.3,1,76.983,6.3A48.522,48.522,0,0,1,38.037,95.184l-2.317,5.288A54.3,54.3,0,0,0,79.3,1Z" fill="#fac77c"/><path d="M57.443,106.052a55.033,55.033,0,0,1-22.125-4.665,1,1,0,0,1-.515-1.317l2.317-5.288a1,1,0,0,1,1.317-.515,47.529,47.529,0,0,0,63.331-60.825A47.19,47.19,0,0,0,76.582,7.214,1,1,0,0,1,76.067,5.9L78.384.6A1,1,0,0,1,79.7.084,55.334,55.334,0,0,1,57.443,106.052Zm-20.4-6.1A53.3,53.3,0,0,0,79.812,2.326L78.3,5.792A49.5,49.5,0,0,1,102.858,70.6a49.513,49.513,0,0,1-64.3,25.887Z" fill="#2f3a5a"/><path d="M79.876,117.828H41.426a5,5,0,0,0-5,5V127h48.45v-4.172A5,5,0,0,0,79.876,117.828Z" fill="#fac77c"/><path d="M84.876,128H36.426a1,1,0,0,1-1-1v-4.171a6.007,6.007,0,0,1,6-6H79.875a6.007,6.007,0,0,1,6,6V127A1,1,0,0,1,84.876,128Zm-47.45-2h46.45v-3.171a4,4,0,0,0-4-4H41.426a4,4,0,0,0-4,4Z" fill="#2f3a5a"/></svg>
