<svg id="icon" height="512" viewBox="0 0 128 128" width="512" xmlns="http://www.w3.org/2000/svg"><path d="m45.517 19.344h33.643v92.636h-33.643z" fill="#f26176" transform="matrix(.707 .707 -.707 .707 64.688 -24.848)"/><path d="m106.98 44.8-65.5 65.51-23.79-23.79 3.23-3.22 20.56 20.56 62.28-62.28z" fill="#dd576a"/><path d="m41.48 111.308a1 1 0 0 1 -.707-.293l-23.789-23.789a1 1 0 0 1 0-1.414l65.5-65.5a1 1 0 0 1 1.414 0l23.793 23.788a1 1 0 0 1 0 1.414l-65.5 65.5a1 1 0 0 1 -.711.294zm-22.375-24.789 22.375 22.375 64.09-64.094-22.37-22.371z" fill="#2f3a5a"/><path d="m55.801 19.344h13.075v92.636h-13.075z" fill="#f26176" transform="matrix(.707 .707 -.707 .707 64.688 -24.848)"/><path d="m34.209 104.037a1 1 0 0 1 -.707-.293l-9.245-9.244a1 1 0 0 1 0-1.414l65.5-65.5a1.029 1.029 0 0 1 1.414 0l9.245 9.246a1 1 0 0 1 0 1.414l-65.5 65.5a1 1 0 0 1 -.707.291zm-7.831-10.246 7.831 7.832 64.091-64.09-7.832-7.833z" fill="#2f3a5a"/><path d="m41.481 110.308-40.481 16.692 16.692-40.481z" fill="#f0c191"/><path d="m41.48 110.31-40.48 16.69 2.74-6.65 33.83-13.95z" fill="#d8b18c"/><path d="m1 128a1 1 0 0 1 -.925-1.381l16.692-40.481a1 1 0 0 1 1.632-.326l23.789 23.788a1 1 0 0 1 -.326 1.631l-40.481 16.693a1 1 0 0 1 -.381.076zm17.044-39.714-15.2 36.873 36.872-15.2z" fill="#2f3a5a"/><path d="m7.726 110.689-6.726 16.311 16.311-6.726z" fill="#84879c"/><path d="m17.31 120.27-16.31 6.73 6.73-16.31.34.34-4.26 10.35 10.35-4.26z" fill="#707583"/><path d="m1 128a1 1 0 0 1 -.925-1.381l6.725-16.311a1 1 0 0 1 1.632-.326l9.586 9.585a1 1 0 0 1 -.326 1.631l-16.311 6.726a1 1 0 0 1 -.381.076zm7.078-15.544-5.237 12.7 12.7-5.238z" fill="#2f3a5a"/><path d="m82.145 23.553h33.643v10.963h-33.643z" fill="#dbe2eb" transform="matrix(.707 .707 -.707 .707 49.517 -61.476)"/><path d="m106.84 33.782h4.71v10.963h-4.71z" fill="#bac2d3" transform="matrix(-.707 -.707 .707 -.707 158.645 144.239)"/><path d="m106.984 45.8a1 1 0 0 1 -.707-.293l-23.789-23.785a1 1 0 0 1 0-1.414l7.752-7.751a1 1 0 0 1 1.414 0l23.789 23.789a1 1 0 0 1 0 1.414l-7.752 7.751a1 1 0 0 1 -.707.289zm-22.375-24.785 22.375 22.375 6.338-6.337-22.375-22.375z" fill="#2f3a5a"/><path d="m125.37 18.55-15.92-15.92a5.564 5.564 0 0 0 -7.869 0l-10.634 10.634 23.789 23.789 10.634-10.634a5.564 5.564 0 0 0 0-7.869z" fill="#6bb3d9"/><path d="m125.37 26.42-10.63 10.63-23.79-23.79 2.76-2.76 20.59 20.59 10.64-10.64a5.3 5.3 0 0 0 .95-1.29 5.563 5.563 0 0 1 -.52 7.26z" fill="#4fa4d1"/><path d="m114.736 38.053a1 1 0 0 1 -.707-.293l-23.789-23.789a1 1 0 0 1 0-1.414l10.634-10.634a6.52 6.52 0 0 1 4.642-1.923 6.52 6.52 0 0 1 4.642 1.923l15.92 15.92a6.571 6.571 0 0 1 0 9.283l-10.635 10.634a1 1 0 0 1 -.707.293zm-22.375-24.789 22.375 22.375 9.927-9.927a4.57 4.57 0 0 0 0-6.455l-15.92-15.92a4.564 4.564 0 0 0 -6.455 0z" fill="#2f3a5a"/></svg>