<svg id="icon" height="512" viewBox="0 0 128 128" width="512" xmlns="http://www.w3.org/2000/svg"><path d="m1 25.125h126v77.751h-126z" fill="#6fc682"/><path d="m29.022 4.303h69.955v118.992h-69.955z" fill="#8ae0a1" transform="matrix(0 1 -1 0 127.799 -.201)"/><g fill="#f0f5f9"><path d="m127 87.81h-20.884a1 1 0 0 1 -1-1v-45.289a1 1 0 0 1 1-1h20.884a1 1 0 0 1 1 1v45.289a1 1 0 0 1 -1 1zm-19.884-2h18.884v-43.289h-18.884z"/><path d="m21.884 87.81h-20.884a1 1 0 0 1 -1-1v-45.289a1 1 0 0 1 1-1h20.884a1 1 0 0 1 1 1v45.289a1 1 0 0 1 -1 1zm-19.884-2h18.884v-43.289h-18.884z"/><path d="m64 102.979a1 1 0 0 1 -1-1v-76.854a1 1 0 0 1 2 0v76.855a1 1 0 0 1 -1 .999z"/><path d="m64 77.247a13.695 13.695 0 1 1 13.694-13.695 13.71 13.71 0 0 1 -13.694 13.695zm0-25.389a11.695 11.695 0 1 0 11.694 11.694 11.708 11.708 0 0 0 -11.694-11.695z"/></g><path d="m127 103.875h-126a1 1 0 0 1 -1-1v-77.75a1 1 0 0 1 1-1h126a1 1 0 0 1 1 1v77.751a1 1 0 0 1 -1 .999zm-125-2h124v-75.75h-124z" fill="#2f3a5a"/></svg>