<svg id="icon" height="512" viewBox="0 0 128 128" width="512" xmlns="http://www.w3.org/2000/svg"><path d="m63.992 32.995a63 63 0 0 0 -62.992 62.01h126a63.006 63.006 0 0 0 -63.008-62.01zm-40.108 43.605a44.53 44.53 0 0 1 80.232 0z" fill="#ffc943"/><path d="m88.809 38.071a62.926 62.926 0 0 1 27.025 50.737h-114.434c-.23 2.04-.368 4.111-.4 6.2h126a63.014 63.014 0 0 0 -38.191-56.937z" fill="#f7b521"/><g fill="#2f3a5a"><path d="m127 96.005h-126a1 1 0 0 1 -1-1.015 64.009 64.009 0 0 1 108.926-44.58 63.632 63.632 0 0 1 19.074 44.58 1 1 0 0 1 -1 1.016zm-124.976-2h123.952a62.008 62.008 0 0 0 -123.952 0zm102.092-16.405h-80.232a1 1 0 0 1 -.9-1.439 45.53 45.53 0 0 1 82.029 0 1 1 0 0 1 -.9 1.439zm-78.6-2h76.964a43.513 43.513 0 0 0 -76.961 0z"/><path d="m12.661 96.005a1 1 0 0 1 -1-1v-9.73a1 1 0 0 1 2 0v9.73a1 1 0 0 1 -1 1z"/><path d="m21.394 96.005a1 1 0 0 1 -1-1v-6.662a1 1 0 0 1 2 0v6.663a1 1 0 0 1 -1 .999z"/><path d="m29.773 96.005a1 1 0 0 1 -1-1v-9.73a1 1 0 0 1 2 0v9.73a1 1 0 0 1 -1 1z"/><path d="m38.506 96.005a1 1 0 0 1 -1-1v-6.662a1 1 0 0 1 2 0v6.663a1 1 0 0 1 -1 .999z"/><path d="m46.887 96.005a1 1 0 0 1 -1-1v-9.73a1 1 0 1 1 2 0v9.73a1 1 0 0 1 -1 1z"/><path d="m55.62 96.005a1 1 0 0 1 -1-1v-6.662a1 1 0 0 1 2 0v6.663a1 1 0 0 1 -1 .999z"/><path d="m64 96.005a1 1 0 0 1 -1-1v-9.73a1 1 0 1 1 2 0v9.73a1 1 0 0 1 -1 1z"/><path d="m72.733 96.005a1 1 0 0 1 -1-1v-6.662a1 1 0 0 1 2 0v6.663a1 1 0 0 1 -1 .999z"/><path d="m81.113 96.005a1 1 0 0 1 -1-1v-9.73a1 1 0 1 1 2 0v9.73a1 1 0 0 1 -1 1z"/><path d="m89.846 96.005a1 1 0 0 1 -1-1v-6.662a1 1 0 0 1 2 0v6.663a1 1 0 0 1 -1 .999z"/><path d="m98.227 96.005a1 1 0 0 1 -1-1v-9.73a1 1 0 1 1 2 0v9.73a1 1 0 0 1 -1 1z"/><path d="m106.959 96.005a1 1 0 0 1 -1-1v-6.662a1 1 0 0 1 2 0v6.663a1 1 0 0 1 -1 .999z"/><path d="m115.339 96.005a1 1 0 0 1 -1-1v-9.73a1 1 0 0 1 2 0v9.73a1 1 0 0 1 -1 1z"/></g></svg>