<svg id="icon" height="512" viewBox="0 0 128 128" width="512" xmlns="http://www.w3.org/2000/svg"><path d="m127.179 117.3a92.3 92.3 0 0 0 -63.022 0v-86.737a92.3 92.3 0 0 1 63.022 0z" fill="#6bb3d9"/><path d="m127.179 117.3a92.3 92.3 0 0 0 -63.022 0v-86.737a92.3 92.3 0 0 1 63.022 0z" fill="#9bc6f1"/><path d="m127.179 118.3a1 1 0 0 1 -.343-.061 90.942 90.942 0 0 0 -62.336 0 1 1 0 0 1 -1.343-.939v-86.737a1 1 0 0 1 .657-.939 92.946 92.946 0 0 1 63.709 0 1 1 0 0 1 .657.939v86.737a1 1 0 0 1 -1 1zm-62.022-87.034v84.618a92.957 92.957 0 0 1 61.022 0v-84.618a90.939 90.939 0 0 0 -61.022 0z" fill="#2f3a5a"/><path d="m64.2 117.3a92.3 92.3 0 0 0 -63.022 0v-86.737a92.3 92.3 0 0 1 63.022 0z" fill="#6bb3d9"/><path d="m64.2 117.3a92.3 92.3 0 0 0 -63.022 0v-86.737a92.3 92.3 0 0 1 63.022 0z" fill="#9bc6f1"/><path d="m64.2 118.3a1 1 0 0 1 -.343-.061 90.942 90.942 0 0 0 -62.336 0 1 1 0 0 1 -1.342-.939v-86.737a1 1 0 0 1 .657-.939 92.952 92.952 0 0 1 63.709 0 1 1 0 0 1 .657.939v86.737a1 1 0 0 1 -1 1zm-31.51-7.566a92.846 92.846 0 0 1 30.511 5.15v-84.618a90.939 90.939 0 0 0 -61.022 0v84.618a92.846 92.846 0 0 1 30.511-5.15z" fill="#2f3a5a"/><path d="m121.243 108.991a77.311 77.311 0 0 0 -57.084 0v-85.424a77.311 77.311 0 0 1 57.084 0z" fill="#dbe2eb"/><g fill="#c1cdd3"><path d="m64.16 33.229a1 1 0 0 1 -.37-1.93 78.006 78.006 0 0 1 57.822 0 1 1 0 1 1 -.738 1.858 76.024 76.024 0 0 0 -56.346 0 .993.993 0 0 1 -.368.072z"/><path d="m64.16 42.787a1 1 0 0 1 -.37-1.93 78.016 78.016 0 0 1 57.822 0 1 1 0 1 1 -.738 1.858 76.022 76.022 0 0 0 -56.346 0 .993.993 0 0 1 -.368.072z"/><path d="m64.16 52.345a1 1 0 0 1 -.37-1.93 78.006 78.006 0 0 1 57.822 0 1 1 0 1 1 -.738 1.858 76.024 76.024 0 0 0 -56.346 0 .993.993 0 0 1 -.368.072z"/><path d="m64.16 61.9a1 1 0 0 1 -.37-1.93 78.006 78.006 0 0 1 57.822 0 1 1 0 1 1 -.738 1.858 76.022 76.022 0 0 0 -56.346 0 .993.993 0 0 1 -.368.072z"/><path d="m64.16 71.461a1 1 0 0 1 -.37-1.93 78.016 78.016 0 0 1 57.822 0 1 1 0 1 1 -.738 1.858 76.024 76.024 0 0 0 -56.346 0 .993.993 0 0 1 -.368.072z"/><path d="m64.16 81.019a1 1 0 0 1 -.37-1.93 78.006 78.006 0 0 1 57.822 0 1 1 0 1 1 -.738 1.858 76.022 76.022 0 0 0 -56.346 0 .993.993 0 0 1 -.368.072z"/><path d="m64.16 90.577a1 1 0 0 1 -.37-1.93 78.006 78.006 0 0 1 57.822 0 1 1 0 1 1 -.738 1.858 76.024 76.024 0 0 0 -56.346 0 .993.993 0 0 1 -.368.072z"/><path d="m64.16 100.135a1 1 0 0 1 -.37-1.93 78.016 78.016 0 0 1 57.822 0 1 1 0 0 1 -.738 1.858 76.022 76.022 0 0 0 -56.346 0 .993.993 0 0 1 -.368.072z"/></g><path d="m64.159 109.991a1 1 0 0 1 -1-1v-85.424a1 1 0 0 1 .631-.929 78.016 78.016 0 0 1 57.822 0 1 1 0 0 1 .631.929v85.424a1 1 0 0 1 -1.369.929 76.024 76.024 0 0 0 -56.346 0 1 1 0 0 1 -.369.071zm28.541-7.484a78.178 78.178 0 0 1 27.542 5.026v-83.284a76 76 0 0 0 -55.084 0v83.284a78.176 78.176 0 0 1 27.542-5.026z" fill="#2f3a5a"/><path d="m64.2 108.991a77.311 77.311 0 0 0 -57.084 0v-85.424a77.311 77.311 0 0 1 57.084 0z" fill="#dbe2eb"/><path d="m64.2 33.229a.993.993 0 0 1 -.369-.071 76.017 76.017 0 0 0 -56.346 0 1 1 0 0 1 -.738-1.858 78.006 78.006 0 0 1 57.822 0 1 1 0 0 1 -.37 1.93z" fill="#c1cdd3"/><path d="m64.2 42.787a.993.993 0 0 1 -.369-.071 76.027 76.027 0 0 0 -56.346 0 1 1 0 1 1 -.738-1.858 78.016 78.016 0 0 1 57.822 0 1 1 0 0 1 -.37 1.93z" fill="#c1cdd3"/><path d="m64.2 52.345a.993.993 0 0 1 -.369-.071 76.017 76.017 0 0 0 -56.346 0 1 1 0 0 1 -.738-1.858 78.006 78.006 0 0 1 57.822 0 1 1 0 0 1 -.37 1.93z" fill="#c1cdd3"/><path d="m64.2 61.9a.993.993 0 0 1 -.369-.071 76.017 76.017 0 0 0 -56.346 0 1 1 0 0 1 -.738-1.858 78.006 78.006 0 0 1 57.822 0 1 1 0 0 1 -.37 1.93z" fill="#c1cdd3"/><path d="m64.2 71.461a.993.993 0 0 1 -.369-.071 76.027 76.027 0 0 0 -56.346 0 1 1 0 0 1 -.738-1.858 78.016 78.016 0 0 1 57.822 0 1 1 0 0 1 -.37 1.93z" fill="#c1cdd3"/><path d="m64.2 81.019a.993.993 0 0 1 -.369-.071 76.017 76.017 0 0 0 -56.346 0 1 1 0 0 1 -.738-1.858 78.006 78.006 0 0 1 57.822 0 1 1 0 0 1 -.37 1.93z" fill="#c1cdd3"/><path d="m64.2 90.577a.993.993 0 0 1 -.369-.071 76.017 76.017 0 0 0 -56.346 0 1 1 0 0 1 -.738-1.858 78.006 78.006 0 0 1 57.822 0 1 1 0 0 1 -.37 1.93z" fill="#c1cdd3"/><path d="m64.2 100.135a.993.993 0 0 1 -.369-.071 76.027 76.027 0 0 0 -56.346 0 1 1 0 0 1 -.738-1.858 78.016 78.016 0 0 1 57.822 0 1 1 0 0 1 -.37 1.93z" fill="#c1cdd3"/><path d="m64.2 109.991a1 1 0 0 1 -.369-.071 76.027 76.027 0 0 0 -56.346 0 1 1 0 0 1 -1.369-.929v-85.424a1 1 0 0 1 .631-.929 78.016 78.016 0 0 1 57.822 0 1 1 0 0 1 .631.929v85.424a1 1 0 0 1 -1 1zm-28.542-7.484a78.178 78.178 0 0 1 27.542 5.026v-83.284a76 76 0 0 0 -55.084 0v83.284a78.178 78.178 0 0 1 27.542-5.026z" fill="#2f3a5a"/></svg>