<svg id="icon" height="512" viewBox="0 0 128 128" width="512" xmlns="http://www.w3.org/2000/svg"><path d="m122.361 108.22-40.855-57.014v-50.206h-35.018v50.206l-40.855 57.014a12.085 12.085 0 0 0 10.061 18.78h96.606a12.085 12.085 0 0 0 10.061-18.78z" fill="#e1e6e9"/><path d="m124.391 114.92a12.082 12.082 0 0 1 -12.091 12.08h-12.721a12.09 12.09 0 0 0 10.056-18.781l-40.854-57.019v-50.194h12.719v50.194l40.855 57.016a12.154 12.154 0 0 1 2.036 6.704z" fill="#c1cdd3"/><path d="m112.3 128h-96.606a13.085 13.085 0 0 1 -10.894-20.334l40.688-56.781v-49.885a1 1 0 0 1 1-1h35.018a1 1 0 0 1 1 1v49.885l40.668 56.753.02.028a13.085 13.085 0 0 1 -10.894 20.334zm-64.812-126v49.206a1 1 0 0 1 -.187.583l-40.855 57.011a11.086 11.086 0 0 0 9.248 17.2h96.606a11.085 11.085 0 0 0 9.238-17.211l-40.845-57a1 1 0 0 1 -.187-.583v-49.206z" fill="#2f3a5a"/><path d="m122.361 108.22-24.173-33.734h-68.382l-24.173 33.734a12.085 12.085 0 0 0 10.061 18.78h96.606a12.085 12.085 0 0 0 10.061-18.78z" fill="#8ae0a1"/><path d="m124.391 114.92a12.082 12.082 0 0 1 -12.091 12.08h-12.721a12.09 12.09 0 0 0 10.056-18.781l-24.167-33.729h12.721l24.168 33.726a12.154 12.154 0 0 1 2.034 6.704z" fill="#6fc682"/><path d="m112.3 128h-96.606a13.085 13.085 0 0 1 -10.894-20.334l24.193-33.766a1 1 0 1 1 1.626 1.165l-24.173 33.735a11.086 11.086 0 0 0 9.248 17.2h96.606a11.085 11.085 0 0 0 9.229-17.226l-24.154-33.705a1 1 0 1 1 1.625-1.169l24.173 33.734a13.084 13.084 0 0 1 -10.873 20.366z" fill="#2f3a5a"/><path d="m42.122 1h43.75v8.167h-43.75z" fill="#bac2d3"/><path d="m42.122 1h32.695v8.167h-32.695z" fill="#e1e6e9"/><g fill="#2f3a5a"><path d="m85.872 10.167h-43.75a1 1 0 0 1 -1-1v-8.167a1 1 0 0 1 1-1h43.75a1 1 0 0 1 1 1v8.167a1 1 0 0 1 -1 1zm-42.75-2h41.75v-6.167h-41.75z"/><path d="m60.337 21.274h-7.106a1 1 0 0 1 0-2h7.106a1 1 0 0 1 0 2z"/><path d="m57.461 30.977h-4.23a1 1 0 0 1 0-2h4.229a1 1 0 0 1 0 2z"/><path d="m60.337 40.68h-7.106a1 1 0 0 1 0-2h7.106a1 1 0 0 1 0 2z"/><path d="m57.461 50.383h-4.23a1 1 0 0 1 0-2h4.229a1 1 0 0 1 0 2z"/><path d="m60.337 60.085h-7.106a1 1 0 0 1 0-2h7.106a1 1 0 0 1 0 2z"/><path d="m57.461 69.788h-4.23a1 1 0 0 1 0-2h4.229a1 1 0 0 1 0 2z"/><path d="m60.337 79.491h-7.106a1 1 0 0 1 0-2h7.106a1 1 0 1 1 0 2z"/><path d="m57.461 89.194h-4.23a1 1 0 1 1 0-2h4.229a1 1 0 1 1 0 2z"/><path d="m60.337 98.9h-7.106a1 1 0 0 1 0-2h7.106a1 1 0 0 1 0 2z"/><path d="m57.461 108.6h-4.23a1 1 0 1 1 0-2h4.229a1 1 0 1 1 0 2z"/><path d="m60.337 118.3h-7.106a1 1 0 0 1 0-2h7.106a1 1 0 0 1 0 2z"/></g></svg>