<svg id="icon" height="512" viewBox="0 0 128 128" width="512" xmlns="http://www.w3.org/2000/svg"><g fill="#c1cdd3"><path d="m122.158 35.968a1 1 0 0 1 -.707-.293l-29.122-29.122a1 1 0 0 1 1.414-1.414l29.122 29.122a1 1 0 0 1 -.707 1.707z"/><path d="m118.306 43.692a1 1 0 0 1 -.707-.293l-34.93-34.93a1 1 0 0 1 1.414-1.414l34.93 34.93a1 1 0 0 1 -.707 1.707z"/><path d="m114.454 51.416a1 1 0 0 1 -.707-.293l-38.8-38.8a1 1 0 0 1 1.414-1.414l38.8 38.8a1 1 0 0 1 -.707 1.707z"/><path d="m110.6 59.14a1 1 0 0 1 -.707-.293l-38.8-38.8a1 1 0 0 1 1.414-1.414l38.8 38.8a1 1 0 0 1 -.707 1.707z"/><path d="m104.813 64.928a1 1 0 0 1 -.707-.293l-40.737-40.735a1 1 0 0 1 1.414-1.414l40.738 40.738a1 1 0 0 1 -.707 1.707z"/><path d="m99.025 70.716a1 1 0 0 1 -.707-.293l-40.737-40.737a1 1 0 0 1 1.414-1.414l40.737 40.737a1 1 0 0 1 -.707 1.707z"/><path d="m91.3 74.568a1 1 0 0 1 -.707-.293l-36.864-36.865a1 1 0 0 1 1.414-1.41l36.865 36.861a1 1 0 0 1 -.707 1.707z"/><path d="m83.577 78.42a1 1 0 0 1 -.707-.293l-32.994-32.993a1 1 0 0 1 1.414-1.414l32.994 32.993a1 1 0 0 1 -.707 1.707z"/><path d="m80.8 77.143a1 1 0 0 1 -.707-1.707l42.454-42.455a1 1 0 0 1 1.414 1.414l-42.452 42.455a1 1 0 0 1 -.709.293z"/><path d="m69.206 77.163a1 1 0 0 1 -.707-1.707l53.631-53.631a1 1 0 0 1 1.414 1.414l-53.631 53.631a1 1 0 0 1 -.707.293z"/><path d="m59.545 75.247a1 1 0 0 1 -.707-1.707l61.375-61.375a1 1 0 0 1 1.414 1.414l-61.375 61.375a1 1 0 0 1 -.707.293z"/><path d="m53.757 69.459a1 1 0 0 1 -.707-1.707l61.375-61.375a1 1 0 0 1 1.414 1.414l-61.375 61.375a1 1 0 0 1 -.707.293z"/><path d="m51.841 59.8a1 1 0 0 1 -.707-1.707l53.631-53.632a1 1 0 0 1 1.414 1.414l-53.631 53.631a1 1 0 0 1 -.707.294z"/><path d="m49.925 50.138a1 1 0 0 1 -.707-1.707l45.882-45.886a1 1 0 0 1 1.414 1.414l-45.882 45.886a1 1 0 0 1 -.707.293z"/></g><path d="m119.263 8.745c-13-13-37.833-9.25-55.469 8.386-10.894 10.894-16.484 24.523-16.094 36.415a45.924 45.924 0 0 1 -12.96 33.845l-13.6 13.88 5.588 5.588s4.813-4.705 13.64-13.407a46.286 46.286 0 0 1 33.792-12.994 29.2 29.2 0 0 0 5.008-.315l.01.01c10.669-1.023 22.222-6.481 31.689-15.953 17.633-17.632 21.388-42.464 8.396-55.455zm-39.352 63.428-.675.065a27.421 27.421 0 0 1 -7.988-.351 19.2 19.2 0 0 1 -9.948-5.179c-10.05-10.05-6.555-29.911 7.8-44.27s34.228-17.863 44.279-7.813 6.537 29.911-7.822 44.269c-7.422 7.426-16.723 12.234-25.646 13.279z" fill="#e8c79c"/><g opacity=".5"><path d="m121.432 11.223c7.26 13.707 2.381 34.249-12.826 49.457-9.468 9.467-21.026 14.926-31.694 15.953l-.01-.01a30.112 30.112 0 0 1 -5 .319 46.313 46.313 0 0 0 -33.802 12.982c-8.828 8.712-13.64 13.407-13.64 13.407l-2.7-2.7-.619.639 5.586 5.586s4.811-4.695 13.639-13.407a46.329 46.329 0 0 1 33.787-12.993 29.1 29.1 0 0 0 5.014-.31l.01.01c10.668-1.026 22.223-6.486 31.693-15.956 16.573-16.57 20.881-39.483 10.562-52.977z" fill="#d0aa79"/></g><path d="m26.728 107.858a1 1 0 0 1 -.707-.293l-5.587-5.588a1 1 0 0 1 -.007-1.407l13.6-13.88a45.192 45.192 0 0 0 12.673-33.111c-.411-12.592 5.716-26.482 16.39-37.155 17.994-18 43.512-21.757 56.883-8.387 13.365 13.365 9.6 38.878-8.4 56.873-9.237 9.237-21.011 15.156-32.3 16.237-.033 0-.064 0-.1 0a30.128 30.128 0 0 1 -5.038.305 45.1 45.1 0 0 0 -33.066 12.711c-8.829 8.7-13.643 13.41-13.643 13.41a1 1 0 0 1 -.698.285zm-4.18-6.6 4.188 4.188c1.634-1.6 6.069-5.949 12.93-12.712a46.972 46.972 0 0 1 34.518-13.276 28.464 28.464 0 0 0 4.836-.305 1.167 1.167 0 0 1 .2-.01c10.795-1.072 22.066-6.77 30.943-15.647 17.214-17.215 20.981-41.459 8.4-54.045-12.598-12.589-36.847-8.827-54.063 8.387-10.288 10.29-16.2 23.626-15.8 35.676a47.2 47.2 0 0 1 -13.247 34.578zm53.817-27.882a27.082 27.082 0 0 1 -5.313-.51 20.191 20.191 0 0 1 -10.459-5.451c-10.443-10.444-6.943-30.937 7.8-45.684 7.09-7.088 15.716-11.824 24.291-13.337 8.7-1.535 16.306.426 21.4 5.525s7.059 12.7 5.52 21.4c-1.515 8.571-6.253 17.195-13.342 24.284-7.552 7.552-17.116 12.5-26.239 13.563h-.021l-.675.065q-1.501.145-2.962.145zm21.928-63.49a30.277 30.277 0 0 0 -5.262.478c-8.174 1.442-16.421 5.981-23.221 12.782-13.967 13.966-17.467 33.191-7.804 42.854a18.229 18.229 0 0 0 9.442 4.9 26.528 26.528 0 0 0 7.693.335l.664-.064c8.682-1.019 17.81-5.753 25.047-12.989 6.8-6.8 11.342-15.047 12.787-23.217 1.421-8.041-.342-15.015-4.965-19.638-3.581-3.575-8.574-5.441-14.381-5.441z" fill="#2f3a5a"/><path d="m14.056 87.005h11.982v41.892h-11.982z" fill="#9297ab" transform="matrix(.707 .707 -.707 .707 82.204 17.442)"/><path d="m1.737 108.332h41.891v4.518h-41.891z" fill="#707583" transform="matrix(.707 -.707 .707 .707 -71.556 48.431)"/><path d="m9.473 128a1 1 0 0 1 -.707-.293l-8.473-8.475a1 1 0 0 1 0-1.414l29.622-29.618a1 1 0 0 1 1.414 0l8.471 8.469a1 1 0 0 1 0 1.414l-29.62 29.622a1 1 0 0 1 -.707.295zm-7.059-9.473 7.059 7.059 28.208-28.21-7.059-7.059z" fill="#2f3a5a"/></svg>