<?xml version="1.0"?>
<svg xmlns="http://www.w3.org/2000/svg" id="icon" viewBox="0 0 128 128" width="512" height="512"><path d="M71.357,65.018a14.436,14.436,0,0,0-8.776-2.209,13.406,13.406,0,0,0-6.9,2.679v2.442l3.212.881A7.091,7.091,0,0,1,63.208,66.6c1.986-.171,4.156.713,6.473,2.63l1.676-.866Z" fill="#c79d8a"/><path d="M69.681,70.229A1,1,0,0,1,69.044,70c-2.107-1.742-4.049-2.553-5.75-2.4a6.114,6.114,0,0,0-3.64,1.868,1.015,1.015,0,0,1-1.022.311l-3.211-.881a1,1,0,0,1-.735-.964V65.487a1,1,0,0,1,.4-.8A14.476,14.476,0,0,1,62.5,61.813a15.424,15.424,0,0,1,9.375,2.347,1,1,0,0,1,.487.858v3.346a1,1,0,0,1-.541.889l-1.676.866A1,1,0,0,1,69.681,70.229Zm-5.989-4.65A10.194,10.194,0,0,1,69.8,68.043l.559-.289v-2.16a13.339,13.339,0,0,0-7.689-1.79A12.408,12.408,0,0,0,56.686,66v1.168l1.921.527a7.95,7.95,0,0,1,4.515-2.09Q63.405,65.578,63.692,65.579Z" fill="#2f3a5a"/><path d="M105.77,35.068a5.015,5.015,0,0,0-7.961-.107l-6.772,7.2a1.814,1.814,0,0,0,.753,2.807l.427.17a4.87,4.87,0,0,0,5.521-1.377l3.1-3.663a2.614,2.614,0,0,1,4,.281L118.161,58.8,127,60.023Z" fill="#c79d8a"/><path d="M127,61.023a1,1,0,0,1-.137-.009l-8.839-1.219a1,1,0,0,1-.673-.4l-13.322-18.42a1.615,1.615,0,0,0-2.47-.173L98.5,44.411a5.862,5.862,0,0,1-6.654,1.66L91.42,45.9a2.814,2.814,0,0,1-1.169-4.355l6.829-7.271a6.01,6.01,0,0,1,9.471.167l21.21,24.932A1,1,0,0,1,127,61.023Zm-8.28-3.151,5.819.8L105.008,35.715c-.014-.017-.027-.033-.04-.05a3.986,3.986,0,0,0-3.165-1.616,3.886,3.886,0,0,0-3.208,1.53L91.766,42.85a.826.826,0,0,0,.4,1.194l.426.169a3.865,3.865,0,0,0,4.388-1.094l3.1-3.663a3.645,3.645,0,0,1,2.9-1.145,3.6,3.6,0,0,1,2.674,1.486Z" fill="#2f3a5a"/><path d="M22.23,35.068a5.015,5.015,0,0,1,7.961-.107l6.772,7.2a1.814,1.814,0,0,1-.753,2.807l-.427.17a4.87,4.87,0,0,1-5.521-1.377l-3.1-3.663a2.614,2.614,0,0,0-4,.281L9.839,58.8,1,60.023Z" fill="#c79d8a"/><path d="M1,61.023a1,1,0,0,1-.761-1.648l21.21-24.932a5.97,5.97,0,0,1,4.721-2.394,6.07,6.07,0,0,1,4.807,2.292l6.715,7.138a2.823,2.823,0,0,1,.564,2.537A2.791,2.791,0,0,1,36.58,45.9l-.427.17A5.864,5.864,0,0,1,29.5,44.411l-3.1-3.663a1.569,1.569,0,0,0-1.232-.442,1.61,1.61,0,0,0-1.194.664L10.649,59.39a1,1,0,0,1-.673.4L1.137,61.014A1,1,0,0,1,1,61.023ZM26.253,34.049H26.2a3.986,3.986,0,0,0-3.165,1.616c-.013.017-.026.034-.04.05L3.46,58.674l5.819-.8L22.351,39.8a3.614,3.614,0,0,1,5.53-.389l3.144,3.71a3.866,3.866,0,0,0,4.388,1.095l.427-.17a.814.814,0,0,0,.338-1.26l-6.715-7.138A4.047,4.047,0,0,0,26.253,34.049ZM22.23,35.067h0Z" fill="#2f3a5a"/><path d="M95.174,94.938a29.619,29.619,0,0,1-8.2-1.274c-.567-.182-1.124-.375-1.648-.589a19.5,19.5,0,0,1-3.339-1.691,18.294,18.294,0,0,1-2.676-1.991c-7.739-6.882-7.482-17.725-7.482-17.725S71.616,69,75.351,63.139s23.28-4.281,23.28-4.281l3.179.471,3.757.567,4.142.61,1.884.278,7.161,1.07V73.4S119.042,95.538,95.174,94.938Z" fill="#e1e6e9"/><path d="M105.567,59.9,81.987,91.385a18.294,18.294,0,0,1-2.676-1.991l22.5-30.066Z" fill="#fff"/><path d="M111.593,60.784,86.975,93.665c-.567-.182-1.124-.375-1.648-.589l24.382-32.57Z" fill="#fff"/><path d="M96.108,95.951c-.318,0-.638,0-.961-.012C71.1,95.341,70.83,72.9,70.834,71.692c-.024-.515.038-3.381,3.674-9.1,3.948-6.2,22.146-4.9,24.208-4.732l21.032,3.125V73.4c.005.385.053,9.825-6.628,16.429C109.012,93.9,103.292,95.951,96.108,95.951ZM93,59.65c-6.324,0-14.73.756-16.807,4.021-3.434,5.395-3.365,7.908-3.363,7.933v.086c-.019.885-.207,21.688,22.362,22.25,7.065.17,12.616-1.68,16.5-5.515,6.077-5.994,6.048-14.918,6.047-15.008v-10.7l-19.26-2.864C97.146,59.742,95.2,59.65,93,59.65Z" fill="#2f3a5a"/><path d="M32.826,94.938a29.619,29.619,0,0,0,8.2-1.274c.567-.182,1.124-.375,1.648-.589a19.5,19.5,0,0,0,3.339-1.691,18.294,18.294,0,0,0,2.676-1.991c7.739-6.882,7.482-17.725,7.482-17.725s.214-2.665-3.521-8.531-23.28-4.281-23.28-4.281l-3.179.471-3.757.567-4.142.61-1.884.278-7.161,1.07V73.4S8.958,95.538,32.826,94.938Z" fill="#e1e6e9"/><path d="M42.662,59.9,19.083,91.385a18.294,18.294,0,0,1-2.676-1.991l22.5-30.066Z" fill="#fff"/><path d="M48.688,60.784,24.071,93.665c-.567-.182-1.124-.375-1.648-.589L46.8,60.506Z" fill="#fff"/><path d="M31.892,95.951c-7.184,0-12.9-2.056-17.012-6.118C8.2,83.229,8.247,73.79,8.252,73.392V60.99l20.966-3.118c2.127-.176,20.325-1.48,24.274,4.725,3.636,5.714,3.7,8.58,3.674,9.1,0,1.208-.267,23.649-24.312,24.247Q32.369,95.951,31.892,95.951ZM10.251,62.715V73.4c0,.1-.029,9.026,6.047,15.02,3.889,3.835,9.439,5.69,16.5,5.515,22.613-.562,22.383-21.364,22.362-22.249v-.053l0-.038c0-.121,0-2.641-3.363-7.928-2.8-4.4-17.088-4.244-22.358-3.813Z" fill="#2f3a5a"/><path d="M72.606,71.773s-4.394.008-3.8-5.336S81.87,56.223,100.4,57.291,127,60.023,127,60.023v4.435s-3.207,1.266-3.563,6.016-5.344,3.325-5.7,2.019,0-9.382-7.126-10.214S82.345,59,76.169,65.452A14.144,14.144,0,0,0,72.606,71.773Z" fill="#c79d8a"/><path d="M120.4,74.759c-1.536,0-3.292-.756-3.632-2a8.205,8.205,0,0,1-.168-1.142c-.271-2.508-.835-7.727-6.108-8.342-18.416-2.147-29.722-1.182-33.6,2.871a13.256,13.256,0,0,0-3.31,5.849,1,1,0,0,1-.974.78,4.953,4.953,0,0,1-3.58-1.6,5.98,5.98,0,0,1-1.216-4.844c.737-6.639,15.075-11.042,32.642-10.033,18.389,1.061,26.415,2.682,26.747,2.75a1,1,0,0,1,.8.979v4.435a1,1,0,0,1-.633.93c-.1.042-2.632,1.147-2.933,5.161-.182,2.424-1.532,3.991-3.611,4.191C120.686,74.753,120.545,74.759,120.4,74.759ZM93.874,60.12a149.552,149.552,0,0,1,16.853,1.167c6.858.8,7.59,7.566,7.865,10.114.036.334.077.712.109.831a2.794,2.794,0,0,0,2.266.461c.88-.224,1.375-.995,1.473-2.292A8,8,0,0,1,126,63.86v-3a236.207,236.207,0,0,0-25.661-2.565c-19.206-1.107-30.075,4.083-30.54,8.256a4.133,4.133,0,0,0,.7,3.273,2.858,2.858,0,0,0,1.37.828,15.368,15.368,0,0,1,3.6-5.916C78.861,61.2,86.036,60.12,93.874,60.12Z" fill="#2f3a5a"/><path d="M55.394,71.773s4.394.008,3.8-5.336S46.13,56.223,27.6,57.291,1,60.023,1,60.023v4.435s3.207,1.266,3.563,6.016,5.344,3.325,5.7,2.019,0-9.382,7.126-10.214S45.655,59,51.831,65.452A14.144,14.144,0,0,1,55.394,71.773Z" fill="#c79d8a"/><path d="M7.6,74.759c-.142,0-.283-.006-.419-.02-2.08-.2-3.43-1.767-3.611-4.191-.3-4.014-2.834-5.12-2.942-5.165A1.015,1.015,0,0,1,0,64.458V60.023a1,1,0,0,1,.8-.979c.333-.068,8.358-1.689,26.747-2.75,17.573-1.009,31.9,3.394,32.642,10.033a5.98,5.98,0,0,1-1.216,4.844,5.241,5.241,0,0,1-3.58,1.6,1,1,0,0,1-.974-.78,13.13,13.13,0,0,0-3.281-5.82c-3.911-4.081-15.216-5.047-33.632-2.9-5.273.616-5.837,5.834-6.108,8.342a8.184,8.184,0,0,1-.168,1.141C10.888,74,9.132,74.759,7.6,74.759ZM2,63.86A8,8,0,0,1,5.56,70.4c.1,1.3.593,2.068,1.473,2.292a2.638,2.638,0,0,0,2.291-.524c.007-.055.048-.433.084-.767.275-2.547,1.007-9.313,7.865-10.114,12.336-1.439,29.418-2.646,35.279,3.474a15.335,15.335,0,0,1,3.573,5.887,2.858,2.858,0,0,0,1.37-.828,4.133,4.133,0,0,0,.7-3.273c-.464-4.173-11.331-9.364-30.54-8.256A236.207,236.207,0,0,0,2,60.855Z" fill="#2f3a5a"/></svg>
