<svg id="icon" height="512" viewBox="0 0 128 128" width="512" xmlns="http://www.w3.org/2000/svg"><circle cx="63.02" cy="113.352" fill="#ffc943" r="13.648"/><path d="m76.667 113.351a13.646 13.646 0 0 1 -24.847 7.791 13.637 13.637 0 0 0 17.861-19.69 13.592 13.592 0 0 1 6.986 11.899z" fill="#f7b521"/><path d="m63.021 128a14.648 14.648 0 1 1 14.647-14.648 14.665 14.665 0 0 1 -14.647 14.648zm0-27.3a12.648 12.648 0 1 0 12.647 12.648 12.662 12.662 0 0 0 -12.647-12.648z" fill="#2f3a5a"/><path d="m87.879 44.439c-2.011-24.76-23.879-24.707-23.879-24.707s-21.533-.052-23.879 24.708c-2.25 23.76 1.011 44.06-20.203 55.328v10.256h88.164v-10.256c-21.214-11.268-18.272-31.541-20.203-55.329z" fill="#ffc943"/><path d="m108.078 99.774v10.248h-7.966v-10.248c-21.212-11.274-18.584-31.522-20.206-55.341-1.345-19.7-13.453-23.806-19.889-24.584a19.348 19.348 0 0 1 3.983-.119s22.039-2.269 23.872 24.7c1.623 23.822-1.002 44.07 20.206 55.344z" fill="#f7b521"/><path d="m108.082 111.023h-88.164a1 1 0 0 1 -1-1v-10.255a1 1 0 0 1 .531-.883c16.334-8.675 17.263-22.628 18.44-40.292.306-4.6.622-9.351 1.24-14.278 2.235-17.829 14.271-25.635 25.14-25.428 10.763.188 23.054 8.236 24.606 25.463.367 4.072.579 8.035.784 11.868 1 18.766 1.8 33.588 18.892 42.667a1 1 0 0 1 .531.883v10.256a1 1 0 0 1 -1 .999zm-87.164-2h86.164v-8.659c-17.58-9.641-18.435-25.6-19.42-44.04-.2-3.814-.415-7.759-.779-11.795-1.442-16-12.751-23.47-22.648-23.643h-.358c-9.214 0-20.567 6.173-22.763 23.681-.61 4.869-.925 9.593-1.229 14.162-1.157 17.38-2.158 32.415-18.966 41.639z" fill="#2f3a5a"/><path d="m63.327 1a9.442 9.442 0 1 0 9.442 9.442 9.448 9.448 0 0 0 -9.442-9.442zm0 13.588a4.14 4.14 0 1 1 4.149-4.149 4.141 4.141 0 0 1 -4.151 4.149z" fill="#ffc943"/><g fill="#2f3a5a"><path d="m63.327 20.883a10.442 10.442 0 1 1 10.442-10.442 10.453 10.453 0 0 1 -10.442 10.442zm0-18.883a8.442 8.442 0 1 0 8.441 8.441 8.451 8.451 0 0 0 -8.441-8.441zm0 13.588a5.14 5.14 0 1 1 5.148-5.148 5.146 5.146 0 0 1 -5.15 5.148zm0-8.28a3.14 3.14 0 1 0 3.148 3.131 3.135 3.135 0 0 0 -3.15-3.131z"/><path d="m19.918 98.768h88.164v2h-88.164z"/></g></svg>