<?xml version="1.0"?>
<svg xmlns="http://www.w3.org/2000/svg" id="icon" viewBox="0 0 128 128" width="512" height="512"><path d="M78.565,1H26.686a8.808,8.808,0,0,0-8.808,8.808V118.192A8.808,8.808,0,0,0,26.686,127h74.627a8.808,8.808,0,0,0,8.808-8.808V32.556Z" fill="#dbe2eb"/><path d="M101.313,128H26.687a9.819,9.819,0,0,1-9.808-9.808V9.808A9.819,9.819,0,0,1,26.687,0H78.565a1,1,0,0,1,.707.293l31.556,31.556a1,1,0,0,1,.293.707v85.636A9.819,9.819,0,0,1,101.313,128ZM26.687,2a7.817,7.817,0,0,0-7.808,7.808V118.192A7.817,7.817,0,0,0,26.687,126h74.627a7.817,7.817,0,0,0,7.808-7.808V32.97L78.151,2Z" fill="#2f3a5a"/><path d="M78.565,23.748a8.808,8.808,0,0,0,8.808,8.808h22.748L78.565,1Z" fill="#dbe2eb"/><path d="M110.121,33.556H87.373a9.819,9.819,0,0,1-9.808-9.808V1A1,1,0,0,1,79.272.293l31.556,31.556a1,1,0,0,1-.707,1.707ZM79.565,3.414V23.749a7.817,7.817,0,0,0,7.808,7.808h20.334Z" fill="#2f3a5a"/><path d="M49.635,50.054H46.648L44.329,43.97H35.953l-2.21,6.084h-2.8l7.68-20h2.851Zm-6.084-8.185-3.52-9.276-3.356,9.276Z" fill="#4fa4d1"/><path d="M71.83,68.779a5.158,5.158,0,0,1-1.91,4.311,8.837,8.837,0,0,1-5.552,1.5H56.879v-20H64a8.227,8.227,0,0,1,5.02,1.364,4.411,4.411,0,0,1,1.828,3.738,4.527,4.527,0,0,1-2.878,4.283,4.768,4.768,0,0,1,3.861,4.8Zm-12.3-5.811h4.447a5.86,5.86,0,0,0,3.233-.7,2.619,2.619,0,0,0,1.037-2.34,2.576,2.576,0,0,0-1.009-2.217,6.134,6.134,0,0,0-3.506-.743h-4.2Zm0,9.249h4.816q4.747,0,4.747-3.438a3.055,3.055,0,0,0-1.1-2.612A6.974,6.974,0,0,0,64,65.341H59.526Z" fill="#4fa4d1"/><path d="M87.078,98.225a8.7,8.7,0,0,1-6.773-2.79,10.814,10.814,0,0,1-2.531-7.551A10.814,10.814,0,0,1,80.3,80.334a8.7,8.7,0,0,1,6.773-2.79A8.846,8.846,0,0,1,92.63,79.3a6.419,6.419,0,0,1,2.578,4.638H92.48a4.049,4.049,0,0,0-1.644-3.015,6.665,6.665,0,0,0-8.547.975,9,9,0,0,0-1.773,5.982,9.057,9.057,0,0,0,1.76,5.975,6.628,6.628,0,0,0,8.567.955,4.477,4.477,0,0,0,1.637-3.274h2.728a6.731,6.731,0,0,1-2.51,4.938A8.823,8.823,0,0,1,87.078,98.225Z" fill="#4fa4d1"/><path d="M94.344,52.2h-63.4a1,1,0,1,1,0-2h63.4a1,1,0,0,1,0,2Z" fill="#c1cdd3"/><path d="M94.344,76.205h-63.4a1,1,0,1,1,0-2h63.4a1,1,0,0,1,0,2Z" fill="#c1cdd3"/><path d="M94.344,100.215h-63.4a1,1,0,0,1,0-2h63.4a1,1,0,0,1,0,2Z" fill="#c1cdd3"/></svg>
