<svg id="icon" height="512" viewBox="0 0 128 128" width="512" xmlns="http://www.w3.org/2000/svg"><ellipse cx="63.776" cy="120.822" fill="#dbe2eb" rx="7.842" ry="6.178"/><path d="m63.776 128c-4.875 0-8.842-3.22-8.842-7.178s3.967-7.179 8.842-7.179 8.842 3.22 8.842 7.179-3.967 7.178-8.842 7.178zm0-12.357c-3.772 0-6.842 2.323-6.842 5.179s3.066 5.178 6.842 5.178 6.842-2.323 6.842-5.178-3.069-5.179-6.842-5.179z" fill="#2f3a5a"/><path d="m49.601 101.584h28.37v19.899h-28.37z" fill="#9297ab"/><path d="m77.971 101.582v19.899h-28.371v-2.688h24.172v-17.211z" fill="#707583"/><path d="m77.971 122.483h-28.371a1 1 0 0 1 -1-1v-19.9a1 1 0 0 1 1-1h28.371a1 1 0 0 1 1 1v19.9a1 1 0 0 1 -1 1zm-27.369-2h26.369v-17.9h-26.371z" fill="#2f3a5a"/><path d="m61.053 11.691c-18.782 1.325-36.133 18.339-37.792 37.094a40.868 40.868 0 0 0 14.667 35.254 22.813 22.813 0 0 1 8.181 15.418 2.317 2.317 0 0 0 2.3 2.121l30.893.006a2.7 2.7 0 0 0 2.664-2.46 22.1 22.1 0 0 1 7.888-14.868 40.927 40.927 0 0 0 -28.8-72.565z" fill="#dbe2eb"/><path d="m104.951 52.515a40.859 40.859 0 0 1 -15.1 31.744 22.078 22.078 0 0 0 -7.888 14.862 2.7 2.7 0 0 1 -2.664 2.46h-8.224a22.244 22.244 0 0 1 8.017-17.323 40.938 40.938 0 0 0 -20.418-72.32c.9-.12 1.817-.213 2.734-.269a40.932 40.932 0 0 1 43.543 40.846z" fill="#c1cdd3"/><g fill="#2f3a5a"><path d="m79.3 102.583h-30.562a3.7 3.7 0 0 1 -3.655-3.341 21.708 21.708 0 0 0 -7.792-14.432 42.061 42.061 0 0 1 -15.025-36.11c1.7-19.24 19.431-36.643 38.717-38l.07 1-.07-1a41.6 41.6 0 0 1 31.617 11.134 41.927 41.927 0 0 1 -2.115 63.2 20.956 20.956 0 0 0 -7.525 14.2 3.7 3.7 0 0 1 -3.66 3.349zm-15.246-90q-1.459 0-2.932.1c-18.363 1.3-35.245 17.866-36.865 36.184a40.061 40.061 0 0 0 14.309 34.4 23.7 23.7 0 0 1 8.5 15.751 1.707 1.707 0 0 0 1.667 1.558h30.563a1.709 1.709 0 0 0 1.67-1.565 22.942 22.942 0 0 1 8.25-15.538 39.926 39.926 0 0 0 -25.166-70.9z"/><path d="m118.8 56.8h-5.808a1 1 0 0 1 0-2h5.808a1 1 0 1 1 0 2z"/><path d="m15.008 56.8h-5.808a1 1 0 1 1 0-2h5.808a1 1 0 0 1 0 2z"/><path d="m64 7.808a1 1 0 0 1 -1-1v-5.808a1 1 0 0 1 2 0v5.808a1 1 0 0 1 -1 1z"/><path d="m29.357 22.157a1 1 0 0 1 -.707-.293l-4.106-4.107a1 1 0 0 1 1.414-1.414l4.106 4.107a1 1 0 0 1 -.707 1.707z"/><path d="m98.643 22.157a1 1 0 0 1 -.707-1.707l4.106-4.107a1 1 0 0 1 1.414 1.414l-4.106 4.107a1 1 0 0 1 -.707.293z"/><path d="m109.263 38.052a1 1 0 0 1 -.383-1.924l5.366-2.222a1 1 0 0 1 .766 1.848l-5.366 2.222a1 1 0 0 1 -.383.076z"/><path d="m45.252 11.538a1 1 0 0 1 -.924-.618l-2.223-5.366a1 1 0 0 1 1.848-.766l2.223 5.366a1 1 0 0 1 -.924 1.383z"/><path d="m18.737 38.052a1 1 0 0 1 -.383-.077l-5.366-2.222a1 1 0 0 1 .766-1.848l5.366 2.222a1 1 0 0 1 -.383 1.924z"/><path d="m82.748 11.538a1 1 0 0 1 -.924-1.383l2.223-5.366a1 1 0 1 1 1.848.766l-2.223 5.365a1 1 0 0 1 -.924.618z"/></g></svg>