<svg id="icon" height="512" viewBox="0 0 128 128" width="512" xmlns="http://www.w3.org/2000/svg"><path d="m70.911 40.722q-1.424 1.4-2.854 2.826c-27.836 27.836-46.586 54.027-42.114 58.5s30.474-14.467 58.31-42.3q1.43-1.43 2.827-2.853z" fill="#8ccfb5"/><path d="m87.078 56.892c-.931.945-1.876 1.9-2.821 2.848-27.841 27.841-53.847 46.775-58.315 42.308a3.3 3.3 0 0 1 -.567-2.956c8.584-1.363 31.283-18.772 55.36-42.862.958-.958 1.9-1.9 2.834-2.848z" fill="#83bfac"/><path d="m70.911 40.722q-1.424 1.4-2.854 2.826c-27.836 27.836-46.586 54.027-42.114 58.5s30.474-14.467 58.31-42.3q1.43-1.43 2.827-2.853z" fill="none"/><path d="m1.344 126.453-.076.084c1.513-1.456 13.311-5.089 21.67-4.121l7.954-17.691-4.655-4.655-1.137-1.133-2.028-2.028-17.687 7.955c1.599 10.95-4.041 21.589-4.041 21.589z" fill="#ffc943"/><path d="m1.268 127.037a.5.5 0 0 1 -.368-.837l.031-.035c.425-.832 5.458-10.97 3.961-21.229a.5.5 0 0 1 .29-.528l17.691-7.955a.5.5 0 0 1 .559.1l7.815 7.816a.5.5 0 0 1 .1.559l-7.954 17.69a.5.5 0 0 1 -.514.292c-8.233-.956-19.844 2.617-21.266 3.985a.5.5 0 0 1 -.345.142zm4.665-21.871c1.118 8.518-2.037 16.854-3.475 20.1 3.85-1.753 13.237-4.072 20.173-3.386l7.664-17.045-7.328-7.328z" fill="#2f3a5a"/><path d="m25.229 83.488h16.536v21.632h-16.536z" fill="#c8cbd2" transform="matrix(-.707 -.707 .707 -.707 -9.501 184.673)"/><path d="m31.695 108.506-12.4-12.4 16-16 12.405 12.394zm-10.985-12.4 10.985 10.986 14.589-14.592-10.984-10.983z" fill="#2f3a5a"/><path d="m25.229 83.488h16.536v21.632h-16.536z" fill="#d9e2e9" transform="matrix(-.707 -.707 .707 -.707 -9.501 184.673)"/><path d="m46.996 92.507-15.304 15.29-3.698-3.698 15.29-15.304z" fill="#c1cdd3"/><path d="m46.9 93.093a.5.5 0 0 1 -.3-.9c10.809-7.91 24.053-19.558 37.292-32.8.835-.835 1.663-1.663 2.483-2.5l-15.469-15.468q-.532.53-1.067 1.059-.715.708-1.432 1.422c-13.126 13.125-24.707 26.362-32.624 37.271a.5.5 0 1 1 -.81-.587c7.943-10.95 19.565-24.23 32.727-37.39q.719-.719 1.436-1.426t1.418-1.408a.5.5 0 0 1 .707 0l16.174 16.174a.5.5 0 0 1 0 .7c-.937.956-1.882 1.9-2.838 2.857-13.27 13.278-26.556 24.961-37.405 32.903a.5.5 0 0 1 -.292.093z" fill="#2f3a5a"/><path d="m31.695 108.3a.5.5 0 0 1 -.354-.146l-11.692-11.695a.5.5 0 0 1 0-.707l15.3-15.3a.5.5 0 0 1 .707 0l11.688 11.697a.5.5 0 0 1 0 .707l-15.3 15.3a.5.5 0 0 1 -.349.144zm-10.986-12.194 10.985 10.986 14.59-14.592-10.984-10.983z" fill="#2f3a5a"/><path d="m81.641 64.068c28.983-29 51.767-53.384 43.726-61.425-7.4-7.4-32.639 14.534-61.635 43.516z" fill="#8ccfb5"/><path d="m81.642 64.069-4.332-4.332c26.023-26.042 47.046-48.363 45.233-58.459a4.919 4.919 0 0 1 2.825 1.374c8.032 8.035-14.744 32.417-43.726 61.417z" fill="#83bfac"/><path d="m81.642 64.568a.5.5 0 0 1 -.354-.146l-17.909-17.909a.5.5 0 0 1 0-.707c37.108-37.091 55.754-50.106 62.342-43.516 8.5 8.5-14.773 33.167-43.726 62.132a.5.5 0 0 1 -.353.146zm-17.203-18.408 17.2 17.2c27.369-27.389 51.177-52.56 43.375-60.36-7.752-7.758-38.183 20.8-60.575 43.16z" fill="#2f3a5a"/><path d="m115.044 13.462a2.07 2.07 0 0 0 -2.927 0l-32.225 32.225a2.07 2.07 0 0 0 0 2.927 2.07 2.07 0 0 0 2.927 0l32.226-32.226a2.07 2.07 0 0 0 -.001-2.926z" fill="#d9e2e9"/><path d="m81.355 49.719a2.568 2.568 0 0 1 -1.817-4.385l32.226-32.226a2.551 2.551 0 0 1 1.816-.753 2.569 2.569 0 0 1 1.817 4.387l-32.225 32.226a2.561 2.561 0 0 1 -1.817.751zm32.225-36.364a1.559 1.559 0 0 0 -1.109.46l-32.226 32.226a1.57 1.57 0 1 0 2.22 2.22l32.225-32.226a1.57 1.57 0 0 0 -1.11-2.68z" fill="#2f3a5a"/><path d="m15.311 112.215-13.967 14.238" fill="#d9e2e9"/><path d="m1.344 126.954a.5.5 0 0 1 -.357-.85l13.967-14.238a.5.5 0 1 1 .714.7l-13.968 14.234a.5.5 0 0 1 -.356.154z" fill="#2f3a5a"/></svg>