<svg id="icon" height="512" viewBox="0 0 128 128" width="512" xmlns="http://www.w3.org/2000/svg"><path d="m.005 37.286h125.99v75.875h-125.99z" fill="#d9e2e9"/><path d="m126 37.286v75.878h-126v-6.257h120.367v-69.621z" fill="#c1cdd3"/><path d="m126 114.161h-125.995a1 1 0 0 1 -1-1v-75.875a1 1 0 0 1 1-1h125.995a1 1 0 0 1 1 1v75.875a1 1 0 0 1 -1 1zm-124.99-2h123.99v-73.875h-123.995z" fill="#2f3a5a"/><path d="m40.994 80.446a4.921 4.921 0 0 1 -.916-.184c-.016 0-.029-.012-.044-.017a4.29 4.29 0 0 1 -.733-.3c-2.363-1.267-2.406-4.439-2.308-5.77a10.547 10.547 0 0 0 4.141-7.783c.028-.36.036-.716.032-1.069a.814.814 0 0 0 .7-.22c.306-.313.151-.819.258-1.243a10.11 10.11 0 0 0 -.034-6.063 9.476 9.476 0 0 0 -6.143-5.439c-2.73-.753-5.74-1.677-8.009.017v.005a3.776 3.776 0 0 0 -3 1.128 7.885 7.885 0 0 0 -1.824 3.389 14.654 14.654 0 0 0 -.574 6.977 2.642 2.642 0 0 0 1.276 2.126.768.768 0 0 0 .414.135 10.184 10.184 0 0 0 3.595 7.865c.111 1.2.187 4.612-2.293 5.941a4.287 4.287 0 0 1 -.733.3c-.016 0-.028.012-.044.017a4.921 4.921 0 0 1 -.916.184 13.806 13.806 0 0 0 -3.8.957 12.739 12.739 0 0 0 -1.849.945 12.214 12.214 0 0 0 -2.534 2.087 14.487 14.487 0 0 0 -3.439 6.971q-.161.754-.271 1.57v6.058h40.942v-6.053c-1.168-8.708-6.903-12-11.894-12.531z" fill="#9297ab"/><path d="m52.888 100.03h-40.943a1 1 0 0 1 -1-1v-6.053a1 1 0 0 1 .009-.132q.114-.857.284-1.646a15.521 15.521 0 0 1 3.684-7.442 13.241 13.241 0 0 1 2.742-2.257 13.764 13.764 0 0 1 1.993-1.019 14.776 14.776 0 0 1 4.076-1.028 3.913 3.913 0 0 0 .731-.146 3.671 3.671 0 0 0 .6-.246c1.739-.932 1.852-3.385 1.8-4.567a11.225 11.225 0 0 1 -3.6-7.665 3.641 3.641 0 0 1 -1.72-2.829 15.675 15.675 0 0 1 .61-7.394 8.852 8.852 0 0 1 2.078-3.809 4.807 4.807 0 0 1 3.41-1.436c2.521-1.642 5.566-.8 8.265-.049l.3.083a10.541 10.541 0 0 1 6.8 6.022 11.2 11.2 0 0 1 .083 6.683 1.946 1.946 0 0 0 -.017.262 1.991 1.991 0 0 1 -.5 1.438 1.719 1.719 0 0 1 -.425.319c-.006.115-.013.23-.021.345a11.718 11.718 0 0 1 -4.163 8.222c-.034 1.272.162 3.494 1.806 4.375a3.3 3.3 0 0 0 .562.232c.032.01.086.03.117.044a4.458 4.458 0 0 0 .647.116c2.614.278 11.259 2.066 12.779 13.393a1.006 1.006 0 0 1 .009.133v6.051a1 1 0 0 1 -.996 1zm-39.943-2h38.943v-4.986c-1.312-9.555-8.125-11.3-11-11.6a6 6 0 0 1 -1.1-.221c-.036-.011-.093-.032-.127-.047a4.761 4.761 0 0 1 -.832-.35c-2.889-1.549-2.944-5.219-2.833-6.725a1 1 0 0 1 .413-.738 9.6 9.6 0 0 0 3.729-7.049c.025-.329.033-.655.028-.978a1 1 0 0 1 .908-1.009v-.016a3.082 3.082 0 0 1 .076-.694 9.3 9.3 0 0 0 .012-5.439 8.5 8.5 0 0 0 -5.485-4.856l-.3-.084c-2.458-.681-5-1.387-6.79-.1a1.01 1.01 0 0 1 -.772.234 2.766 2.766 0 0 0 -2.175.847 6.778 6.778 0 0 0 -1.569 2.969 13.591 13.591 0 0 0 -.538 6.561 1.66 1.66 0 0 0 .8 1.393 1.008 1.008 0 0 1 .9.983 9.219 9.219 0 0 0 3.218 7.1 1 1 0 0 1 .371.688c.112 1.208.24 5.277-2.816 6.915a5.277 5.277 0 0 1 -.9.376 5.864 5.864 0 0 1 -1.156.242 12.745 12.745 0 0 0 -3.523.887 11.767 11.767 0 0 0 -1.7.871 11.228 11.228 0 0 0 -2.328 1.917 13.552 13.552 0 0 0 -3.2 6.5q-.147.687-.249 1.428z" fill="#2f3a5a"/><path d="m53.09 12.08v33.4h19.82v-33.4zm9.91 14.25a3.905 3.905 0 1 1 3.91-3.9 3.907 3.907 0 0 1 -3.91 3.9z" fill="#5fc4f8"/><g fill="#2f3a5a"><path d="m72.91 46.48h-19.82a1 1 0 0 1 -1-1v-33.4a1 1 0 0 1 1-1h19.82a1 1 0 0 1 1 1v33.4a1 1 0 0 1 -1 1zm-18.82-2h17.82v-31.4h-17.82zm8.91-17.15a4.905 4.905 0 1 1 4.91-4.9 4.911 4.911 0 0 1 -4.91 4.9zm0-7.81a2.905 2.905 0 1 0 2.91 2.91 2.914 2.914 0 0 0 -2.91-2.91z"/><path d="m115.419 60.664h-49.526a1 1 0 0 1 0-2h49.526a1 1 0 0 1 0 2z"/><path d="m115.419 71.037h-49.526a1 1 0 0 1 0-2h49.526a1 1 0 0 1 0 2z"/><path d="m115.419 81.41h-49.526a1 1 0 0 1 0-2h49.526a1 1 0 0 1 0 2z"/><path d="m115.419 91.783h-49.526a1 1 0 0 1 0-2h49.526a1 1 0 0 1 0 2z"/><path d="m76.731 46.484h-27.6a1 1 0 0 1 0-2h27.6a1 1 0 0 1 0 2z"/></g></svg>