<svg id="icon" height="512" viewBox="0 0 128 128" width="512" xmlns="http://www.w3.org/2000/svg"><path d="m45.039 127h-22.533l6.101-49.161h10.331z" fill="#d9e2e9"/><path d="m45.036 126.997h-22.532l1.782-14.335h14.132l-4.317-34.82h4.836z" fill="#c1cdd3"/><path d="m45.039 128h-22.533a1 1 0 0 1 -.992-1.123l6.1-49.162a1 1 0 0 1 .992-.877h10.332a1 1 0 0 1 .992.877l6.1 49.162a1 1 0 0 1 -.991 1.123zm-21.4-2h20.268l-5.853-47.162h-8.563z" fill="#2f3a5a"/><circle cx="33.773" cy="79.655" fill="#d9e2e9" r="14.978"/><path d="m48.752 79.654a14.975 14.975 0 0 1 -28.63 6.15 14.971 14.971 0 0 0 22.778-18.022 14.932 14.932 0 0 1 5.852 11.872z" fill="#c1cdd3"/><path d="m33.773 95.633a15.978 15.978 0 1 1 15.977-15.978 16 16 0 0 1 -15.977 15.978zm0-29.955a13.978 13.978 0 1 0 13.977 13.977 13.994 13.994 0 0 0 -13.977-13.977z" fill="#2f3a5a"/><path d="m10.719 117.314h46.107v9.686h-46.107z" fill="#d9e2e9"/><path d="m56.826 117.315v9.682h-46.101v-3.37h42.334v-6.312z" fill="#c1cdd3"/><path d="m56.826 128h-46.107a1 1 0 0 1 -1-1v-9.686a1 1 0 0 1 1-1h46.107a1 1 0 0 1 1 1v9.686a1 1 0 0 1 -1 1zm-45.107-2h44.107v-7.686h-44.107z" fill="#2f3a5a"/><path d="m40.041 14.081c-16.277 16.73-15.406 44.23 2.07 61.706s44.976 18.347 61.706 2.07z" fill="#d9e2e9"/><path d="m103.82 77.853c-16.731 16.285-44.233 15.406-61.706-2.067a47.092 47.092 0 0 1 -10.3-15.407 47.221 47.221 0 0 0 5.191 6.155c16.731 16.731 42.67 18.236 59.524 4.032z" fill="#c1cdd3"/><path d="m74.718 90.435a47.207 47.207 0 0 1 -33.318-13.941c-17.742-17.742-18.675-46.053-2.08-63.11a1 1 0 0 1 .71-.3 1.143 1.143 0 0 1 .714.293l63.78 63.773a1 1 0 0 1 -.01 1.424 42.426 42.426 0 0 1 -29.796 11.861zm-34.658-74.921c-15.109 16.347-13.96 42.846 2.758 59.566s43.219 17.868 59.565 2.758z" fill="#2f3a5a"/><path d="m103.82 77.853c-4.586 4.586-21.18-4.492-37.912-20.46-.072-.072-.151-.151-.23-.216-.85-.821-1.713-1.656-2.57-2.513s-1.692-1.721-2.513-2.57c-.065-.079-.144-.158-.216-.23-15.968-16.732-25.046-33.327-20.46-37.913 4.658-4.658 21.706 4.788 38.7 21.238l.223.223c.6.569 1.188 1.145 1.778 1.735s1.166 1.181 1.735 1.778l.223.223c16.454 16.999 25.9 34.047 21.242 38.705z" fill="#d9e2e9"/><path d="m100.3 80.081c-8.606 0-24.741-11.551-37.9-24.708-15.836-15.832-29.344-35.973-23.194-42.127s26.294 7.354 42.127 23.191c8.6 8.6 15.766 17.606 20.189 25.372 3.271 5.742 6.447 13.311 3 16.755a5.738 5.738 0 0 1 -4.222 1.517zm-56.97-66.308a3.709 3.709 0 0 0 -2.71.887c-3.809 3.81 4.778 20.886 23.191 39.3s35.488 27 39.3 23.191c1.935-1.935.691-7.3-3.325-14.352-4.337-7.614-11.393-16.474-19.866-24.947-15.538-15.538-30.12-24.079-36.59-24.079z" fill="#2f3a5a"/><path d="m65.678 57.176c-.85-.821-1.713-1.656-2.57-2.513s-1.692-1.721-2.513-2.57l13.117-11.993 5.133-4.687 7.128-6.513 2.894 2.9-6.508 7.127-4.687 5.133z" fill="#d9e2e9"/><path d="m65.678 58.176a1 1 0 0 1 -.695-.281c-.854-.825-1.722-1.664-2.583-2.525s-1.7-1.729-2.524-2.583a1 1 0 0 1 .044-1.433l25.38-23.188a1 1 0 0 1 1.381.031l2.894 2.894a1 1 0 0 1 .031 1.381l-23.19 25.379a1 1 0 0 1 -.707.325zm-3.649-6.039c.586.6 1.181 1.214 1.786 1.819s1.214 1.2 1.819 1.787l21.85-23.913-1.542-1.542z" fill="#2f3a5a"/><circle cx="88.286" cy="29.485" fill="#d9e2e9" r="5.719" transform="matrix(.707 -.707 .707 .707 5.009 71.064)"/><g fill="#2f3a5a"><path d="m88.286 36.2a6.72 6.72 0 1 1 4.75-1.968 6.675 6.675 0 0 1 -4.75 1.968zm0-11.436a4.717 4.717 0 1 0 3.336 1.38 4.7 4.7 0 0 0 -3.336-1.375z"/><path d="m117.281 28.03a1 1 0 0 1 -1-1 25.058 25.058 0 0 0 -25.03-25.03 1 1 0 0 1 0-2 27.06 27.06 0 0 1 27.03 27.03 1 1 0 0 1 -1 1z"/><path d="m110.625 28.03a1 1 0 0 1 -1-1 18.4 18.4 0 0 0 -18.374-18.374 1 1 0 0 1 0-2 20.4 20.4 0 0 1 20.374 20.374 1 1 0 0 1 -1 1z"/><path d="m103.016 27.349a1 1 0 0 1 -1-1 10.1 10.1 0 0 0 -10.084-10.084 1 1 0 1 1 0-2 12.1 12.1 0 0 1 12.083 12.083 1 1 0 0 1 -.999 1.001z"/></g></svg>