<svg id="icon" height="512" viewBox="0 0 128 128" width="512" xmlns="http://www.w3.org/2000/svg"><path d="m98.65 1.77-96.88 96.88a2.629 2.629 0 0 0 0 3.717l23.862 23.863a2.629 2.629 0 0 0 3.717 0l96.88-96.88a2.629 2.629 0 0 0 0-3.717l-23.861-23.863a2.629 2.629 0 0 0 -3.718 0zm6.5 22.113a3.769 3.769 0 1 1 4.189 0 3.772 3.772 0 0 1 -4.189 0z" fill="#faba59"/><path d="m27.491 128a3.6 3.6 0 0 1 -2.565-1.063l-23.863-23.862a3.628 3.628 0 0 1 0-5.132l96.88-96.88a3.715 3.715 0 0 1 5.132 0l23.862 23.862a3.628 3.628 0 0 1 0 5.132l-96.88 96.88a3.6 3.6 0 0 1 -2.566 1.063zm73.018-126a1.617 1.617 0 0 0 -1.151.477l-96.881 96.88a1.628 1.628 0 0 0 0 2.3l23.862 23.863a1.667 1.667 0 0 0 2.3 0l96.881-96.88a1.628 1.628 0 0 0 0-2.3l-23.859-23.863a1.618 1.618 0 0 0 -1.152-.477zm6.735 23.514a4.766 4.766 0 1 1 3.366-1.392 4.745 4.745 0 0 1 -3.366 1.392zm0-7.528a2.762 2.762 0 1 0 1.959.81 2.764 2.764 0 0 0 -1.959-.81z" fill="#2f3a5a"/><path d="m87.164 13.251 6.71 6.71" fill="#f7b521"/><path d="m93.875 20.961a1 1 0 0 1 -.707-.293l-6.71-6.71a1 1 0 0 1 1.414-1.414l6.71 6.71a1 1 0 0 1 -.707 1.707z" fill="#2f3a5a"/><path d="m80.712 19.704 4.538 4.538" fill="#f7b521"/><path d="m85.25 25.242a1 1 0 0 1 -.707-.293l-4.543-4.538a1 1 0 0 1 1.419-1.411l4.539 4.539a1 1 0 0 1 -.707 1.707z" fill="#2f3a5a"/><path d="m73.635 26.781 6.709 6.71" fill="#f7b521"/><path d="m80.344 34.491a1 1 0 0 1 -.707-.293l-6.709-6.71a1 1 0 0 1 1.414-1.414l6.709 6.71a1 1 0 0 1 -.707 1.707z" fill="#2f3a5a"/><path d="m67.182 33.234 4.538 4.538" fill="#f7b521"/><path d="m71.72 38.772a1 1 0 0 1 -.707-.293l-4.538-4.538a1 1 0 0 1 1.414-1.414l4.538 4.538a1 1 0 0 1 -.707 1.707z" fill="#2f3a5a"/><path d="m60.105 40.311 6.71 6.71" fill="#f7b521"/><path d="m66.814 48.021a1 1 0 0 1 -.707-.293l-6.71-6.71a1 1 0 0 1 1.415-1.418l6.71 6.71a1 1 0 0 1 -.707 1.707z" fill="#2f3a5a"/><path d="m53.652 46.764 4.538 4.538" fill="#f7b521"/><path d="m58.19 52.3a1 1 0 0 1 -.707-.293l-4.539-4.539a1 1 0 0 1 1.414-1.414l4.542 4.546a1 1 0 0 1 -.71 1.7z" fill="#2f3a5a"/><path d="m46.575 53.841 6.71 6.71" fill="#f7b521"/><path d="m53.285 61.551a1 1 0 0 1 -.707-.293l-6.71-6.709a1 1 0 0 1 1.414-1.414l6.71 6.709a1 1 0 0 1 -.707 1.707z" fill="#2f3a5a"/><path d="m40.122 60.294 4.538 4.538" fill="#f7b521"/><path d="m44.661 65.832a1 1 0 0 1 -.707-.293l-4.539-4.539a1 1 0 0 1 1.414-1.414l4.539 4.539a1 1 0 0 1 -.707 1.707z" fill="#2f3a5a"/><path d="m33.045 67.371 6.71 6.71" fill="#f7b521"/><path d="m39.754 75.081a1 1 0 0 1 -.707-.293l-6.709-6.71a1 1 0 0 1 1.414-1.414l6.709 6.71a1 1 0 0 1 -.707 1.707z" fill="#2f3a5a"/><path d="m26.592 73.824 4.539 4.538" fill="#f7b521"/><path d="m31.13 79.362a1 1 0 0 1 -.707-.293l-4.538-4.538a1 1 0 0 1 1.415-1.414l4.538 4.538a1 1 0 0 1 -.707 1.707z" fill="#2f3a5a"/><path d="m19.515 80.901 6.71 6.71" fill="#f7b521"/><path d="m26.225 88.611a1 1 0 0 1 -.707-.293l-6.71-6.71a1 1 0 0 1 1.414-1.414l6.71 6.71a1 1 0 0 1 -.707 1.707z" fill="#2f3a5a"/><path d="m13.062 87.354 4.539 4.538" fill="#f7b521"/><path d="m17.6 92.892a1 1 0 0 1 -.707-.293l-4.539-4.539a1 1 0 0 1 1.414-1.414l4.539 4.539a1 1 0 0 1 -.707 1.707z" fill="#2f3a5a"/><path d="m5.985 94.431 6.71 6.71" fill="#f7b521"/><path d="m12.695 102.141a1 1 0 0 1 -.707-.293l-6.71-6.709a1 1 0 0 1 1.414-1.414l6.71 6.709a1 1 0 0 1 -.707 1.707z" fill="#2f3a5a"/></svg>