<svg id="icon" height="512" viewBox="0 0 128 128" width="512" xmlns="http://www.w3.org/2000/svg"><path d="m1.006 48.21h125.994v61.522h-125.994z" fill="#d9e2e9"/><path d="m127 110.732h-125.994a1 1 0 0 1 -1-1v-61.523a1 1 0 0 1 1-1h125.994a1 1 0 0 1 1 1v61.522a1 1 0 0 1 -1 1.001zm-124.994-2h123.994v-59.523h-123.994z" fill="#2f3a5a"/><path d="m1.006 56.303h125.994v45.335h-125.994z" fill="#ef5361"/><g opacity=".5"><path d="m117.74 56.3a34.972 34.972 0 0 1 -34.972 34.97h-81.768v10.364h125.994v-45.334z" fill="#c6284a"/></g><path d="m127 102.639h-125.994a1 1 0 0 1 -1-1v-45.339a1 1 0 0 1 1-1h125.994a1 1 0 0 1 1 1v45.335a1 1 0 0 1 -1 1.004zm-124.994-2h123.994v-43.339h-123.994z" fill="#2f3a5a"/><path d="m20.887 98.762h6.11v10.97h-6.11z" fill="#e1e6e9"/><path d="m27 110.732h-6.11a1 1 0 0 1 -1-1v-10.97a1 1 0 0 1 1-1h6.11a1 1 0 0 1 1 1v10.97a1 1 0 0 1 -1 1zm-5.11-2h4.11v-8.97h-4.11z" fill="#2f3a5a"/><path d="m20.887 48.21h6.11v10.97h-6.11z" fill="#e1e6e9"/><path d="m27 60.18h-6.11a1 1 0 0 1 -1-1v-10.971a1 1 0 0 1 1-1h6.11a1 1 0 0 1 1 1v10.971a1 1 0 0 1 -1 1zm-5.11-2h4.11v-8.97h-4.11z" fill="#2f3a5a"/><path d="m23.942 99.686a1 1 0 0 1 -1-1v-39.506a1 1 0 0 1 2 0v39.506a1 1 0 0 1 -1 1z" fill="#2f3a5a"/><path d="m60.948 98.762h6.11v10.97h-6.11z" fill="#e1e6e9"/><path d="m67.058 110.732h-6.11a1 1 0 0 1 -1-1v-10.97a1 1 0 0 1 1-1h6.11a1 1 0 0 1 1 1v10.97a1 1 0 0 1 -1 1zm-5.11-2h4.11v-8.97h-4.11z" fill="#2f3a5a"/><path d="m60.948 48.21h6.11v10.97h-6.11z" fill="#e1e6e9"/><path d="m67.058 60.18h-6.11a1 1 0 0 1 -1-1v-10.971a1 1 0 0 1 1-1h6.11a1 1 0 0 1 1 1v10.971a1 1 0 0 1 -1 1zm-5.11-2h4.11v-8.97h-4.11z" fill="#2f3a5a"/><path d="m64 99.686a1 1 0 0 1 -1-1v-39.506a1 1 0 0 1 2 0v39.506a1 1 0 0 1 -1 1z" fill="#2f3a5a"/><path d="m101.009 98.762h6.11v10.97h-6.11z" fill="#e1e6e9"/><path d="m107.119 110.732h-6.11a1 1 0 0 1 -1-1v-10.97a1 1 0 0 1 1-1h6.11a1 1 0 0 1 1 1v10.97a1 1 0 0 1 -1 1zm-5.11-2h4.11v-8.97h-4.11z" fill="#2f3a5a"/><path d="m101.009 48.21h6.11v10.97h-6.11z" fill="#e1e6e9"/><g fill="#2f3a5a"><path d="m107.119 60.18h-6.11a1 1 0 0 1 -1-1v-10.971a1 1 0 0 1 1-1h6.11a1 1 0 0 1 1 1v10.971a1 1 0 0 1 -1 1zm-5.11-2h4.11v-8.97h-4.11z"/><path d="m104.063 99.686a1 1 0 0 1 -1-1v-39.506a1 1 0 0 1 2 0v39.506a1 1 0 0 1 -1 1z"/><path d="m80.561 33.249a1 1 0 0 1 -.309-1.952l43.166-13.98a1 1 0 0 1 .617 1.9l-43.166 13.983a1 1 0 0 1 -.308.049z"/></g><ellipse cx="78.373" cy="33.005" fill="#e1b378" rx="9.173" ry="5.84" transform="matrix(.951 -.308 .308 .951 -6.356 25.753)"/><path d="m80.172 38.563c-4.814 1.559-9.529.337-10.527-2.731a3.834 3.834 0 0 1 -.125-.511 11.419 11.419 0 0 0 7.808.012c4.552-1.484 7.571-4.9 7.059-7.87a4.581 4.581 0 0 1 2.706 2.719c.999 3.068-2.106 6.818-6.921 8.381z" fill="#bd8d5a"/><path d="m75.992 40.251c-3.563 0-6.452-1.5-7.3-4.111-1.182-3.649 2.145-7.885 7.57-9.642a13.224 13.224 0 0 1 7.258-.388 6 6 0 0 1 4.528 3.761 6 6 0 0 1 -1.464 5.7 13.216 13.216 0 0 1 -6.105 3.94 14.651 14.651 0 0 1 -4.487.74zm-5.4-4.728c.809 2.5 5.051 3.451 9.269 2.087a11.217 11.217 0 0 0 5.185-3.31 4.1 4.1 0 0 0 1.1-3.812 4.1 4.1 0 0 0 -3.128-2.441 11.221 11.221 0 0 0 -6.14.354c-4.214 1.365-7.092 4.627-6.284 7.124z" fill="#2f3a5a"/><path d="m47.439 33.249a1 1 0 0 1 -.309-.049l-43.165-13.981a1 1 0 0 1 .617-1.9l43.166 13.981a1 1 0 0 1 -.309 1.952z" fill="#2f3a5a"/><ellipse cx="49.627" cy="33.005" fill="#e1b378" rx="5.84" ry="9.173" transform="matrix(.308 -.951 .951 .308 2.937 70.049)"/><path d="m47.828 38.563c4.814 1.559 9.529.337 10.527-2.731a3.834 3.834 0 0 0 .125-.511 11.419 11.419 0 0 1 -7.808.012c-4.552-1.484-7.571-4.9-7.059-7.87a4.581 4.581 0 0 0 -2.706 2.719c-.999 3.068 2.106 6.818 6.921 8.381z" fill="#bd8d5a"/><path d="m52.008 40.251a14.64 14.64 0 0 1 -4.488-.738 13.215 13.215 0 0 1 -6.106-3.94 6 6 0 0 1 -1.464-5.7 6 6 0 0 1 4.528-3.761 13.243 13.243 0 0 1 7.257.388c5.427 1.757 8.753 5.993 7.571 9.642-.846 2.608-3.736 4.109-7.298 4.109zm-4.724-12.483a9.206 9.206 0 0 0 -2.3.278 4.1 4.1 0 0 0 -3.128 2.441 4.1 4.1 0 0 0 1.1 3.812 11.216 11.216 0 0 0 5.182 3.312c4.215 1.364 8.459.409 9.268-2.087s-2.07-5.758-6.285-7.124a12.545 12.545 0 0 0 -3.837-.632z" fill="#2f3a5a"/></svg>