<svg id="icon" height="512" viewBox="0 0 128 128" width="512" xmlns="http://www.w3.org/2000/svg"><path d="m17.552 88.908c6.575-6.575 16.9-6.912 23.056-.754s5.821 16.481-.754 23.056-18.307-.365-36.7 14.393c-7.241 5.816 7.823-30.12 14.398-36.695z" fill="#e1e6e9"/><path d="m39.86 111.216c-6.576 6.576-18.314-.374-36.7 14.393-3.041 2.428-2.161-2.441.36-9.417 15.06-9.23 25-4.4 30.839-10.244 5.669-5.669 6.7-14.139 2.908-20.3a14.972 14.972 0 0 1 3.335 2.508c6.167 6.16 5.834 16.484-.742 23.06z" fill="#c1cdd3"/><path d="m1.64 127.239a1.47 1.47 0 0 1 -1.118-.507c-3.089-3.446 11.031-33.471 16.09-38.531a18.313 18.313 0 0 1 12.359-5.444 16.074 16.074 0 0 1 16.8 16.8 18.309 18.309 0 0 1 -5.444 12.358c-2.9 2.9-6.562 3.37-11.2 3.961-6.617.844-14.854 1.9-25.58 10.5a3.17 3.17 0 0 1 -1.907.863zm16.385-37.624c-5.5 5.5-16.461 31.1-16.061 35.455a4.13 4.13 0 0 0 .335-.246c11.167-8.962 20.074-10.1 26.579-10.929 4.421-.564 7.615-.972 10.035-3.392a16.323 16.323 0 0 0 4.86-11.01 14.075 14.075 0 0 0 -14.737-14.737 16.323 16.323 0 0 0 -11.011 4.859z" fill="#2f3a5a"/><path d="m45.246 91.392c12.641-6.641 28.275-18.149 46.1-35.978 25.089-25.087 39.454-47.614 34.423-52.653s-27.569 9.333-52.653 34.42c-17.829 17.829-29.337 33.462-35.978 46.1z" fill="#e1b378"/><path d="m91.588 55.419c-12.459 12.459-23.85 21.836-33.894 28.612a132.036 132.036 0 0 1 -12.218 7.363l-8.11-8.11a129.9 129.9 0 0 1 7.27-12.072c.027-.04.053-.08.093-.133l7.6 7.59c10-6.763 21.356-16.113 33.761-28.519 20.5-20.515 33.841-39.3 35.281-48.22 2.108-.387 3.682-.12 4.629.827 5.031 5.043-9.335 27.572-34.412 52.662z" fill="#bd8d5a"/><path d="m45.246 92.392a1 1 0 0 1 -.707-.293l-8.108-8.107a1 1 0 0 1 -.179-1.172c7.378-14.044 19.881-30.07 36.157-46.346 12.065-12.065 24.143-22.236 34.009-28.638 7.15-4.64 16.435-9.408 20.059-5.783 6.449 6.449-12.435 32.081-34.421 54.067-16.276 16.28-32.301 28.78-46.345 36.157a1 1 0 0 1 -.465.115zm-6.879-9.292 7.063 7.063c13.713-7.328 29.327-19.571 45.211-35.455 25.619-25.62 38.481-47.178 34.421-51.239-2.029-2.03-8.595.231-17.557 6.046-9.752 6.328-21.714 16.4-33.683 28.374-15.884 15.883-28.128 31.499-35.455 45.211z" fill="#2f3a5a"/><path d="m57.814 84.151-12.912 12.899-.294.293-5.375-5.375-7.817-7.817 13.192-13.192.121.12 7.603 7.59z" fill="#ffc943"/><path d="m57.814 84.151-12.912 12.899-.294.293-5.375-5.375.16-.16 2.361-2.361.894-.881 9.67-9.684-.12-.12.134-.093z" fill="#f7b521"/><path d="m45.246 91.392c12.641-6.641 28.275-18.149 46.1-35.978 25.089-25.087 39.454-47.614 34.423-52.653s-27.569 9.333-52.653 34.42c-17.829 17.829-29.337 33.462-35.978 46.1z" fill="none"/><path d="m44.38 98.346a1 1 0 0 1 -.707-.293l-13.2-13.2a1 1 0 0 1 0-1.414l13.2-13.2a1 1 0 0 1 1.414 0l13.2 13.2a1 1 0 0 1 0 1.414l-13.2 13.2a1 1 0 0 1 -.707.293zm-11.78-14.196 11.78 11.782 11.781-11.782-11.781-11.781z" fill="#2f3a5a"/><g fill="#fff" opacity=".5"><path d="m98.379 18.561q-1.1.877-2.405 1.944a350.717 350.717 0 0 0 -29.482 27.09 1 1 0 0 0 1.437 1.392 348.776 348.776 0 0 1 29.31-26.934q1.294-1.058 2.388-1.93a1 1 0 0 0 -1.248-1.562z"/><path d="m104.714 14.937a1 1 0 0 0 -1.4-.211s-.767.566-2.158 1.645a1 1 0 1 0 1.226 1.58c1.361-1.056 2.114-1.611 2.12-1.616a1 1 0 0 0 .212-1.398z"/></g></svg>