<svg id="icon" height="512" viewBox="0 0 128 128" width="512" xmlns="http://www.w3.org/2000/svg"><rect fill="#dbe2eb" height="114.801" rx="8.631" width="101.235" x="13.38" y="12.194"/><path d="m114.62 20.827v97.537a8.647 8.647 0 0 1 -8.636 8.636h-83.971a8.645 8.645 0 0 1 -8.344-6.413 8.637 8.637 0 0 0 3.65.809h83.971a8.63 8.63 0 0 0 8.636-8.625v-97.548a8.562 8.562 0 0 0 -.292-2.223 8.641 8.641 0 0 1 4.986 7.827z" fill="#c1cdd3"/><path d="m105.983 128h-83.972a9.642 9.642 0 0 1 -9.631-9.631v-97.544a9.642 9.642 0 0 1 9.631-9.631h83.973a9.642 9.642 0 0 1 9.631 9.631v97.539a9.642 9.642 0 0 1 -9.632 9.636zm-83.972-114.806a7.639 7.639 0 0 0 -7.631 7.631v97.539a7.639 7.639 0 0 0 7.631 7.636h83.973a7.639 7.639 0 0 0 7.631-7.631v-97.544a7.639 7.639 0 0 0 -7.631-7.631z" fill="#2f3a5a"/><path d="m41.183 1h45.629v11.194h-45.629z" fill="#dbe2eb"/><path d="m86.812 13.194h-45.629a1 1 0 0 1 -1-1v-11.194a1 1 0 0 1 1-1h45.629a1 1 0 0 1 1 1v11.194a1 1 0 0 1 -1 1zm-44.629-2h43.629v-9.194h-43.629z" fill="#2f3a5a"/><path d="m49.471 30.253 10.333 14.383-9.322 61.313 12.891 17.869 14.401-18.3-9.047-60.882 10.078-15.443-14.534-9.148z" fill="#fe7966"/><path d="m63.373 124.818h-.021a1 1 0 0 1 -.79-.415l-12.891-17.869a1 1 0 0 1 -.178-.735l9.261-60.91-10.1-14.052a1 1 0 0 1 .246-1.407l14.8-10.208a1 1 0 0 1 1.1-.023l14.533 9.148a1 1 0 0 1 .306 1.393l-9.868 15.125 8.992 60.506a1 1 0 0 1 -.2.766l-14.4 18.3a1 1 0 0 1 -.79.381zm-11.842-19.118 11.877 16.461 13.313-16.918-8.984-60.46a1 1 0 0 1 .151-.693l9.524-14.59-13.112-8.258-13.422 9.258 9.738 13.555a1 1 0 0 1 .176.734z" fill="#2f3a5a"/><path d="m86.812 1-22.541 19.045 13.413 22.193 15.655-30.044z" fill="#dbe2eb"/><path d="m77.685 43.238a1 1 0 0 1 -.855-.483l-13.414-22.193a1 1 0 0 1 .21-1.281l22.54-19.045a.991.991 0 0 1 .815-.222 1 1 0 0 1 .695.486l6.524 11.19a1 1 0 0 1 .022.966l-15.651 30.044a1 1 0 0 1 -.855.538zm-12.117-22.98 12.052 19.942 14.58-27.979-5.652-9.689z" fill="#2f3a5a"/><path d="m41.197 1 23.074 19.045-13.946 22.193-15.655-30.044z" fill="#dbe2eb"/><path d="m50.324 43.238h-.04a1 1 0 0 1 -.847-.537l-15.654-30.045a1 1 0 0 1 .022-.966l6.528-11.19a1 1 0 0 1 .688-.48.99.99 0 0 1 .813.213l23.074 19.041a1 1 0 0 1 .21 1.3l-13.947 22.196a1 1 0 0 1 -.847.468zm-14.512-31.017 14.593 28.008 12.552-19.972-21.488-17.736z" fill="#2f3a5a"/></svg>