<svg id="icon" height="512" viewBox="0 0 128 128" width="512" xmlns="http://www.w3.org/2000/svg"><path d="m7.859 22.685v69.415a13.357 13.357 0 0 0 13.357 13.357h98.925v-82.772z" fill="#dbe2eb"/><path d="m120.141 106.459h-98.925a14.373 14.373 0 0 1 -14.357-14.359v-69.415a1 1 0 0 1 1-1h112.282a1 1 0 0 1 1 1v82.775a1 1 0 0 1 -1 .999zm-111.282-82.774v68.415a12.371 12.371 0 0 0 12.356 12.357h97.925v-80.772z" fill="#2f3a5a"/><path d="m19.628 1a11.772 11.772 0 0 0 -11.769 11.781v79.324a11.775 11.775 0 1 1 23.549 0v-79.324a11.775 11.775 0 0 0 -11.78-11.781z" fill="#dbe2eb"/><path d="m31.408 12.781v79.324a11.775 11.775 0 1 0 -23.549 0v-7.63a11.763 11.763 0 0 1 19.2-9.128v-71.706a11.745 11.745 0 0 1 4.349 9.14z" fill="#c1cdd3"/><path d="m31.408 93.105a1 1 0 0 1 -1-1 10.774 10.774 0 1 0 -21.549 0 1 1 0 0 1 -2 0v-79.324a12.774 12.774 0 1 1 25.549 0v79.324a1 1 0 0 1 -1 1zm-11.78-13.78a12.782 12.782 0 0 1 10.78 5.922v-72.466a10.774 10.774 0 1 0 -21.549 0v72.463a12.769 12.769 0 0 1 10.769-5.919z" fill="#2f3a5a"/><g fill="#bac2d3"><path d="m108.432 41.219h-64.138a1 1 0 0 1 0-2h64.138a1 1 0 0 1 0 2z"/><path d="m108.432 53.146h-64.138a1 1 0 0 1 0-2h64.138a1 1 0 1 1 0 2z"/><path d="m108.432 65.072h-64.138a1 1 0 0 1 0-2h64.138a1 1 0 0 1 0 2z"/><path d="m108.432 77h-64.138a1 1 0 0 1 0-2h64.138a1 1 0 0 1 0 2z"/><path d="m108.432 88.925h-64.138a1 1 0 0 1 0-2h64.138a1 1 0 0 1 0 2z"/></g><path d="m58.329 88.287h15.399v62.027h-15.399z" fill="#4fa4d1" transform="matrix(0 1 -1 0 185.329 53.272)"/><path d="m97.041 126.997-62.027.003v-15.399l2.088.003v13.308h59.939z" fill="#477ea8"/><path d="m97.041 128h-62.026a1 1 0 0 1 -1-1v-15.4a1 1 0 0 1 1-1h62.026a1 1 0 0 1 1 1v15.4a1 1 0 0 1 -1 1zm-61.026-2h60.026v-13.4h-60.026z" fill="#2f3a5a"/><path d="m63.709 88.287h4.639v62.027h-4.639z" fill="#6bb3d9" transform="matrix(0 1 -1 0 185.329 53.272)"/><path d="m97.041 122.62h-62.026a1 1 0 0 1 -1-1v-4.639a1 1 0 0 1 1-1h62.026a1 1 0 0 1 1 1v4.639a1 1 0 0 1 -1 1zm-61.026-2h60.026v-2.639h-60.026z" fill="#2f3a5a"/><path d="m35.015 127-18.504-7.7 18.504-7.699z" fill="#f0c191"/><path d="m35.014 127-18.503-7.7 3.039-1.265 15.464 6.434z" fill="#d8b18c"/><path d="m35.015 128a1 1 0 0 1 -.384-.077l-18.5-7.7a1 1 0 0 1 0-1.847l18.5-7.7a1 1 0 0 1 1.384.923v15.401a1 1 0 0 1 -1 1zm-15.9-8.7 14.9 6.2v-12.4z" fill="#2f3a5a"/><path d="m23.967 116.198-7.456 3.102 7.456 3.103z" fill="#84879c"/><path d="m23.968 122.401-7.457-3.101 7.457-3.1v.22l-4.729 1.971 4.729 1.971z" fill="#707583"/><path d="m23.967 123.4a1 1 0 0 1 -.384-.077l-7.456-3.1a1 1 0 0 1 0-1.847l7.456-3.1a1 1 0 0 1 1.384.923v6.2a1 1 0 0 1 -1 1zm-4.853-4.1 3.853 1.6v-3.2z" fill="#2f3a5a"/><path d="m91.851 116.792h15.399v5.018h-15.399z" fill="#dbe2eb" transform="matrix(0 1 -1 0 218.851 19.75)"/><path d="m98.472 123.413h2.156v5.018h-2.156z" fill="#bac2d3" transform="matrix(0 -1 1 0 -26.372 225.472)"/><path d="m102.059 128h-5.018a1 1 0 0 1 -1-1v-15.4a1 1 0 0 1 1-1h5.018a1 1 0 0 1 1 1v15.4a1 1 0 0 1 -1 1zm-4.018-2h3.018v-13.4h-3.018z" fill="#2f3a5a"/><path d="m111.489 124.453v-10.305a2.547 2.547 0 0 0 -2.547-2.547h-6.883v15.399h6.883a2.547 2.547 0 0 0 2.547-2.547z" fill="#f26176"/><path d="m108.942 127h-6.881v-15.4h1.787v13.328h6.887a2.425 2.425 0 0 0 .725-.11 2.546 2.546 0 0 1 -2.518 2.182z" fill="#e95a6a"/><path d="m108.942 128h-6.884a1 1 0 0 1 -1-1v-15.4a1 1 0 0 1 1-1h6.884a3.55 3.55 0 0 1 3.547 3.546v10.306a3.55 3.55 0 0 1 -3.547 3.548zm-5.884-2h5.884a1.549 1.549 0 0 0 1.547-1.546v-10.307a1.549 1.549 0 0 0 -1.547-1.546h-5.884z" fill="#2f3a5a"/></svg>