<svg id="icon" height="512" viewBox="0 0 128 128" width="512" xmlns="http://www.w3.org/2000/svg"><path d="m27.438 1h72.975a7.114 7.114 0 0 1 7.114 7.114v79.081a0 0 0 0 1 0 0h-87.2a0 0 0 0 1 0 0v-79.081a7.114 7.114 0 0 1 7.111-7.114z" fill="#d9e2e9"/><path d="m108.527 88.195h-89.2v-80.081a8.123 8.123 0 0 1 8.111-8.114h72.975a8.123 8.123 0 0 1 8.114 8.114zm-87.2-2h85.2v-78.081a6.121 6.121 0 0 0 -6.113-6.114h-72.976a6.121 6.121 0 0 0 -6.114 6.114z" fill="#2f3a5a"/><path d="m32.036 27.535h12.575a4.3 4.3 0 0 1 4.3 4.3v65.437a0 0 0 0 1 0 0h-21.171a0 0 0 0 1 0 0v-65.441a4.3 4.3 0 0 1 4.3-4.3z" fill="#39b1d1" transform="matrix(-1 0 0 -1 76.647 124.807)"/><path d="m42.62 27.535h6.288a0 0 0 0 1 0 0v69.638a.1.1 0 0 1 -.1.1h-10.484a0 0 0 0 1 0 0v-65.442a4.3 4.3 0 0 1 4.296-4.296z" fill="#5fc4f8" transform="matrix(-1 0 0 -1 87.231 124.807)"/><path d="m44.611 98.271h-12.575a5.3 5.3 0 0 1 -5.3-5.3v-65.436a1 1 0 0 1 1-1h21.171a1 1 0 0 1 1 1v65.44a5.3 5.3 0 0 1 -5.296 5.296zm-15.871-69.736v64.44a3.3 3.3 0 0 0 3.3 3.3h12.571a3.3 3.3 0 0 0 3.3-3.3v-64.44z" fill="#2f3a5a"/><path d="m27.74 27.535 10.584-21.294 10.583 21.294h-10.726z" fill="#ffd684"/><path d="m27.74 27.535 10.584-21.294-.143 21.294z" fill="#fdb978"/><path d="m48.907 28.535h-21.167a1 1 0 0 1 -.9-1.445l10.588-21.29a1 1 0 0 1 .9-.555 1 1 0 0 1 .9.555l10.572 21.29a1 1 0 0 1 -.9 1.445zm-19.554-2h17.94l-8.969-18.048z" fill="#2f3a5a"/><path d="m43.617 16.891-5.293-10.65-5.294 10.65z" fill="#707583"/><path d="m43.617 17.891h-10.587a1 1 0 0 1 -.9-1.445l5.298-10.646a1.041 1.041 0 0 1 1.791 0l5.293 10.65a1 1 0 0 1 -.9 1.445zm-8.973-2h7.356l-3.679-7.4z" fill="#2f3a5a"/><path d="m58.548 27.535h12.576a4.3 4.3 0 0 1 4.3 4.3v65.437a0 0 0 0 1 0 0h-21.172a0 0 0 0 1 0 0v-65.441a4.3 4.3 0 0 1 4.296-4.296z" fill="#ffc943" transform="matrix(-1 0 0 -1 129.672 124.807)"/><path d="m69.132 27.535h6.288a0 0 0 0 1 0 0v69.638a.1.1 0 0 1 -.1.1h-10.484a0 0 0 0 1 0 0v-65.442a4.3 4.3 0 0 1 4.296-4.296z" fill="#f7b521" transform="matrix(-1 0 0 -1 140.256 124.807)"/><path d="m71.124 98.271h-12.576a5.3 5.3 0 0 1 -5.3-5.3v-65.436a1 1 0 0 1 1-1h21.172a1 1 0 0 1 1 1v65.44a5.3 5.3 0 0 1 -5.296 5.296zm-15.872-69.736v64.44a3.3 3.3 0 0 0 3.3 3.3h12.572a3.3 3.3 0 0 0 3.3-3.3v-64.44z" fill="#2f3a5a"/><path d="m54.252 27.535 10.584-21.294 10.584 21.294h-10.726z" fill="#ffd684"/><path d="m54.252 27.535 10.584-21.294-.142 21.294z" fill="#fdb978"/><path d="m75.42 28.535h-21.168a1 1 0 0 1 -.9-1.445l10.588-21.29a1.041 1.041 0 0 1 1.791 0l10.584 21.29a1 1 0 0 1 -.9 1.445zm-19.554-2h17.94l-8.97-18.048z" fill="#2f3a5a"/><path d="m70.129 16.891-5.293-10.65-5.293 10.65z" fill="#707583"/><path d="m70.129 17.891h-10.586a1 1 0 0 1 -.9-1.445l5.297-10.646a1.041 1.041 0 0 1 1.791 0l5.293 10.65a1 1 0 0 1 -.9 1.445zm-8.973-2h7.359l-3.68-7.4z" fill="#2f3a5a"/><path d="m85.061 27.535h12.575a4.3 4.3 0 0 1 4.3 4.3v65.437a0 0 0 0 1 0 0h-21.171a0 0 0 0 1 0 0v-65.441a4.3 4.3 0 0 1 4.296-4.296z" fill="#ef5361" transform="matrix(-1 0 0 -1 182.698 124.807)"/><path d="m95.645 27.535h6.288a0 0 0 0 1 0 0v69.638a.1.1 0 0 1 -.1.1h-10.484a0 0 0 0 1 0 0v-65.442a4.3 4.3 0 0 1 4.296-4.296z" fill="#da2a47" transform="matrix(-1 0 0 -1 193.281 124.807)"/><path d="m97.636 98.271h-12.575a5.3 5.3 0 0 1 -5.3-5.3v-65.436a1 1 0 0 1 1-1h21.167a1 1 0 0 1 1 1v65.44a5.3 5.3 0 0 1 -5.292 5.296zm-15.871-69.736v64.44a3.3 3.3 0 0 0 3.3 3.3h12.571a3.3 3.3 0 0 0 3.3-3.3v-64.44z" fill="#2f3a5a"/><path d="m80.765 27.535 10.584-21.294 10.584 21.294h-10.726z" fill="#ffd684"/><path d="m80.765 27.535 10.584-21.294-.142 21.294z" fill="#fdb978"/><path d="m101.933 28.535h-21.168a1 1 0 0 1 -.9-1.445l10.588-21.29a1.041 1.041 0 0 1 1.791 0l10.584 21.29a1 1 0 0 1 -.9 1.445zm-19.554-2h17.94l-8.97-18.048z" fill="#2f3a5a"/><path d="m96.642 16.891-5.293-10.65-5.294 10.65z" fill="#707583"/><path d="m96.642 17.891h-10.586a1 1 0 0 1 -.9-1.445l5.297-10.646a1.041 1.041 0 0 1 1.791 0l5.293 10.65a1 1 0 0 1 -.9 1.445zm-8.973-2h7.359l-3.68-7.4z" fill="#2f3a5a"/><path d="m20.325 40.8v79.05a7.149 7.149 0 0 0 7.148 7.15h72.905a7.149 7.149 0 0 0 7.149-7.149v-79.051z" fill="#6bb3d9"/><path d="m107.523 40.8v79.053a7.143 7.143 0 0 1 -7.148 7.147h-72.9a7.142 7.142 0 0 1 -6.846-5.1c.174.012.36.023.546.023h72.9a7.143 7.143 0 0 0 7.149-7.149v-73.974z" fill="#4fa4d1"/><path d="m100.378 128h-72.905a8.158 8.158 0 0 1 -8.148-8.148v-80.052h89.2v80.046a8.158 8.158 0 0 1 -8.147 8.154zm-79.053-86.2v78.046a6.156 6.156 0 0 0 6.148 6.154h72.905a6.156 6.156 0 0 0 6.149-6.148v-78.052z" fill="#2f3a5a"/><path d="m20.325 40.8v13.36a8.243 8.243 0 0 0 8.242 8.24h70.717a8.243 8.243 0 0 0 8.243-8.243v-13.357z" fill="#d9e2e9"/><path d="m107.523 40.8v13.366a8.242 8.242 0 0 1 -8.241 8.241h-70.718a8.226 8.226 0 0 1 -7.683-5.3 7.77 7.77 0 0 0 2.092.279h70.718a8.235 8.235 0 0 0 8.241-8.241v-8.345z" fill="#c1cdd3"/><path d="m99.433 63.4h-70.718a9.253 9.253 0 0 1 -9.243-9.243v-14.357h89.2v14.361a9.253 9.253 0 0 1 -9.239 9.239zm-77.96-21.6v12.361a7.251 7.251 0 0 0 7.242 7.239h70.718a7.251 7.251 0 0 0 7.243-7.243v-12.357z" fill="#2f3a5a"/><g fill="#477ea8"><path d="m86.076 79.826h-46.75a1 1 0 0 1 0-2h46.75a1 1 0 0 1 0 2z"/><path d="m86.076 89.14h-46.75a1 1 0 0 1 0-2h46.75a1 1 0 0 1 0 2z"/><path d="m86.076 98.453h-46.75a1 1 0 0 1 0-2h46.75a1 1 0 0 1 0 2z"/></g></svg>