<svg id="icon" height="512" viewBox="0 0 128 128" width="512" xmlns="http://www.w3.org/2000/svg"><path d="m105.532 40.84 3.014-1.784a7.259 7.259 0 0 0 3.562-6.247v-24.55a7.259 7.259 0 0 0 -7.258-7.259h-81.35a7.259 7.259 0 0 0 -7.259 7.259v24.819a7.259 7.259 0 0 0 3.214 6.027l2.512 1.686a7.259 7.259 0 0 1 3.214 6.027v34.363a7.259 7.259 0 0 1 -3.214 6.027l-2.512 1.686a7.259 7.259 0 0 0 -3.214 6.027v24.819a7.259 7.259 0 0 0 7.259 7.26h81.35a7.259 7.259 0 0 0 7.259-7.259v-24.55a7.259 7.259 0 0 0 -3.562-6.247l-3.014-1.784a7.259 7.259 0 0 1 -3.562-6.247v-33.826a7.259 7.259 0 0 1 3.561-6.247z" fill="#ef5361"/><path d="m105.187 40.836 3.013-1.776a7.267 7.267 0 0 0 3.564-6.251v-24.55a7.261 7.261 0 0 0 -7.264-7.259h-9.464a7.261 7.261 0 0 1 7.259 7.259v24.55a7.267 7.267 0 0 1 -3.564 6.251l-3.024 1.776a7.255 7.255 0 0 0 -3.552 6.251v33.825a7.255 7.255 0 0 0 3.552 6.251l3.024 1.776a7.266 7.266 0 0 1 3.564 6.251v24.55a7.261 7.261 0 0 1 -7.259 7.26h9.464a7.261 7.261 0 0 0 7.259-7.259v-24.55a7.266 7.266 0 0 0 -3.559-6.251l-3.012-1.776a7.267 7.267 0 0 1 -3.564-6.251v-33.825a7.267 7.267 0 0 1 3.563-6.252z" fill="#da2a47"/><path d="m104.5 128h-81.35a8.269 8.269 0 0 1 -8.259-8.259v-24.819a8.247 8.247 0 0 1 3.657-6.858l2.512-1.686a6.248 6.248 0 0 0 2.771-5.2v-34.36a6.248 6.248 0 0 0 -2.771-5.2l-2.512-1.686a8.247 8.247 0 0 1 -3.657-6.858v-24.815a8.269 8.269 0 0 1 8.259-8.259h81.35a8.269 8.269 0 0 1 8.259 8.259v24.55a8.3 8.3 0 0 1 -4.053 7.108l-3.011 1.783a6.283 6.283 0 0 0 -3.072 5.386v33.827a6.283 6.283 0 0 0 3.072 5.386l3.014 1.784a8.3 8.3 0 0 1 4.053 7.108v24.55a8.269 8.269 0 0 1 -8.262 8.259zm-81.35-126a6.267 6.267 0 0 0 -6.259 6.259v24.819a6.248 6.248 0 0 0 2.771 5.2l2.512 1.686a8.246 8.246 0 0 1 3.657 6.858v34.36a8.246 8.246 0 0 1 -3.657 6.858l-2.512 1.686a6.248 6.248 0 0 0 -2.771 5.2v24.819a6.267 6.267 0 0 0 6.259 6.255h81.35a6.267 6.267 0 0 0 6.259-6.259v-24.55a6.286 6.286 0 0 0 -3.069-5.391l-3.014-1.784a8.293 8.293 0 0 1 -4.053-7.108v-33.821a8.293 8.293 0 0 1 4.053-7.108l3.014-1.779a6.286 6.286 0 0 0 3.072-5.387v-24.554a6.267 6.267 0 0 0 -6.262-6.259z" fill="#2f3a5a"/><path d="m46.068 21.734h35.518v105.266h-35.518z" fill="#d9e2e9"/><path d="m81.585 128h-35.517a1 1 0 0 1 -1-1v-105.266a1 1 0 0 1 1-1h35.517a1 1 0 0 1 1 1v105.266a1 1 0 0 1 -1 1zm-34.518-2h33.518v-103.266h-33.517z" fill="#2f3a5a"/><circle cx="63.827" cy="74.367" fill="#d9e2e9" r="7.505" transform="matrix(.707 -.707 .707 .707 -33.891 66.914)"/><path d="m63.827 82.868a8.5 8.5 0 1 1 6.014-2.487 8.477 8.477 0 0 1 -6.014 2.487zm0-15a6.5 6.5 0 1 0 4.6 1.9 6.485 6.485 0 0 0 -4.6-1.902z" fill="#2f3a5a"/><path d="m69.133 69.06-10.613 10.614" fill="#d9e2e9"/><path d="m58.52 80.674a1 1 0 0 1 -.707-1.707l10.613-10.613a1 1 0 0 1 1.414 1.414l-10.613 10.613a1 1 0 0 1 -.707.293z" fill="#2f3a5a"/></svg>