<svg id="icon" height="512" viewBox="0 0 128 128" width="512" xmlns="http://www.w3.org/2000/svg"><path d="m105.751 8.853-2.91-7.853-61.588 99.8c-.44-3.625-2.037-6.644-4.778-8.353-6.184-3.855-15.812.443-21.521 9.6s-5.323 19.682.861 23.537 15.823-.436 21.525-9.58c.414-.664 21.2-31.892 21.2-31.892l13.474-1.512zm-87.411 112.704c-3.867-2.411-3.558-10.184.679-16.979s11.081-10.494 14.947-8.078 3.547 10.177-.69 16.972-11.076 10.49-14.936 8.085z" fill="#d9e2e9"/><g opacity=".5"><path d="m104.471 5.388-36.722 77.942 4.267-.73 33.74-73.75z" fill="#9297ab"/></g><path d="m20.924 127.981a10.524 10.524 0 0 1 -5.639-1.551c-6.636-4.138-7.166-15.315-1.18-24.915a25.9 25.9 0 0 1 11.024-10.062c4.377-1.953 8.594-1.9 11.875.145a11.22 11.22 0 0 1 4.721 6.532l60.265-97.655a1 1 0 0 1 1.789.178l2.91 7.853a1 1 0 0 1 -.028.764l-33.737 73.75a1 1 0 0 1 -.8.578l-13.006 1.453c-7.242 10.878-20.589 30.936-20.929 31.479-4.465 7.16-11.315 11.45-17.265 11.451zm10.4-35.952a13.284 13.284 0 0 0 -5.379 1.251 23.881 23.881 0 0 0 -10.145 9.294c-5.4 8.664-5.16 18.6.541 22.159s14.744-.6 20.147-9.261c.417-.669 20.371-30.642 21.22-31.917a1 1 0 0 1 .721-.439l12.909-1.443 33.332-72.86-2.054-5.543-60.516 98.055a1 1 0 0 1 -1.844-.4c-.418-3.443-1.95-6.151-4.314-7.625a8.619 8.619 0 0 0 -4.619-1.271zm-10.224 31.271a6.124 6.124 0 0 1 -3.287-.894c-4.4-2.744-4.24-10.979.36-18.357a22.338 22.338 0 0 1 7.982-7.849c3.189-1.723 6.149-1.922 8.34-.558s3.307 4.106 3.16 7.729a22.356 22.356 0 0 1 -3.531 10.629c-3.582 5.741-8.812 9.3-13.024 9.3zm-2.229-2.591c3.343 2.083 9.679-1.547 13.559-7.77a20.62 20.62 0 0 0 3.23-9.644c.114-2.831-.7-5-2.22-5.95s-3.837-.728-6.331.62a20.607 20.607 0 0 0 -7.239 7.144c-3.88 6.223-4.347 13.514-1 15.6z" fill="#2f3a5a"/><path d="m48.814 85.9-7.561 14.9c-.44-3.625-2.037-6.644-4.778-8.353-6.184-3.855-15.812.443-21.521 9.6s-5.323 19.682.861 23.537 15.823-.436 21.525-9.58c.346-.555 13.778-18.51 18.56-25.695zm-15.538 27.568c-4.237 6.8-11.08 10.494-14.936 8.09s-3.558-10.184.679-16.979 11.081-10.495 14.947-8.079 3.546 10.172-.69 16.968z" fill="#fac77c"/><path d="m55.986 82.6 13.471 1.506s20.789 31.231 21.203 31.894c5.7 9.144 15.33 13.442 21.525 9.58s6.562-14.393.861-23.537-15.337-13.453-21.521-9.6c-2.741 1.709-4.338 4.728-4.778 8.353l-61.588-99.796-2.91 7.853zm38.739 30.864c-4.237-6.8-4.547-14.568-.69-16.972s10.71 1.288 14.947 8.083 4.546 14.567.679 16.979-10.7-1.291-14.937-8.086z" fill="#d9e2e9"/><g opacity=".5"><path d="m23.529 5.388 36.985 78.501-3.841.217-34.429-75.256z" fill="#9297ab"/></g><path d="m107.076 127.981c-5.95 0-12.8-4.29-17.264-11.45-.34-.543-13.64-20.53-20.891-31.421h-12.248a1 1 0 0 1 -.909-.584l-34.425-75.257a1 1 0 0 1 -.028-.764l2.91-7.853a1 1 0 0 1 1.789-.177l60.264 97.654a11.22 11.22 0 0 1 4.726-6.529c3.281-2.045 7.5-2.1 11.875-.145a25.9 25.9 0 0 1 11.023 10.062c5.986 9.6 5.457 20.777-1.18 24.915a10.524 10.524 0 0 1 -5.642 1.549zm-49.761-44.875h12.142a1 1 0 0 1 .833.446c.849 1.275 20.8 31.248 21.22 31.917 5.4 8.665 14.44 12.821 20.147 9.261s5.943-13.5.541-22.159a23.881 23.881 0 0 0 -10.141-9.294c-3.751-1.673-7.3-1.668-10 .015-2.364 1.474-3.9 4.182-4.314 7.625a1 1 0 0 1 -1.844.4l-60.515-98.047-2.054 5.543zm49.585 40.194c-4.215 0-9.445-3.559-13.027-9.3a22.356 22.356 0 0 1 -3.531-10.622c-.146-3.622.976-6.367 3.161-7.729s5.151-1.165 8.339.558a22.338 22.338 0 0 1 7.985 7.844c4.6 7.378 4.761 15.613.36 18.357a6.125 6.125 0 0 1 -3.287.892zm-10.113-26.538a4.145 4.145 0 0 0 -2.223.583c-1.525.951-2.335 3.12-2.221 5.95a20.62 20.62 0 0 0 3.23 9.644c3.879 6.223 10.213 9.854 13.559 7.77s2.881-9.378-1-15.6a20.607 20.607 0 0 0 -7.239-7.144 8.868 8.868 0 0 0 -4.106-1.203z" fill="#2f3a5a"/><circle cx="60.976" cy="74.045" fill="#c8cbd2" r="2.291"/><path d="m71.94 90.115c4.783 7.185 18.374 25.332 18.72 25.885 5.7 9.144 15.33 13.442 21.525 9.58s6.562-14.393.861-23.537-15.337-13.453-21.521-9.6c-2.741 1.709-4.338 4.728-4.778 8.353l-8.031-14.896zm22.094 6.385c3.867-2.411 10.71 1.288 14.947 8.083s4.547 14.567.679 16.979-10.7-1.294-14.936-8.09-4.546-14.572-.69-16.972z" fill="#fac77c"/><g fill="#2f3a5a"><path d="m20.926 127.981a10.521 10.521 0 0 1 -5.64-1.551c-6.636-4.138-7.166-15.315-1.18-24.915a25.9 25.9 0 0 1 11.023-10.062c4.377-1.952 8.594-1.9 11.875.145a11.135 11.135 0 0 1 4.631 6.237l5.992-11.809a2 2 0 0 1 2.882-.761l5.691 3.773a1.992 1.992 0 0 1 .548 2.788c-3.9 5.7-12.211 16.46-16.2 21.63-1.207 1.564-2.25 2.915-2.37 3.09-4.456 7.148-11.304 11.434-17.252 11.435zm10.4-35.952a13.29 13.29 0 0 0 -5.379 1.251 23.881 23.881 0 0 0 -10.147 9.294c-5.4 8.664-5.16 18.6.541 22.159s14.745-.6 20.147-9.261c.1-.163.56-.759 2.474-3.238 3.981-5.153 12.258-15.874 16.138-21.534l-5.689-3.771-7.261 14.319a1 1 0 0 1 -1.884-.332c-.418-3.442-1.95-6.15-4.314-7.625a8.621 8.621 0 0 0 -4.629-1.262zm-10.226 31.271a6.124 6.124 0 0 1 -3.287-.894c-2.188-1.365-3.314-4.111-3.169-7.734a22.339 22.339 0 0 1 3.529-10.623 22.339 22.339 0 0 1 7.982-7.849c3.19-1.724 6.151-1.923 8.34-.558s3.306 4.106 3.16 7.729a22.354 22.354 0 0 1 -3.531 10.629c-3.582 5.741-8.812 9.3-13.024 9.3zm10.114-26.538a8.861 8.861 0 0 0 -4.107 1.2 21.882 21.882 0 0 0 -10.467 16.788c-.113 2.832.7 5 2.229 5.957 3.34 2.083 9.678-1.547 13.558-7.77a20.62 20.62 0 0 0 3.23-9.644c.114-2.831-.695-5-2.22-5.95a4.145 4.145 0 0 0 -2.223-.581z"/><path d="m107.076 127.981c-5.95 0-12.8-4.29-17.264-11.45-.11-.167-1.165-1.595-2.5-3.4-4.131-5.591-11.82-16-15.636-21.617a1.992 1.992 0 0 1 .56-2.787l5.29-3.469a2 2 0 0 1 2.876.77l5.965 11.8a11.132 11.132 0 0 1 4.633-6.228c3.282-2.045 7.5-2.1 11.875-.145a25.9 25.9 0 0 1 11.023 10.062c5.986 9.6 5.457 20.777-1.18 24.915a10.529 10.529 0 0 1 -5.642 1.549zm-28.46-41.053-5.284 3.472c3.792 5.577 11.465 15.963 15.587 21.542 1.977 2.676 2.49 3.373 2.589 3.532 5.4 8.664 14.441 12.817 20.147 9.26s5.943-13.5.541-22.159a23.881 23.881 0 0 0 -10.141-9.294c-3.75-1.673-7.3-1.667-10 .016-2.364 1.474-3.9 4.182-4.314 7.625a1 1 0 0 1 -1.885.331zm28.284 36.372c-4.215 0-9.445-3.559-13.027-9.3a22.354 22.354 0 0 1 -3.531-10.622c-.146-3.622.976-6.367 3.16-7.729s5.149-1.167 8.34.558a23.863 23.863 0 0 1 11.514 18.467c.145 3.623-.981 6.369-3.169 7.734a6.125 6.125 0 0 1 -3.287.892zm-10.114-26.538a4.145 4.145 0 0 0 -2.223.583c-1.525.951-2.334 3.12-2.22 5.95a20.62 20.62 0 0 0 3.23 9.644c3.879 6.223 10.216 9.854 13.558 7.77 1.53-.954 2.343-3.125 2.229-5.957a21.882 21.882 0 0 0 -10.467-16.787 8.86 8.86 0 0 0 -4.107-1.203z"/></g></svg>