<svg id="icon" height="512" viewBox="0 0 128 128" width="512" xmlns="http://www.w3.org/2000/svg"><path d="m64 1a4.155 4.155 0 0 0 -4.155 4.155v119.6h8.31v-119.6a4.155 4.155 0 0 0 -4.155-4.155z" fill="#9297ab"/><path d="m68.155 125.752h-8.31a1 1 0 0 1 -1-1v-119.597a5.155 5.155 0 0 1 10.31 0v119.6a1 1 0 0 1 -1 .997zm-7.31-2h6.31v-118.597a3.155 3.155 0 0 0 -6.31 0z" fill="#2f3a5a"/><path d="m10.145 16.594h107.71v75.098h-107.71z" fill="#dbe2eb"/><path d="m117.855 92.692h-107.71a1 1 0 0 1 -1-1v-75.1a1 1 0 0 1 1-1h107.71a1 1 0 0 1 1 1v75.1a1 1 0 0 1 -1 1zm-106.71-2h105.71v-73.1h-105.71z" fill="#2f3a5a"/><path d="m118.814 10.2h-109.628a4.315 4.315 0 1 0 0 8.63h109.628a4.315 4.315 0 0 0 0-8.63z" fill="#9297ab"/><path d="m118.814 19.832h-109.628a5.315 5.315 0 0 1 0-10.63h109.628a5.315 5.315 0 0 1 0 10.63zm-109.628-8.632a3.315 3.315 0 0 0 0 6.63h109.628a3.315 3.315 0 0 0 0-6.63z" fill="#2f3a5a"/><path d="m40.215 120.329h47.57v6.671h-47.57z" fill="#9297ab"/><path d="m87.785 128h-47.57a1 1 0 0 1 -1-1v-6.671a1 1 0 0 1 1-1h47.57a1 1 0 0 1 1 1v6.671a1 1 0 0 1 -1 1zm-46.569-2h45.569v-4.671h-45.57z" fill="#2f3a5a"/><path d="m42.026 31.038h8.123v43.873h-8.123z" fill="#6bb3d9"/><path d="m50.148 75.912h-8.122a1 1 0 0 1 -1-1v-43.873a1 1 0 0 1 1-1h8.123a1 1 0 0 1 1 1v43.873a1 1 0 0 1 -1.001 1zm-7.123-2h6.123v-41.873h-6.122z" fill="#2f3a5a"/><path d="m57.487 41.699h8.123v33.212h-8.123z" fill="#6bb3d9"/><path d="m65.609 75.912h-8.122a1 1 0 0 1 -1-1v-33.212a1 1 0 0 1 1-1h8.123a1 1 0 0 1 1 1v33.212a1 1 0 0 1 -1.001 1zm-7.123-2h6.123v-31.212h-6.122z" fill="#2f3a5a"/><path d="m72.948 51.364h8.123v23.548h-8.123z" fill="#6bb3d9"/><g fill="#2f3a5a"><path d="m81.07 75.912h-8.122a1 1 0 0 1 -1-1v-23.548a1 1 0 0 1 1-1h8.122a1 1 0 0 1 1 1v23.548a1 1 0 0 1 -1 1zm-7.123-2h6.123v-21.548h-6.122z"/><path d="m87.576 80.388h-51.858a1 1 0 0 1 -1-1v-51.188a1 1 0 0 1 2 0v50.188h50.858a1 1 0 0 1 0 2z"/><path d="m30.38 33.322h-4.112a1 1 0 0 1 0-2h4.112a1 1 0 1 1 0 2z"/><path d="m30.38 41.933h-4.112a1 1 0 0 1 0-2h4.112a1 1 0 0 1 0 2z"/><path d="m30.38 50.543h-4.112a1 1 0 0 1 0-2h4.112a1 1 0 0 1 0 2z"/><path d="m30.38 59.154h-4.112a1 1 0 1 1 0-2h4.112a1 1 0 1 1 0 2z"/><path d="m30.38 67.765h-4.112a1 1 0 0 1 0-2h4.112a1 1 0 0 1 0 2z"/><path d="m30.38 76.375h-4.112a1 1 0 0 1 0-2h4.112a1 1 0 0 1 0 2z"/></g></svg>