<svg id="icon" height="512" viewBox="0 0 128 128" width="512" xmlns="http://www.w3.org/2000/svg"><path d="m38.811 95.83-16.734 25.03a3.946 3.946 0 0 0 6.376 4.641l18.674-23.619z" fill="#fac77c"/><path d="m25.358 128a4.952 4.952 0 0 1 -4.113-7.7l17.313-25.9 10 7.277-19.321 24.444a4.932 4.932 0 0 1 -3.879 1.879zm13.705-30.749-16.156 24.165a2.947 2.947 0 0 0 4.762 3.464l18.028-22.8z" fill="#2f3a5a"/><path d="m105.923 120.86-16.734-25.03-8.316 6.052 18.674 23.618a3.946 3.946 0 0 0 6.376-4.641z" fill="#fac77c"/><path d="m102.642 128a4.933 4.933 0 0 1 -3.879-1.883l-19.32-24.431 10-7.277 17.312 25.9a4.952 4.952 0 0 1 -4.113 7.7zm-20.342-25.921 18.028 22.8a2.947 2.947 0 0 0 4.762-3.465l-16.153-24.163z" fill="#2f3a5a"/><path d="m124.969 2.527a2.256 2.256 0 0 0 -3.19 0l-23.72 23.72a2.256 2.256 0 0 0 3.19 3.19l23.72-23.72a2.256 2.256 0 0 0 0-3.19z" fill="#dbe2eb"/><path d="m99.654 31.1a3.256 3.256 0 0 1 -2.3-5.558l23.718-23.722a3.333 3.333 0 0 1 4.6 0 3.254 3.254 0 0 1 0 4.6l-23.721 23.72a3.236 3.236 0 0 1 -2.297.96zm23.721-28.234a1.248 1.248 0 0 0 -.889.368l-23.72 23.72a1.256 1.256 0 1 0 1.776 1.776l23.721-23.72a1.258 1.258 0 0 0 0-1.776 1.248 1.248 0 0 0 -.888-.368z" fill="#2f3a5a"/><path d="m120.742 33.138a18.87 18.87 0 0 0 -26.686-26.686z" fill="#fac77c"/><path d="m120.745 33.136-4.117-4.117a18.852 18.852 0 0 0 -10.156-28 18.874 18.874 0 0 1 14.273 32.118z" fill="#e5ae5c"/><path d="m120.742 34.138a1 1 0 0 1 -.707-.293l-26.686-26.686a1 1 0 0 1 0-1.418 19.87 19.87 0 0 1 28.1 28.1 1 1 0 0 1 -.708.3zm-25.248-27.662 25.224 25.224a17.87 17.87 0 0 0 -25.224-25.224z" fill="#2f3a5a"/><path d="m3.031 2.527a2.256 2.256 0 0 1 3.19 0l23.72 23.72a2.256 2.256 0 0 1 -3.19 3.19l-23.72-23.72a2.256 2.256 0 0 1 0-3.19z" fill="#dbe2eb"/><path d="m28.346 31.1a3.236 3.236 0 0 1 -2.3-.954l-23.723-23.722a3.254 3.254 0 0 1 0-4.6 3.333 3.333 0 0 1 4.6 0l23.725 23.716a3.256 3.256 0 0 1 -2.3 5.558zm-23.721-28.234a1.248 1.248 0 0 0 -.888.368 1.258 1.258 0 0 0 0 1.776l23.721 23.72a1.256 1.256 0 0 0 1.776-1.776l-23.72-23.72a1.248 1.248 0 0 0 -.889-.368z" fill="#2f3a5a"/><path d="m7.258 33.138a18.87 18.87 0 0 1 26.686-26.686z" fill="#fac77c"/><path d="m7.255 33.136 4.117-4.117a18.852 18.852 0 0 1 10.156-28 18.874 18.874 0 0 0 -14.273 32.117z" fill="#e5ae5c"/><path d="m7.258 34.138a1 1 0 0 1 -.708-.3 19.87 19.87 0 0 1 28.1-28.1 1 1 0 0 1 0 1.418l-26.685 26.689a1 1 0 0 1 -.707.293zm13.42-32.118a17.851 17.851 0 0 0 -13.396 29.68l25.224-25.224a17.835 17.835 0 0 0 -11.828-4.456z" fill="#2f3a5a"/><circle cx="64" cy="59.115" fill="#fac77c" r="52.3"/><path d="m64 111.915a52.8 52.8 0 1 1 52.8-52.8 52.859 52.859 0 0 1 -52.8 52.8zm0-104.6a51.8 51.8 0 1 0 51.8 51.8 51.858 51.858 0 0 0 -51.8-51.799z" fill="#fac77c"/><path d="m116.3 59.115a52.3 52.3 0 0 1 -99.079 23.4 52.3 52.3 0 0 0 91.7-50.191 51.974 51.974 0 0 1 7.379 26.791z" fill="#e5ae5c"/><path d="m64 112.415a53.3 53.3 0 1 1 53.3-53.3 53.36 53.36 0 0 1 -53.3 53.3zm0-104.6a51.3 51.3 0 1 0 51.3 51.3 51.358 51.358 0 0 0 -51.3-51.299z" fill="#2f3a5a"/><circle cx="64" cy="59.115" fill="#f0f5f9" r="44.34"/><path d="m108.338 59.115a44.344 44.344 0 0 1 -83.986 19.866 44.342 44.342 0 0 0 72.431-49.718 44.165 44.165 0 0 1 11.555 29.852z" fill="#d9e2e9"/><g fill="#2f3a5a"><path d="m64 104.455a45.34 45.34 0 1 1 45.34-45.339 45.391 45.391 0 0 1 -45.34 45.339zm0-88.679a43.34 43.34 0 1 0 43.34 43.34 43.389 43.389 0 0 0 -43.34-43.34z"/><path d="m64 20.362a1 1 0 0 1 -1-1v-4.586a1 1 0 0 1 2 0v4.586a1 1 0 0 1 -1 1z"/><path d="m64 104.455a1 1 0 0 1 -1-1v-4.586a1 1 0 0 1 2 0v4.586a1 1 0 0 1 -1 1z"/><path d="m108.34 60.115h-4.586a1 1 0 0 1 0-2h4.586a1 1 0 0 1 0 2z"/><path d="m24.247 60.115h-4.587a1 1 0 0 1 0-2h4.587a1 1 0 1 1 0 2z"/></g><path d="m95.353 27.763-3.243 3.243" fill="#e1e6e9"/><path d="m92.11 32.005a1 1 0 0 1 -.71-1.705l3.243-3.243a1 1 0 0 1 1.414 1.414l-3.243 3.243a1 1 0 0 1 -.704.291z" fill="#2f3a5a"/><path d="m35.89 87.225-3.243 3.243" fill="#e1e6e9"/><path d="m32.647 91.468a1 1 0 0 1 -.707-1.707l3.243-3.243a1 1 0 0 1 1.417 1.415l-3.243 3.243a1 1 0 0 1 -.71.292z" fill="#2f3a5a"/><path d="m95.353 90.468-3.243-3.243" fill="#e1e6e9"/><path d="m95.354 91.468a1 1 0 0 1 -.707-.293l-3.247-3.242a1 1 0 0 1 1.414-1.414l3.243 3.243a1 1 0 0 1 -.707 1.707z" fill="#2f3a5a"/><path d="m35.89 31.006-3.243-3.243" fill="#e1e6e9"/><path d="m35.891 32.005a1 1 0 0 1 -.707-.293l-3.244-3.242a1 1 0 0 1 1.414-1.414l3.246 3.244a1 1 0 0 1 -.707 1.707z" fill="#2f3a5a"/><path d="m47.032 18.151 1.755 4.237" fill="#e1e6e9"/><path d="m48.787 23.389a1 1 0 0 1 -.924-.618l-1.755-4.237a1 1 0 1 1 1.848-.766l1.755 4.237a1 1 0 0 1 -.924 1.383z" fill="#2f3a5a"/><path d="m79.213 95.843 1.755 4.237" fill="#e1e6e9"/><path d="m80.968 101.081a1 1 0 0 1 -.924-.618l-1.755-4.237a1 1 0 1 1 1.848-.766l1.755 4.24a1 1 0 0 1 -.924 1.383z" fill="#2f3a5a"/><path d="m104.965 42.147-4.237 1.755" fill="#e1e6e9"/><path d="m100.728 44.9a1 1 0 0 1 -.383-1.924l4.237-1.755a1 1 0 0 1 .766 1.848l-4.237 1.755a1 1 0 0 1 -.383.076z" fill="#2f3a5a"/><path d="m27.273 74.328-4.237 1.756" fill="#e1e6e9"/><path d="m23.035 77.084a1 1 0 0 1 -.383-1.924l4.238-1.76a1 1 0 0 1 .766 1.848l-4.237 1.755a1 1 0 0 1 -.384.081z" fill="#2f3a5a"/><path d="m80.968 18.151-1.755 4.237" fill="#e1e6e9"/><path d="m79.213 23.389a1 1 0 0 1 -.924-1.383l1.755-4.237a1 1 0 1 1 1.848.766l-1.755 4.237a1 1 0 0 1 -.924.617z" fill="#2f3a5a"/><path d="m48.787 95.843-1.755 4.237" fill="#e1e6e9"/><path d="m47.032 101.081a1 1 0 0 1 -.924-1.383l1.755-4.237a1 1 0 1 1 1.848.766l-1.755 4.237a1 1 0 0 1 -.924.617z" fill="#2f3a5a"/><path d="m104.965 76.084-4.237-1.756" fill="#e1e6e9"/><path d="m104.965 77.084a1 1 0 0 1 -.383-.077l-4.237-1.755a1 1 0 1 1 .766-1.848l4.237 1.755a1 1 0 0 1 -.383 1.924z" fill="#2f3a5a"/><path d="m27.273 43.902-4.237-1.755" fill="#e1e6e9"/><path d="m27.272 44.9a1 1 0 0 1 -.383-.077l-4.237-1.755a1 1 0 0 1 .766-1.848l4.237 1.755a1 1 0 0 1 -.383 1.924z" fill="#2f3a5a"/><path d="m64 25.775a1.864 1.864 0 0 0 -1.864 1.864v28.178a1.864 1.864 0 1 0 3.729 0v-28.178a1.864 1.864 0 0 0 -1.865-1.864z" fill="#c1cdd3"/><path d="m64 58.681a2.868 2.868 0 0 1 -2.864-2.864v-28.178a2.864 2.864 0 1 1 5.729 0v28.178a2.868 2.868 0 0 1 -2.865 2.864zm0-31.906a.865.865 0 0 0 -.864.864v28.178a.864.864 0 0 0 1.729 0v-28.178a.865.865 0 0 0 -.865-.864z" fill="#2f3a5a"/><path d="m87.677 57.136h-23.424a1.98 1.98 0 1 0 0 3.96h23.424a1.98 1.98 0 1 0 0-3.96z" fill="#c1cdd3"/><path d="m87.677 62.1h-23.424a2.98 2.98 0 0 1 0-5.959h23.424a2.98 2.98 0 0 1 0 5.959zm-23.424-3.964a.98.98 0 0 0 0 1.959h23.424a.98.98 0 0 0 0-1.959z" fill="#2f3a5a"/><circle cx="64" cy="59.115" fill="#d9e2e9" r="6.855"/><path d="m64 66.97a7.855 7.855 0 1 1 7.854-7.855 7.864 7.864 0 0 1 -7.854 7.855zm0-13.709a5.855 5.855 0 1 0 5.854 5.854 5.861 5.861 0 0 0 -5.854-5.854z" fill="#2f3a5a"/><circle cx="64" cy="59.115" fill="#d9e2e9" r="2.93"/><path d="m64 63.045a3.93 3.93 0 1 1 3.931-3.93 3.935 3.935 0 0 1 -3.931 3.93zm0-5.86a1.93 1.93 0 1 0 1.931 1.93 1.933 1.933 0 0 0 -1.931-1.93z" fill="#2f3a5a"/></svg>