<svg id="icon" height="512" viewBox="0 0 128 128" width="512" xmlns="http://www.w3.org/2000/svg"><path d="m71.515 7.23h12.361v78.469h-12.361z" fill="#6bb3d9" transform="matrix(.869 .494 -.494 .869 33.112 -32.325)"/><path d="m91.984 9.142h6.827v12.361h-6.827z" fill="#f0f5f9" transform="matrix(.494 -.869 .869 .494 34.933 90.686)"/><path d="m96.496 3.065h6.089v9.939h-6.089z" fill="#d9e2e9" transform="matrix(.869 .494 -.494 .869 16.975 -48.141)"/><path d="m96.237 7.852h9.938v2.258h-9.938z" fill="#c8cbd2" transform="matrix(.494 -.869 .869 .494 43.384 92.527)"/><path d="m99.731 14.86a1 1 0 0 1 -.494-.131l-5.294-3.009a1 1 0 0 1 -.375-1.363l4.912-8.641a1 1 0 0 1 1.363-.375l5.293 3.009a1 1 0 0 1 .375 1.363l-4.911 8.641a1 1 0 0 1 -.869.506zm-3.931-4.384 3.556 2.024 3.923-6.9-3.554-2.026z" fill="#2f3a5a"/><path d="m73.577 34.2a1 1 0 0 1 -.868-1.494l13.357-23.5a3.705 3.705 0 0 1 5.054-1.392l3.488 1.986a1 1 0 1 1 -.988 1.738l-3.488-1.985a1.707 1.707 0 0 0 -2.327.64l-13.357 23.5a1 1 0 0 1 -.871.507z" fill="#2f3a5a"/><path d="m63.68 83.628-13.431 11.12 2.685-17.229z" fill="#e1e6e9"/><path d="m102.461 15.41-3.379 5.934-35.403 62.283-2.93-1.665 35.404-62.283 3.378-5.934z" fill="#477ea8"/><path d="m95.892 15.86h6.829v3.37h-6.829z" fill="#c1cdd3" transform="matrix(.495 -.869 .869 .495 34.931 95.168)"/><path d="m63.679 83.627-13.43 11.121.733-4.699 9.767-8.087z" fill="#c8cbd2"/><g fill="#2f3a5a"><path d="m63.679 84.627a1 1 0 0 1 -.493-.131l-10.747-6.108a1 1 0 0 1 -.375-1.363l38.778-68.218a1 1 0 0 1 1.363-.375l10.747 6.109a1 1 0 0 1 .375 1.363l-38.778 68.218a1 1 0 0 1 -.87.505zm-9.379-7.483 9.008 5.12 37.79-66.479-9.009-5.12z"/><path d="m99.083 22.345a1 1 0 0 1 -.493-.131l-10.746-6.114a1 1 0 0 1 -.375-1.363l3.373-5.935a1 1 0 0 1 1.363-.375l10.747 6.109a1 1 0 0 1 .375 1.363l-3.374 5.935a1 1 0 0 1 -.87.511zm-9.383-7.484 9.008 5.12 2.386-4.2-9.009-5.12z"/><path d="m50.249 95.748a1 1 0 0 1 -.988-1.154l2.685-17.229a1 1 0 0 1 1.482-.715l10.746 6.108a1 1 0 0 1 .144 1.639l-13.431 11.121a1 1 0 0 1 -.638.23zm3.451-16.648-2.056 13.2 10.282-8.515z"/></g><path d="m51.723 85.289-1.474 9.459 7.374-6.105z" fill="#9297ab"/><path d="m57.626 88.641-7.377 6.107.556-3.565 4.598-3.805z" fill="#707583"/><path d="m50.249 95.748a1 1 0 0 1 -.988-1.154l1.474-9.459a1 1 0 0 1 1.482-.715l5.9 3.354a1 1 0 0 1 .144 1.639l-7.374 6.105a1 1 0 0 1 -.638.23zm2.238-8.875-.843 5.427 4.226-3.5z" fill="#2f3a5a"/><path d="m73.157 81.31-27.782-80.31-22.018 7.617 27.782 80.31zm-13.692-3.946a2.249 2.249 0 1 1 -1.389 2.857 2.249 2.249 0 0 1 1.389-2.857z" fill="#e8c79c"/><path d="m51.14 89.927a1 1 0 0 1 -.945-.673l-27.783-80.31a1 1 0 0 1 .618-1.272l22.018-7.617a1 1 0 0 1 1.272.618l27.78 80.31a1 1 0 0 1 -.618 1.272l-22.015 7.617a.992.992 0 0 1 -.327.055zm-26.51-80.692 27.128 78.42 20.127-6.963-27.128-78.42zm35.57 73.505a3.25 3.25 0 0 1 -1.062-6.321 3.249 3.249 0 1 1 1.062 6.321zm0-4.5a1.256 1.256 0 0 0 -.412.07 1.25 1.25 0 0 0 -.135 2.3 1.225 1.225 0 0 0 .951.057 1.254 1.254 0 0 0 .773-1.593 1.249 1.249 0 0 0 -1.178-.838z" fill="#2f3a5a"/><path d="m69.474 70.658-5.357 1.853" fill="#f7b521"/><path d="m64.117 73.512a1 1 0 0 1 -.327-1.945l5.356-1.854a1 1 0 1 1 .654 1.887l-5.356 1.854a1 1 0 0 1 -.327.058z" fill="#2f3a5a"/><path d="m67.692 65.507-3.623 1.253" fill="#f7b521"/><path d="m64.068 67.761a1 1 0 0 1 -.327-1.946l3.624-1.253a1 1 0 1 1 .654 1.89l-3.619 1.254a1.009 1.009 0 0 1 -.332.055z" fill="#2f3a5a"/><path d="m65.737 59.857-5.356 1.853" fill="#f7b521"/><path d="m60.381 62.71a1 1 0 0 1 -.327-1.945l5.356-1.853a1 1 0 1 1 .654 1.89l-5.356 1.853a1 1 0 0 1 -.327.055z" fill="#2f3a5a"/><path d="m63.955 54.705-3.623 1.254" fill="#f7b521"/><path d="m60.332 56.959a1 1 0 0 1 -.332-1.946l3.623-1.253a1 1 0 0 1 .654 1.891l-3.618 1.249a1.009 1.009 0 0 1 -.327.059z" fill="#2f3a5a"/><path d="m62.001 49.055-5.357 1.853" fill="#f7b521"/><path d="m56.645 51.909a1 1 0 0 1 -.327-1.945l5.356-1.853a1 1 0 1 1 .654 1.889l-5.356 1.853a1 1 0 0 1 -.327.056z" fill="#2f3a5a"/><path d="m60.219 43.904-3.623 1.253" fill="#f7b521"/><path d="m56.6 46.158a1 1 0 0 1 -.327-1.945l3.623-1.253a1 1 0 1 1 .654 1.89l-3.627 1.25a1 1 0 0 1 -.323.058z" fill="#2f3a5a"/><path d="m58.264 38.254-5.356 1.853" fill="#f7b521"/><path d="m52.907 41.107a1 1 0 0 1 -.327-1.946l5.357-1.853a1 1 0 1 1 .654 1.89l-5.357 1.854a1.009 1.009 0 0 1 -.327.055z" fill="#2f3a5a"/><path d="m56.482 33.103-3.623 1.253" fill="#f7b521"/><path d="m52.859 35.356a1 1 0 0 1 -.327-1.945l3.623-1.253a1 1 0 1 1 .654 1.89l-3.622 1.252a1 1 0 0 1 -.328.056z" fill="#2f3a5a"/><path d="m54.528 27.453-5.357 1.853" fill="#f7b521"/><path d="m49.171 30.306a1 1 0 0 1 -.327-1.945l5.356-1.853a1 1 0 1 1 .654 1.89l-5.354 1.852a1 1 0 0 1 -.329.056z" fill="#2f3a5a"/><path d="m52.746 22.301-3.623 1.254" fill="#f7b521"/><path d="m49.123 24.555a1 1 0 0 1 -.323-1.945l3.623-1.253a1 1 0 1 1 .654 1.89l-3.627 1.253a1 1 0 0 1 -.327.055z" fill="#2f3a5a"/><path d="m50.791 16.651-5.357 1.853" fill="#f7b521"/><path d="m45.435 19.5a1 1 0 0 1 -.327-1.945l5.356-1.853a1 1 0 1 1 .654 1.89l-5.356 1.853a1 1 0 0 1 -.327.055z" fill="#2f3a5a"/><path d="m49.009 11.5-3.623 1.253" fill="#f7b521"/><path d="m45.386 13.754a1 1 0 0 1 -.327-1.945l3.623-1.253a1 1 0 1 1 .654 1.89l-3.623 1.254a1 1 0 0 1 -.327.054z" fill="#2f3a5a"/><path d="m47.055 5.85-5.357 1.853" fill="#f7b521"/><path d="m41.7 8.7a1 1 0 0 1 -.327-1.945l5.356-1.853a1 1 0 1 1 .654 1.89l-5.358 1.856a1 1 0 0 1 -.325.052z" fill="#2f3a5a"/><path d="m88.06 123.835h-50.221l-7.144-75.359h64.509z" fill="#d9e2e9"/><path d="m95.202 48.479-7.14 75.36h-50.219l-.742-7.798h45.191l6.397-67.562z" fill="#c1cdd3"/><path d="m88.971 124.835h-52.042l-.085-.906-7.249-76.453h66.705l-.1 1.094zm-50.222-2h48.4l6.951-73.359h-62.306z" fill="#2f3a5a"/><rect fill="#d9e2e9" height="8.248" rx="4.124" width="76.048" x="24.925" y="43.151"/><path d="m100.972 47.277a4.113 4.113 0 0 1 -4.119 4.123h-67.8a4.13 4.13 0 0 1 -3.953-2.921h67.614a4.133 4.133 0 0 0 3.951-5.331h.188a4.122 4.122 0 0 1 4.119 4.129z" fill="#c1cdd3"/><rect fill="#d9e2e9" height="6.33" rx="3.165" width="58.37" x="33.764" y="120.67"/><path d="m92.17 123.808a3.163 3.163 0 0 1 -3.17 3.157h-52.035a3.155 3.155 0 0 1 -3.126-2.655h51.683a3.165 3.165 0 0 0 3.167-3.167 2.645 2.645 0 0 0 -.042-.5h.353a3.158 3.158 0 0 1 3.167 3.167z" fill="#c1cdd3"/><path d="m96.85 52.4h-67.8a5.124 5.124 0 1 1 0-10.248h67.8a5.124 5.124 0 1 1 0 10.248zm-67.8-8.248a3.124 3.124 0 1 0 0 6.248h67.8a3.124 3.124 0 1 0 0-6.248z" fill="#2f3a5a"/><path d="m88.97 128h-52.04a4.165 4.165 0 0 1 0-8.331h52.04a4.165 4.165 0 0 1 0 8.331zm-52.04-6.331a2.165 2.165 0 0 0 0 4.331h52.04a2.165 2.165 0 0 0 0-4.331z" fill="#2f3a5a"/></svg>