<svg id="icon" height="512" viewBox="0 0 128 128" width="512" xmlns="http://www.w3.org/2000/svg"><rect fill="#d9e2e9" height="115.616" rx="10.124" width="123.267" x="2.366" y="11.384"/><path d="m2.367 21.5v95.373a10.118 10.118 0 0 0 10.121 10.127h103.02a10.113 10.113 0 0 0 9.912-8.1 9.844 9.844 0 0 1 -3.38.592h-103.019a10.118 10.118 0 0 1 -10.121-10.125v-95.373a9.705 9.705 0 0 1 .209-2.021 10.077 10.077 0 0 0 -6.742 9.527z" fill="#c1cdd3"/><path d="m115.51 128h-103.02a11.137 11.137 0 0 1 -11.124-11.124v-95.368a11.137 11.137 0 0 1 11.124-11.124h103.02a11.137 11.137 0 0 1 11.124 11.124v95.369a11.137 11.137 0 0 1 -11.124 11.123zm-103.02-115.616a9.134 9.134 0 0 0 -9.124 9.124v95.369a9.134 9.134 0 0 0 9.124 9.123h103.02a9.134 9.134 0 0 0 9.124-9.124v-95.368a9.134 9.134 0 0 0 -9.124-9.124z" fill="#2f3a5a"/><path d="m2.366 36.213v-14.705a10.124 10.124 0 0 1 10.124-10.124h103.02a10.124 10.124 0 0 1 10.124 10.124v14.705z" fill="#f26176"/><path d="m2.367 21.5v14.72h123.262v-7.349h-113.576v-14.7a9.889 9.889 0 0 1 .4-2.787 10.122 10.122 0 0 0 -10.086 10.116z" fill="#e95a6a"/><path d="m126.634 37.213h-125.268v-15.705a11.137 11.137 0 0 1 11.124-11.124h103.02a11.137 11.137 0 0 1 11.124 11.124zm-123.268-2h121.268v-13.705a9.134 9.134 0 0 0 -9.124-9.124h-103.02a9.134 9.134 0 0 0 -9.124 9.124z" fill="#2f3a5a"/><path d="m98.523 1a3.978 3.978 0 0 1 3.977 3.978v11.951a3.978 3.978 0 1 1 -7.955 0v-11.951a3.978 3.978 0 0 1 3.978-3.978z" fill="#84879c"/><path d="m98.522 21.906a4.983 4.983 0 0 1 -4.978-4.978v-11.95a4.978 4.978 0 1 1 9.955 0v11.951a4.983 4.983 0 0 1 -4.977 4.977zm0-19.906a2.981 2.981 0 0 0 -2.978 2.978v11.951a2.978 2.978 0 1 0 5.955 0v-11.951a2.981 2.981 0 0 0 -2.977-2.978z" fill="#2f3a5a"/><path d="m63.894 1a3.978 3.978 0 0 1 3.978 3.978v11.951a3.978 3.978 0 1 1 -7.955 0v-11.951a3.978 3.978 0 0 1 3.977-3.978z" fill="#84879c"/><path d="m63.894 21.906a4.983 4.983 0 0 1 -4.978-4.978v-11.95a4.978 4.978 0 1 1 9.955 0v11.951a4.983 4.983 0 0 1 -4.977 4.977zm0-19.906a2.981 2.981 0 0 0 -2.978 2.978v11.951a2.978 2.978 0 1 0 5.955 0v-11.951a2.981 2.981 0 0 0 -2.977-2.978z" fill="#2f3a5a"/><path d="m27.663 1a3.978 3.978 0 0 1 3.978 3.978v11.951a3.978 3.978 0 1 1 -7.955 0v-11.951a3.978 3.978 0 0 1 3.977-3.978z" fill="#84879c"/><path d="m27.663 21.906a4.983 4.983 0 0 1 -4.978-4.978v-11.95a4.978 4.978 0 1 1 9.955 0v11.951a4.983 4.983 0 0 1 -4.977 4.977zm0-19.906a2.981 2.981 0 0 0 -2.978 2.978v11.951a2.978 2.978 0 0 0 5.955 0v-11.951a2.981 2.981 0 0 0 -2.977-2.978z" fill="#2f3a5a"/><path d="m96.854 52.414h13.265v13.265h-13.265z" fill="#6bb3d9" transform="matrix(-1 0 0 -1 206.973 118.093)"/><path d="m110.119 66.679h-13.265a1 1 0 0 1 -1-1v-13.265a1 1 0 0 1 1-1h13.266a1 1 0 0 1 1 1v13.265a1 1 0 0 1 -1.001 1zm-12.266-2h11.266v-11.265h-11.265z" fill="#2f3a5a"/><path d="m70.53 52.414h13.265v13.265h-13.265z" fill="#6bb3d9" transform="matrix(-1 0 0 -1 154.324 118.093)"/><path d="m83.795 66.679h-13.266a1 1 0 0 1 -1-1v-13.265a1 1 0 0 1 1-1h13.266a1 1 0 0 1 1 1v13.265a1 1 0 0 1 -1 1zm-12.266-2h11.266v-11.265h-11.266z" fill="#2f3a5a"/><path d="m44.205 52.414h13.265v13.265h-13.265z" fill="#6bb3d9" transform="matrix(-1 0 0 -1 101.676 118.093)"/><path d="m57.471 66.679h-13.266a1 1 0 0 1 -1-1v-13.265a1 1 0 0 1 1-1h13.266a1 1 0 0 1 1 1v13.265a1 1 0 0 1 -1 1zm-12.266-2h11.266v-11.265h-11.266z" fill="#2f3a5a"/><path d="m17.881 52.414h13.265v13.265h-13.265z" fill="#6bb3d9" transform="matrix(-1 0 0 -1 49.027 118.093)"/><path d="m31.146 66.679h-13.265a1 1 0 0 1 -1-1v-13.265a1 1 0 0 1 1-1h13.265a1 1 0 0 1 1 1v13.265a1 1 0 0 1 -1 1zm-12.266-2h11.266v-11.265h-11.265z" fill="#2f3a5a"/><path d="m96.854 75.053h13.265v13.265h-13.265z" fill="#6bb3d9" transform="matrix(-1 0 0 -1 206.973 163.372)"/><path d="m110.119 89.318h-13.265a1 1 0 0 1 -1-1v-13.265a1 1 0 0 1 1-1h13.266a1 1 0 0 1 1 1v13.265a1 1 0 0 1 -1.001 1zm-12.266-2h11.266v-11.265h-11.265z" fill="#2f3a5a"/><path d="m70.53 75.053h13.265v13.265h-13.265z" fill="#6bb3d9" transform="matrix(-1 0 0 -1 154.324 163.372)"/><path d="m83.795 89.318h-13.266a1 1 0 0 1 -1-1v-13.265a1 1 0 0 1 1-1h13.266a1 1 0 0 1 1 1v13.265a1 1 0 0 1 -1 1zm-12.266-2h11.266v-11.265h-11.266z" fill="#2f3a5a"/><path d="m44.205 75.053h13.265v13.265h-13.265z" fill="#6bb3d9" transform="matrix(-1 0 0 -1 101.676 163.372)"/><path d="m57.471 89.318h-13.266a1 1 0 0 1 -1-1v-13.265a1 1 0 0 1 1-1h13.266a1 1 0 0 1 1 1v13.265a1 1 0 0 1 -1 1zm-12.266-2h11.266v-11.265h-11.266z" fill="#2f3a5a"/><path d="m17.881 75.053h13.265v13.265h-13.265z" fill="#6bb3d9" transform="matrix(-1 0 0 -1 49.027 163.372)"/><path d="m31.146 89.318h-13.265a1 1 0 0 1 -1-1v-13.265a1 1 0 0 1 1-1h13.265a1 1 0 0 1 1 1v13.265a1 1 0 0 1 -1 1zm-12.266-2h11.266v-11.265h-11.265z" fill="#2f3a5a"/><path d="m96.854 97.692h13.265v13.265h-13.265z" fill="#6bb3d9" transform="matrix(-1 0 0 -1 206.973 208.65)"/><path d="m110.119 111.958h-13.265a1 1 0 0 1 -1-1v-13.266a1 1 0 0 1 1-1h13.266a1 1 0 0 1 1 1v13.265a1 1 0 0 1 -1.001 1.001zm-12.266-2h11.266v-11.266h-11.265z" fill="#2f3a5a"/><path d="m70.53 97.692h13.265v13.265h-13.265z" fill="#6bb3d9" transform="matrix(-1 0 0 -1 154.324 208.65)"/><path d="m83.795 111.958h-13.266a1 1 0 0 1 -1-1v-13.266a1 1 0 0 1 1-1h13.266a1 1 0 0 1 1 1v13.265a1 1 0 0 1 -1 1.001zm-12.266-2h11.266v-11.266h-11.266z" fill="#2f3a5a"/><path d="m44.205 97.692h13.265v13.265h-13.265z" fill="#6bb3d9" transform="matrix(-1 0 0 -1 101.676 208.65)"/><path d="m57.471 111.958h-13.266a1 1 0 0 1 -1-1v-13.266a1 1 0 0 1 1-1h13.266a1 1 0 0 1 1 1v13.265a1 1 0 0 1 -1 1.001zm-12.266-2h11.266v-11.266h-11.266z" fill="#2f3a5a"/><path d="m17.881 97.692h13.265v13.265h-13.265z" fill="#6bb3d9" transform="matrix(-1 0 0 -1 49.027 208.65)"/><path d="m31.146 111.958h-13.265a1 1 0 0 1 -1-1v-13.266a1 1 0 0 1 1-1h13.265a1 1 0 0 1 1 1v13.265a1 1 0 0 1 -1 1.001zm-12.266-2h11.266v-11.266h-11.265z" fill="#2f3a5a"/></svg>