<svg id="icon" height="512" viewBox="0 0 128 128" width="512" xmlns="http://www.w3.org/2000/svg"><path d="m58.749 48.538h61.776a6.475 6.475 0 0 1 6.475 6.476v37.93a6.475 6.475 0 0 1 -6.475 6.475h-2.7v17.21l-12.625-17.21h-46.451a6.475 6.475 0 0 1 -6.475-6.475v-37.93a6.475 6.475 0 0 1 6.475-6.476z" fill="#8ae0a1"/><path d="m117.825 117.629a1 1 0 0 1 -.807-.409l-12.32-16.8h-45.949a7.484 7.484 0 0 1 -7.476-7.476v-37.93a7.484 7.484 0 0 1 7.476-7.475h61.775a7.484 7.484 0 0 1 7.476 7.475v37.93a7.484 7.484 0 0 1 -7.476 7.476h-1.7v16.21a1 1 0 0 1 -1 1zm-59.076-68.09a5.481 5.481 0 0 0 -5.476 5.475v37.93a5.482 5.482 0 0 0 5.476 5.476h46.456a1 1 0 0 1 .807.409l10.813 14.747v-14.157a1 1 0 0 1 1-1h2.7a5.482 5.482 0 0 0 5.475-5.475v-37.93a5.481 5.481 0 0 0 -5.476-5.475z" fill="#2f3a5a"/><path d="m97.884 11.371h-87.692a9.192 9.192 0 0 0 -9.192 9.191v53.843a9.192 9.192 0 0 0 9.192 9.195h3.832v24.43l17.915-24.43h65.945a9.192 9.192 0 0 0 9.192-9.192v-53.846a9.192 9.192 0 0 0 -9.192-9.191z" fill="#dbe2eb"/><path d="m107.072 20.562v53.845a9.2 9.2 0 0 1 -9.181 9.2h-65.949l-17.917 24.426v-11.533l13.12-17.885h65.949a9.185 9.185 0 0 0 9.181-9.181v-53.843a9.167 9.167 0 0 0 -.667-3.431 9.166 9.166 0 0 1 5.464 8.402z" fill="#c1cdd3"/><path d="m14.023 109.027a1 1 0 0 1 -1-1v-23.427h-2.831a10.2 10.2 0 0 1 -10.192-10.195v-53.842a10.2 10.2 0 0 1 10.192-10.192h87.692a10.2 10.2 0 0 1 10.191 10.192v53.842a10.2 10.2 0 0 1 -10.191 10.195h-65.439l-17.615 24.019a1 1 0 0 1 -.807.408zm-3.831-96.656a8.2 8.2 0 0 0 -8.192 8.192v53.842a8.2 8.2 0 0 0 8.192 8.195h3.831a1 1 0 0 1 1 1v21.375l16.109-21.969a1 1 0 0 1 .807-.409h65.945a8.2 8.2 0 0 0 8.191-8.192v-53.842a8.2 8.2 0 0 0 -8.191-8.192z" fill="#2f3a5a"/><g fill="#84879c"><circle cx="26.408" cy="45.061" r="6.586"/><circle cx="50.745" cy="45.061" r="6.586"/><circle cx="75.082" cy="45.061" r="6.586"/></g></svg>