<svg id="icon" height="512" viewBox="0 0 128 128" width="512" xmlns="http://www.w3.org/2000/svg"><path d="m1.001 54.545 125.999-49.147-29.667 108.327z" fill="#dbe2eb"/><path d="m126.997 5.403-29.658 108.319-96.339-59.179 7.218-2.809 85.391 52.45 26.306-96.013z" fill="#c1cdd3"/><path d="m97.333 114.725a1 1 0 0 1 -.523-.148l-96.332-59.177a1 1 0 0 1 .16-1.784l126-49.147a1 1 0 0 1 1.328 1.2l-29.666 108.32a1 1 0 0 1 -.964.736zm-94.094-59.979 93.482 57.43 28.789-105.124z" fill="#2f3a5a"/><path d="m127 5.398-95.056 68.156v49.048l19.689-36.823z" fill="#dbe2eb"/><path d="m31.943 123.6a1.013 1.013 0 0 1 -.243-.03 1 1 0 0 1 -.757-.97v-49.046a1 1 0 0 1 .417-.812l95.057-68.157a1 1 0 0 1 1.312 1.5l-75.276 80.282-19.628 36.707a1 1 0 0 1 -.882.526zm1-49.535v44.544l17.808-33.3a1 1 0 0 1 .152-.212l68.397-72.945z" fill="#2f3a5a"/><path d="m31.944 122.602 33.601-28.406-13.912-8.417z" fill="#dbe2eb"/><path d="m31.943 123.6a1 1 0 0 1 -.882-1.472l19.69-36.823a1 1 0 0 1 1.4-.384l13.911 8.417a1 1 0 0 1 .128 1.619l-33.6 28.406a1 1 0 0 1 -.647.237zm20.075-36.42-16.727 31.283 28.545-24.132z" fill="#2f3a5a"/></svg>