<?xml version="1.0"?>
<svg xmlns="http://www.w3.org/2000/svg" id="icon" viewBox="0 0 128 128" width="512" height="512"><polyline points="27.586 10.062 30.147 7.501 60.009 37.362 62.972 34.274 29.335 0.637 23.748 6.224" fill="#9297ab"/><path d="M60.009,38.362a1,1,0,0,1-.707-.293L30.147,8.915l-1.854,1.854a1,1,0,0,1-1.414-1.414L29.44,6.793a1,1,0,0,1,1.414,0l29.14,29.14,1.578-1.645L29.335,2.051l-4.88,4.88a1,1,0,0,1-1.414-1.414L28.628-.07a1,1,0,0,1,1.414,0L63.679,33.566a1,1,0,0,1,.015,1.4L60.73,38.055a1,1,0,0,1-.711.308Z" fill="#2f3a5a"/><path d="M125.135,109.892,22.608,7.365,6.3,23.671,108.828,126.2a3.977,3.977,0,0,0,5.624,0l10.683-10.683A3.977,3.977,0,0,0,125.135,109.892Z" fill="#9297ab"/><path d="M119.839,120.809l-5.387,5.387a3.983,3.983,0,0,1-5.621.011L6.295,23.671l5.4-5.4L114.228,120.809A3.97,3.97,0,0,0,119.839,120.809Z" fill="#84879c"/><rect x="26.276" y="5.845" width="23.061" height="66.049" transform="translate(-16.412 38.118) rotate(-45)" fill="#d9e2e9"/><path d="M53.005,71.789,4.887,23.671,22.608,5.951,70.726,54.069ZM7.715,23.671l45.29,45.29L67.9,54.069,22.608,8.779Z" fill="#2f3a5a"/><path d="M111.64,128.36a4.961,4.961,0,0,1-3.519-1.455L5.594,24.378a1,1,0,0,1,0-1.414L21.9,6.658a1,1,0,0,1,1.414,0L125.842,109.185a4.983,4.983,0,0,1,0,7.038l-10.683,10.683A4.961,4.961,0,0,1,111.64,128.36ZM7.715,23.671l101.82,101.82a2.981,2.981,0,0,0,4.21,0l10.683-10.683a2.981,2.981,0,0,0,0-4.209L22.607,8.779Z" fill="#2f3a5a"/><path d="M21.128,3.6a2.865,2.865,0,0,0-4.053,0L2.54,18.139a2.866,2.866,0,0,0,0,4.053L46.321,65.973,64.909,47.385Z" fill="#9297ab"/><path d="M46.321,66.68,2.187,22.545a3.365,3.365,0,0,1,0-4.759L16.722,3.25a3.369,3.369,0,0,1,4.76,0L65.616,47.385ZM19.1,3.266a2.358,2.358,0,0,0-1.673.691L2.894,18.493a2.365,2.365,0,0,0,0,3.345L46.321,65.266,64.2,47.385,20.775,3.957A2.36,2.36,0,0,0,19.1,3.266Z" fill="#9297ab"/><path d="M52.618,59.668l-6.3,6.3L2.54,22.2a2.86,2.86,0,0,1,0-4.046l6.314-6.314a2.863,2.863,0,0,0-.011,4.057Z" fill="#84879c"/><path d="M46.321,66.973a1,1,0,0,1-.707-.293L1.833,22.9a3.865,3.865,0,0,1,0-5.466L16.369,2.9a3.87,3.87,0,0,1,5.467,0h0L65.616,46.678a1,1,0,0,1,0,1.414L47.028,66.68A1,1,0,0,1,46.321,66.973ZM19.1,3.765a1.859,1.859,0,0,0-1.319.545L3.247,18.847a1.865,1.865,0,0,0,0,2.638L46.321,64.559,63.5,47.385,20.421,4.311A1.862,1.862,0,0,0,19.1,3.765Z" fill="#2f3a5a"/></svg>
