<svg id="icon" height="512" viewBox="0 0 128 128" width="512" xmlns="http://www.w3.org/2000/svg"><rect fill="#e1e6e9" height="81.062" rx="7.238" width="64.24" x="31.88" y="45.934"/><path d="m88.882 127.5h-49.764a7.747 7.747 0 0 1 -7.738-7.738v-66.59a7.747 7.747 0 0 1 7.738-7.738h49.764a7.747 7.747 0 0 1 7.738 7.738v66.586a7.747 7.747 0 0 1 -7.738 7.742zm-49.764-81.066a6.746 6.746 0 0 0 -6.738 6.738v66.586a6.746 6.746 0 0 0 6.738 6.738h49.764a6.746 6.746 0 0 0 6.738-6.738v-66.586a6.746 6.746 0 0 0 -6.738-6.738z" fill="#5fc4f8"/><path d="m96.117 53.177v66.586a7.241 7.241 0 0 1 -7.237 7.237h-49.756a7.217 7.217 0 0 1 -7.2-6.606h49.548a7.241 7.241 0 0 0 7.237-7.237v-66.586c0-.222-.017-.427-.034-.632h.205a7.241 7.241 0 0 1 7.237 7.238z" fill="#c1cdd3"/><path d="m88.882 128h-49.764a8.248 8.248 0 0 1 -8.238-8.238v-66.59a8.247 8.247 0 0 1 8.238-8.238h49.764a8.247 8.247 0 0 1 8.238 8.238v66.586a8.248 8.248 0 0 1 -8.238 8.242zm-49.764-81.066a6.245 6.245 0 0 0 -6.238 6.238v66.586a6.245 6.245 0 0 0 6.238 6.242h49.764a6.245 6.245 0 0 0 6.238-6.238v-66.59a6.245 6.245 0 0 0 -6.238-6.238z" fill="#2f3a5a"/><path d="m83.015 33.15h-38.515a3.015 3.015 0 0 0 -3.015 3.015v9.769h44.545v-9.769a3.015 3.015 0 0 0 -3.015-3.015z" fill="#4fa4d1"/><path d="m86.031 36.162v9.77h-2.556v-5.606a3.011 3.011 0 0 0 -3.012-3.012h-38.522a1.847 1.847 0 0 0 -.455.047v-1.2a3.011 3.011 0 0 1 3.014-3.011h38.519a3.011 3.011 0 0 1 3.012 3.012z" fill="#6bb3d9"/><path d="m86.274 46.934h-44.548a1 1 0 0 1 -1-1v-9.77a4.019 4.019 0 0 1 4.015-4.015h38.518a4.019 4.019 0 0 1 4.015 4.015v9.77a1 1 0 0 1 -1 1zm-43.549-2h42.549v-8.77a2.017 2.017 0 0 0 -2.015-2.015h-38.518a2.017 2.017 0 0 0 -2.015 2.015z" fill="#2f3a5a"/><g fill="#477ea8"><path d="m47.416 43.212a1 1 0 0 1 -1-1v-5.763a1 1 0 0 1 2 0v5.763a1 1 0 0 1 -1 1z"/><path d="m52.863 43.212a1 1 0 0 1 -1-1v-5.763a1 1 0 0 1 2 0v5.763a1 1 0 0 1 -1 1z"/><path d="m58.31 43.212a1 1 0 0 1 -1-1v-5.763a1 1 0 0 1 2 0v5.763a1 1 0 0 1 -1 1z"/><path d="m63.756 43.212a1 1 0 0 1 -1-1v-5.763a1 1 0 0 1 2 0v5.763a1 1 0 0 1 -1 1z"/><path d="m69.2 43.212a1 1 0 0 1 -1-1v-5.763a1 1 0 0 1 2 0v5.763a1 1 0 0 1 -1 1z"/><path d="m74.649 43.212a1 1 0 0 1 -1-1v-5.763a1 1 0 0 1 2 0v5.763a1 1 0 0 1 -1 1z"/><path d="m80.1 43.212a1 1 0 0 1 -1-1v-5.763a1 1 0 0 1 2 0v5.763a1 1 0 0 1 -1 1z"/></g><path d="m62.228 1.719-5.528 31.431h13.03l-5.52-31.431a1.043 1.043 0 0 0 -1.982 0z" fill="#d9e2e9"/><path d="m69.734 34.15h-13.034a1 1 0 0 1 -.985-1.173l5.528-31.431a1.038 1.038 0 0 1 .034-.138 2.014 2.014 0 0 1 1.942-1.408 2.012 2.012 0 0 1 1.941 1.408 1.013 1.013 0 0 1 .034.138l5.524 31.431a1 1 0 0 1 -.985 1.173zm-11.839-2h10.648l-5.294-30.124-.057-.017z" fill="#2f3a5a"/><circle cx="64" cy="86.47" fill="#6bb3d9" r="19.818"/><path d="m64 107.288a20.818 20.818 0 1 1 20.818-20.818 20.842 20.842 0 0 1 -20.818 20.818zm0-39.637a18.818 18.818 0 1 0 18.818 18.819 18.84 18.84 0 0 0 -18.818-18.819z" fill="#2f3a5a"/><path d="m70.661 90.742a6.661 6.661 0 1 1 -13.322 0c0-3.679 6.661-15.205 6.661-15.205s6.661 11.526 6.661 15.205z" fill="#f0f5f9"/><path d="m64 98.4a7.67 7.67 0 0 1 -7.661-7.661c0-3.836 6.1-14.5 6.8-15.706a1.04 1.04 0 0 1 1.731 0c.7 1.2 6.8 11.87 6.8 15.706a7.67 7.67 0 0 1 -7.67 7.661zm0-20.831c-2.126 3.845-5.661 10.747-5.661 13.169a5.661 5.661 0 0 0 11.322 0c0-2.419-3.535-9.321-5.661-13.166z" fill="#2f3a5a"/></svg>