<svg id="icon" height="512" viewBox="0 0 128 128" width="512" xmlns="http://www.w3.org/2000/svg"><path d="m65.012 62.109 5.066 10.759-5.066 54.132-5.065-54.132z" fill="#c1cdd3"/><path d="m65.012 128a1 1 0 0 1 -1-.907l-5.061-54.132a1 1 0 0 1 .091-.519l5.065-10.759a1 1 0 0 1 1.81 0l5.065 10.759a1 1 0 0 1 .091.519l-5.065 54.132a1 1 0 0 1 -.996.907zm-4.044-54.953 4.044 43.22 4.044-43.22-4.044-8.59z" fill="#2f3a5a"/><path d="m24.987 53.1h78.026a0 0 0 0 1 0 0v10.955a9.493 9.493 0 0 1 -9.493 9.493h-59.04a9.493 9.493 0 0 1 -9.493-9.493v-10.955a0 0 0 0 1 0 0z" fill="#ef5361" transform="matrix(-1 0 0 -1 128 126.648)"/><path d="m38.386 53.1h51.228l-3.229-39.435h-44.77z" fill="#ef5361"/><path d="m36.752 1h54.5a6.333 6.333 0 1 1 0 12.665h-54.5a6.333 6.333 0 0 1 0-12.665z" fill="#ef5361"/><path d="m24.99 62.591v10.953h10.943v-10.953a9.5 9.5 0 0 1 9.5-9.495h-10.949a9.5 9.5 0 0 0 -9.494 9.495z" fill="#da2a47"/><path d="m38.383 53.097h10.944l3.234-39.428h-10.943z" fill="#da2a47"/><path d="m30.417 7.33a6.339 6.339 0 0 0 6.34 6.34h10.943a6.335 6.335 0 1 1 0-12.67h-10.944a6.336 6.336 0 0 0 -6.339 6.33z" fill="#da2a47"/><g fill="#2f3a5a"><path d="m103.013 74.548h-78.026a1 1 0 0 1 -1-1v-10.955a10.506 10.506 0 0 1 10.493-10.493h59.04a10.506 10.506 0 0 1 10.494 10.494v10.954a1 1 0 0 1 -1.001 1zm-77.026-2h76.026v-9.955a8.5 8.5 0 0 0 -8.493-8.493h-59.04a8.5 8.5 0 0 0 -8.494 8.494z"/><path d="m89.614 54.1h-51.228a1 1 0 0 1 -1-1.082l3.229-39.435a1 1 0 0 1 1-.918h44.77a1 1 0 0 1 1 .918l3.225 39.435a1 1 0 0 1 -1 1.082zm-50.142-2h49.056l-3.064-37.435h-42.928z"/><path d="m91.248 14.665h-54.5a7.333 7.333 0 1 1 .004-14.665h54.5a7.333 7.333 0 1 1 0 14.665zm-54.496-12.665a5.333 5.333 0 0 0 0 10.665h54.5a5.333 5.333 0 1 0 -.004-10.665z"/></g></svg>