<svg id="icon" height="512" viewBox="0 0 128 128" width="512" xmlns="http://www.w3.org/2000/svg"><path d="m31.381 126.991a23.189 23.189 0 0 1 -18.826-8.718 22.916 22.916 0 0 1 -4.895-11.415 23.2 23.2 0 0 1 6.613-19.581l58.716-58.714a13.335 13.335 0 0 1 18.859 18.86l-47.993 47.992a4.267 4.267 0 0 1 -6.034 0 4.267 4.267 0 0 1 0-6.034l47.829-47.828a4.97 4.97 0 0 0 .016-7.1 4.809 4.809 0 0 0 -6.643.143l-58.716 58.716a14.735 14.735 0 0 0 10.815 25.149 15.322 15.322 0 0 0 10.339-4.626l63.57-63.57a23.846 23.846 0 0 0 6.632-21.092 23.055 23.055 0 0 0 -3.773-9.233 23.906 23.906 0 0 0 -36.615-3.43l-52.256 52.256a4.267 4.267 0 0 1 -6.034 0 4.267 4.267 0 0 1 0-6.034l52.256-52.257a32.4 32.4 0 0 1 45.824 45.825l-63.493 63.493a23.993 23.993 0 0 1 -16.191 7.198z" fill="#d9e2e9"/><g fill="#c1cdd3"><path d="m20.31 93.31a14.72 14.72 0 0 0 -1.63 18.9 15.1 15.1 0 0 1 -1.27-1.13 14.727 14.727 0 0 1 0-20.84l58.71-58.72a4.825 4.825 0 0 1 3.4-1.4 4.774 4.774 0 0 1 3.24 1.26 4.434 4.434 0 0 1 1.29 2.09 4.828 4.828 0 0 0 -5.03 1.13z"/><path d="m37.82 95.41a4.114 4.114 0 0 1 -1.11-2 4.248 4.248 0 0 0 4.24-1.07l48-47.99a13.356 13.356 0 0 0 1.6-16.93 12.649 12.649 0 0 1 1.3 1.14 13.351 13.351 0 0 1 0 18.86l-47.99 48a4.276 4.276 0 0 1 -6.04-.01z"/><path d="m12.989 68.77a4.192 4.192 0 0 1 -1.12-2.02 4.239 4.239 0 0 0 4.25-1.06l52.251-52.25a23.9 23.9 0 0 1 35.64 2.11 23.889 23.889 0 0 0 -32.73.96l-52.261 52.26a4.273 4.273 0 0 1 -6.03 0z"/><path d="m111.07 56.3-63.5 63.49a24 24 0 0 1 -16.19 7.2 23.154 23.154 0 0 1 -18.82-8.72l-.1-.13a23.193 23.193 0 0 0 16.02 5.78 24 24 0 0 0 16.19-7.2l63.49-63.49a32.431 32.431 0 0 0 2.06-43.56c.29.26.57.53.85.81a32.441 32.441 0 0 1 0 45.82z"/></g><path d="m30.729 128a24.215 24.215 0 0 1 -18.952-9.1 23.845 23.845 0 0 1 -5.107-11.913 24.241 24.241 0 0 1 6.9-20.416l58.712-58.715a14.335 14.335 0 0 1 20.273 20.274l-47.992 47.992a5.267 5.267 0 1 1 -7.448-7.448l47.828-47.828a4.158 4.158 0 0 0 1.205-3.014 3.647 3.647 0 0 0 -1.159-2.641 3.9 3.9 0 0 0 -5.26.114l-58.714 58.715a13.736 13.736 0 0 0 10.085 23.442 14.237 14.237 0 0 0 9.658-4.334l63.57-63.569a22.814 22.814 0 0 0 6.354-20.217 22.157 22.157 0 0 0 -3.609-8.832 22.907 22.907 0 0 0 -35.087-3.293l-52.259 52.256a5.267 5.267 0 0 1 -7.448-7.448l52.255-52.257a33.4 33.4 0 0 1 47.238 47.239l-63.494 63.493a24.855 24.855 0 0 1 -16.87 7.491q-.34.009-.679.009zm.624-2.008.027 1-.027-1a22.867 22.867 0 0 0 15.511-6.906l63.494-63.493a31.4 31.4 0 0 0 -44.41-44.411l-52.256 52.257a3.271 3.271 0 0 0 0 4.62 3.344 3.344 0 0 0 4.62 0l52.255-52.259a24.907 24.907 0 0 1 38.146 3.568 24.167 24.167 0 0 1 3.937 9.635 24.789 24.789 0 0 1 -6.911 21.967l-63.57 63.569a16.225 16.225 0 0 1 -11.02 4.919 15.735 15.735 0 0 1 -11.549-26.858l58.715-58.709a5.81 5.81 0 0 1 8.027-.172 5.625 5.625 0 0 1 1.8 4.071 6.165 6.165 0 0 1 -1.79 4.47l-47.824 47.828a3.267 3.267 0 1 0 4.62 4.62l47.993-47.992a12.336 12.336 0 0 0 -17.441-17.446l-58.72 58.715a22.255 22.255 0 0 0 -6.327 18.745 21.837 21.837 0 0 0 4.681 10.915 22.288 22.288 0 0 0 18.02 8.347z" fill="#2f3a5a"/></svg>