<svg id="icon" height="512" viewBox="0 0 128 128" width="512" xmlns="http://www.w3.org/2000/svg"><path d="m6.702 48.082h38.198v45.645h-38.198z" fill="#83bfac"/><path d="m5.78 59.006h40.044v29.397h-40.044z" fill="#a9ddc7" transform="matrix(0 1 -1 0 99.507 47.903)"/><path d="m44.901 34.273h38.198v59.454h-38.198z" fill="#83bfac"/><path d="m36.473 51.501h55.054v29.397h-55.054z" fill="#a9ddc7" transform="matrix(0 1 -1 0 130.2 2.2)"/><path d="m83.099 55.529h38.198v38.198h-38.198z" fill="#83bfac"/><path d="m86.223 63.053h31.951v29.397h-31.951z" fill="#a9ddc7" transform="matrix(0 1 -1 0 179.95 -24.447)"/><g fill="#2f3a5a"><path d="m44.9 94.727h-38.2a1 1 0 0 1 -1-1v-45.644a1 1 0 0 1 1-1h38.2a1 1 0 0 1 1 1v45.644a1 1 0 0 1 -1 1zm-37.2-2h36.2v-43.644h-36.2z"/><path d="m83.1 94.727h-38.2a1 1 0 0 1 -1-1v-59.454a1 1 0 0 1 1-1h38.2a1 1 0 0 1 1 1v59.454a1 1 0 0 1 -1 1zm-37.2-2h36.2v-57.454h-36.2z"/><path d="m121.3 94.727h-38.2a1 1 0 0 1 -1-1v-38.2a1 1 0 0 1 1-1h38.2a1 1 0 0 1 1 1v38.2a1 1 0 0 1 -1 1zm-37.2-2h36.2v-36.2h-36.2z"/><path d="m63.852 71.4a1 1 0 0 1 -1-1v-14.613l-2.065 1.8a1 1 0 1 1 -1.312-1.509l3.725-3.241a1 1 0 0 1 1.656.754v16.809a1 1 0 0 1 -1.004 1z"/><path d="m68.148 71.4h-8.3a1 1 0 0 1 0-2h8.3a1 1 0 0 1 0 2z"/><path d="m31.857 79.654h-12.111a1 1 0 0 1 -.728-1.686l7.467-7.926a3.69 3.69 0 0 0 1-2.711 3.24 3.24 0 0 0 -1.114-2.315 3.607 3.607 0 0 0 -5.683 1.384 1 1 0 1 1 -1.852-.755 5.607 5.607 0 0 1 8.834-2.145 5.219 5.219 0 0 1 1.809 3.727 5.7 5.7 0 0 1 -1.538 4.188l-5.878 6.24h9.795a1 1 0 0 1 0 2z"/><path d="m102.2 76.246a1 1 0 1 1 0-2 2.853 2.853 0 1 0 -2.854-2.853 1 1 0 0 1 -2 0 4.854 4.854 0 1 1 4.854 4.853z"/><path d="m102.2 83.952a4.859 4.859 0 0 1 -4.855-4.852 1 1 0 0 1 2 0 2.854 2.854 0 1 0 2.854-2.853 1 1 0 1 1 0-2 4.853 4.853 0 1 1 0 9.706z"/><path d="m127 94.727h-126a1 1 0 0 1 0-2h126a1 1 0 0 1 0 2z"/></g></svg>