<?xml version="1.0"?>
<svg xmlns="http://www.w3.org/2000/svg" id="icon" viewBox="0 0 128 128" width="512" height="512"><path d="M120.691,36.494A63.014,63.014,0,0,0,7.138,91.162,63.014,63.014,0,1,0,120.691,36.494ZM57.633,70.366a8.783,8.783,0,0,1-1.894-2.785A9,9,0,0,1,67.77,55.825,8.978,8.978,0,0,1,72.1,60.066a9,9,0,0,1-14.464,10.3Z" fill="#dbe2eb"/><path d="M37.257,121.059a63.251,63.251,0,0,1-30.119-29.9l48.6-23.581a8.783,8.783,0,0,0,1.894,2.785,8.967,8.967,0,0,0,2.254,1.654Z" fill="#fff"/><path d="M120.691,36.494,72.1,60.066a8.978,8.978,0,0,0-4.327-4.241L90.4,6.786a63.163,63.163,0,0,1,30.29,29.708Z" fill="#fff"/><path d="M64,127.971a63.972,63.972,0,1,1,45.256-18.716A63.8,63.8,0,0,1,64,127.971ZM64,2a62,62,0,1,0,43.842,18.158A61.593,61.593,0,0,0,64,2Zm0,72.007a9.94,9.94,0,0,1-7.073-2.935h0A9.992,9.992,0,1,1,64,74.007ZM64,56a8,8,0,0,0-5.659,13.659h0A8,8,0,1,0,64,56Z" fill="#2f3a5a"/><path d="M79.655,48.344a22.14,22.14,0,1,0,0,31.31A22.14,22.14,0,0,0,79.655,48.344ZM57.633,70.366a9,9,0,1,1,12.733,0A8.993,8.993,0,0,1,57.633,70.366Z" fill="#84879c"/><path d="M64,87.128A23.135,23.135,0,1,1,80.362,47.637h0A23.128,23.128,0,0,1,64,87.128ZM64,42.87a21.13,21.13,0,1,0,14.948,6.182A21.075,21.075,0,0,0,64,42.87Zm0,31.138a10.019,10.019,0,1,1,7.073-2.935A9.94,9.94,0,0,1,64,74.007ZM64,56a8,8,0,0,0-5.659,13.659h0A8,8,0,1,0,64,56Z" fill="#2f3a5a"/></svg>
