<svg id="icon" height="512" viewBox="0 0 128 128" width="512" xmlns="http://www.w3.org/2000/svg"><rect fill="#9297ab" height="59.328" rx="4.905" width="126" x="1" y="34.336"/><path d="m127 39.24v49.52a4.9 4.9 0 0 1 -4.91 4.9h-116.18a4.9 4.9 0 0 1 -4.91-4.9v-32.85h121.26v-21.56a4.894 4.894 0 0 1 4.74 4.89z" fill="#84879c"/><path d="m122.095 94.664h-116.19a5.912 5.912 0 0 1 -5.905-5.905v-49.518a5.912 5.912 0 0 1 5.905-5.9h116.19a5.912 5.912 0 0 1 5.905 5.9v49.518a5.912 5.912 0 0 1 -5.905 5.905zm-116.19-59.328a3.909 3.909 0 0 0 -3.905 3.905v49.518a3.909 3.909 0 0 0 3.905 3.9h116.19a3.909 3.909 0 0 0 3.905-3.9v-49.518a3.909 3.909 0 0 0 -3.905-3.9z" fill="#2f3a5a"/><path d="m1 61.323v27.436a4.905 4.905 0 0 0 4.905 4.905h116.19a4.905 4.905 0 0 0 4.905-4.905v-27.436z" fill="#d9e2e9"/><path d="m127 61.32v27.44a4.9 4.9 0 0 1 -4.91 4.9h-116.18a4.9 4.9 0 0 1 -4.82-4h116.17a4.9 4.9 0 0 0 4.91-4.9v-23.44z" fill="#c1cdd3"/><path d="m122.095 94.664h-116.19a5.912 5.912 0 0 1 -5.905-5.905v-27.436a1 1 0 0 1 1-1h126a1 1 0 0 1 1 1v27.436a5.912 5.912 0 0 1 -5.905 5.905zm-120.095-32.341v26.436a3.909 3.909 0 0 0 3.905 3.9h116.19a3.909 3.909 0 0 0 3.905-3.9v-26.436z" fill="#2f3a5a"/><path d="m14.332 94.664a1 1 0 0 1 -1-1v-12.256a1 1 0 0 1 2 0v12.256a1 1 0 0 1 -1 1z" fill="#2f3a5a"/><path d="m10.984 61.323v19.116a3.348 3.348 0 1 0 6.7 0v-19.116z" fill="#707583"/><path d="m17.685 61.32v19.12a3.345 3.345 0 0 1 -6.56.93 2.285 2.285 0 0 0 .45.04 3.35 3.35 0 0 0 3.35-3.35v-16.74z" fill="#626772"/><path d="m14.332 84.787a4.354 4.354 0 0 1 -4.349-4.349v-19.115a1 1 0 0 1 1-1h6.7a1 1 0 0 1 1 1v19.115a4.354 4.354 0 0 1 -4.351 4.349zm-2.349-22.464v18.115a2.349 2.349 0 1 0 4.7 0v-18.115z" fill="#2f3a5a"/><path d="m30.888 94.664a1 1 0 0 1 -1-1v-12.256a1 1 0 0 1 2 0v12.256a1 1 0 0 1 -1 1z" fill="#2f3a5a"/><path d="m27.539 61.323v19.116a3.348 3.348 0 1 0 6.7 0v-19.116z" fill="#707583"/><path d="m34.241 61.32v19.12a3.345 3.345 0 0 1 -6.56.93 2.285 2.285 0 0 0 .45.04 3.35 3.35 0 0 0 3.35-3.35v-16.74z" fill="#626772"/><path d="m30.888 84.787a4.354 4.354 0 0 1 -4.349-4.349v-19.115a1 1 0 0 1 1-1h6.7a1 1 0 0 1 1 1v19.115a4.353 4.353 0 0 1 -4.351 4.349zm-2.349-22.464v18.115a2.348 2.348 0 1 0 4.7 0v-18.115z" fill="#2f3a5a"/><path d="m47.442 94.664a1 1 0 0 1 -1-1v-12.256a1 1 0 0 1 2 0v12.256a1 1 0 0 1 -1 1z" fill="#2f3a5a"/><path d="m44.094 61.323v19.116a3.348 3.348 0 1 0 6.7 0v-19.116z" fill="#707583"/><path d="m50.8 61.32v19.12a3.345 3.345 0 0 1 -6.56.93 2.285 2.285 0 0 0 .45.04 3.35 3.35 0 0 0 3.35-3.35v-16.74z" fill="#626772"/><path d="m47.442 84.787a4.354 4.354 0 0 1 -4.349-4.349v-19.115a1 1 0 0 1 1-1h6.7a1 1 0 0 1 1 1v19.115a4.354 4.354 0 0 1 -4.351 4.349zm-2.348-22.464v18.115a2.349 2.349 0 1 0 4.7 0v-18.115z" fill="#2f3a5a"/><path d="m64 94.664a1 1 0 0 1 -1-1v-12.256a1 1 0 0 1 2 0v12.256a1 1 0 0 1 -1 1z" fill="#2f3a5a"/><path d="m60.649 61.323v19.116a3.348 3.348 0 0 0 6.7 0v-19.116z" fill="#707583"/><path d="m67.351 61.32v19.12a3.345 3.345 0 0 1 -6.56.93 2.285 2.285 0 0 0 .45.04 3.35 3.35 0 0 0 3.35-3.35v-16.74z" fill="#626772"/><path d="m64 84.787a4.354 4.354 0 0 1 -4.349-4.349v-19.115a1 1 0 0 1 1-1h6.7a1 1 0 0 1 1 1v19.115a4.353 4.353 0 0 1 -4.351 4.349zm-2.351-22.464v18.115a2.348 2.348 0 1 0 4.7 0v-18.115z" fill="#2f3a5a"/><path d="m80.553 94.664a1 1 0 0 1 -1-1v-12.256a1 1 0 0 1 2 0v12.256a1 1 0 0 1 -1 1z" fill="#2f3a5a"/><path d="m77.2 61.323v19.116a3.348 3.348 0 1 0 6.7 0v-19.116z" fill="#707583"/><path d="m83.906 61.32v19.12a3.345 3.345 0 0 1 -6.56.93 2.285 2.285 0 0 0 .45.04 3.35 3.35 0 0 0 3.35-3.35v-16.74z" fill="#626772"/><path d="m80.553 84.787a4.354 4.354 0 0 1 -4.353-4.349v-19.115a1 1 0 0 1 1-1h6.7a1 1 0 0 1 1 1v19.115a4.354 4.354 0 0 1 -4.347 4.349zm-2.353-22.464v18.115a2.349 2.349 0 1 0 4.7 0v-18.115z" fill="#2f3a5a"/><path d="m97.107 94.664a1 1 0 0 1 -1-1v-12.256a1 1 0 0 1 2 0v12.256a1 1 0 0 1 -1 1z" fill="#2f3a5a"/><path d="m93.759 61.323v19.116a3.348 3.348 0 0 0 6.7 0v-19.116z" fill="#707583"/><path d="m100.461 61.32v19.12a3.345 3.345 0 0 1 -6.56.93 2.285 2.285 0 0 0 .45.04 3.35 3.35 0 0 0 3.35-3.35v-16.74z" fill="#626772"/><path d="m97.107 84.787a4.353 4.353 0 0 1 -4.348-4.349v-19.115a1 1 0 0 1 1-1h6.7a1 1 0 0 1 1 1v19.115a4.354 4.354 0 0 1 -4.352 4.349zm-2.347-22.464v18.115a2.348 2.348 0 1 0 4.7 0v-18.115z" fill="#2f3a5a"/><path d="m113.663 94.664a1 1 0 0 1 -1-1v-12.256a1 1 0 0 1 2 0v12.256a1 1 0 0 1 -1 1z" fill="#2f3a5a"/><path d="m110.315 61.323v19.116a3.348 3.348 0 0 0 6.7 0v-19.116z" fill="#707583"/><path d="m117.016 61.32v19.12a3.345 3.345 0 0 1 -6.56.93 2.285 2.285 0 0 0 .45.04 3.35 3.35 0 0 0 3.35-3.35v-16.74z" fill="#626772"/><g fill="#2f3a5a"><path d="m113.663 84.787a4.354 4.354 0 0 1 -4.349-4.349v-19.115a1 1 0 0 1 1-1h6.7a1 1 0 0 1 1 1v19.115a4.354 4.354 0 0 1 -4.351 4.349zm-2.349-22.464v18.115a2.349 2.349 0 0 0 4.7 0v-18.115z"/><path d="m36.769 47.281h-21.04a1 1 0 0 1 0-2h21.04a1 1 0 0 1 0 2z"/><path d="m74.52 47.281h-21.04a1 1 0 0 1 0-2h21.04a1 1 0 0 1 0 2z"/><path d="m112.271 47.281h-21.04a1 1 0 0 1 0-2h21.039a1 1 0 0 1 0 2z"/></g><path d="m98.475 43.983h6.552v4.595h-6.552z" fill="#707583"/><path d="m105.027 49.579h-6.552a1 1 0 0 1 -1-1v-4.6a1 1 0 0 1 1-1h6.553a1 1 0 0 1 1 1v4.6a1 1 0 0 1 -1.001 1zm-5.553-2h4.553v-2.6h-4.552z" fill="#2f3a5a"/><path d="m64.072 43.983h6.552v4.595h-6.552z" fill="#707583"/><path d="m70.624 49.579h-6.552a1 1 0 0 1 -1-1v-4.6a1 1 0 0 1 1-1h6.552a1 1 0 0 1 1 1v4.6a1 1 0 0 1 -1 1zm-5.552-2h4.552v-2.6h-4.552z" fill="#2f3a5a"/><path d="m18.994 43.983h6.552v4.595h-6.552z" fill="#707583"/><path d="m25.546 49.579h-6.552a1 1 0 0 1 -1-1v-4.6a1 1 0 0 1 1-1h6.552a1 1 0 0 1 1 1v4.6a1 1 0 0 1 -1 1zm-5.552-2h4.552v-2.6h-4.552z" fill="#2f3a5a"/></svg>