<svg id="icon" height="512" viewBox="0 0 128 128" width="512" xmlns="http://www.w3.org/2000/svg"><path d="m85.909 37.359h-44.558v10.044h17.657v14.038h9.244v-14.038h17.657z" fill="#ffc943"/><path d="m68.252 62.44h-9.245a1 1 0 0 1 -1-1v-13.04h-16.656a1 1 0 0 1 -1-1v-10.041a1 1 0 0 1 1-1h44.558a1 1 0 0 1 1 1v10.041a1 1 0 0 1 -1 1h-16.657v13.04a1 1 0 0 1 -1 1zm-8.245-2h7.245v-13.04a1 1 0 0 1 1-1h16.657v-8.041h-42.558v8.041h16.656a1 1 0 0 1 1 1z" fill="#2f3a5a"/><circle cx="64" cy="91.225" fill="#ffc943" r="35.775"/><path d="m64 128a36.775 36.775 0 1 1 36.775-36.775 36.817 36.817 0 0 1 -36.775 36.775zm0-71.55a34.775 34.775 0 1 0 34.775 34.775 34.814 34.814 0 0 0 -34.775-34.775z" fill="#2f3a5a"/><circle cx="64" cy="91.225" fill="#ffc943" r="28.065"/><path d="m92.065 91.227a28.064 28.064 0 0 1 -50.359 17.044 28.065 28.065 0 0 0 39.34-39.34 28.029 28.029 0 0 1 11.019 22.296z" fill="#f7b521"/><path d="m64 120.29a29.065 29.065 0 1 1 29.065-29.065 29.1 29.1 0 0 1 -29.065 29.065zm0-56.13a27.065 27.065 0 1 0 27.065 27.065 27.095 27.095 0 0 0 -27.065-27.065z" fill="#2f3a5a"/><path d="m82.847 84.507-13.023-1.892-5.824-11.801-5.824 11.801-13.023 1.892 9.424 9.185-2.225 12.97 11.648-6.123 11.648 6.123-2.225-12.97z" fill="#f7b521"/><path d="m47.648 1h31.963v41.341h-31.963z" fill="#d9e2e9"/><path d="m79.61 1v41.34h-31.96v-4.98h25.92a.917.917 0 0 0 .92-.92v-35.44z" fill="#c1cdd3"/><path d="m57.763 1h11.734v41.341h-11.734z" fill="#ef5361"/><path d="m69.5 1v41.34h-11.74v-6.26h4.87a1.9 1.9 0 0 0 1.9-1.9v-33.18z" fill="#da2a47"/><g fill="#2f3a5a"><path d="m79.611 43.341h-31.963a1 1 0 0 1 -1-1v-41.341a1 1 0 0 1 1-1h31.963a1 1 0 0 1 1 1v41.341a1 1 0 0 1 -1 1zm-30.963-2h29.963v-39.341h-29.963z"/><path d="m69.5 43.341h-11.737a1 1 0 0 1 -1-1v-41.341a1 1 0 0 1 1-1h11.737a1 1 0 0 1 1 1v41.341a1 1 0 0 1 -1 1zm-10.734-2h9.734v-39.341h-9.737z"/></g></svg>