<svg id="icon" height="512" viewBox="0 0 128 128" width="512" xmlns="http://www.w3.org/2000/svg"><path d="m46.384 98.755h35.232v15.453h-35.232z" fill="#9297ab"/><path d="m81.616 115.209h-35.232a1 1 0 0 1 -1-1v-15.453a1 1 0 0 1 1-1h35.232a1 1 0 0 1 1 1v15.453a1 1 0 0 1 -1 1zm-34.232-2h33.232v-13.453h-33.232z" fill="#2f3a5a"/><path d="m122.42 3.365h-116.84a4.58 4.58 0 0 0 -4.58 4.58v86.23a4.58 4.58 0 0 0 4.58 4.58h116.84a4.58 4.58 0 0 0 4.58-4.58v-86.23a4.58 4.58 0 0 0 -4.58-4.58z" fill="#84879c"/><path d="m122.42 99.756h-116.84a5.586 5.586 0 0 1 -5.58-5.58v-86.231a5.587 5.587 0 0 1 5.58-5.58h116.84a5.587 5.587 0 0 1 5.58 5.58v86.23a5.586 5.586 0 0 1 -5.58 5.581zm-116.84-95.391a3.584 3.584 0 0 0 -3.58 3.58v86.23a3.584 3.584 0 0 0 3.58 3.58h116.84a3.584 3.584 0 0 0 3.58-3.58v-86.23a3.584 3.584 0 0 0 -3.58-3.58z" fill="#2f3a5a"/><path d="m91.432 114.209h-54.864a8.373 8.373 0 0 0 -8.373 8.373v2.053h71.611v-2.053a8.373 8.373 0 0 0 -8.374-8.373z" fill="#9297ab"/><path d="m99.806 125.635h-71.612a1 1 0 0 1 -1-1v-2.053a9.384 9.384 0 0 1 9.374-9.373h54.864a9.384 9.384 0 0 1 9.374 9.373v2.053a1 1 0 0 1 -1 1zm-70.611-2h69.611v-1.053a7.382 7.382 0 0 0 -7.374-7.373h-54.864a7.382 7.382 0 0 0 -7.374 7.373z" fill="#2f3a5a"/><path d="m9.085 11.44h109.83v70.159h-109.83z" fill="#81dafc"/><circle cx="64" cy="90.136" fill="#707583" r="3.39"/><path d="m118.919 82.6h-109.837a1 1 0 0 1 -1-1v-70.153a1 1 0 0 1 1-1h109.837a1 1 0 0 1 1 1v70.153a1 1 0 0 1 -1 1zm-108.837-2h107.837v-68.153h-107.837z" fill="#2f3a5a"/><path d="m82.818 76.635v-11.526a54.045 54.045 0 0 0 -11.555-4.49v-9.3l-7.263 1.218-7.26-1.22v9.3a57.545 57.545 0 0 0 -7.628 2.593v13.425z" fill="#e8c79c"/><path d="m82.818 77.636h-33.7a1 1 0 0 1 -1-1v-13.424a1 1 0 0 1 .611-.921 59.691 59.691 0 0 1 7.017-2.44v-8.534a1 1 0 0 1 1.166-.986l7.088 1.192 7.1-1.192a1 1 0 0 1 1.166.986v8.533a53.7 53.7 0 0 1 11.034 4.386 1 1 0 0 1 .513.874v11.526a1 1 0 0 1 -.995 1zm-32.7-2h31.7v-9.936a54.272 54.272 0 0 0 -10.795-4.114 1 1 0 0 1 -.76-.971v-8.115l-6.095 1.024a.991.991 0 0 1 -.331 0l-6.094-1.024v8.119a1 1 0 0 1 -.759.971 57.033 57.033 0 0 0 -6.869 2.291z" fill="#2f3a5a"/><path d="m91.285 81.6c-.189-4.513-.87-9.2-2.682-11.765-2.621-3.715-8.684-6.374-12.9-7.848a13.75 13.75 0 0 1 -23.4 0c-4.216 1.474-10.279 4.133-12.9 7.848-1.812 2.565-2.493 7.25-2.682 11.765z" fill="#ffc943"/><path d="m80.291 69.833c1.809 2.567 2.493 7.252 2.682 11.767h8.311c-.189-4.513-.87-9.2-2.682-11.765-2.621-3.715-8.684-6.374-12.9-7.848a13.306 13.306 0 0 1 -2.112 2.629 18.74 18.74 0 0 1 6.701 5.217z" fill="#f7b521"/><path d="m91.285 82.6h-54.564a1 1 0 0 1 -1-1.042c.244-5.818 1.208-9.957 2.865-12.3 2.736-3.879 8.79-6.608 13.386-8.214a1 1 0 0 1 1.181.418 12.751 12.751 0 0 0 21.7 0 1 1 0 0 1 1.181-.418c4.6 1.606 10.649 4.335 13.387 8.215 1.657 2.344 2.621 6.482 2.865 12.3a1 1 0 0 1 -1 1.042zm-53.512-2h52.46c-.288-4.813-1.129-8.324-2.447-10.188-2.392-3.391-8.06-5.9-11.679-7.218a14.752 14.752 0 0 1 -24.208 0c-3.619 1.323-9.287 3.829-11.679 7.217-1.32 1.863-2.159 5.373-2.447 10.189z" fill="#2f3a5a"/><ellipse cx="78.212" cy="42.98" fill="#e8c79c" rx="3.751" ry="1.94" transform="matrix(.31 -.951 .951 .31 13.084 103.995)"/><path d="m77.368 47.6a2.028 2.028 0 0 1 -.63-.1 2.648 2.648 0 0 1 -1.64-2.26 6.9 6.9 0 0 1 .319-3.17c.841-2.574 2.676-4.122 4.27-3.6a2.649 2.649 0 0 1 1.64 2.26 6.909 6.909 0 0 1 -.319 3.169c-.732 2.234-2.217 3.701-3.64 3.701zm1.662-7.238c-.276 0-1.187.719-1.712 2.329a4.964 4.964 0 0 0 -.247 2.226c.084.513.256.671.287.681.223.08 1.2-.637 1.748-2.324a4.957 4.957 0 0 0 .247-2.226c-.083-.513-.256-.671-.287-.681a.111.111 0 0 0 -.036-.008z" fill="#2f3a5a"/><ellipse cx="49.829" cy="42.98" fill="#e8c79c" rx="1.94" ry="3.751" transform="matrix(.951 -.31 .31 .951 -10.877 17.583)"/><path d="m50.673 47.6c-1.423 0-2.908-1.464-3.639-3.7-.84-2.575-.272-4.91 1.321-5.43a2.644 2.644 0 0 1 2.657.857 7.463 7.463 0 0 1 1.932 5.917 2.647 2.647 0 0 1 -1.644 2.256 2.028 2.028 0 0 1 -.627.1zm-1.7-7.233c-.223.073-.591 1.219-.041 2.908s1.527 2.4 1.748 2.324c.031-.01.2-.168.287-.681a5.5 5.5 0 0 0 -1.361-4.17c-.341-.335-.582-.393-.633-.38z" fill="#2f3a5a"/><path d="m64 24.2c-17.221 1.3-13.087 7.526-13.087 16.81s5.861 16.811 13.087 16.811 13.09-7.526 13.09-16.811 2.947-18.02-13.09-16.81z" fill="#e8c79c"/><path d="m64 58.821c-7.769 0-14.089-7.99-14.089-17.811 0-1.565-.12-3.034-.236-4.454-.3-3.637-.554-6.778 1.52-9.205 2.014-2.357 5.94-3.637 12.73-4.149 5.861-.441 9.634.363 11.874 2.534 2.79 2.7 2.6 6.991 2.4 11.529-.054 1.222-.11 2.485-.11 3.744.003 9.822-6.317 17.812-14.089 17.812zm.078-33.621c-6.133.462-9.743 1.56-11.36 3.454-1.533 1.794-1.318 4.419-1.047 7.743.114 1.392.243 2.969.243 4.616 0 8.718 5.423 15.811 12.089 15.811s12.089-7.095 12.089-15.814c0-1.3.057-2.589.112-3.833.188-4.253.35-7.926-1.795-10-1.774-1.72-5.154-2.367-10.331-1.976z" fill="#2f3a5a"/><path d="m50.966 42.514s-1.029-5.459 2.277-7.663l-.664-5.462s6.312-1.5 10.32 1c0 0 9.418-1.7 10.32-5.411 0 0 .2 9.519 3.306 9.919l.514 7.615s3.494-13.827 2.492-17.534-5.11-2.4-5.11-2.4 2.2-5.11-6.914-6.012-18.936 4.807-19.737 10.217 3.196 15.731 3.196 15.731z" fill="#84879c"/><path d="m50.965 43.514a1 1 0 0 1 -.932-.639c-.167-.432-4.083-10.631-3.252-16.239.931-6.288 11.624-11.983 20.827-11.068 3.816.377 6.317 1.53 7.434 3.425a4.434 4.434 0 0 1 .611 2.373 5.194 5.194 0 0 1 2.759.551 4.31 4.31 0 0 1 2.086 2.8c1.04 3.848-2.124 16.6-2.487 18.04a1 1 0 0 1 -1.967-.178l-.469-6.943c-2.1-1.057-2.893-4.948-3.187-7.879-2.985 2.4-8.519 3.472-9.31 3.615a1 1 0 0 1 -.708-.136c-2.768-1.73-6.9-1.325-8.685-1.041l.551 4.533a1 1 0 0 1 -.438.953c-2.724 1.816-1.858 6.6-1.849 6.646a1 1 0 0 1 -.708 1.146.989.989 0 0 1 -.276.041zm14.635-26.043c-8.057 0-16.193 5.064-16.844 9.459-.414 2.794.561 7.078 1.531 10.39a6.286 6.286 0 0 1 1.891-2.92l-.595-4.891a1 1 0 0 1 .761-1.093c.268-.063 6.43-1.491 10.736.922 3.416-.674 8.64-2.436 9.165-4.594a1 1 0 0 1 1.972.215c.088 4.1 1.109 8.778 2.435 8.949a1 1 0 0 1 .87.924l.046.688c.8-4.1 1.458-8.571 1-10.279a2.363 2.363 0 0 0 -1.107-1.564 4.079 4.079 0 0 0 -2.74-.147 1 1 0 0 1 -1.221-1.351 2.616 2.616 0 0 0 -.2-2.193c-.774-1.283-2.812-2.123-5.894-2.427-.595-.059-1.199-.088-1.806-.088z" fill="#2f3a5a"/></svg>