<svg id="icon" height="512" viewBox="0 0 128 128" width="512" xmlns="http://www.w3.org/2000/svg"><path d="m73.081 96.507v-18a84.4 84.4 0 0 0 -18.045-7.007v-14.529l-11.336 1.904-11.337-1.9v14.525a89.862 89.862 0 0 0 -11.912 4.05v20.957z" fill="#e8c79c"/><path d="m73.081 97.508h-52.632a1 1 0 0 1 -1-1v-20.963a1 1 0 0 1 .611-.921 92.3 92.3 0 0 1 11.3-3.9v-13.753a1 1 0 0 1 1.166-.986l11.174 1.876 11.17-1.877a1 1 0 0 1 1.166.986v13.753a83.752 83.752 0 0 1 17.531 6.911 1 1 0 0 1 .514.874v18a1 1 0 0 1 -1 1zm-51.632-2h50.632v-16.408a84.769 84.769 0 0 0 -17.281-6.634 1 1 0 0 1 -.76-.971v-13.342l-10.175 1.708a1 1 0 0 1 -.332 0l-10.172-1.708v13.347a1 1 0 0 1 -.76.971 89.849 89.849 0 0 0 -11.152 3.745z" fill="#2f3a5a"/><path d="m85.732 122.472h-84.066s-2.966-27.272 3.619-36.587c4.093-5.8 13.56-9.953 20.144-12.255a21.472 21.472 0 0 0 36.54 0c6.584 2.3 16.052 6.454 20.145 12.255 6.586 9.315 3.618 36.587 3.618 36.587z" fill="#f26176"/><path d="m85.732 122.472h-12.979s2.966-27.272-3.619-36.587c-2.29-3.251-6.264-5.979-10.464-8.15a20.78 20.78 0 0 0 3.3-4.1c6.584 2.3 16.052 6.454 20.145 12.255 6.585 9.31 3.617 36.582 3.617 36.582z" fill="#e95a6a"/><path d="m85.731 123.473h-84.065a1 1 0 0 1 -.994-.892c-.123-1.129-2.93-27.761 3.8-37.273 4.184-5.935 13.528-10.14 20.628-12.622a1.008 1.008 0 0 1 1.181.418 20.473 20.473 0 0 0 34.839 0 1 1 0 0 1 1.181-.419c7.1 2.482 16.444 6.688 20.632 12.623 6.725 9.512 3.918 36.144 3.795 37.272a1 1 0 0 1 -.997.893zm-83.157-2h82.249c.431-4.742 2.109-27.038-3.526-35.011-3.912-5.545-13.226-9.576-18.916-11.625a22.472 22.472 0 0 1 -37.364 0c-5.69 2.049-15 6.08-18.915 11.624-5.64 7.977-3.959 30.269-3.528 35.012z" fill="#2f3a5a"/><ellipse cx="65.888" cy="43.951" fill="#e8c79c" rx="5.858" ry="3.03" transform="matrix(.31 -.951 .951 .31 3.661 92.949)"/><path d="m64.586 50.6a2.653 2.653 0 0 1 -.826-.131 3.554 3.554 0 0 1 -2.181-3.085 10.218 10.218 0 0 1 .478-4.685c1.212-3.717 3.775-5.982 5.959-5.27 2.184.713 2.916 4.054 1.7 7.771a10.225 10.225 0 0 1 -2.377 4.064 4.036 4.036 0 0 1 -2.753 1.336zm2.614-11.3c-.852 0-2.393 1.415-3.242 4.018a8.328 8.328 0 0 0 -.4 3.742c.134.817.443 1.381.828 1.506s.967-.146 1.557-.728a8.328 8.328 0 0 0 1.881-3.26c.92-2.819.364-4.992-.423-5.249a.636.636 0 0 0 -.201-.029z" fill="#2f3a5a"/><ellipse cx="21.565" cy="43.951" fill="#e8c79c" rx="3.03" ry="5.858" transform="matrix(.951 -.31 .31 .951 -12.573 8.861)"/><path d="m22.867 50.6a4.036 4.036 0 0 1 -2.756-1.336 11.1 11.1 0 0 1 -2.855-8.749 3.558 3.558 0 0 1 2.182-3.086c2.187-.712 4.746 1.552 5.959 5.27a10.219 10.219 0 0 1 .479 4.685 3.556 3.556 0 0 1 -2.183 3.085 2.642 2.642 0 0 1 -.826.131zm-2.809-11.27c-.386.126-.7.689-.829 1.507a9.125 9.125 0 0 0 2.286 7c.59.582 1.173.854 1.557.728s.7-.689.829-1.506a8.344 8.344 0 0 0 -.405-3.742c-.921-2.821-2.657-4.243-3.437-3.988z" fill="#2f3a5a"/><ellipse cx="43.699" cy="40.875" fill="#e8c79c" rx="20.441" ry="26.252"/><path d="m43.7 68.127c-11.822 0-21.44-12.225-21.44-27.251s9.617-27.252 21.44-27.252 21.44 12.225 21.44 27.251-9.619 27.252-21.44 27.252zm0-52.5c-10.72 0-19.44 11.328-19.44 25.252s8.719 25.248 19.44 25.248 19.44-11.327 19.44-25.252-8.721-25.251-19.44-25.251z" fill="#2f3a5a"/><path d="m23.748 44.853s.134-16.848 4.68-18.784 23.972 5.647 30.035-1.169c2.883 5.452 5.452 11.909 5.349 19.76 0 0 4.9-4.061 3.554-17.884s-6.48-20.551-25.232-21.222-21.774 11.831-23.054 19.181 1.232 15.849 4.668 20.118z" fill="#84879c"/><path d="m23.748 45.854a1 1 0 0 1 -.779-.373c-3.394-4.218-6.255-12.982-4.874-20.917 1.081-6.207 3.6-20.714 24.076-20.009 20.179.723 24.884 8.659 26.19 22.124 1.377 14.187-3.693 18.57-3.91 18.75a1 1 0 0 1 -1.639-.783 38.383 38.383 0 0 0 -4.632-18.123c-4.574 3.531-13.195 2.177-20.227 1.077-3.971-.623-7.719-1.21-9.133-.609-2.87 1.221-4.02 11.609-4.072 17.871a1 1 0 0 1 -.672.936.99.99 0 0 1 -.328.056zm16.919-39.327c-15.295 0-19.012 9.25-20.6 18.379a27.549 27.549 0 0 0 2.783 16.731c.281-5.37 1.325-14.842 5.188-16.487 1.938-.827 5.594-.253 10.226.473 7.123 1.117 15.987 2.507 19.454-1.389a1 1 0 0 1 1.631.2 42.942 42.942 0 0 1 5.369 17.114c1.149-2.426 2.4-6.967 1.654-14.673-1.229-12.662-5.462-19.648-24.272-20.322-.489-.017-.967-.026-1.433-.026z" fill="#2f3a5a"/><path d="m127 16.85h-50.008v32.75h6.695v13.017l8.398-13.017h34.915z" fill="#dbe2eb"/><path d="m83.687 63.617a1 1 0 0 1 -1-1v-12.017h-5.695a1 1 0 0 1 -1-1v-32.75a1 1 0 0 1 1-1h50.008a1 1 0 0 1 1 1v32.75a1 1 0 0 1 -1 1h-34.37l-8.1 12.559a1 1 0 0 1 -.843.458zm-5.695-15.017h5.694a1 1 0 0 1 1 1v9.623l6.559-10.165a1 1 0 0 1 .84-.458h33.915v-30.75h-48.008z" fill="#2f3a5a"/><g fill="#bac2d3"><path d="m118 26.862h-30.587a1 1 0 0 1 0-2h30.587a1 1 0 0 1 0 2z"/><path d="m118 33.866h-30.587a1 1 0 1 1 0-2h30.587a1 1 0 0 1 0 2z"/><path d="m118 40.87h-30.587a1 1 0 0 1 0-2h30.587a1 1 0 0 1 0 2z"/></g></svg>