<svg id="icon" height="512" viewBox="0 0 128 128" width="512" xmlns="http://www.w3.org/2000/svg"><path d="m13.396 1h101.209v101.209h-101.209z" fill="#e8c79c"/><path d="m114.6 103.209h-101.2a1 1 0 0 1 -1-1v-101.209a1 1 0 0 1 1-1h101.2a1 1 0 0 1 1 1v101.209a1 1 0 0 1 -1 1zm-100.209-2h99.209v-99.209h-99.2z" fill="#2f3a5a"/><path d="m23.972 11.577h80.055v80.055h-80.055z" fill="#cee7fd"/><path d="m104.03 11.58v80.05h-80.06v-5.38h74.86v-74.67z" fill="#accfe8"/><path d="m104.027 92.632h-80.054a1 1 0 0 1 -1-1v-80.055a1 1 0 0 1 1-1h80.055a1 1 0 0 1 1 1v80.055a1 1 0 0 1 -1.001 1zm-79.055-2h78.055v-78.055h-78.054z" fill="#2f3a5a"/><g fill="#707583"><path d="m84.815 125.915a1 1 0 0 1 -1-.923c-1.118-14.421-1.886-35.814 4.34-55.019a1 1 0 0 1 1.9.617c-6.116 18.865-5.354 40-4.248 54.247a1 1 0 0 1 -.92 1.074z"/><path d="m42.047 125.915h-.078a1 1 0 0 1 -.92-1.074c1.106-14.25 1.869-35.377-4.248-54.247a1 1 0 0 1 1.9-.617c6.227 19.208 5.459 40.6 4.34 55.019a1 1 0 0 1 -.994.919z"/><path d="m41.308 85.4a1 1 0 0 1 -.707-1.707l14.119-14.118a1 1 0 0 1 1.414 1.414l-14.119 14.119a1 1 0 0 1 -.707.292z"/><path d="m42.679 98.414a1 1 0 0 1 -.707-1.707l27.128-27.132a1 1 0 0 1 1.414 1.414l-27.128 27.132a1 1 0 0 1 -.707.293z"/><path d="m42.71 114.688a1 1 0 0 1 -.71-1.708l43.408-43.405a1 1 0 0 1 1.414 1.414l-43.405 43.406a1 1 0 0 1 -.707.293z"/><path d="m47.524 126.176a1 1 0 0 1 -.782-1.622c5.553-7 12.262-12.984 18.75-18.775 6.608-5.9 13.442-12 19.029-19.149a1 1 0 0 1 1.576 1.23c-5.7 7.294-12.6 13.454-19.273 19.411-6.424 5.729-13.069 11.664-18.515 18.529a1 1 0 0 1 -.785.376z"/><path d="m62 128a1 1 0 0 1 -.707-1.707l21.861-21.861a1 1 0 0 1 1.414 1.414l-21.856 21.861a1 1 0 0 1 -.712.293z"/><path d="m85.751 85.3a1 1 0 0 1 -.707-.293l-14.021-14.018a1 1 0 0 1 1.414-1.414l14.021 14.025a1 1 0 0 1 -.707 1.707z"/><path d="m84.241 98.177a1 1 0 0 1 -.707-.293l-26.894-26.895a1 1 0 0 1 1.414-1.414l26.894 26.895a1 1 0 0 1 -.707 1.707z"/><path d="m84.06 114.3a1 1 0 0 1 -.707-.293l-43.017-43.018a1 1 0 0 1 1.414-1.414l43.017 43.017a1 1 0 0 1 -.707 1.707z"/><path d="m79.592 126.134a1 1 0 0 1 -.779-.372c-5.408-6.708-11.964-12.523-18.3-18.147-6.828-6.059-13.89-12.324-19.6-19.761a1 1 0 0 1 1.586-1.219c5.6 7.286 12.586 13.486 19.345 19.483 6.4 5.679 13.019 11.551 18.531 18.388a1 1 0 0 1 -.777 1.628z"/><path d="m65.841 128a1 1 0 0 1 -.707-.293c-3.327-3.326-7.359-7.185-11.259-10.915s-7.948-7.6-11.29-10.946a1 1 0 0 1 1.415-1.414c3.327 3.326 7.359 7.185 11.259 10.915s7.948 7.6 11.29 10.946a1 1 0 0 1 -.708 1.707z"/></g><rect fill="#d9e2e9" height="6.45" rx="3.225" width="65.54" x="30.661" y="63.832"/><path d="m92.977 71.282h-59.09a4.225 4.225 0 1 1 0-8.45h59.09a4.225 4.225 0 0 1 0 8.45zm-59.09-6.45a2.225 2.225 0 1 0 0 4.45h59.09a2.225 2.225 0 0 0 0-4.45z" fill="#707583"/></svg>