<svg id="icon" height="512" viewBox="0 0 128 128" width="512" xmlns="http://www.w3.org/2000/svg"><path d="m64 32.5-63 63h126zm0 23.7 21.079 21.079h-42.158z" fill="#f7b521"/><path d="m10.657 91.5 53.343-53.343 53.343 53.343zm22.607-10.221h61.472l-30.736-30.737z" fill="#ffc943"/><g fill="#2f3a5a"><path d="m127 96.5h-126a1 1 0 0 1 -.707-1.707l63-63a1 1 0 0 1 1.414 0l63 63a1 1 0 0 1 -.707 1.707zm-123.586-2h121.172l-60.586-60.586zm81.666-16.221h-42.16a1 1 0 0 1 -.707-1.707l21.08-21.08a1.029 1.029 0 0 1 1.414 0l21.08 21.08a1 1 0 0 1 -.707 1.707zm-39.745-2h37.331l-18.666-18.666z"/><path d="m18.891 96.5a1 1 0 0 1 -1-1v-7.525a1 1 0 0 1 2 0v7.525a1 1 0 0 1 -1 1z"/><path d="m25.354 96.5a1 1 0 0 1 -1-1v-4.879a1 1 0 0 1 2 0v4.879a1 1 0 0 1 -1 1z"/><path d="m31.818 96.5a1 1 0 0 1 -1-1v-7.525a1 1 0 1 1 2 0v7.525a1 1 0 0 1 -1 1z"/><path d="m38.282 96.5a1 1 0 0 1 -1-1v-4.879a1 1 0 0 1 2 0v4.879a1 1 0 0 1 -1 1z"/><path d="m44.746 96.5a1 1 0 0 1 -1-1v-7.525a1 1 0 0 1 2 0v7.525a1 1 0 0 1 -1 1z"/><path d="m51.209 96.5a1 1 0 0 1 -1-1v-4.879a1 1 0 0 1 2 0v4.879a1 1 0 0 1 -1 1z"/><path d="m57.673 96.5a1 1 0 0 1 -1-1v-7.525a1 1 0 0 1 2 0v7.525a1 1 0 0 1 -1 1z"/><path d="m64.137 96.5a1 1 0 0 1 -1-1v-4.879a1 1 0 0 1 2 0v4.879a1 1 0 0 1 -1 1z"/><path d="m70.6 96.5a1 1 0 0 1 -1-1v-7.525a1 1 0 0 1 2 0v7.525a1 1 0 0 1 -1 1z"/><path d="m77.064 96.5a1 1 0 0 1 -1-1v-4.879a1 1 0 0 1 2 0v4.879a1 1 0 0 1 -1 1z"/><path d="m83.528 96.5a1 1 0 0 1 -1-1v-7.525a1 1 0 0 1 2 0v7.525a1 1 0 0 1 -1 1z"/><path d="m89.992 96.5a1 1 0 0 1 -1-1v-4.879a1 1 0 0 1 2 0v4.879a1 1 0 0 1 -1 1z"/><path d="m96.456 96.5a1 1 0 0 1 -1-1v-7.525a1 1 0 0 1 2 0v7.525a1 1 0 0 1 -1 1z"/><path d="m102.919 96.5a1 1 0 0 1 -1-1v-4.879a1 1 0 0 1 2 0v4.879a1 1 0 0 1 -1 1z"/><path d="m109.383 96.5a1 1 0 0 1 -1-1v-7.525a1 1 0 0 1 2 0v7.525a1 1 0 0 1 -1 1z"/><path d="m115.847 96.5a1 1 0 0 1 -1-1v-4.879a1 1 0 0 1 2 0v4.879a1 1 0 0 1 -1 1z"/></g></svg>