<svg id="icon" height="512" viewBox="0 0 128 128" width="512" xmlns="http://www.w3.org/2000/svg"><path d="m46.275 5.955s-7.922 3.145-6.856 22.477h6.141s-1.743-10.555 2.914-17.167-2.199-5.31-2.199-5.31z" fill="#b0b3c1"/><path d="m45.561 29.432h-6.142a1 1 0 0 1 -1-.945c-1.091-19.825 7.136-23.322 7.487-23.462a.973.973 0 0 1 .182-.053c.349-.067 3.444-.6 4.61 1.214.828 1.284.368 3.134-1.406 5.654-4.37 6.205-2.762 16.326-2.745 16.428a1 1 0 0 1 -.987 1.163zm-5.188-2h4.051c-.318-3.006-.726-11.121 3.233-16.743 1.373-1.949 1.591-3.06 1.361-3.418-.286-.444-1.579-.487-2.439-.354-.757.396-6.879 4.127-6.206 20.515z" fill="#2f3a5a"/><path d="m81.334 5.955s7.922 3.145 6.855 22.477h-6.141s1.743-10.555-2.914-17.167 2.2-5.31 2.2-5.31z" fill="#b0b3c1"/><path d="m88.189 29.432h-6.141a1 1 0 0 1 -.987-1.162c.017-.1 1.616-10.236-2.745-16.429-1.774-2.521-2.234-4.37-1.406-5.654 1.166-1.809 4.262-1.28 4.61-1.214a.973.973 0 0 1 .182.053c.351.14 8.579 3.637 7.485 23.461a1 1 0 0 1 -.998.945zm-5-2h4.051c.669-16.388-5.45-20.118-6.207-20.515-.86-.134-2.154-.091-2.438.354-.23.358-.012 1.469 1.361 3.418 3.955 5.622 3.544 13.737 3.23 16.743z" fill="#2f3a5a"/><path d="m100.582 80.685-12.323 46.315h15.584a8.453 8.453 0 0 0 8.462-8.505c-.024-3.783.032-9.028.277-16.121.648-18.81-12-21.689-12-21.689z" fill="#fac77c"/><path d="m103.842 128h-15.584a1 1 0 0 1 -.966-1.257l12.324-46.314a1 1 0 0 1 1.188-.718c.135.03 13.446 3.285 12.777 22.7-.212 6.153-.306 11.563-.277 16.081a9.453 9.453 0 0 1 -9.462 9.508zm-14.283-2h14.283a7.454 7.454 0 0 0 7.462-7.5c-.029-4.545.065-9.982.278-16.162.511-14.814-7.539-19.279-10.306-20.372z" fill="#2f3a5a"/><path d="m27.418 80.685 12.323 46.315h-15.583a8.453 8.453 0 0 1 -8.462-8.505c.024-3.783-.032-9.028-.277-16.121-.649-18.81 11.999-21.689 11.999-21.689z" fill="#fac77c"/><path d="m39.742 128h-15.584a9.453 9.453 0 0 1 -9.462-9.512c.029-4.517-.064-9.927-.277-16.08-.669-19.408 12.643-22.667 12.781-22.697a1 1 0 0 1 1.188.718l12.324 46.314a1 1 0 0 1 -.97 1.257zm-13.021-46.044c-2.791 1.062-10.819 5.427-10.3 20.384.213 6.18.307 11.617.278 16.161a7.454 7.454 0 0 0 7.462 7.5h14.28z" fill="#2f3a5a"/><path d="m63.59 18.7a40.214 40.214 0 0 0 -40.214 40.217v61.932a6.151 6.151 0 0 0 6.151 6.151h68.125a6.151 6.151 0 0 0 6.152-6.152v-61.931a40.214 40.214 0 0 0 -40.214-40.217z" fill="#fac77c"/><path d="m103.8 58.914v61.933a6.155 6.155 0 0 1 -6.152 6.153h-68.126a6.162 6.162 0 0 1 -5.487-3.37h68.126a6.144 6.144 0 0 0 6.14-6.153v-61.934a40.136 40.136 0 0 0 -16.538-32.5 40.2 40.2 0 0 1 22.037 35.871z" fill="#e5ae5c"/><path d="m97.652 128h-68.125a7.16 7.16 0 0 1 -7.152-7.151v-61.932a41.26 41.26 0 0 1 41.214-41.217 41.26 41.26 0 0 1 41.211 41.217v61.932a7.159 7.159 0 0 1 -7.148 7.151zm-34.062-108.3a39.258 39.258 0 0 0 -39.215 39.217v61.932a5.157 5.157 0 0 0 5.152 5.151h68.125a5.157 5.157 0 0 0 5.151-5.151v-61.932a39.258 39.258 0 0 0 -39.213-39.217z" fill="#2f3a5a"/><rect fill="#dbe2eb" height="48.806" rx="7.031" width="54.806" x="36.186" y="69.483"/><path d="m91 76.51v34.748a7.033 7.033 0 0 1 -7.041 7.028h-40.746a7.024 7.024 0 0 1 -6.571-4.533 6.8 6.8 0 0 0 1.463.157h40.745a7.033 7.033 0 0 0 7.041-7.028v-34.748a6.88 6.88 0 0 0 -.457-2.495 7.03 7.03 0 0 1 5.566 6.871z" fill="#bac2d3"/><path d="m83.961 119.289h-40.744a8.04 8.04 0 0 1 -8.031-8.031v-34.744a8.04 8.04 0 0 1 8.031-8.031h40.744a8.04 8.04 0 0 1 8.031 8.031v34.744a8.04 8.04 0 0 1 -8.031 8.031zm-40.744-48.807a6.038 6.038 0 0 0 -6.031 6.031v34.744a6.038 6.038 0 0 0 6.031 6.031h40.744a6.038 6.038 0 0 0 6.031-6.031v-34.743a6.038 6.038 0 0 0 -6.031-6.031z" fill="#2f3a5a"/><rect fill="#dbe2eb" height="19.634" rx="5.236" width="54.806" x="36.515" y="40.167"/><path d="m91.325 45.406v9.157a5.238 5.238 0 0 1 -5.238 5.237h-44.337a5.235 5.235 0 0 1 -5.16-4.324 5.284 5.284 0 0 0 .914.078h44.337a5.23 5.23 0 0 0 5.238-5.238v-9.156a5.284 5.284 0 0 0 -.079-.914 5.237 5.237 0 0 1 4.325 5.16z" fill="#bac2d3"/><path d="m85.757 60.8h-44.335a6.243 6.243 0 0 1 -6.235-6.236v-9.164a6.243 6.243 0 0 1 6.236-6.236h44.334a6.243 6.243 0 0 1 6.236 6.236v9.162a6.243 6.243 0 0 1 -6.236 6.238zm-44.335-19.633a4.241 4.241 0 0 0 -4.235 4.233v9.162a4.241 4.241 0 0 0 4.235 4.238h44.335a4.241 4.241 0 0 0 4.236-4.236v-9.164a4.241 4.241 0 0 0 -4.236-4.236z" fill="#2f3a5a"/><path d="m78.705 12.331a39.5 39.5 0 0 0 -30.231 0l-2.914-7.031a47.113 47.113 0 0 1 36.058 0z" fill="#84879c"/><g fill="#2f3a5a"><path d="m78.705 12.62a1 1 0 0 1 -.383-.076 38.244 38.244 0 0 0 -29.465 0 1 1 0 0 1 -1.307-.544l-2.913-7.031a1 1 0 0 1 .541-1.307 47.8 47.8 0 0 1 36.822 0 1 1 0 0 1 .541 1.307l-2.912 7.031a1 1 0 0 1 -.924.617zm-15.116-5.028a40.4 40.4 0 0 1 14.57 2.732l2.149-5.187a45.791 45.791 0 0 0 -33.437 0l2.149 5.188a40.4 40.4 0 0 1 14.569-2.733z"/><path d="m81.269 79.713h-35.8a1 1 0 0 1 0-2h35.8a1 1 0 0 1 0 2z"/><path d="m81.269 48.474h-35.8a1 1 0 0 1 0-2h35.8a1 1 0 1 1 0 2z"/></g></svg>