<svg id="icon" height="512" viewBox="0 0 128 128" width="512" xmlns="http://www.w3.org/2000/svg"><path d="m30.72 16.46a4 4 0 1 1 4.01-4 4 4 0 0 1 -4.01 4zm16.64 0a4 4 0 1 1 4.01-4 4 4 0 0 1 -4.01 4zm16.64 0a4 4 0 1 1 4-4 4 4 0 0 1 -4 4zm16.64 0a4 4 0 1 1 4-4 4.007 4.007 0 0 1 -4 4zm16.64 0a4 4 0 1 1 4-4 4.007 4.007 0 0 1 -4 4zm16.6 93.206v-105.636h-99.76v122.97h80.47" fill="#d9e2e9"/><path d="m94.59 128h-80.47a1 1 0 0 1 -1-1v-122.97a1 1 0 0 1 1-1h99.76a1 1 0 0 1 1 1v105.636a1 1 0 0 1 -2 0v-104.636h-97.76v120.97h79.47a1 1 0 0 1 0 2zm2.69-110.54a5 5 0 1 1 5-5 5.011 5.011 0 0 1 -5 5zm0-8.01a3 3 0 1 0 3 3.01 3.013 3.013 0 0 0 -3-3.01zm-16.64 8.01a5 5 0 1 1 5-5 5.011 5.011 0 0 1 -5 5zm0-8.01a3 3 0 1 0 3 3.01 3.014 3.014 0 0 0 -3-3.01zm-16.64 8.01a5 5 0 1 1 5-5 5.006 5.006 0 0 1 -5 5zm0-8.01a3 3 0 1 0 3 3.01 3.009 3.009 0 0 0 -3-3.01zm-16.64 8.01a5 5 0 1 1 5.01-5 5.006 5.006 0 0 1 -5.01 5zm0-8.01a3 3 0 1 0 3.01 3.01 3.009 3.009 0 0 0 -3.01-3.01zm-16.64 8.01a5 5 0 1 1 5.01-5 5.006 5.006 0 0 1 -5.01 5zm0-8.01a3 3 0 1 0 3.01 3.01 3.009 3.009 0 0 0 -3.01-3.01z" fill="#2f3a5a"/><path d="m100.364 34h-72.722a1 1 0 1 1 0-2h72.722a1 1 0 1 1 0 2z" fill="#9297ab"/><path d="m100.364 47.808h-72.722a1 1 0 1 1 0-2h72.722a1 1 0 1 1 0 2z" fill="#9297ab"/><path d="m100.364 61.612h-72.722a1 1 0 1 1 0-2h72.722a1 1 0 1 1 0 2z" fill="#9297ab"/><path d="m100.364 75.417h-72.722a1 1 0 1 1 0-2h72.722a1 1 0 1 1 0 2z" fill="#9297ab"/><path d="m100.364 89.222h-72.722a1 1 0 1 1 0-2h72.722a1 1 0 1 1 0 2z" fill="#9297ab"/><path d="m100.364 103.026h-72.722a1 1 0 1 1 0-2h72.722a1 1 0 0 1 0 2z" fill="#9297ab"/><g fill="#2f3a5a"><path d="m30.721 13.459a1 1 0 0 1 -1-1v-11.459a1 1 0 0 1 2 0v11.459a1 1 0 0 1 -1 1z"/><path d="m47.36 13.459a1 1 0 0 1 -1-1v-11.459a1 1 0 0 1 2 0v11.459a1 1 0 0 1 -1 1z"/><path d="m64 13.459a1 1 0 0 1 -1-1v-11.459a1 1 0 0 1 2 0v11.459a1 1 0 0 1 -1 1z"/><path d="m80.64 13.459a1 1 0 0 1 -1-1v-11.459a1 1 0 0 1 2 0v11.459a1 1 0 0 1 -1 1z"/><path d="m97.279 13.459a1 1 0 0 1 -1-1v-11.459a1 1 0 0 1 2 0v11.459a1 1 0 0 1 -1 1z"/><path d="m94.592 128a1 1 0 0 1 -1-1v-17.334a1 1 0 0 1 1-1h19.288a1 1 0 0 1 .668 1.744l-19.288 17.334a1 1 0 0 1 -.668.256zm1-17.334v14.091l15.679-14.091z"/></g></svg>