<svg id="icon" height="512" viewBox="0 0 128 128" width="512" xmlns="http://www.w3.org/2000/svg"><path d="m63.002 67.732 63.998 35.487v-78.438z" fill="#f0f5f9"/><path d="m127 104.22a1.009 1.009 0 0 1 -.485-.125l-64-35.487a1 1 0 0 1 -.072-1.705l64-42.952a1 1 0 0 1 1.558.83v78.439a1 1 0 0 1 -1 1zm-62.082-36.569 61.082 33.87v-74.866z" fill="#2f3a5a"/><path d="m64.998 67.732-63.998 35.487v-78.438z" fill="#f0f5f9"/><path d="m1 104.22a1 1 0 0 1 -1-1v-78.44a1 1 0 0 1 1.558-.83l64 42.952a1 1 0 0 1 -.072 1.705l-64 35.487a1.009 1.009 0 0 1 -.486.126zm1-77.565v74.866l61.082-33.87z" fill="#2f3a5a"/><path d="m65.979 56.443a3.226 3.226 0 0 0 -3.958.032l-61.021 46.744h126z" fill="#f0f5f9"/><path d="m127 104.22h-126a1 1 0 0 1 -.608-1.794l61.02-46.744a4.23 4.23 0 0 1 5.167-.039l.009.007 61.021 46.776a1 1 0 0 1 -.609 1.794zm-123.05-2h120.1l-58.674-44.979a2.219 2.219 0 0 0 -2.744.025z" fill="#2f3a5a"/><g opacity=".75"><path d="m1 24.781 60.221 50.86.014.01a4.48 4.48 0 0 0 5.542-.042l60.223-50.828z" fill="#c1cdd3"/></g><path d="m62.021 71.557a3.226 3.226 0 0 0 3.958-.032l61.021-46.744h-126z" fill="#f0f5f9"/><path d="m63.979 73.22a4.258 4.258 0 0 1 -2.559-.862l-.009-.007-61.019-46.777a1 1 0 0 1 .608-1.794h126a1 1 0 0 1 .608 1.794l-61.02 46.744a4.26 4.26 0 0 1 -2.609.902zm-1.355-2.461a2.219 2.219 0 0 0 2.744-.025l58.682-44.954h-120.102z" fill="#2f3a5a"/></svg>