<svg id="icon" height="512" viewBox="0 0 128 128" width="512" xmlns="http://www.w3.org/2000/svg"><path d="m123.327 2.167h-118.654a3.633 3.633 0 0 0 -2.919 5.823c2.836 3.628 5.687 9.25 6.6 17.662v84.048a16.141 16.141 0 0 0 16.141 16.141h79.015a16.141 16.141 0 0 0 16.139-16.141v-84.048c.909-8.412 3.761-14.034 6.6-17.662a3.633 3.633 0 0 0 -2.922-5.823z" fill="#d9e2e9"/><path d="m119.653 58.142v51.552a16.138 16.138 0 0 1 -16.142 16.142h-79.011a16.138 16.138 0 0 1 -16.144-16.142v-51.552z" fill="#5fc4f8"/><path d="m123.331 2.161h-16.837a3.636 3.636 0 0 1 2.91 5.834c-2.837 3.619-5.689 9.251-6.587 17.662v32.722l16.837 2.971v-35.694c.9-8.411 3.749-14.043 6.587-17.662a3.636 3.636 0 0 0 -2.91-5.833z" fill="#c1cdd3"/><path d="m119.653 58.142v51.552a16.138 16.138 0 0 1 -16.142 16.142h-16.836a16.147 16.147 0 0 0 16.142-16.142v-51.552z" fill="#3dbce9"/><g fill="#2f3a5a"><path d="m103.508 126.84h-79.016a17.161 17.161 0 0 1 -17.141-17.14v-83.994c-.751-6.889-2.901-12.642-6.384-17.1a4.528 4.528 0 0 1 -.493-4.806 4.645 4.645 0 0 1 4.2-2.633h118.653a4.645 4.645 0 0 1 4.2 2.633 4.528 4.528 0 0 1 -.493 4.807c-3.483 4.458-5.632 10.211-6.384 17.1v83.993a17.161 17.161 0 0 1 -17.142 17.14zm-98.835-123.673a2.664 2.664 0 0 0 -2.4 1.51 2.506 2.506 0 0 0 .271 2.7c3.726 4.769 6.014 10.882 6.8 18.171a.99.99 0 0 1 .006.107v84.045a15.159 15.159 0 0 0 15.142 15.14h79.016a15.159 15.159 0 0 0 15.141-15.14v-84.048a.99.99 0 0 1 .006-.107c.788-7.289 3.076-13.4 6.8-18.171a2.506 2.506 0 0 0 .271-2.7 2.664 2.664 0 0 0 -2.4-1.51z"/><path d="m43.262 23.322h-16.9a1 1 0 0 1 0-2h16.9a1 1 0 0 1 0 2z"/><path d="m37.336 36.2h-10.974a1 1 0 0 1 0-2h10.974a1 1 0 0 1 0 2z"/><path d="m43.262 52.339h-16.9a1 1 0 0 1 0-2h16.9a1 1 0 0 1 0 2z"/><path d="m37.336 65.217h-10.974a1 1 0 0 1 0-2h10.974a1 1 0 1 1 0 2z"/><path d="m43.262 81.355h-16.9a1 1 0 0 1 0-2h16.9a1 1 0 0 1 0 2z"/><path d="m37.336 94.233h-10.974a1 1 0 0 1 0-2h10.974a1 1 0 0 1 0 2z"/><path d="m43.262 110.372h-16.9a1 1 0 1 1 0-2h16.9a1 1 0 1 1 0 2z"/></g></svg>